<?xml version="1.0" encoding="UTF-8" standalone="no"?>
<svg
xmlns:svg="http://www.w3.org/2000/svg"
xmlns="http://www.w3.org/2000/svg"
xmlns:xlink="http://www.w3.org/1999/xlink"
viewBox ="0 0 280 200"
>
<animateMotion/><defs><polygon points="0,0 6,8, 0,16 20,8" id="m_tmpl2"/><marker id="token_arrow"  markerUnits="userSpaceOnUse" markerWidth="20" markerHeight="16" viewBox="0 0 20 16" refX="14" refY="8" orient="auto"><use xlink:href="#m_tmpl2" fill="#60a0ff"/></marker></defs><defs><polygon points="0,0 0,4 0,8 16,4" id="m_tmpl3"/><marker id="link_arrow" markerUnits="strokeWidth" markerWidth="16" markerHeight="8" viewBox="0 0 16 8" refX="16" refY="4" orient="auto"><use xlink:href="#m_tmpl3" fill="#888888"/></marker></defs><rect x ="0" y="0" width="280" height="200" fill="#ffffff" stroke="#a0a0a0" stroke-width="0"/><g transform="translate(70,50) scale(1)"><g fill="#e8e8e8" stroke-width="0"><rect x="-19" y="-19" width="38" height="38" /></g></g><g transform="translate(70,50) scale(1)"><g fill="#ffffff" stroke="#a0a0a0" stroke-width="1"><rect x="-14" y="-14" width="28" height="28" rx="4" ry="4" /><rect x="18" y="-14" width="28" height="28" rx="4" ry="4" /><rect x="50" y="-14" width="28" height="28" rx="4" ry="4" /><rect x="82" y="-14" width="28" height="28" rx="4" ry="4" /><rect x="114" y="-14" width="28" height="28" rx="4" ry="4" /><rect x="146" y="-14" width="28" height="28" rx="4" ry="4" /></g><g font-size="9" font-family="Verdana" fill="#888888"><text id="" x="0" y="-22" dominant-baseline="central" text-anchor="middle">0</text><text id="" x="32" y="-22" dominant-baseline="central" text-anchor="middle">1</text><text id="" x="64" y="-22" dominant-baseline="central" text-anchor="middle">2</text><text id="" x="96" y="-22" dominant-baseline="central" text-anchor="middle">3</text><text id="" x="128" y="-22" dominant-baseline="central" text-anchor="middle">4</text><text id="" x="160" y="-22" dominant-baseline="central" text-anchor="middle">5</text></g></g><g transform="translate(70,150) scale(1)"><g fill="#ffffff" stroke="#a0a0a0" stroke-width="1"><rect x="-14" y="-14" width="28" height="28" rx="4" ry="4" /><rect x="18" y="-14" width="28" height="28" rx="4" ry="4" /><rect x="50" y="-14" width="28" height="28" rx="4" ry="4" /><rect x="82" y="-14" width="28" height="28" rx="4" ry="4" /><rect x="114" y="-14" width="28" height="28" rx="4" ry="4" /><rect x="146" y="-14" width="28" height="28" rx="4" ry="4" /></g><g font-size="9" font-family="Verdana" fill="#888888"><text id="" x="0" y="-22" dominant-baseline="central" text-anchor="middle">0</text><text id="" x="32" y="-22" dominant-baseline="central" text-anchor="middle">1</text><text id="" x="64" y="-22" dominant-baseline="central" text-anchor="middle">2</text><text id="" x="96" y="-22" dominant-baseline="central" text-anchor="middle">3</text><text id="" x="128" y="-22" dominant-baseline="central" text-anchor="middle">4</text><text id="" x="160" y="-22" dominant-baseline="central" text-anchor="middle">5</text></g></g><g transform="translate(84,100) scale(1)"><g fill="#ffffff" stroke="#a0a0a0" stroke-width="1"><rect x="-14" y="-14" width="28" height="28" rx="4" ry="4" /><rect x="18" y="-14" width="28" height="28" rx="4" ry="4" /><rect x="50" y="-14" width="28" height="28" rx="4" ry="4" /><rect x="82" y="-14" width="28" height="28" rx="4" ry="4" /><rect x="114" y="-14" width="28" height="28" rx="4" ry="4" /></g><g font-size="9" font-family="Verdana" fill="#888888"><text id="" x="0" y="-22" dominant-baseline="central" text-anchor="middle">0</text><text id="" x="32" y="-22" dominant-baseline="central" text-anchor="middle">1</text><text id="" x="64" y="-22" dominant-baseline="central" text-anchor="middle">2</text><text id="" x="96" y="-22" dominant-baseline="central" text-anchor="middle">3</text><text id="" x="128" y="-22" dominant-baseline="central" text-anchor="middle">4</text></g></g><g transform="translate(70,50) scale(1)"><g class="flash_g" fill="#ffffff" stroke="#ff1493" stroke-width="2"><rect x="-14" y="-14" width="28" height="28" rx="4" ry="4" /></g></g><g transform="translate(84,100) scale(1)"><g class="flash_g" fill="#ff1493" stroke="#ff1493" stroke-width="1"><rect x="82" y="-14" width="28" height="28" rx="4" ry="4" /></g><g fill="none" stroke="#a0a0a0" stroke-width="1"><rect x="82" y="-14" width="28" height="28" rx="4" ry="4" /></g></g><g transform="translate(70,50) scale(1)"><g stroke-width="0"><circle cx="0" cy="0" r="10" fill="#5393FF" id="var_A_2__0" /><circle cx="32" cy="0" r="10" fill="#67A7FF" id="var_A_2__1" /><circle cx="64" cy="0" r="10" fill="#4080F0" id="var_A_2__2" /><circle cx="96" cy="0" r="10" fill="#5393FF" id="var_A_2__3" /><circle cx="128" cy="0" r="10" fill="#4080F0" id="var_A_2__4" /><circle cx="160" cy="0" r="10" fill="#7BBBFF" id="var_A_2__5" /></g><g font-size="14" font-family="sans-serif" fill="#ffffff"><text id="text_A_2__0" x="0" y="0" dominant-baseline="central" text-anchor="middle">3</text><text id="text_A_2__1" x="32" y="0" dominant-baseline="central" text-anchor="middle">2</text><text id="text_A_2__2" x="64" y="0" dominant-baseline="central" text-anchor="middle">4</text><text id="text_A_2__3" x="96" y="0" dominant-baseline="central" text-anchor="middle">3</text><text id="text_A_2__4" x="128" y="0" dominant-baseline="central" text-anchor="middle">4</text><text id="text_A_2__5" x="160" y="0" dominant-baseline="central" text-anchor="middle">1</text></g><g font-size="14" font-family="sans-serif" fill="#4080f0"><text id="" x="-28" y="0" dominant-baseline="central" text-anchor="end">A</text></g></g><g transform="translate(70,150) scale(1)"><g stroke-width="0"></g><g font-size="14" font-family="sans-serif" fill="#ffffff"></g><g font-size="14" font-family="sans-serif" fill="#4080f0"><text id="" x="-28" y="0" dominant-baseline="central" text-anchor="end">B</text></g></g><g transform="translate(84,100) scale(1)"><g stroke-width="0"><circle cx="0" cy="0" r="10" fill="#8FCFFF" id="var_C_1__0" /><circle cx="32" cy="0" r="10" fill="#8FCFFF" id="var_C_1__1" /><circle cx="64" cy="0" r="10" fill="#8FCFFF" id="var_C_1__2" /><circle cx="96" cy="0" r="10" fill="#7BBBFF" id="var_C_1__3" /><circle cx="128" cy="0" r="10" fill="#8FCFFF" id="var_C_1__4" /></g><g font-size="14" font-family="sans-serif" fill="#ffffff"><text id="text_C_1__0" x="0" y="0" dominant-baseline="central" text-anchor="middle">0</text><text id="text_C_1__1" x="32" y="0" dominant-baseline="central" text-anchor="middle">0</text><text id="text_C_1__2" x="64" y="0" dominant-baseline="central" text-anchor="middle">0</text><text id="text_C_1__3" x="96" y="0" dominant-baseline="central" text-anchor="middle">1</text><text id="text_C_1__4" x="128" y="0" dominant-baseline="central" text-anchor="middle">0</text></g><g font-size="14" font-family="sans-serif" fill="#4080f0"><text id="" x="-28" y="0" dominant-baseline="central" text-anchor="end">C</text></g></g><text x="16" y="20" font-size="16" text-anchor="middle" fill="#888888" font-family="sans-serif" >2-1</text><text x="140" y="184" font-size="9" text-anchor="middle"  font-family="Hiragino Kaku Gothic ProN, メイリオ, sans-serif">3 の出現頻度を加算します。C[3]++</text></svg>

