<?xml version="1.0" encoding="UTF-8" standalone="no"?>
<svg
xmlns:svg="http://www.w3.org/2000/svg"
xmlns="http://www.w3.org/2000/svg"
xmlns:xlink="http://www.w3.org/1999/xlink"
width ="280"
height ="200"
viewBox ="0 0 280 200"
>
<defs><polygon points="0,0 6,6 0,12 18,6" id="m_tmpl2"/><marker id="token_arrow" markerUnits="strokeWidth" markerWidth="18" markerHeight="12" viewBox="0 0 18 12" refX="18" refY="6" orient="auto"><use xlink:href="#m_tmpl2" fill="#0000f0"/></marker></defs><defs><polygon points="0,0 0,4 0,8 16,4" id="m_tmpl3"/><marker id="link_arrow" markerUnits="strokeWidth" markerWidth="16" markerHeight="8" viewBox="0 0 16 8" refX="16" refY="4" orient="auto"><use xlink:href="#m_tmpl3" fill="#888888"/></marker></defs><g transform="translate(42,86) scale(1)"><g fill="#ffffff" stroke="#a0a0a0" stroke-width="1"><rect x="-14" y="-14" width="28" height="28" rx="4" ry="4" /><rect x="18" y="-14" width="28" height="28" rx="4" ry="4" /><rect x="50" y="-14" width="28" height="28" rx="4" ry="4" /><rect x="82" y="-14" width="28" height="28" rx="4" ry="4" /><rect x="114" y="-14" width="28" height="28" rx="4" ry="4" /><rect x="146" y="-14" width="28" height="28" rx="4" ry="4" /><rect x="178" y="-14" width="28" height="28" rx="4" ry="4" /></g><g font-size="9" font-family="Verdana" fill="#888888"><text id="" x="0" y="-25" dominant-baseline="central" text-anchor="middle">0</text><text id="" x="32" y="-25" dominant-baseline="central" text-anchor="middle">1</text><text id="" x="64" y="-25" dominant-baseline="central" text-anchor="middle">2</text><text id="" x="96" y="-25" dominant-baseline="central" text-anchor="middle">3</text><text id="" x="128" y="-25" dominant-baseline="central" text-anchor="middle">4</text><text id="" x="160" y="-25" dominant-baseline="central" text-anchor="middle">5</text><text id="" x="192" y="-25" dominant-baseline="central" text-anchor="middle">6</text></g></g></svg>

