<?xml version="1.0" encoding="UTF-8" standalone="no"?>
<svg
xmlns:svg="http://www.w3.org/2000/svg"
xmlns="http://www.w3.org/2000/svg"
xmlns:xlink="http://www.w3.org/1999/xlink"
width ="420"
height ="200"
viewBox ="0 0 420 200"
>
<defs><polygon points="0,0 6,6 0,12 18,6" id="m_tmpl2"/><marker id="token_arrow" markerUnits="strokeWidth" markerWidth="18" markerHeight="12" viewBox="0 0 18 12" refX="18" refY="6" orient="auto"><use xlink:href="#m_tmpl2" fill="#0000f0"/></marker></defs><defs><polygon points="0,0 0,4 0,8 16,4" id="m_tmpl3"/><marker id="link_arrow" markerUnits="strokeWidth" markerWidth="16" markerHeight="8" viewBox="0 0 16 8" refX="16" refY="4" orient="auto"><use xlink:href="#m_tmpl3" fill="#888888"/></marker></defs><g transform="translate(0,0) scale(1)"><g fill="#ffffff" stroke="#a0a0a0" stroke-width="1"><line x1="252" y1="154" x2="280" y2="112" stroke-linecap="round"/><rect x="238" y="140" width="28" height="28" rx="4" ry="4" /><line x1="196" y1="154" x2="168" y2="112" stroke-linecap="round"/><rect x="182" y="140" width="28" height="28" rx="4" ry="4" /><line x1="140" y1="154" x2="168" y2="112" stroke-linecap="round"/><rect x="126" y="140" width="28" height="28" rx="4" ry="4" /><line x1="84" y1="154" x2="56" y2="112" stroke-linecap="round"/><rect x="70" y="140" width="28" height="28" rx="4" ry="4" /><line x1="28" y1="154" x2="56" y2="112" stroke-linecap="round"/><rect x="14" y="140" width="28" height="28" rx="4" ry="4" /><line x1="392" y1="112" x2="336" y2="70" stroke-linecap="round"/><rect x="378" y="98" width="28" height="28" rx="4" ry="4" /><line x1="280" y1="112" x2="336" y2="70" stroke-linecap="round"/><rect x="266" y="98" width="28" height="28" rx="4" ry="4" /><line x1="168" y1="112" x2="112" y2="70" stroke-linecap="round"/><rect x="154" y="98" width="28" height="28" rx="4" ry="4" /><line x1="56" y1="112" x2="112" y2="70" stroke-linecap="round"/><rect x="42" y="98" width="28" height="28" rx="4" ry="4" /><line x1="336" y1="70" x2="224" y2="28" stroke-linecap="round"/><rect x="322" y="56" width="28" height="28" rx="4" ry="4" /><line x1="112" y1="70" x2="224" y2="28" stroke-linecap="round"/><rect x="98" y="56" width="28" height="28" rx="4" ry="4" /><rect x="210" y="14" width="28" height="28" rx="4" ry="4" /></g><g font-size="9" font-family="Verdana" fill="#888888"><text id="" x="224" y="5" dominant-baseline="central" text-anchor="middle">0</text><text id="" x="112" y="47" dominant-baseline="central" text-anchor="middle">1</text><text id="" x="336" y="47" dominant-baseline="central" text-anchor="middle">2</text><text id="" x="56" y="89" dominant-baseline="central" text-anchor="middle">3</text><text id="" x="168" y="89" dominant-baseline="central" text-anchor="middle">4</text><text id="" x="280" y="89" dominant-baseline="central" text-anchor="middle">5</text><text id="" x="392" y="89" dominant-baseline="central" text-anchor="middle">6</text><text id="" x="28" y="131" dominant-baseline="central" text-anchor="middle">7</text><text id="" x="84" y="131" dominant-baseline="central" text-anchor="middle">8</text><text id="" x="140" y="131" dominant-baseline="central" text-anchor="middle">9</text><text id="" x="196" y="131" dominant-baseline="central" text-anchor="middle">10</text><text id="" x="252" y="131" dominant-baseline="central" text-anchor="middle">11</text></g></g></svg>

