<?xml version="1.0" encoding="UTF-8" standalone="no"?>
<svg
xmlns:svg="http://www.w3.org/2000/svg"
xmlns="http://www.w3.org/2000/svg"
xmlns:xlink="http://www.w3.org/1999/xlink"
width ="420"
height ="200"
viewBox ="0 0 420 200"
>
<defs><polygon points="0,0 6,8, 0,16 20,8" id="m_tmpl2"/><marker id="token_arrow"  markerUnits="userSpaceOnUse" markerWidth="20" markerHeight="16" viewBox="0 0 20 16" refX="14" refY="8" orient="auto"><use xlink:href="#m_tmpl2" fill="#60a0ff"/></marker></defs><defs><polygon points="0,0 0,4 0,8 16,4" id="m_tmpl3"/><marker id="link_arrow" markerUnits="strokeWidth" markerWidth="16" markerHeight="8" viewBox="0 0 16 8" refX="16" refY="4" orient="auto"><use xlink:href="#m_tmpl3" fill="#888888"/></marker></defs><g transform="translate(0,40) scale(0.9)"><g fill="#ffffff" stroke="#a0a0a0" stroke-width="1"><line x1="434" y1="112" x2="420" y2="84" stroke-linecap="round"/><circle cx="434" cy="112" r="10" /><line x1="406" y1="112" x2="420" y2="84" stroke-linecap="round"/><circle cx="406" cy="112" r="10" /><line x1="378" y1="112" x2="364" y2="84" stroke-linecap="round"/><circle cx="378" cy="112" r="10" /><line x1="350" y1="112" x2="364" y2="84" stroke-linecap="round"/><circle cx="350" cy="112" r="10" /><line x1="322" y1="112" x2="308" y2="84" stroke-linecap="round"/><circle cx="322" cy="112" r="10" /><line x1="294" y1="112" x2="308" y2="84" stroke-linecap="round"/><circle cx="294" cy="112" r="10" /><line x1="266" y1="112" x2="252" y2="84" stroke-linecap="round"/><circle cx="266" cy="112" r="10" /><line x1="238" y1="112" x2="252" y2="84" stroke-linecap="round"/><circle cx="238" cy="112" r="10" /><line x1="210" y1="112" x2="196" y2="84" stroke-linecap="round"/><circle cx="210" cy="112" r="10" /><line x1="182" y1="112" x2="196" y2="84" stroke-linecap="round"/><circle cx="182" cy="112" r="10" /><line x1="154" y1="112" x2="140" y2="84" stroke-linecap="round"/><circle cx="154" cy="112" r="10" /><line x1="126" y1="112" x2="140" y2="84" stroke-linecap="round"/><circle cx="126" cy="112" r="10" /><line x1="98" y1="112" x2="84" y2="84" stroke-linecap="round"/><circle cx="98" cy="112" r="10" /><line x1="70" y1="112" x2="84" y2="84" stroke-linecap="round"/><circle cx="70" cy="112" r="10" /><line x1="42" y1="112" x2="28" y2="84" stroke-linecap="round"/><circle cx="42" cy="112" r="10" /><line x1="14" y1="112" x2="28" y2="84" stroke-linecap="round"/><circle cx="14" cy="112" r="10" /><line x1="420" y1="84" x2="392" y2="56" stroke-linecap="round"/><circle cx="420" cy="84" r="10" /><line x1="364" y1="84" x2="392" y2="56" stroke-linecap="round"/><circle cx="364" cy="84" r="10" /><line x1="308" y1="84" x2="280" y2="56" stroke-linecap="round"/><circle cx="308" cy="84" r="10" /><line x1="252" y1="84" x2="280" y2="56" stroke-linecap="round"/><circle cx="252" cy="84" r="10" /><line x1="196" y1="84" x2="168" y2="56" stroke-linecap="round"/><circle cx="196" cy="84" r="10" /><line x1="140" y1="84" x2="168" y2="56" stroke-linecap="round"/><circle cx="140" cy="84" r="10" /><line x1="84" y1="84" x2="56" y2="56" stroke-linecap="round"/><circle cx="84" cy="84" r="10" /><line x1="28" y1="84" x2="56" y2="56" stroke-linecap="round"/><circle cx="28" cy="84" r="10" /><line x1="392" y1="56" x2="336" y2="28" stroke-linecap="round"/><circle cx="392" cy="56" r="10" /><line x1="280" y1="56" x2="336" y2="28" stroke-linecap="round"/><circle cx="280" cy="56" r="10" /><line x1="168" y1="56" x2="112" y2="28" stroke-linecap="round"/><circle cx="168" cy="56" r="10" /><line x1="56" y1="56" x2="112" y2="28" stroke-linecap="round"/><circle cx="56" cy="56" r="10" /><line x1="336" y1="28" x2="224" y2="0" stroke-linecap="round"/><circle cx="336" cy="28" r="10" /><line x1="112" y1="28" x2="224" y2="0" stroke-linecap="round"/><circle cx="112" cy="28" r="10" /><circle cx="224" cy="0" r="10" /></g><g font-size="9" font-family="Verdana" fill="#888888"><text id="" x="224" y="-16" dominant-baseline="central" text-anchor="middle">0</text><text id="" x="112" y="12" dominant-baseline="central" text-anchor="middle">1</text><text id="" x="336" y="12" dominant-baseline="central" text-anchor="middle">2</text><text id="" x="56" y="40" dominant-baseline="central" text-anchor="middle">3</text><text id="" x="168" y="40" dominant-baseline="central" text-anchor="middle">4</text><text id="" x="280" y="40" dominant-baseline="central" text-anchor="middle">5</text><text id="" x="392" y="40" dominant-baseline="central" text-anchor="middle">6</text><text id="" x="28" y="68" dominant-baseline="central" text-anchor="middle">7</text><text id="" x="84" y="68" dominant-baseline="central" text-anchor="middle">8</text><text id="" x="140" y="68" dominant-baseline="central" text-anchor="middle">9</text><text id="" x="196" y="68" dominant-baseline="central" text-anchor="middle">10</text><text id="" x="252" y="68" dominant-baseline="central" text-anchor="middle">11</text><text id="" x="308" y="68" dominant-baseline="central" text-anchor="middle">12</text><text id="" x="364" y="68" dominant-baseline="central" text-anchor="middle">13</text><text id="" x="420" y="68" dominant-baseline="central" text-anchor="middle">14</text><text id="" x="14" y="96" dominant-baseline="central" text-anchor="middle">15</text><text id="" x="42" y="96" dominant-baseline="central" text-anchor="middle">16</text><text id="" x="70" y="96" dominant-baseline="central" text-anchor="middle">17</text><text id="" x="98" y="96" dominant-baseline="central" text-anchor="middle">18</text><text id="" x="126" y="96" dominant-baseline="central" text-anchor="middle">19</text><text id="" x="154" y="96" dominant-baseline="central" text-anchor="middle">20</text><text id="" x="182" y="96" dominant-baseline="central" text-anchor="middle">21</text><text id="" x="210" y="96" dominant-baseline="central" text-anchor="middle">22</text><text id="" x="238" y="96" dominant-baseline="central" text-anchor="middle">23</text><text id="" x="266" y="96" dominant-baseline="central" text-anchor="middle">24</text><text id="" x="294" y="96" dominant-baseline="central" text-anchor="middle">25</text><text id="" x="322" y="96" dominant-baseline="central" text-anchor="middle">26</text><text id="" x="350" y="96" dominant-baseline="central" text-anchor="middle">27</text><text id="" x="378" y="96" dominant-baseline="central" text-anchor="middle">28</text><text id="" x="406" y="96" dominant-baseline="central" text-anchor="middle">29</text><text id="" x="434" y="96" dominant-baseline="central" text-anchor="middle">30</text></g></g></svg>

