<?xml version="1.0" encoding="UTF-8" standalone="no"?>
<svg
xmlns:svg="http://www.w3.org/2000/svg"
xmlns="http://www.w3.org/2000/svg"
xmlns:xlink="http://www.w3.org/1999/xlink"
width ="280"
height ="200"
viewBox ="0 0 280 200"
>
<defs><polygon points="0,0 6,8, 0,16 20,8" id="m_tmpl2"/><marker id="token_arrow"  markerUnits="userSpaceOnUse" markerWidth="20" markerHeight="16" viewBox="0 0 20 16" refX="14" refY="8" orient="auto"><use xlink:href="#m_tmpl2" fill="#60a0ff"/></marker></defs><defs><polygon points="0,0 0,4 0,8 16,4" id="m_tmpl3"/><marker id="link_arrow" markerUnits="strokeWidth" markerWidth="16" markerHeight="8" viewBox="0 0 16 8" refX="16" refY="4" orient="auto"><use xlink:href="#m_tmpl3" fill="#888888"/></marker></defs><g transform="translate(40,100) scale(1)"><g fill="none" stroke="#a0a0a0" stroke-width="1"><path d="M 42 7 Q 28 7 14 7"  marker-end="url(#link_arrow)"/><path d="M 70 -7 Q 84 -7 98 -7"  marker-end="url(#link_arrow)"/><rect x="42" y="-14" width="28" height="28" rx="4" ry="4" /><path d="M 98 7 Q 84 7 70 7"  marker-end="url(#link_arrow)"/><path d="M 126 -7 Q 140 -7 154 -7"  marker-end="url(#link_arrow)"/><rect x="98" y="-14" width="28" height="28" rx="4" ry="4" /><path d="M 154 7 Q 140 7 126 7"  marker-end="url(#link_arrow)"/><path d="M 182 -7 Q 196 -7 210 -7"  marker-end="url(#link_arrow)"/><rect x="154" y="-14" width="28" height="28" rx="4" ry="4" /><path d="M -8.0971 12.4328 Q 112 63 232.097 12.4328"  marker-end="url(#link_arrow)"/><path d="M 14 -7 Q 28 -7 42 -7"  marker-end="url(#link_arrow)"/><g fill="#d0d0d0"><rect x="-14" y="-14" width="28" height="28" rx="4" ry="4" /></g><path d="M 210 7 Q 196 7 182 7"  marker-end="url(#link_arrow)"/><path d="M 232.097 -12.4328 Q 112 -63 -8.0971 -12.4328"  marker-end="url(#link_arrow)"/><rect x="210" y="-14" width="28" height="28" rx="4" ry="4" /></g></g>
</svg>

