<?xml version="1.0" encoding="UTF-8" standalone="no"?>
<svg
xmlns:svg="http://www.w3.org/2000/svg"
xmlns="http://www.w3.org/2000/svg"
xmlns:xlink="http://www.w3.org/1999/xlink"
width ="280"
height ="200"
viewBox ="0 0 280 200"
>
<defs><polygon points="0,0 6,6 0,12 18,6" id="m_tmpl2"/><marker id="token_arrow" markerUnits="strokeWidth" markerWidth="18" markerHeight="12" viewBox="0 0 18 12" refX="18" refY="6" orient="auto"><use xlink:href="#m_tmpl2" fill="#0000f0"/></marker></defs><defs><polygon points="0,0 0,4 0,8 16,4" id="m_tmpl3"/><marker id="link_arrow" markerUnits="strokeWidth" markerWidth="16" markerHeight="8" viewBox="0 0 16 8" refX="16" refY="4" orient="auto"><use xlink:href="#m_tmpl3" fill="#888888"/></marker></defs><g transform="translate(0,0) scale(1)"><g fill="none" stroke="#a0a0a0" stroke-width="1"><path d="M 47.0711 107.071 Q 60 120 72.9289 107.071"  marker-end="url(#link_arrow)"/><path d="M 47.0711 107.071 Q 80 140 112.929 107.071"  marker-end="url(#link_arrow)"/><path d="M 47.0711 107.071 Q 120 180 192.929 107.071"  marker-end="url(#link_arrow)"/><path d="M 127.071 107.071 Q 180 160 232.929 107.071"  marker-end="url(#link_arrow)"/><path d="M 167.071 107.071 Q 180 120 192.929 107.071"  marker-end="url(#link_arrow)"/><path d="M 167.071 107.071 Q 200 140 232.929 107.071"  marker-end="url(#link_arrow)"/></g><g fill="#ffffff" stroke="#a0a0a0" stroke-width="1"><circle cx="40" cy="100" r="6" /><circle cx="80" cy="100" r="6" /><circle cx="120" cy="100" r="6" /><circle cx="160" cy="100" r="6" /><circle cx="200" cy="100" r="6" /><circle cx="240" cy="100" r="6" /></g></g></svg>

