<?xml version="1.0" encoding="UTF-8" standalone="no"?>
<svg
xmlns:svg="http://www.w3.org/2000/svg"
xmlns="http://www.w3.org/2000/svg"
xmlns:xlink="http://www.w3.org/1999/xlink"
width ="280"
height ="200"
viewBox ="0 0 280 200"
>
<defs><polygon points="0,0 6,8, 0,16 20,8" id="m_tmpl2"/><marker id="token_arrow"  markerUnits="userSpaceOnUse" markerWidth="20" markerHeight="16" viewBox="0 0 20 16" refX="14" refY="8" orient="auto"><use xlink:href="#m_tmpl2" fill="#60a0ff"/></marker></defs><defs><polygon points="0,0 0,4 0,8 16,4" id="m_tmpl3"/><marker id="link_arrow" markerUnits="strokeWidth" markerWidth="16" markerHeight="8" viewBox="0 0 16 8" refX="16" refY="4" orient="auto"><use xlink:href="#m_tmpl3" fill="#888888"/></marker></defs><g transform="translate(40,40) scale(1)"><g fill="#ffffff" stroke="#a0a0a0" stroke-width="1"><line x1="80" y1="0" x2="20" y2="36" /><line x1="80" y1="0" x2="180" y2="36" /><circle cx="80" cy="0" r="14" /><line x1="20" y1="36" x2="0" y2="72" /><line x1="20" y1="36" x2="60" y2="72" /><circle cx="20" cy="36" r="14" /><circle cx="0" cy="72" r="14" /><line x1="60" y1="72" x2="40" y2="108" /><circle cx="60" cy="72" r="14" /><circle cx="40" cy="108" r="14" /><line x1="180" y1="36" x2="140" y2="72" /><line x1="180" y1="36" x2="200" y2="72" /><circle cx="180" cy="36" r="14" /><line x1="140" y1="72" x2="100" y2="108" /><line x1="140" y1="72" x2="160" y2="108" /><circle cx="140" cy="72" r="14" /><line x1="100" y1="108" x2="120" y2="144" /><circle cx="100" cy="108" r="14" /><circle cx="120" cy="144" r="14" /><circle cx="160" cy="108" r="14" /><circle cx="200" cy="72" r="14" /></g></g>
</svg>

