<?xml version="1.0" encoding="UTF-8" standalone="no"?>
<svg
xmlns:svg="http://www.w3.org/2000/svg"
xmlns="http://www.w3.org/2000/svg"
xmlns:xlink="http://www.w3.org/1999/xlink"
width ="280"
height ="200"
viewBox ="0 0 280 200"
>
<defs><polygon points="0,0 6,8, 0,16 20,8" id="m_tmpl2"/><marker id="token_arrow"  markerUnits="userSpaceOnUse" markerWidth="20" markerHeight="16" viewBox="0 0 20 16" refX="14" refY="8" orient="auto"><use xlink:href="#m_tmpl2" fill="#60a0ff"/></marker></defs><defs><polygon points="0,0 0,4 0,8 16,4" id="m_tmpl3"/><marker id="link_arrow" markerUnits="strokeWidth" markerWidth="16" markerHeight="8" viewBox="0 0 16 8" refX="16" refY="4" orient="auto"><use xlink:href="#m_tmpl3" fill="#888888"/></marker></defs><g transform="translate(12,32) scale(1)"><g fill="none" stroke="#a0a0a0" stroke-width="1"><path d="M 31.6487 52.2342 Q 50 40 68.3513 27.7658"  marker-end="url(#link_arrow)"/><path d="M 31.6487 67.7658 Q 50 80 68.3513 92.2342"  marker-end="url(#link_arrow)"/><path d="M 94 20 Q 120 20 146 20"  marker-end="url(#link_arrow)"/><path d="M 89.8995 90.1005 Q 120 60 150.101 29.8995"  marker-end="url(#link_arrow)"/><path d="M 94 100 Q 120 100 146 100"  marker-end="url(#link_arrow)"/><path d="M 171.649 27.7658 Q 190 40 208.351 52.2342"  marker-end="url(#link_arrow)"/><path d="M 171.649 92.2342 Q 190 80 208.351 67.7658"  marker-end="url(#link_arrow)"/></g><g fill="#ffffff" stroke="#a0a0a0" stroke-width="1"><circle cx="20" cy="60" r="14" /><circle cx="80" cy="20" r="14" /><circle cx="80" cy="100" r="14" /><circle cx="160" cy="20" r="14" /><circle cx="160" cy="100" r="14" /><circle cx="220" cy="60" r="14" /></g><g font-size="9" font-family="Verdana" fill="#888888"><text id="" x="20" y="34" dominant-baseline="central" text-anchor="middle">0</text><text id="" x="80" y="-5" dominant-baseline="central" text-anchor="middle">1</text><text id="" x="80" y="74" dominant-baseline="central" text-anchor="middle">2</text><text id="" x="160" y="-5" dominant-baseline="central" text-anchor="middle">3</text><text id="" x="160" y="74" dominant-baseline="central" text-anchor="middle">4</text><text id="" x="220" y="34" dominant-baseline="central" text-anchor="middle">5</text></g></g></svg>

