<?xml version="1.0" encoding="UTF-8" standalone="no"?>
<svg
xmlns:svg="http://www.w3.org/2000/svg"
xmlns="http://www.w3.org/2000/svg"
xmlns:xlink="http://www.w3.org/1999/xlink"
width ="480"
height ="200"
viewBox ="0 0 480 200"
>
<defs><polygon points="0,0 6,8, 0,16 20,8" id="m_tmpl2"/><marker id="token_arrow"  markerUnits="userSpaceOnUse" markerWidth="20" markerHeight="16" viewBox="0 0 20 16" refX="14" refY="8" orient="auto"><use xlink:href="#m_tmpl2" fill="#60a0ff"/></marker></defs><defs><polygon points="0,0 0,4 0,8 16,4" id="m_tmpl3"/><marker id="link_arrow" markerUnits="strokeWidth" markerWidth="16" markerHeight="8" viewBox="0 0 16 8" refX="16" refY="4" orient="auto"><use xlink:href="#m_tmpl3" fill="#888888"/></marker></defs><defs><polygon points="0,0 6,6 0,12 18,6" id="m_tmpl2"/><marker id="m_o1" markerUnits="strokeWidth" markerWidth="10" markerHeight="10" viewBox="0 0 18 12" refX="18" refY="6" orient="auto"><use xlink:href="#m_tmpl2" fill="#a0a0a0"/></marker></defs><g transform="translate(40,60) scale(1)"><g fill="#ffffff" stroke="#a0a0a0" stroke-width="1"><path d="M 88.6483 31.146 Q 94.5 20 100.352 8.85398"  marker-end="url(#link_arrow)"/><path d="M 121.352 31.146 Q 115.5 20 109.648 8.85398"  marker-end="url(#link_arrow)"/><path d="M 175.241 33.1034 Q 189 20 202.759 6.89655"  marker-end="url(#link_arrow)"/><path d="M 298.648 31.146 Q 304.5 20 310.352 8.85398"  marker-end="url(#link_arrow)"/><path d="M 214.648 71.146 Q 220.5 60 226.352 48.854"  marker-end="url(#link_arrow)"/><path d="M 226.352 31.146 Q 220.5 20 214.648 8.85398"  marker-end="url(#link_arrow)"/><path d="M 247.352 71.146 Q 241.5 60 235.648 48.854"  marker-end="url(#link_arrow)"/><path d="M 331.352 31.146 Q 325.5 20 319.648 8.85398"  marker-end="url(#link_arrow)"/><circle cx="84" cy="40" r="10" /><circle cx="42" cy="0" r="10" /><circle cx="126" cy="40" r="10" /><circle cx="105" cy="0" r="10" /><circle cx="168" cy="40" r="10" /><circle cx="210" cy="0" r="10" /><circle cx="294" cy="40" r="10" /><circle cx="210" cy="80" r="10" /><circle cx="231" cy="40" r="10" /><circle cx="252" cy="80" r="10" /><circle cx="336" cy="40" r="10" /><circle cx="315" cy="0" r="10" /></g><g font-size="9" font-family="Verdana" fill="#888888"><text x="84" y="24" dominant-baseline="central" text-anchor="middle">0</text><text x="42" y="-16" dominant-baseline="central" text-anchor="middle">1</text><text x="126" y="24" dominant-baseline="central" text-anchor="middle">2</text><text x="105" y="-16" dominant-baseline="central" text-anchor="middle">3</text><text x="168" y="24" dominant-baseline="central" text-anchor="middle">4</text><text x="210" y="-16" dominant-baseline="central" text-anchor="middle">5</text><text x="294" y="24" dominant-baseline="central" text-anchor="middle">6</text><text x="210" y="64" dominant-baseline="central" text-anchor="middle">7</text><text x="231" y="24" dominant-baseline="central" text-anchor="middle">8</text><text x="252" y="64" dominant-baseline="central" text-anchor="middle">9</text><text x="336" y="24" dominant-baseline="central" text-anchor="middle">10</text><text x="315" y="-16" dominant-baseline="central" text-anchor="middle">11</text></g></g></svg>

