<?xml version="1.0" encoding="UTF-8" standalone="no"?>
<svg
xmlns:svg="http://www.w3.org/2000/svg"
xmlns="http://www.w3.org/2000/svg"
xmlns:xlink="http://www.w3.org/1999/xlink"
width ="280"
height ="200"
viewBox ="0 0 280 200"
>
<defs><polygon points="0,0 6,6 0,12 18,6" id="m_tmpl2"/><marker id="token_arrow" markerUnits="strokeWidth" markerWidth="18" markerHeight="12" viewBox="0 0 18 12" refX="18" refY="6" orient="auto"><use xlink:href="#m_tmpl2" fill="#0000f0"/></marker></defs><defs><polygon points="0,0 0,4 0,8 16,4" id="m_tmpl3"/><marker id="link_arrow" markerUnits="strokeWidth" markerWidth="16" markerHeight="8" viewBox="0 0 16 8" refX="16" refY="4" orient="auto"><use xlink:href="#m_tmpl3" fill="#888888"/></marker></defs><g transform="translate(17,2) scale(1)"><g fill="#ffffff" stroke="#a0a0a0" stroke-width="1"><line x1="50" y1="50" x2="120" y2="30" stroke-linecap="round"/><line x1="50" y1="50" x2="100" y2="100" stroke-linecap="round"/><line x1="50" y1="50" x2="80" y2="170" stroke-linecap="round"/><line x1="50" y1="50" x2="30" y2="140" stroke-linecap="round"/><line x1="120" y1="30" x2="50" y2="50" stroke-linecap="round"/><line x1="120" y1="30" x2="100" y2="100" stroke-linecap="round"/><line x1="120" y1="30" x2="170" y2="100" stroke-linecap="round"/><line x1="100" y1="100" x2="50" y2="50" stroke-linecap="round"/><line x1="100" y1="100" x2="120" y2="30" stroke-linecap="round"/><line x1="100" y1="100" x2="80" y2="170" stroke-linecap="round"/><line x1="100" y1="100" x2="170" y2="100" stroke-linecap="round"/><line x1="100" y1="100" x2="220" y2="170" stroke-linecap="round"/><line x1="30" y1="140" x2="50" y2="50" stroke-linecap="round"/><line x1="30" y1="140" x2="80" y2="170" stroke-linecap="round"/><line x1="80" y1="170" x2="50" y2="50" stroke-linecap="round"/><line x1="80" y1="170" x2="100" y2="100" stroke-linecap="round"/><line x1="80" y1="170" x2="30" y2="140" stroke-linecap="round"/><line x1="80" y1="170" x2="220" y2="170" stroke-linecap="round"/><line x1="170" y1="100" x2="120" y2="30" stroke-linecap="round"/><line x1="170" y1="100" x2="100" y2="100" stroke-linecap="round"/><line x1="170" y1="100" x2="220" y2="170" stroke-linecap="round"/><line x1="220" y1="170" x2="100" y2="100" stroke-linecap="round"/><line x1="220" y1="170" x2="80" y2="170" stroke-linecap="round"/><line x1="220" y1="170" x2="170" y2="100" stroke-linecap="round"/><circle cx="50" cy="50" r="14" /><circle cx="120" cy="30" r="14" /><circle cx="100" cy="100" r="14" /><circle cx="30" cy="140" r="14" /><circle cx="80" cy="170" r="14" /><circle cx="170" cy="100" r="14" /><circle cx="220" cy="170" r="14" /></g><g font-size="9" font-family="Verdana" fill="#888888"><text id="" x="50" y="24" dominant-baseline="central" text-anchor="middle">0</text><text id="" x="120" y="4" dominant-baseline="central" text-anchor="middle">1</text><text id="" x="100" y="74" dominant-baseline="central" text-anchor="middle">2</text><text id="" x="30" y="114" dominant-baseline="central" text-anchor="middle">3</text><text id="" x="80" y="144" dominant-baseline="central" text-anchor="middle">4</text><text id="" x="170" y="74" dominant-baseline="central" text-anchor="middle">5</text><text id="" x="220" y="144" dominant-baseline="central" text-anchor="middle">6</text></g></g></svg>

