<?xml version="1.0" encoding="UTF-8" standalone="no"?>
<svg
xmlns:svg="http://www.w3.org/2000/svg"
xmlns="http://www.w3.org/2000/svg"
xmlns:xlink="http://www.w3.org/1999/xlink"
width ="280"
height ="200"
viewBox ="0 0 280 200"
>
<defs><polygon points="0,0 6,6 0,12 18,6" id="m_tmpl2"/><marker id="token_arrow" markerUnits="strokeWidth" markerWidth="18" markerHeight="12" viewBox="0 0 18 12" refX="18" refY="6" orient="auto"><use xlink:href="#m_tmpl2" fill="#0000f0"/></marker></defs><defs><polygon points="0,0 0,4 0,8 16,4" id="m_tmpl3"/><marker id="link_arrow" markerUnits="strokeWidth" markerWidth="16" markerHeight="8" viewBox="0 0 16 8" refX="16" refY="4" orient="auto"><use xlink:href="#m_tmpl3" fill="#888888"/></marker></defs><g transform="translate(0,0) scale(1)"><g fill="#ffffff" stroke="#a0a0a0" stroke-width="1"><circle cx="210" cy="100" r="6" /><circle cx="70" cy="120" r="6" /><circle cx="20" cy="100" r="6" /><circle cx="30" cy="190" r="6" /><circle cx="170" cy="40" r="6" /><circle cx="170" cy="100" r="6" /><circle cx="110" cy="80" r="6" /><circle cx="100" cy="30" r="6" /><circle cx="60" cy="50" r="6" /><circle cx="170" cy="150" r="6" /><circle cx="120" cy="120" r="6" /></g><g font-size="8" font-family="sans-serif" fill="#888888"><text x="210" y="88" dominant-baseline="central" text-anchor="middle">0</text><text x="70" y="108" dominant-baseline="central" text-anchor="middle">1</text><text x="20" y="88" dominant-baseline="central" text-anchor="middle">2</text><text x="30" y="178" dominant-baseline="central" text-anchor="middle">3</text><text x="170" y="28" dominant-baseline="central" text-anchor="middle">4</text><text x="170" y="88" dominant-baseline="central" text-anchor="middle">5</text><text x="110" y="68" dominant-baseline="central" text-anchor="middle">6</text><text x="100" y="18" dominant-baseline="central" text-anchor="middle">7</text><text x="60" y="38" dominant-baseline="central" text-anchor="middle">8</text><text x="170" y="138" dominant-baseline="central" text-anchor="middle">9</text><text x="120" y="108" dominant-baseline="central" text-anchor="middle">10</text></g></g></svg>

