<?xml version="1.0" encoding="UTF-8" standalone="no"?>
<svg
xmlns:svg="http://www.w3.org/2000/svg"
xmlns="http://www.w3.org/2000/svg"
xmlns:xlink="http://www.w3.org/1999/xlink"
width ="280"
height ="200"
viewBox ="0 0 280 200"
>
<defs><polygon points="0,0 6,6 0,12 18,6" id="m_tmpl2"/><marker id="token_arrow" markerUnits="strokeWidth" markerWidth="18" markerHeight="12" viewBox="0 0 18 12" refX="18" refY="6" orient="auto"><use xlink:href="#m_tmpl2" fill="#0000f0"/></marker></defs><defs><polygon points="0,0 0,4 0,8 16,4" id="m_tmpl3"/><marker id="link_arrow" markerUnits="strokeWidth" markerWidth="16" markerHeight="8" viewBox="0 0 16 8" refX="16" refY="4" orient="auto"><use xlink:href="#m_tmpl3" fill="#888888"/></marker></defs><g transform="translate(0,0) scale(1)"><g fill="#ffffff" stroke="#a0a0a0" stroke-width="1"><line x1="465" y1="120" x2="450" y2="90" stroke-linecap="round"/><circle cx="465" cy="120" r="10" /><line x1="435" y1="120" x2="450" y2="90" stroke-linecap="round"/><circle cx="435" cy="120" r="10" /><line x1="405" y1="120" x2="390" y2="90" stroke-linecap="round"/><circle cx="405" cy="120" r="10" /><line x1="375" y1="120" x2="390" y2="90" stroke-linecap="round"/><circle cx="375" cy="120" r="10" /><line x1="345" y1="120" x2="330" y2="90" stroke-linecap="round"/><circle cx="345" cy="120" r="10" /><line x1="315" y1="120" x2="330" y2="90" stroke-linecap="round"/><circle cx="315" cy="120" r="10" /><line x1="285" y1="120" x2="270" y2="90" stroke-linecap="round"/><circle cx="285" cy="120" r="10" /><line x1="255" y1="120" x2="270" y2="90" stroke-linecap="round"/><circle cx="255" cy="120" r="10" /><line x1="225" y1="120" x2="210" y2="90" stroke-linecap="round"/><circle cx="225" cy="120" r="10" /><line x1="195" y1="120" x2="210" y2="90" stroke-linecap="round"/><circle cx="195" cy="120" r="10" /><line x1="165" y1="120" x2="150" y2="90" stroke-linecap="round"/><circle cx="165" cy="120" r="10" /><line x1="135" y1="120" x2="150" y2="90" stroke-linecap="round"/><circle cx="135" cy="120" r="10" /><line x1="105" y1="120" x2="90" y2="90" stroke-linecap="round"/><circle cx="105" cy="120" r="10" /><line x1="75" y1="120" x2="90" y2="90" stroke-linecap="round"/><circle cx="75" cy="120" r="10" /><line x1="45" y1="120" x2="30" y2="90" stroke-linecap="round"/><circle cx="45" cy="120" r="10" /><line x1="15" y1="120" x2="30" y2="90" stroke-linecap="round"/><circle cx="15" cy="120" r="10" /><line x1="450" y1="90" x2="420" y2="60" stroke-linecap="round"/><circle cx="450" cy="90" r="10" /><line x1="390" y1="90" x2="420" y2="60" stroke-linecap="round"/><circle cx="390" cy="90" r="10" /><line x1="330" y1="90" x2="300" y2="60" stroke-linecap="round"/><circle cx="330" cy="90" r="10" /><line x1="270" y1="90" x2="300" y2="60" stroke-linecap="round"/><circle cx="270" cy="90" r="10" /><line x1="210" y1="90" x2="180" y2="60" stroke-linecap="round"/><circle cx="210" cy="90" r="10" /><line x1="150" y1="90" x2="180" y2="60" stroke-linecap="round"/><circle cx="150" cy="90" r="10" /><line x1="90" y1="90" x2="60" y2="60" stroke-linecap="round"/><circle cx="90" cy="90" r="10" /><line x1="30" y1="90" x2="60" y2="60" stroke-linecap="round"/><circle cx="30" cy="90" r="10" /><line x1="420" y1="60" x2="360" y2="30" stroke-linecap="round"/><circle cx="420" cy="60" r="10" /><line x1="300" y1="60" x2="360" y2="30" stroke-linecap="round"/><circle cx="300" cy="60" r="10" /><line x1="180" y1="60" x2="120" y2="30" stroke-linecap="round"/><circle cx="180" cy="60" r="10" /><line x1="60" y1="60" x2="120" y2="30" stroke-linecap="round"/><circle cx="60" cy="60" r="10" /><line x1="360" y1="30" x2="240" y2="0" stroke-linecap="round"/><circle cx="360" cy="30" r="10" /><line x1="120" y1="30" x2="240" y2="0" stroke-linecap="round"/><circle cx="120" cy="30" r="10" /><circle cx="240" cy="0" r="10" /></g></g></svg>

