<?xml version="1.0" encoding="UTF-8" standalone="no"?>
<svg
xmlns:svg="http://www.w3.org/2000/svg"
xmlns="http://www.w3.org/2000/svg"
xmlns:xlink="http://www.w3.org/1999/xlink"
width ="280"
height ="200"
viewBox ="0 0 280 200"
>
<defs><polygon points="0,0 6,6 0,12 18,6" id="m_tmpl2"/><marker id="token_arrow" markerUnits="strokeWidth" markerWidth="18" markerHeight="12" viewBox="0 0 18 12" refX="18" refY="6" orient="auto"><use xlink:href="#m_tmpl2" fill="#0000f0"/></marker></defs><defs><polygon points="0,0 0,4 0,8 16,4" id="m_tmpl3"/><marker id="link_arrow" markerUnits="strokeWidth" markerWidth="16" markerHeight="8" viewBox="0 0 16 8" refX="16" refY="4" orient="auto"><use xlink:href="#m_tmpl3" fill="#888888"/></marker></defs><g transform="translate(42,7) scale(1)"><g fill="none" stroke="#a0a0a0" stroke-width="1"><path d="M 27.0711 52.9289 Q 45 35 62.9289 17.0711"  marker-end="url(#link_arrow)"/><path d="M 25.3 68.48 Q 45 100 64.7 131.52"  marker-end="url(#link_arrow)"/><path d="M 78.7416 14.8564 Q 115 35 151.258 55.1436"  marker-end="url(#link_arrow)"/><path d="M 70 130 Q 70 75 70 20"  marker-end="url(#link_arrow)"/><path d="M 150 60 Q 90 60 30 60"  marker-end="url(#link_arrow)"/></g><g fill="#ffffff" stroke="#a0a0a0" stroke-width="1"><circle cx="20" cy="60" r="14" /><circle cx="70" cy="10" r="14" /><circle cx="70" cy="140" r="14" /><circle cx="160" cy="60" r="14" /><rect x="39" y="29" width="12" height="12" rx="2" ry="2" /><rect x="39" y="94" width="12" height="12" rx="2" ry="2" /><rect x="109" y="29" width="12" height="12" rx="2" ry="2" /><rect x="64" y="69" width="12" height="12" rx="2" ry="2" /><rect x="84" y="54" width="12" height="12" rx="2" ry="2" /></g></g></svg>

