<?xml version="1.0" encoding="UTF-8" standalone="no"?>
<!-- Created with Inkscape (http://www.inkscape.org/) -->

<svg
   xmlns:dc="http://purl.org/dc/elements/1.1/"
   xmlns:cc="http://creativecommons.org/ns#"
   xmlns:rdf="http://www.w3.org/1999/02/22-rdf-syntax-ns#"
   xmlns:svg="http://www.w3.org/2000/svg"
   xmlns="http://www.w3.org/2000/svg"
   xmlns:sodipodi="http://sodipodi.sourceforge.net/DTD/sodipodi-0.dtd"
   xmlns:inkscape="http://www.inkscape.org/namespaces/inkscape"
   width="50mm"
   height="35mm"
   viewBox="0 0 50 35"
   version="1.1"
   id="svg8"
   inkscape:version="0.92.4 (5da689c313, 2019-01-14)"
   sodipodi:docname="weighted_graph.svg">
  <defs
     id="defs2">
    <marker
       inkscape:stockid="Arrow1Lend"
       orient="auto"
       refY="0"
       refX="0"
       id="marker1820"
       style="overflow:visible"
       inkscape:isstock="true">
      <path
         id="path1818"
         d="M 0,0 5,-5 -12.5,0 5,5 Z"
         style="fill:#a0a0a0;fill-opacity:1;fill-rule:evenodd;stroke:#a0a0a0;stroke-width:1.00000003pt;stroke-opacity:1"
         transform="matrix(-0.8,0,0,-0.8,-10,0)"
         inkscape:connector-curvature="0" />
    </marker>
    <marker
       inkscape:stockid="Arrow1Lend"
       orient="auto"
       refY="0"
       refX="0"
       id="marker1756"
       style="overflow:visible"
       inkscape:isstock="true">
      <path
         id="path1754"
         d="M 0,0 5,-5 -12.5,0 5,5 Z"
         style="fill:#a0a0a0;fill-opacity:1;fill-rule:evenodd;stroke:#a0a0a0;stroke-width:1.00000003pt;stroke-opacity:1"
         transform="matrix(-0.8,0,0,-0.8,-10,0)"
         inkscape:connector-curvature="0" />
    </marker>
    <marker
       inkscape:isstock="true"
       style="overflow:visible"
       id="marker1468"
       refX="0"
       refY="0"
       orient="auto"
       inkscape:stockid="Arrow1Lend">
      <path
         transform="matrix(-0.8,0,0,-0.8,-10,0)"
         style="fill:#a0a0a0;fill-opacity:1;fill-rule:evenodd;stroke:#a0a0a0;stroke-width:1.00000003pt;stroke-opacity:1"
         d="M 0,0 5,-5 -12.5,0 5,5 Z"
         id="path1466"
         inkscape:connector-curvature="0" />
    </marker>
    <marker
       inkscape:isstock="true"
       style="overflow:visible"
       id="marker1422"
       refX="0"
       refY="0"
       orient="auto"
       inkscape:stockid="Arrow1Lend">
      <path
         transform="matrix(-0.8,0,0,-0.8,-10,0)"
         style="fill:#a0a0a0;fill-opacity:1;fill-rule:evenodd;stroke:#a0a0a0;stroke-width:1.00000003pt;stroke-opacity:1"
         d="M 0,0 5,-5 -12.5,0 5,5 Z"
         id="path1420"
         inkscape:connector-curvature="0" />
    </marker>
    <marker
       inkscape:isstock="true"
       style="overflow:visible"
       id="marker1382"
       refX="0"
       refY="0"
       orient="auto"
       inkscape:stockid="Arrow1Lend">
      <path
         transform="matrix(-0.8,0,0,-0.8,-10,0)"
         style="fill:#a0a0a0;fill-opacity:1;fill-rule:evenodd;stroke:#a0a0a0;stroke-width:1.00000003pt;stroke-opacity:1"
         d="M 0,0 5,-5 -12.5,0 5,5 Z"
         id="path1380"
         inkscape:connector-curvature="0" />
    </marker>
    <marker
       inkscape:isstock="true"
       style="overflow:visible"
       id="marker1348"
       refX="0"
       refY="0"
       orient="auto"
       inkscape:stockid="Arrow1Lend">
      <path
         transform="matrix(-0.8,0,0,-0.8,-10,0)"
         style="fill:#a0a0a0;fill-opacity:1;fill-rule:evenodd;stroke:#a0a0a0;stroke-width:1.00000003pt;stroke-opacity:1"
         d="M 0,0 5,-5 -12.5,0 5,5 Z"
         id="path1346"
         inkscape:connector-curvature="0" />
    </marker>
    <marker
       inkscape:stockid="Arrow1Lend"
       orient="auto"
       refY="0"
       refX="0"
       id="marker1334"
       style="overflow:visible"
       inkscape:isstock="true">
      <path
         id="path1332"
         d="M 0,0 5,-5 -12.5,0 5,5 Z"
         style="fill:#00b26c;fill-opacity:1;fill-rule:evenodd;stroke:#00b26c;stroke-width:1.00000003pt;stroke-opacity:1"
         transform="matrix(-0.8,0,0,-0.8,-10,0)"
         inkscape:connector-curvature="0" />
    </marker>
    <marker
       inkscape:stockid="Arrow1Lend"
       orient="auto"
       refY="0"
       refX="0"
       id="Arrow1Lend"
       style="overflow:visible"
       inkscape:isstock="true">
      <path
         id="path1051"
         d="M 0,0 5,-5 -12.5,0 5,5 Z"
         style="fill:#72b2da;fill-opacity:1;fill-rule:evenodd;stroke:#72b2da;stroke-width:1.00000003pt;stroke-opacity:1"
         transform="matrix(-0.8,0,0,-0.8,-10,0)"
         inkscape:connector-curvature="0" />
    </marker>
  </defs>
  <sodipodi:namedview
     id="base"
     pagecolor="#ffffff"
     bordercolor="#666666"
     borderopacity="1.0"
     inkscape:pageopacity="0.0"
     inkscape:pageshadow="2"
     inkscape:zoom="4.2446726"
     inkscape:cx="94.488189"
     inkscape:cy="104.01273"
     inkscape:document-units="mm"
     inkscape:current-layer="layer1"
     showgrid="true"
     inkscape:window-width="2560"
     inkscape:window-height="1346"
     inkscape:window-x="-11"
     inkscape:window-y="-11"
     inkscape:window-maximized="1"
     showguides="false">
    <inkscape:grid
       type="xygrid"
       id="grid815" />
  </sodipodi:namedview>
  <metadata
     id="metadata5">
    <rdf:RDF>
      <cc:Work
         rdf:about="">
        <dc:format>image/svg+xml</dc:format>
        <dc:type
           rdf:resource="http://purl.org/dc/dcmitype/StillImage" />
        <dc:title></dc:title>
      </cc:Work>
    </rdf:RDF>
  </metadata>
  <g
     inkscape:label="Layer 1"
     inkscape:groupmode="layer"
     id="layer1"
     transform="translate(0,-262)">
    <path
       style="fill:none;stroke:#a0a0a0;stroke-width:0.26499999;stroke-linecap:butt;stroke-linejoin:miter;stroke-miterlimit:4;stroke-dasharray:none;stroke-opacity:1"
       d="M 5.2916673,278.47916 21.166667,267.89583 H 42.333333 V 289.0625 H 21.166667 v -21.16667 l 21.166666,21.16667 v 0 0"
       id="path1088"
       inkscape:connector-curvature="0" />
    <path
       style="fill:none;stroke:#a0a0a0;stroke-width:0.26499999;stroke-linecap:butt;stroke-linejoin:miter;stroke-miterlimit:4;stroke-dasharray:none;stroke-opacity:1"
       d="M 5.2916673,278.47916 21.166667,289.0625"
       id="path1090"
       inkscape:connector-curvature="0" />
    <circle
       style="opacity:1;fill:#ffffff;fill-opacity:1;fill-rule:nonzero;stroke:#a0a0a0;stroke-width:0.26458332;stroke-linecap:round;stroke-linejoin:miter;stroke-miterlimit:4;stroke-dasharray:none;stroke-dashoffset:0;stroke-opacity:1;paint-order:fill markers stroke"
       id="circle974"
       cx="21.167742"
       cy="267.82886"
       r="2.6458333"
       inkscape:transform-center-x="-5.9504971"
       inkscape:transform-center-y="82.811084" />
    <circle
       style="opacity:1;fill:#ffffff;fill-opacity:1;fill-rule:nonzero;stroke:#a0a0a0;stroke-width:0.26458332;stroke-linecap:round;stroke-linejoin:miter;stroke-miterlimit:4;stroke-dasharray:none;stroke-dashoffset:0;stroke-opacity:1;paint-order:fill markers stroke"
       id="circle832"
       cx="42.344383"
       cy="267.85751"
       r="2.6458333" />
    <circle
       style="opacity:1;fill:#ffffff;fill-opacity:1;fill-rule:nonzero;stroke:#a0a0a0;stroke-width:0.26458332;stroke-linecap:round;stroke-linejoin:miter;stroke-miterlimit:4;stroke-dasharray:none;stroke-dashoffset:0;stroke-opacity:1;paint-order:fill markers stroke"
       id="circle832-5"
       cx="5.2404017"
       cy="278.43784"
       r="2.6458333" />
    <circle
       style="opacity:1;fill:#ffffff;fill-opacity:1;fill-rule:nonzero;stroke:#a0a0a0;stroke-width:0.26458332;stroke-linecap:round;stroke-linejoin:miter;stroke-miterlimit:4;stroke-dasharray:none;stroke-dashoffset:0;stroke-opacity:1;paint-order:fill markers stroke"
       id="circle974-1"
       cx="21.056664"
       cy="289.11014"
       r="2.6458333"
       inkscape:transform-center-x="-5.9504971"
       inkscape:transform-center-y="82.811084" />
    <circle
       style="opacity:1;fill:#ffffff;fill-opacity:1;fill-rule:nonzero;stroke:#a0a0a0;stroke-width:0.26458332;stroke-linecap:round;stroke-linejoin:miter;stroke-miterlimit:4;stroke-dasharray:none;stroke-dashoffset:0;stroke-opacity:1;paint-order:fill markers stroke"
       id="circle832-56"
       cx="42.233307"
       cy="289.13876"
       r="2.6458333" />
    <path
       style="fill:#ffffff;fill-opacity:1;stroke:#a0a0a0;stroke-width:0.26458332px;stroke-linecap:butt;stroke-linejoin:miter;stroke-opacity:1"
       d="m 30.427084,267.10208 c 0,0 0,-0.52917 0.529166,-0.52917 0.529167,0 1.5875,0 1.5875,0 0,0 0.529167,0 0.529167,0.52917 0,0.52917 0,1.5875 0,1.5875 0,0 0,0.52917 -0.529167,0.52917 -0.529166,0 -1.5875,0 -1.5875,0 0,0 -0.529166,0 -0.529166,-0.52917 0,-0.52917 0,-1.5875 0,-1.5875 z"
       id="path1094"
       inkscape:connector-curvature="0" />
    <path
       style="fill:#ffffff;fill-opacity:1;stroke:#a0a0a0;stroke-width:0.26458332px;stroke-linecap:butt;stroke-linejoin:miter;stroke-opacity:1"
       d="m 30.427084,288.26875 c 0,0 0,-0.52917 0.529166,-0.52917 0.529167,0 1.5875,0 1.5875,0 0,0 0.529167,0 0.529167,0.52917 0,0.52917 0,1.5875 0,1.5875 0,0 0,0.52918 -0.529167,0.52918 -0.529166,0 -1.5875,0 -1.5875,0 0,0 -0.529166,0 -0.529166,-0.52918 0,-0.52917 0,-1.5875 0,-1.5875 z"
       id="path1094-3"
       inkscape:connector-curvature="0" />
    <path
       style="fill:#ffffff;fill-opacity:1;stroke:#a0a0a0;stroke-width:0.26458332px;stroke-linecap:butt;stroke-linejoin:miter;stroke-opacity:1"
       d="m 19.843751,277.68541 c 0,0 0,-0.52917 0.529166,-0.52917 0.529167,0 1.5875,0 1.5875,0 0,0 0.529167,0 0.529167,0.52917 0,0.52917 0,1.5875 0,1.5875 0,0 0,0.52918 -0.529167,0.52918 -0.529166,0 -1.5875,0 -1.5875,0 0,0 -0.529166,0 -0.529166,-0.52918 0,-0.52917 0,-1.5875 0,-1.5875 z"
       id="path1094-8"
       inkscape:connector-curvature="0" />
    <path
       style="fill:#ffffff;fill-opacity:1;stroke:#a0a0a0;stroke-width:0.26458332px;stroke-linecap:butt;stroke-linejoin:miter;stroke-opacity:1"
       d="m 41.010417,277.68541 c 0,0 0,-0.52917 0.529166,-0.52917 0.529167,0 1.5875,0 1.5875,0 0,0 0.529167,0 0.529167,0.52917 0,0.52917 0,1.5875 0,1.5875 0,0 0,0.52918 -0.529167,0.52918 -0.529166,0 -1.5875,0 -1.5875,0 0,0 -0.529166,0 -0.529166,-0.52918 0,-0.52917 0,-1.5875 0,-1.5875 z"
       id="path1094-1"
       inkscape:connector-curvature="0" />
    <path
       style="fill:#ffffff;fill-opacity:1;stroke:#a0a0a0;stroke-width:0.26458332px;stroke-linecap:butt;stroke-linejoin:miter;stroke-opacity:1"
       d="m 30.427084,277.68541 c 0,0 0,-0.52917 0.529166,-0.52917 0.529167,0 1.5875,0 1.5875,0 0,0 0.529167,0 0.529167,0.52917 0,0.52917 0,1.5875 0,1.5875 0,0 0,0.52918 -0.529167,0.52918 -0.529166,0 -1.5875,0 -1.5875,0 0,0 -0.529166,0 -0.529166,-0.52918 0,-0.52917 0,-1.5875 0,-1.5875 z"
       id="path1094-0"
       inkscape:connector-curvature="0" />
    <path
       style="fill:#ffffff;fill-opacity:1;stroke:#a0a0a0;stroke-width:0.26458332px;stroke-linecap:butt;stroke-linejoin:miter;stroke-opacity:1"
       d="m 11.906251,272.39375 c 0,0 0,-0.52917 0.529166,-0.52917 0.529167,0 1.5875,0 1.5875,0 0,0 0.529167,0 0.529167,0.52917 0,0.52917 0,1.5875 0,1.5875 0,0 0,0.52918 -0.529167,0.52918 -0.529166,0 -1.5875,0 -1.5875,0 0,0 -0.529166,0 -0.529166,-0.52918 0,-0.52917 0,-1.5875 0,-1.5875 z"
       id="path1094-4"
       inkscape:connector-curvature="0" />
    <path
       style="fill:#ffffff;fill-opacity:1;stroke:#a0a0a0;stroke-width:0.26458332px;stroke-linecap:butt;stroke-linejoin:miter;stroke-opacity:1"
       d="m 11.906251,282.97708 c 0,0 0,-0.52917 0.529166,-0.52917 0.529167,0 1.5875,0 1.5875,0 0,0 0.529167,0 0.529167,0.52917 0,0.52917 0,1.5875 0,1.5875 0,0 0,0.52918 -0.529167,0.52918 -0.529166,0 -1.5875,0 -1.5875,0 0,0 -0.529166,0 -0.529166,-0.52918 0,-0.52917 0,-1.5875 0,-1.5875 z"
       id="path1094-6"
       inkscape:connector-curvature="0" />
    <text
       xml:space="preserve"
       style="font-style:normal;font-variant:normal;font-weight:normal;font-stretch:normal;font-size:5.64444447px;line-height:1.25;font-family:sans-serif;-inkscape-font-specification:'sans-serif, Normal';font-variant-ligatures:normal;font-variant-caps:normal;font-variant-numeric:normal;font-feature-settings:normal;text-align:start;letter-spacing:0px;word-spacing:0px;writing-mode:lr-tb;text-anchor:start;fill:#000000;fill-opacity:1;stroke:none;stroke-width:0.26458332"
       x="12.638504"
       y="273.84991"
       id="text1143"><tspan
         sodipodi:role="line"
         id="tspan1141"
         x="12.638504"
         y="273.84991"
         style="font-style:normal;font-variant:normal;font-weight:normal;font-stretch:normal;font-size:1.76388884px;font-family:sans-serif;-inkscape-font-specification:'sans-serif, Normal';font-variant-ligatures:normal;font-variant-caps:normal;font-variant-numeric:normal;font-feature-settings:normal;text-align:start;writing-mode:lr-tb;text-anchor:start;stroke-width:0.26458332">8</tspan></text>
    <text
       xml:space="preserve"
       style="font-style:normal;font-variant:normal;font-weight:normal;font-stretch:normal;font-size:5.64444447px;line-height:1.25;font-family:sans-serif;-inkscape-font-specification:'sans-serif, Normal';font-variant-ligatures:normal;font-variant-caps:normal;font-variant-numeric:normal;font-feature-settings:normal;text-align:start;letter-spacing:0px;word-spacing:0px;writing-mode:lr-tb;text-anchor:start;fill:#000000;fill-opacity:1;stroke:none;stroke-width:0.26458332"
       x="20.563002"
       y="279.14304"
       id="text1143-8"><tspan
         sodipodi:role="line"
         id="tspan1141-5"
         x="20.563002"
         y="279.14304"
         style="font-style:normal;font-variant:normal;font-weight:normal;font-stretch:normal;font-size:1.76388884px;font-family:sans-serif;-inkscape-font-specification:'sans-serif, Normal';font-variant-ligatures:normal;font-variant-caps:normal;font-variant-numeric:normal;font-feature-settings:normal;text-align:start;writing-mode:lr-tb;text-anchor:start;stroke-width:0.26458332">7</tspan></text>
    <text
       xml:space="preserve"
       style="font-style:normal;font-variant:normal;font-weight:normal;font-stretch:normal;font-size:5.64444447px;line-height:1.25;font-family:sans-serif;-inkscape-font-specification:'sans-serif, Normal';font-variant-ligatures:normal;font-variant-caps:normal;font-variant-numeric:normal;font-feature-settings:normal;text-align:start;letter-spacing:0px;word-spacing:0px;writing-mode:lr-tb;text-anchor:start;fill:#000000;fill-opacity:1;stroke:none;stroke-width:0.26458332"
       x="12.642546"
       y="284.44803"
       id="text1143-7"><tspan
         sodipodi:role="line"
         id="tspan1141-1"
         x="12.642546"
         y="284.44803"
         style="font-style:normal;font-variant:normal;font-weight:normal;font-stretch:normal;font-size:1.76388884px;font-family:sans-serif;-inkscape-font-specification:'sans-serif, Normal';font-variant-ligatures:normal;font-variant-caps:normal;font-variant-numeric:normal;font-feature-settings:normal;text-align:start;writing-mode:lr-tb;text-anchor:start;stroke-width:0.26458332">1</tspan></text>
    <text
       xml:space="preserve"
       style="font-style:normal;font-variant:normal;font-weight:normal;font-stretch:normal;font-size:5.64444447px;line-height:1.25;font-family:sans-serif;-inkscape-font-specification:'sans-serif, Normal';font-variant-ligatures:normal;font-variant-caps:normal;font-variant-numeric:normal;font-feature-settings:normal;text-align:start;letter-spacing:0px;word-spacing:0px;writing-mode:lr-tb;text-anchor:start;fill:#000000;fill-opacity:1;stroke:none;stroke-width:0.26458332"
       x="31.1094"
       y="268.55252"
       id="text1143-2"><tspan
         sodipodi:role="line"
         id="tspan1141-6"
         x="31.1094"
         y="268.55252"
         style="font-style:normal;font-variant:normal;font-weight:normal;font-stretch:normal;font-size:1.76388884px;font-family:sans-serif;-inkscape-font-specification:'sans-serif, Normal';font-variant-ligatures:normal;font-variant-caps:normal;font-variant-numeric:normal;font-feature-settings:normal;text-align:start;writing-mode:lr-tb;text-anchor:start;stroke-width:0.26458332">5</tspan></text>
    <text
       xml:space="preserve"
       style="font-style:normal;font-variant:normal;font-weight:normal;font-stretch:normal;font-size:5.64444447px;line-height:1.25;font-family:sans-serif;-inkscape-font-specification:'sans-serif, Normal';font-variant-ligatures:normal;font-variant-caps:normal;font-variant-numeric:normal;font-feature-settings:normal;text-align:start;letter-spacing:0px;word-spacing:0px;writing-mode:lr-tb;text-anchor:start;fill:#000000;fill-opacity:1;stroke:none;stroke-width:0.26458332"
       x="31.121935"
       y="279.14511"
       id="text1143-0"><tspan
         sodipodi:role="line"
         id="tspan1141-9"
         x="31.121935"
         y="279.14511"
         style="font-style:normal;font-variant:normal;font-weight:normal;font-stretch:normal;font-size:1.76388884px;font-family:sans-serif;-inkscape-font-specification:'sans-serif, Normal';font-variant-ligatures:normal;font-variant-caps:normal;font-variant-numeric:normal;font-feature-settings:normal;text-align:start;writing-mode:lr-tb;text-anchor:start;stroke-width:0.26458332">4</tspan></text>
    <text
       xml:space="preserve"
       style="font-style:normal;font-variant:normal;font-weight:normal;font-stretch:normal;font-size:5.64444447px;line-height:1.25;font-family:sans-serif;-inkscape-font-specification:'sans-serif, Normal';font-variant-ligatures:normal;font-variant-caps:normal;font-variant-numeric:normal;font-feature-settings:normal;text-align:start;letter-spacing:0px;word-spacing:0px;writing-mode:lr-tb;text-anchor:start;fill:#000000;fill-opacity:1;stroke:none;stroke-width:0.26458332"
       x="31.159182"
       y="289.74963"
       id="text1143-6"><tspan
         sodipodi:role="line"
         id="tspan1141-67"
         x="31.159182"
         y="289.74963"
         style="font-style:normal;font-variant:normal;font-weight:normal;font-stretch:normal;font-size:1.76388884px;font-family:sans-serif;-inkscape-font-specification:'sans-serif, Normal';font-variant-ligatures:normal;font-variant-caps:normal;font-variant-numeric:normal;font-feature-settings:normal;text-align:start;writing-mode:lr-tb;text-anchor:start;stroke-width:0.26458332">9</tspan></text>
    <text
       xml:space="preserve"
       style="font-style:normal;font-variant:normal;font-weight:normal;font-stretch:normal;font-size:5.64444447px;line-height:1.25;font-family:sans-serif;-inkscape-font-specification:'sans-serif, Normal';font-variant-ligatures:normal;font-variant-caps:normal;font-variant-numeric:normal;font-feature-settings:normal;text-align:start;letter-spacing:0px;word-spacing:0px;writing-mode:lr-tb;text-anchor:start;fill:#000000;fill-opacity:1;stroke:none;stroke-width:0.26458332"
       x="41.190865"
       y="279.15927"
       id="text1143-01"><tspan
         sodipodi:role="line"
         id="tspan1141-2"
         x="41.190865"
         y="279.15927"
         style="font-style:normal;font-variant:normal;font-weight:normal;font-stretch:normal;font-size:1.76388884px;font-family:sans-serif;-inkscape-font-specification:'sans-serif, Normal';font-variant-ligatures:normal;font-variant-caps:normal;font-variant-numeric:normal;font-feature-settings:normal;text-align:start;writing-mode:lr-tb;text-anchor:start;stroke-width:0.26458332">11</tspan></text>
  </g>
</svg>
