<?xml version="1.0" encoding="UTF-8" standalone="no"?>
<svg
xmlns:dc="http://purl.org/dc/elements/1.1/"
xmlns:rdf="http://www.w3.org/1999/02/22-rdf-syntax-ns#"
xmlns:svg="http://www.w3.org/2000/svg"
xmlns="http://www.w3.org/2000/svg"
xmlns:xlink="http://www.w3.org/1999/xlink"
version="1.1"
width ="1184"
height ="216"
viewBox ="0 0 1184 216"
>
<rect x ="0" y="0" width="280" height="200" fill="#ffffff" stroke="#888888" stroke-width="1"/><text transform="rotate(-35, 16,180)" x="16" y="180" font-size="24" text-anchor="left" fill="#e8e8e8"  font-family="Arial">UNDER CONSTRUCTION</text><g transform="translate(0,0)"><g transform="translate(0,0) scale(1)"><g fill="#ffffff" stroke="#a0a0a0" stroke-width="1"><line x1="50" y1="50" x2="120" y2="30"/><line x1="50" y1="50" x2="100" y2="100"/><line x1="50" y1="50" x2="80" y2="170"/><line x1="50" y1="50" x2="30" y2="140"/><line x1="120" y1="30" x2="50" y2="50"/><line x1="120" y1="30" x2="100" y2="100"/><line x1="120" y1="30" x2="170" y2="100"/><line x1="100" y1="100" x2="50" y2="50"/><line x1="100" y1="100" x2="120" y2="30"/><line x1="100" y1="100" x2="170" y2="100"/><line x1="100" y1="100" x2="220" y2="170"/><line x1="100" y1="100" x2="80" y2="170"/><line x1="30" y1="140" x2="50" y2="50"/><line x1="30" y1="140" x2="80" y2="170"/><line x1="80" y1="170" x2="50" y2="50"/><line x1="80" y1="170" x2="100" y2="100"/><line x1="80" y1="170" x2="30" y2="140"/><line x1="80" y1="170" x2="220" y2="170"/><line x1="170" y1="100" x2="120" y2="30"/><line x1="170" y1="100" x2="100" y2="100"/><line x1="170" y1="100" x2="220" y2="170"/><line x1="220" y1="170" x2="100" y2="100"/><line x1="220" y1="170" x2="80" y2="170"/><line x1="220" y1="170" x2="170" y2="100"/><circle cx="50" cy="50" r="14" /><circle cx="120" cy="30" r="14" /><circle cx="100" cy="100" r="14" /><circle cx="30" cy="140" r="14" /><circle cx="80" cy="170" r="14" /><circle cx="170" cy="100" r="14" /><circle cx="220" cy="170" r="14" /><rect x="79" y="34" width="12" height="12" rx="2" ry="2" /><rect x="69" y="69" width="12" height="12" rx="2" ry="2" /><rect x="59" y="104" width="12" height="12" rx="2" ry="2" /><rect x="34" y="89" width="12" height="12" rx="2" ry="2" /><rect x="79" y="34" width="12" height="12" rx="2" ry="2" /><rect x="104" y="59" width="12" height="12" rx="2" ry="2" /><rect x="139" y="59" width="12" height="12" rx="2" ry="2" /><rect x="69" y="69" width="12" height="12" rx="2" ry="2" /><rect x="104" y="59" width="12" height="12" rx="2" ry="2" /><rect x="129" y="94" width="12" height="12" rx="2" ry="2" /><rect x="154" y="129" width="12" height="12" rx="2" ry="2" /><rect x="84" y="129" width="12" height="12" rx="2" ry="2" /><rect x="34" y="89" width="12" height="12" rx="2" ry="2" /><rect x="49" y="149" width="12" height="12" rx="2" ry="2" /><rect x="59" y="104" width="12" height="12" rx="2" ry="2" /><rect x="84" y="129" width="12" height="12" rx="2" ry="2" /><rect x="49" y="149" width="12" height="12" rx="2" ry="2" /><rect x="144" y="164" width="12" height="12" rx="2" ry="2" /><rect x="139" y="59" width="12" height="12" rx="2" ry="2" /><rect x="129" y="94" width="12" height="12" rx="2" ry="2" /><rect x="189" y="129" width="12" height="12" rx="2" ry="2" /><rect x="154" y="129" width="12" height="12" rx="2" ry="2" /><rect x="144" y="164" width="12" height="12" rx="2" ry="2" /><rect x="189" y="129" width="12" height="12" rx="2" ry="2" /></g></g></g><text x="16" y="20" font-size="16" text-anchor="middle" fill="#888888" font-family="sans-serif" >1</text></svg>

