<?xml version="1.0" encoding="UTF-8" standalone="no"?>
<svg
xmlns:dc="http://purl.org/dc/elements/1.1/"
xmlns:rdf="http://www.w3.org/1999/02/22-rdf-syntax-ns#"
xmlns:svg="http://www.w3.org/2000/svg"
xmlns="http://www.w3.org/2000/svg"
xmlns:xlink="http://www.w3.org/1999/xlink"
version="1.1"
width ="1428"
height ="864"
viewBox ="0 0 1428 864"
>
<rect x ="0" y="0" width="460" height="200" fill="#ffffff" stroke="#888888" stroke-width="1"/><text transform="rotate(-35, 16,180)" x="16" y="180" font-size="24" text-anchor="left" fill="#e8e8e8"  font-family="Arial">UNDER CONSTRUCTION</text><g transform="translate(0,0)"><g transform="translate(0,0) scale(1)"><g fill="#ffffff" stroke="#a0a0a0" stroke-width="1"><line x1="252" y1="154" x2="280" y2="112" stroke-linecap="round"/><circle cx="252" cy="154" r="14" /><line x1="196" y1="154" x2="168" y2="112" stroke-linecap="round"/><circle cx="196" cy="154" r="14" /><line x1="140" y1="154" x2="168" y2="112" stroke-linecap="round"/><circle cx="140" cy="154" r="14" /><line x1="84" y1="154" x2="56" y2="112" stroke-linecap="round"/><circle cx="84" cy="154" r="14" /><line x1="28" y1="154" x2="56" y2="112" stroke-linecap="round"/><circle cx="28" cy="154" r="14" /><line x1="392" y1="112" x2="336" y2="70" stroke-linecap="round"/><circle cx="392" cy="112" r="14" /><line x1="280" y1="112" x2="336" y2="70" stroke-linecap="round"/><circle cx="280" cy="112" r="14" /><line x1="168" y1="112" x2="112" y2="70" stroke-linecap="round"/><circle cx="168" cy="112" r="14" /><line x1="56" y1="112" x2="112" y2="70" stroke-linecap="round"/><circle cx="56" cy="112" r="14" /><line x1="336" y1="70" x2="224" y2="28" stroke-linecap="round"/><circle cx="336" cy="70" r="14" /><line x1="112" y1="70" x2="224" y2="28" stroke-linecap="round"/><circle cx="112" cy="70" r="14" /><circle cx="224" cy="28" r="14" /></g><g font-size="9" font-family="Verdana" fill="#888888"><text x="224" y="5" dominant-baseline="central" text-anchor="middle">0</text><text x="112" y="47" dominant-baseline="central" text-anchor="middle">1</text><text x="336" y="47" dominant-baseline="central" text-anchor="middle">2</text><text x="56" y="89" dominant-baseline="central" text-anchor="middle">3</text><text x="168" y="89" dominant-baseline="central" text-anchor="middle">4</text><text x="280" y="89" dominant-baseline="central" text-anchor="middle">5</text><text x="392" y="89" dominant-baseline="central" text-anchor="middle">6</text><text x="28" y="131" dominant-baseline="central" text-anchor="middle">7</text><text x="84" y="131" dominant-baseline="central" text-anchor="middle">8</text><text x="140" y="131" dominant-baseline="central" text-anchor="middle">9</text><text x="196" y="131" dominant-baseline="central" text-anchor="middle">10</text><text x="252" y="131" dominant-baseline="central" text-anchor="middle">11</text></g></g><g transform="translate(0,0) scale(1)"><g stroke-width="0"><circle cx="224" cy="28" r="11" fill="#73B3FF" opacity="1" /><circle cx="112" cy="70" r="11" fill="#84C4FF" opacity="1" /><circle cx="336" cy="70" r="11" fill="#8BCBFF" opacity="1" /><circle cx="56" cy="112" r="11" fill="#81C1FF" opacity="1" /><circle cx="168" cy="112" r="11" fill="#76B6FF" opacity="1" /><circle cx="280" cy="112" r="11" fill="#65A5FF" opacity="1" /><circle cx="392" cy="112" r="11" fill="#69A9FF" opacity="1" /><circle cx="28" cy="154" r="11" fill="#70B0FF" opacity="1" /><circle cx="84" cy="154" r="11" fill="#7ABAFF" opacity="1" /><circle cx="140" cy="154" r="11" fill="#7ABAFF" opacity="1" /><circle cx="196" cy="154" r="11" fill="#7DBDFF" opacity="1" /><circle cx="252" cy="154" r="11" fill="#88C8FF" opacity="1" /></g><g font-size="14" font-family="sans-serif" fill="#ffffff"><text x="224" y="28" dominant-baseline="central" text-anchor="middle">8</text><text x="112" y="70" dominant-baseline="central" text-anchor="middle">3</text><text x="336" y="70" dominant-baseline="central" text-anchor="middle">1</text><text x="56" y="112" dominant-baseline="central" text-anchor="middle">4</text><text x="168" y="112" dominant-baseline="central" text-anchor="middle">7</text><text x="280" y="112" dominant-baseline="central" text-anchor="middle">12</text><text x="392" y="112" dominant-baseline="central" text-anchor="middle">11</text><text x="28" y="154" dominant-baseline="central" text-anchor="middle">9</text><text x="84" y="154" dominant-baseline="central" text-anchor="middle">6</text><text x="140" y="154" dominant-baseline="central" text-anchor="middle">6</text><text x="196" y="154" dominant-baseline="central" text-anchor="middle">5</text><text x="252" y="154" dominant-baseline="central" text-anchor="middle">2</text></g><g font-size="14" font-family="sans-serif" fill="#888888"><text x="-28" y="0" dominant-baseline="central" text-anchor="middle"></text></g></g></g><text x="16" y="20" font-size="16" text-anchor="middle" fill="#888888" font-family="sans-serif" >1</text><rect x ="476" y="0" width="460" height="200" fill="#ffffff" stroke="#888888" stroke-width="1"/><text transform="rotate(-35, 492,180)" x="492" y="180" font-size="24" text-anchor="left" fill="#e8e8e8"  font-family="Arial">UNDER CONSTRUCTION</text><g transform="translate(476,0)"><g transform="translate(0,0) scale(1)"><g stroke="#aae0ff" stroke-width="0" fill="#aae0ff"><circle cx="112" cy="70" r="22" /><circle cx="56" cy="112" r="22" /></g><g stroke="#aae0ff" stroke-width="44.8" fill="#aae0ff"><line x1="112" y1="70" x2="56" y2="112" stroke-linecap="round"/></g></g><g transform="translate(0,0) scale(1)"><g fill="#ffffff" stroke="#a0a0a0" stroke-width="1"><line x1="252" y1="154" x2="280" y2="112" stroke-linecap="round"/><circle cx="252" cy="154" r="14" /><line x1="196" y1="154" x2="168" y2="112" stroke-linecap="round"/><circle cx="196" cy="154" r="14" /><line x1="140" y1="154" x2="168" y2="112" stroke-linecap="round"/><circle cx="140" cy="154" r="14" /><line x1="84" y1="154" x2="56" y2="112" stroke-linecap="round"/><circle cx="84" cy="154" r="14" /><line x1="28" y1="154" x2="56" y2="112" stroke-linecap="round"/><circle cx="28" cy="154" r="14" /><line x1="392" y1="112" x2="336" y2="70" stroke-linecap="round"/><circle cx="392" cy="112" r="14" /><line x1="280" y1="112" x2="336" y2="70" stroke-linecap="round"/><circle cx="280" cy="112" r="14" /><line x1="168" y1="112" x2="112" y2="70" stroke-linecap="round"/><circle cx="168" cy="112" r="14" /><line x1="56" y1="112" x2="112" y2="70" stroke-linecap="round"/><circle cx="56" cy="112" r="14" /><line x1="336" y1="70" x2="224" y2="28" stroke-linecap="round"/><circle cx="336" cy="70" r="14" /><line x1="112" y1="70" x2="224" y2="28" stroke-linecap="round"/><circle cx="112" cy="70" r="14" /><circle cx="224" cy="28" r="14" /></g><g font-size="9" font-family="Verdana" fill="#888888"><text x="224" y="5" dominant-baseline="central" text-anchor="middle">0</text><text x="112" y="47" dominant-baseline="central" text-anchor="middle">1</text><text x="336" y="47" dominant-baseline="central" text-anchor="middle">2</text><text x="56" y="89" dominant-baseline="central" text-anchor="middle">3</text><text x="168" y="89" dominant-baseline="central" text-anchor="middle">4</text><text x="280" y="89" dominant-baseline="central" text-anchor="middle">5</text><text x="392" y="89" dominant-baseline="central" text-anchor="middle">6</text><text x="28" y="131" dominant-baseline="central" text-anchor="middle">7</text><text x="84" y="131" dominant-baseline="central" text-anchor="middle">8</text><text x="140" y="131" dominant-baseline="central" text-anchor="middle">9</text><text x="196" y="131" dominant-baseline="central" text-anchor="middle">10</text><text x="252" y="131" dominant-baseline="central" text-anchor="middle">11</text></g></g><g transform="translate(0,0) scale(1)"><g fill="#ffa0a0" stroke="#ffa0a0" stroke-width="1"><circle cx="56" cy="112" r="14" /><circle cx="112" cy="70" r="14" /></g></g><g transform="translate(0,0) scale(1)"><g stroke-width="0"><circle cx="224" cy="28" r="11" fill="#73B3FF" opacity="1" /><circle cx="112" cy="70" r="11" fill="#84C4FF" opacity="1" /><circle cx="336" cy="70" r="11" fill="#8BCBFF" opacity="1" /><circle cx="56" cy="112" r="11" fill="#70B0FF" opacity="1" /><circle cx="168" cy="112" r="11" fill="#76B6FF" opacity="1" /><circle cx="280" cy="112" r="11" fill="#65A5FF" opacity="1" /><circle cx="392" cy="112" r="11" fill="#69A9FF" opacity="1" /><circle cx="28" cy="154" r="11" fill="#81C1FF" opacity="1" /><circle cx="84" cy="154" r="11" fill="#7ABAFF" opacity="1" /><circle cx="140" cy="154" r="11" fill="#7ABAFF" opacity="1" /><circle cx="196" cy="154" r="11" fill="#7DBDFF" opacity="1" /><circle cx="252" cy="154" r="11" fill="#88C8FF" opacity="1" /></g><g font-size="14" font-family="sans-serif" fill="#ffffff"><text x="224" y="28" dominant-baseline="central" text-anchor="middle">8</text><text x="112" y="70" dominant-baseline="central" text-anchor="middle">3</text><text x="336" y="70" dominant-baseline="central" text-anchor="middle">1</text><text x="56" y="112" dominant-baseline="central" text-anchor="middle">9</text><text x="168" y="112" dominant-baseline="central" text-anchor="middle">7</text><text x="280" y="112" dominant-baseline="central" text-anchor="middle">12</text><text x="392" y="112" dominant-baseline="central" text-anchor="middle">11</text><text x="28" y="154" dominant-baseline="central" text-anchor="middle">4</text><text x="84" y="154" dominant-baseline="central" text-anchor="middle">6</text><text x="140" y="154" dominant-baseline="central" text-anchor="middle">6</text><text x="196" y="154" dominant-baseline="central" text-anchor="middle">5</text><text x="252" y="154" dominant-baseline="central" text-anchor="middle">2</text></g><g font-size="14" font-family="sans-serif" fill="#888888"><text x="-28" y="0" dominant-baseline="central" text-anchor="middle"></text></g></g></g><text x="492" y="20" font-size="16" text-anchor="middle" fill="#888888" font-family="sans-serif" >2</text><rect x ="952" y="0" width="460" height="200" fill="#ffffff" stroke="#888888" stroke-width="1"/><text transform="rotate(-35, 968,180)" x="968" y="180" font-size="24" text-anchor="left" fill="#e8e8e8"  font-family="Arial">UNDER CONSTRUCTION</text><g transform="translate(952,0)"><g transform="translate(0,0) scale(1)"><g stroke="#aae0ff" stroke-width="0" fill="#aae0ff"><circle cx="224" cy="28" r="22" /><circle cx="336" cy="70" r="22" /></g><g stroke="#aae0ff" stroke-width="44.8" fill="#aae0ff"><line x1="224" y1="28" x2="336" y2="70" stroke-linecap="round"/></g></g><g transform="translate(0,0) scale(1)"><g fill="#ffffff" stroke="#a0a0a0" stroke-width="1"><line x1="252" y1="154" x2="280" y2="112" stroke-linecap="round"/><circle cx="252" cy="154" r="14" /><line x1="196" y1="154" x2="168" y2="112" stroke-linecap="round"/><circle cx="196" cy="154" r="14" /><line x1="140" y1="154" x2="168" y2="112" stroke-linecap="round"/><circle cx="140" cy="154" r="14" /><line x1="84" y1="154" x2="56" y2="112" stroke-linecap="round"/><circle cx="84" cy="154" r="14" /><line x1="28" y1="154" x2="56" y2="112" stroke-linecap="round"/><circle cx="28" cy="154" r="14" /><line x1="392" y1="112" x2="336" y2="70" stroke-linecap="round"/><circle cx="392" cy="112" r="14" /><line x1="280" y1="112" x2="336" y2="70" stroke-linecap="round"/><circle cx="280" cy="112" r="14" /><line x1="168" y1="112" x2="112" y2="70" stroke-linecap="round"/><circle cx="168" cy="112" r="14" /><line x1="56" y1="112" x2="112" y2="70" stroke-linecap="round"/><circle cx="56" cy="112" r="14" /><line x1="336" y1="70" x2="224" y2="28" stroke-linecap="round"/><circle cx="336" cy="70" r="14" /><line x1="112" y1="70" x2="224" y2="28" stroke-linecap="round"/><circle cx="112" cy="70" r="14" /><circle cx="224" cy="28" r="14" /></g><g font-size="9" font-family="Verdana" fill="#888888"><text x="224" y="5" dominant-baseline="central" text-anchor="middle">0</text><text x="112" y="47" dominant-baseline="central" text-anchor="middle">1</text><text x="336" y="47" dominant-baseline="central" text-anchor="middle">2</text><text x="56" y="89" dominant-baseline="central" text-anchor="middle">3</text><text x="168" y="89" dominant-baseline="central" text-anchor="middle">4</text><text x="280" y="89" dominant-baseline="central" text-anchor="middle">5</text><text x="392" y="89" dominant-baseline="central" text-anchor="middle">6</text><text x="28" y="131" dominant-baseline="central" text-anchor="middle">7</text><text x="84" y="131" dominant-baseline="central" text-anchor="middle">8</text><text x="140" y="131" dominant-baseline="central" text-anchor="middle">9</text><text x="196" y="131" dominant-baseline="central" text-anchor="middle">10</text><text x="252" y="131" dominant-baseline="central" text-anchor="middle">11</text></g></g><g transform="translate(0,0) scale(1)"><g fill="#ffa0a0" stroke="#ffa0a0" stroke-width="1"><circle cx="336" cy="70" r="14" /><circle cx="224" cy="28" r="14" /></g></g><g transform="translate(0,0) scale(1)"><g stroke-width="0"><circle cx="224" cy="28" r="11" fill="#73B3FF" opacity="1" /><circle cx="112" cy="70" r="11" fill="#84C4FF" opacity="1" /><circle cx="336" cy="70" r="11" fill="#65A5FF" opacity="1" /><circle cx="56" cy="112" r="11" fill="#70B0FF" opacity="1" /><circle cx="168" cy="112" r="11" fill="#76B6FF" opacity="1" /><circle cx="280" cy="112" r="11" fill="#8BCBFF" opacity="1" /><circle cx="392" cy="112" r="11" fill="#69A9FF" opacity="1" /><circle cx="28" cy="154" r="11" fill="#81C1FF" opacity="1" /><circle cx="84" cy="154" r="11" fill="#7ABAFF" opacity="1" /><circle cx="140" cy="154" r="11" fill="#7ABAFF" opacity="1" /><circle cx="196" cy="154" r="11" fill="#7DBDFF" opacity="1" /><circle cx="252" cy="154" r="11" fill="#88C8FF" opacity="1" /></g><g font-size="14" font-family="sans-serif" fill="#ffffff"><text x="224" y="28" dominant-baseline="central" text-anchor="middle">8</text><text x="112" y="70" dominant-baseline="central" text-anchor="middle">3</text><text x="336" y="70" dominant-baseline="central" text-anchor="middle">12</text><text x="56" y="112" dominant-baseline="central" text-anchor="middle">9</text><text x="168" y="112" dominant-baseline="central" text-anchor="middle">7</text><text x="280" y="112" dominant-baseline="central" text-anchor="middle">1</text><text x="392" y="112" dominant-baseline="central" text-anchor="middle">11</text><text x="28" y="154" dominant-baseline="central" text-anchor="middle">4</text><text x="84" y="154" dominant-baseline="central" text-anchor="middle">6</text><text x="140" y="154" dominant-baseline="central" text-anchor="middle">6</text><text x="196" y="154" dominant-baseline="central" text-anchor="middle">5</text><text x="252" y="154" dominant-baseline="central" text-anchor="middle">2</text></g><g font-size="14" font-family="sans-serif" fill="#888888"><text x="-28" y="0" dominant-baseline="central" text-anchor="middle"></text></g></g></g><text x="968" y="20" font-size="16" text-anchor="middle" fill="#888888" font-family="sans-serif" >3</text><rect x ="0" y="216" width="460" height="200" fill="#ffffff" stroke="#888888" stroke-width="1"/><text transform="rotate(-35, 16,396)" x="16" y="396" font-size="24" text-anchor="left" fill="#e8e8e8"  font-family="Arial">UNDER CONSTRUCTION</text><g transform="translate(0,216)"><g transform="translate(0,0) scale(1)"><g stroke="#aae0ff" stroke-width="0" fill="#aae0ff"><circle cx="336" cy="70" r="22" /><circle cx="280" cy="112" r="22" /></g><g stroke="#aae0ff" stroke-width="44.8" fill="#aae0ff"><line x1="336" y1="70" x2="280" y2="112" stroke-linecap="round"/></g></g><g transform="translate(0,0) scale(1)"><g fill="#ffffff" stroke="#a0a0a0" stroke-width="1"><line x1="252" y1="154" x2="280" y2="112" stroke-linecap="round"/><circle cx="252" cy="154" r="14" /><line x1="196" y1="154" x2="168" y2="112" stroke-linecap="round"/><circle cx="196" cy="154" r="14" /><line x1="140" y1="154" x2="168" y2="112" stroke-linecap="round"/><circle cx="140" cy="154" r="14" /><line x1="84" y1="154" x2="56" y2="112" stroke-linecap="round"/><circle cx="84" cy="154" r="14" /><line x1="28" y1="154" x2="56" y2="112" stroke-linecap="round"/><circle cx="28" cy="154" r="14" /><line x1="392" y1="112" x2="336" y2="70" stroke-linecap="round"/><circle cx="392" cy="112" r="14" /><line x1="280" y1="112" x2="336" y2="70" stroke-linecap="round"/><circle cx="280" cy="112" r="14" /><line x1="168" y1="112" x2="112" y2="70" stroke-linecap="round"/><circle cx="168" cy="112" r="14" /><line x1="56" y1="112" x2="112" y2="70" stroke-linecap="round"/><circle cx="56" cy="112" r="14" /><line x1="336" y1="70" x2="224" y2="28" stroke-linecap="round"/><circle cx="336" cy="70" r="14" /><line x1="112" y1="70" x2="224" y2="28" stroke-linecap="round"/><circle cx="112" cy="70" r="14" /><circle cx="224" cy="28" r="14" /></g><g font-size="9" font-family="Verdana" fill="#888888"><text x="224" y="5" dominant-baseline="central" text-anchor="middle">0</text><text x="112" y="47" dominant-baseline="central" text-anchor="middle">1</text><text x="336" y="47" dominant-baseline="central" text-anchor="middle">2</text><text x="56" y="89" dominant-baseline="central" text-anchor="middle">3</text><text x="168" y="89" dominant-baseline="central" text-anchor="middle">4</text><text x="280" y="89" dominant-baseline="central" text-anchor="middle">5</text><text x="392" y="89" dominant-baseline="central" text-anchor="middle">6</text><text x="28" y="131" dominant-baseline="central" text-anchor="middle">7</text><text x="84" y="131" dominant-baseline="central" text-anchor="middle">8</text><text x="140" y="131" dominant-baseline="central" text-anchor="middle">9</text><text x="196" y="131" dominant-baseline="central" text-anchor="middle">10</text><text x="252" y="131" dominant-baseline="central" text-anchor="middle">11</text></g></g><g transform="translate(0,0) scale(1)"><g fill="#ffa0a0" stroke="#ffa0a0" stroke-width="1"><circle cx="280" cy="112" r="14" /><circle cx="336" cy="70" r="14" /></g></g><g transform="translate(0,0) scale(1)"><g stroke-width="0"><circle cx="224" cy="28" r="11" fill="#73B3FF" opacity="1" /><circle cx="112" cy="70" r="11" fill="#84C4FF" opacity="1" /><circle cx="336" cy="70" r="11" fill="#65A5FF" opacity="1" /><circle cx="56" cy="112" r="11" fill="#70B0FF" opacity="1" /><circle cx="168" cy="112" r="11" fill="#76B6FF" opacity="1" /><circle cx="280" cy="112" r="11" fill="#88C8FF" opacity="1" /><circle cx="392" cy="112" r="11" fill="#69A9FF" opacity="1" /><circle cx="28" cy="154" r="11" fill="#81C1FF" opacity="1" /><circle cx="84" cy="154" r="11" fill="#7ABAFF" opacity="1" /><circle cx="140" cy="154" r="11" fill="#7ABAFF" opacity="1" /><circle cx="196" cy="154" r="11" fill="#7DBDFF" opacity="1" /><circle cx="252" cy="154" r="11" fill="#8BCBFF" opacity="1" /></g><g font-size="14" font-family="sans-serif" fill="#ffffff"><text x="224" y="28" dominant-baseline="central" text-anchor="middle">8</text><text x="112" y="70" dominant-baseline="central" text-anchor="middle">3</text><text x="336" y="70" dominant-baseline="central" text-anchor="middle">12</text><text x="56" y="112" dominant-baseline="central" text-anchor="middle">9</text><text x="168" y="112" dominant-baseline="central" text-anchor="middle">7</text><text x="280" y="112" dominant-baseline="central" text-anchor="middle">2</text><text x="392" y="112" dominant-baseline="central" text-anchor="middle">11</text><text x="28" y="154" dominant-baseline="central" text-anchor="middle">4</text><text x="84" y="154" dominant-baseline="central" text-anchor="middle">6</text><text x="140" y="154" dominant-baseline="central" text-anchor="middle">6</text><text x="196" y="154" dominant-baseline="central" text-anchor="middle">5</text><text x="252" y="154" dominant-baseline="central" text-anchor="middle">1</text></g><g font-size="14" font-family="sans-serif" fill="#888888"><text x="-28" y="0" dominant-baseline="central" text-anchor="middle"></text></g></g></g><text x="16" y="236" font-size="16" text-anchor="middle" fill="#888888" font-family="sans-serif" >4</text><rect x ="476" y="216" width="460" height="200" fill="#ffffff" stroke="#888888" stroke-width="1"/><text transform="rotate(-35, 492,396)" x="492" y="396" font-size="24" text-anchor="left" fill="#e8e8e8"  font-family="Arial">UNDER CONSTRUCTION</text><g transform="translate(476,216)"><g transform="translate(0,0) scale(1)"><g stroke="#aae0ff" stroke-width="0" fill="#aae0ff"><circle cx="224" cy="28" r="22" /><circle cx="112" cy="70" r="22" /></g><g stroke="#aae0ff" stroke-width="44.8" fill="#aae0ff"><line x1="224" y1="28" x2="112" y2="70" stroke-linecap="round"/></g></g><g transform="translate(0,0) scale(1)"><g fill="#ffffff" stroke="#a0a0a0" stroke-width="1"><line x1="252" y1="154" x2="280" y2="112" stroke-linecap="round"/><circle cx="252" cy="154" r="14" /><line x1="196" y1="154" x2="168" y2="112" stroke-linecap="round"/><circle cx="196" cy="154" r="14" /><line x1="140" y1="154" x2="168" y2="112" stroke-linecap="round"/><circle cx="140" cy="154" r="14" /><line x1="84" y1="154" x2="56" y2="112" stroke-linecap="round"/><circle cx="84" cy="154" r="14" /><line x1="28" y1="154" x2="56" y2="112" stroke-linecap="round"/><circle cx="28" cy="154" r="14" /><line x1="392" y1="112" x2="336" y2="70" stroke-linecap="round"/><circle cx="392" cy="112" r="14" /><line x1="280" y1="112" x2="336" y2="70" stroke-linecap="round"/><circle cx="280" cy="112" r="14" /><line x1="168" y1="112" x2="112" y2="70" stroke-linecap="round"/><circle cx="168" cy="112" r="14" /><line x1="56" y1="112" x2="112" y2="70" stroke-linecap="round"/><circle cx="56" cy="112" r="14" /><line x1="336" y1="70" x2="224" y2="28" stroke-linecap="round"/><circle cx="336" cy="70" r="14" /><line x1="112" y1="70" x2="224" y2="28" stroke-linecap="round"/><circle cx="112" cy="70" r="14" /><circle cx="224" cy="28" r="14" /></g><g font-size="9" font-family="Verdana" fill="#888888"><text x="224" y="5" dominant-baseline="central" text-anchor="middle">0</text><text x="112" y="47" dominant-baseline="central" text-anchor="middle">1</text><text x="336" y="47" dominant-baseline="central" text-anchor="middle">2</text><text x="56" y="89" dominant-baseline="central" text-anchor="middle">3</text><text x="168" y="89" dominant-baseline="central" text-anchor="middle">4</text><text x="280" y="89" dominant-baseline="central" text-anchor="middle">5</text><text x="392" y="89" dominant-baseline="central" text-anchor="middle">6</text><text x="28" y="131" dominant-baseline="central" text-anchor="middle">7</text><text x="84" y="131" dominant-baseline="central" text-anchor="middle">8</text><text x="140" y="131" dominant-baseline="central" text-anchor="middle">9</text><text x="196" y="131" dominant-baseline="central" text-anchor="middle">10</text><text x="252" y="131" dominant-baseline="central" text-anchor="middle">11</text></g></g><g transform="translate(0,0) scale(1)"><g fill="#ffa0a0" stroke="#ffa0a0" stroke-width="1"><circle cx="112" cy="70" r="14" /><circle cx="224" cy="28" r="14" /></g></g><g transform="translate(0,0) scale(1)"><g stroke-width="0"><circle cx="224" cy="28" r="11" fill="#73B3FF" opacity="1" /><circle cx="112" cy="70" r="11" fill="#70B0FF" opacity="1" /><circle cx="336" cy="70" r="11" fill="#65A5FF" opacity="1" /><circle cx="56" cy="112" r="11" fill="#84C4FF" opacity="1" /><circle cx="168" cy="112" r="11" fill="#76B6FF" opacity="1" /><circle cx="280" cy="112" r="11" fill="#88C8FF" opacity="1" /><circle cx="392" cy="112" r="11" fill="#69A9FF" opacity="1" /><circle cx="28" cy="154" r="11" fill="#81C1FF" opacity="1" /><circle cx="84" cy="154" r="11" fill="#7ABAFF" opacity="1" /><circle cx="140" cy="154" r="11" fill="#7ABAFF" opacity="1" /><circle cx="196" cy="154" r="11" fill="#7DBDFF" opacity="1" /><circle cx="252" cy="154" r="11" fill="#8BCBFF" opacity="1" /></g><g font-size="14" font-family="sans-serif" fill="#ffffff"><text x="224" y="28" dominant-baseline="central" text-anchor="middle">8</text><text x="112" y="70" dominant-baseline="central" text-anchor="middle">9</text><text x="336" y="70" dominant-baseline="central" text-anchor="middle">12</text><text x="56" y="112" dominant-baseline="central" text-anchor="middle">3</text><text x="168" y="112" dominant-baseline="central" text-anchor="middle">7</text><text x="280" y="112" dominant-baseline="central" text-anchor="middle">2</text><text x="392" y="112" dominant-baseline="central" text-anchor="middle">11</text><text x="28" y="154" dominant-baseline="central" text-anchor="middle">4</text><text x="84" y="154" dominant-baseline="central" text-anchor="middle">6</text><text x="140" y="154" dominant-baseline="central" text-anchor="middle">6</text><text x="196" y="154" dominant-baseline="central" text-anchor="middle">5</text><text x="252" y="154" dominant-baseline="central" text-anchor="middle">1</text></g><g font-size="14" font-family="sans-serif" fill="#888888"><text x="-28" y="0" dominant-baseline="central" text-anchor="middle"></text></g></g></g><text x="492" y="236" font-size="16" text-anchor="middle" fill="#888888" font-family="sans-serif" >5</text><rect x ="952" y="216" width="460" height="200" fill="#ffffff" stroke="#888888" stroke-width="1"/><text transform="rotate(-35, 968,396)" x="968" y="396" font-size="24" text-anchor="left" fill="#e8e8e8"  font-family="Arial">UNDER CONSTRUCTION</text><g transform="translate(952,216)"><g transform="translate(0,0) scale(1)"><g stroke="#aae0ff" stroke-width="0" fill="#aae0ff"><circle cx="112" cy="70" r="22" /><circle cx="56" cy="112" r="22" /></g><g stroke="#aae0ff" stroke-width="44.8" fill="#aae0ff"><line x1="112" y1="70" x2="56" y2="112" stroke-linecap="round"/></g></g><g transform="translate(0,0) scale(1)"><g fill="#ffffff" stroke="#a0a0a0" stroke-width="1"><line x1="252" y1="154" x2="280" y2="112" stroke-linecap="round"/><circle cx="252" cy="154" r="14" /><line x1="196" y1="154" x2="168" y2="112" stroke-linecap="round"/><circle cx="196" cy="154" r="14" /><line x1="140" y1="154" x2="168" y2="112" stroke-linecap="round"/><circle cx="140" cy="154" r="14" /><line x1="84" y1="154" x2="56" y2="112" stroke-linecap="round"/><circle cx="84" cy="154" r="14" /><line x1="28" y1="154" x2="56" y2="112" stroke-linecap="round"/><circle cx="28" cy="154" r="14" /><line x1="392" y1="112" x2="336" y2="70" stroke-linecap="round"/><circle cx="392" cy="112" r="14" /><line x1="280" y1="112" x2="336" y2="70" stroke-linecap="round"/><circle cx="280" cy="112" r="14" /><line x1="168" y1="112" x2="112" y2="70" stroke-linecap="round"/><circle cx="168" cy="112" r="14" /><line x1="56" y1="112" x2="112" y2="70" stroke-linecap="round"/><circle cx="56" cy="112" r="14" /><line x1="336" y1="70" x2="224" y2="28" stroke-linecap="round"/><circle cx="336" cy="70" r="14" /><line x1="112" y1="70" x2="224" y2="28" stroke-linecap="round"/><circle cx="112" cy="70" r="14" /><circle cx="224" cy="28" r="14" /></g><g font-size="9" font-family="Verdana" fill="#888888"><text x="224" y="5" dominant-baseline="central" text-anchor="middle">0</text><text x="112" y="47" dominant-baseline="central" text-anchor="middle">1</text><text x="336" y="47" dominant-baseline="central" text-anchor="middle">2</text><text x="56" y="89" dominant-baseline="central" text-anchor="middle">3</text><text x="168" y="89" dominant-baseline="central" text-anchor="middle">4</text><text x="280" y="89" dominant-baseline="central" text-anchor="middle">5</text><text x="392" y="89" dominant-baseline="central" text-anchor="middle">6</text><text x="28" y="131" dominant-baseline="central" text-anchor="middle">7</text><text x="84" y="131" dominant-baseline="central" text-anchor="middle">8</text><text x="140" y="131" dominant-baseline="central" text-anchor="middle">9</text><text x="196" y="131" dominant-baseline="central" text-anchor="middle">10</text><text x="252" y="131" dominant-baseline="central" text-anchor="middle">11</text></g></g><g transform="translate(0,0) scale(1)"><g fill="#ffa0a0" stroke="#ffa0a0" stroke-width="1"><circle cx="56" cy="112" r="14" /><circle cx="112" cy="70" r="14" /></g></g><g transform="translate(0,0) scale(1)"><g stroke-width="0"><circle cx="224" cy="28" r="11" fill="#73B3FF" opacity="1" /><circle cx="112" cy="70" r="11" fill="#70B0FF" opacity="1" /><circle cx="336" cy="70" r="11" fill="#65A5FF" opacity="1" /><circle cx="56" cy="112" r="11" fill="#7ABAFF" opacity="1" /><circle cx="168" cy="112" r="11" fill="#76B6FF" opacity="1" /><circle cx="280" cy="112" r="11" fill="#88C8FF" opacity="1" /><circle cx="392" cy="112" r="11" fill="#69A9FF" opacity="1" /><circle cx="28" cy="154" r="11" fill="#81C1FF" opacity="1" /><circle cx="84" cy="154" r="11" fill="#84C4FF" opacity="1" /><circle cx="140" cy="154" r="11" fill="#7ABAFF" opacity="1" /><circle cx="196" cy="154" r="11" fill="#7DBDFF" opacity="1" /><circle cx="252" cy="154" r="11" fill="#8BCBFF" opacity="1" /></g><g font-size="14" font-family="sans-serif" fill="#ffffff"><text x="224" y="28" dominant-baseline="central" text-anchor="middle">8</text><text x="112" y="70" dominant-baseline="central" text-anchor="middle">9</text><text x="336" y="70" dominant-baseline="central" text-anchor="middle">12</text><text x="56" y="112" dominant-baseline="central" text-anchor="middle">6</text><text x="168" y="112" dominant-baseline="central" text-anchor="middle">7</text><text x="280" y="112" dominant-baseline="central" text-anchor="middle">2</text><text x="392" y="112" dominant-baseline="central" text-anchor="middle">11</text><text x="28" y="154" dominant-baseline="central" text-anchor="middle">4</text><text x="84" y="154" dominant-baseline="central" text-anchor="middle">3</text><text x="140" y="154" dominant-baseline="central" text-anchor="middle">6</text><text x="196" y="154" dominant-baseline="central" text-anchor="middle">5</text><text x="252" y="154" dominant-baseline="central" text-anchor="middle">1</text></g><g font-size="14" font-family="sans-serif" fill="#888888"><text x="-28" y="0" dominant-baseline="central" text-anchor="middle"></text></g></g></g><text x="968" y="236" font-size="16" text-anchor="middle" fill="#888888" font-family="sans-serif" >6</text><rect x ="0" y="432" width="460" height="200" fill="#ffffff" stroke="#888888" stroke-width="1"/><text transform="rotate(-35, 16,612)" x="16" y="612" font-size="24" text-anchor="left" fill="#e8e8e8"  font-family="Arial">UNDER CONSTRUCTION</text><g transform="translate(0,432)"><g transform="translate(0,0) scale(1)"><g stroke="#aae0ff" stroke-width="0" fill="#aae0ff"><circle cx="224" cy="28" r="22" /></g><g stroke="#aae0ff" stroke-width="44.8" fill="#aae0ff"></g></g><g transform="translate(0,0) scale(1)"><g fill="#ffffff" stroke="#a0a0a0" stroke-width="1"><line x1="252" y1="154" x2="280" y2="112" stroke-linecap="round"/><circle cx="252" cy="154" r="14" /><line x1="196" y1="154" x2="168" y2="112" stroke-linecap="round"/><circle cx="196" cy="154" r="14" /><line x1="140" y1="154" x2="168" y2="112" stroke-linecap="round"/><circle cx="140" cy="154" r="14" /><line x1="84" y1="154" x2="56" y2="112" stroke-linecap="round"/><circle cx="84" cy="154" r="14" /><line x1="28" y1="154" x2="56" y2="112" stroke-linecap="round"/><circle cx="28" cy="154" r="14" /><line x1="392" y1="112" x2="336" y2="70" stroke-linecap="round"/><circle cx="392" cy="112" r="14" /><line x1="280" y1="112" x2="336" y2="70" stroke-linecap="round"/><circle cx="280" cy="112" r="14" /><line x1="168" y1="112" x2="112" y2="70" stroke-linecap="round"/><circle cx="168" cy="112" r="14" /><line x1="56" y1="112" x2="112" y2="70" stroke-linecap="round"/><circle cx="56" cy="112" r="14" /><line x1="336" y1="70" x2="224" y2="28" stroke-linecap="round"/><circle cx="336" cy="70" r="14" /><line x1="112" y1="70" x2="224" y2="28" stroke-linecap="round"/><circle cx="112" cy="70" r="14" /><circle cx="224" cy="28" r="14" /></g><g font-size="9" font-family="Verdana" fill="#888888"><text x="224" y="5" dominant-baseline="central" text-anchor="middle">0</text><text x="112" y="47" dominant-baseline="central" text-anchor="middle">1</text><text x="336" y="47" dominant-baseline="central" text-anchor="middle">2</text><text x="56" y="89" dominant-baseline="central" text-anchor="middle">3</text><text x="168" y="89" dominant-baseline="central" text-anchor="middle">4</text><text x="280" y="89" dominant-baseline="central" text-anchor="middle">5</text><text x="392" y="89" dominant-baseline="central" text-anchor="middle">6</text><text x="28" y="131" dominant-baseline="central" text-anchor="middle">7</text><text x="84" y="131" dominant-baseline="central" text-anchor="middle">8</text><text x="140" y="131" dominant-baseline="central" text-anchor="middle">9</text><text x="196" y="131" dominant-baseline="central" text-anchor="middle">10</text><text x="252" y="131" dominant-baseline="central" text-anchor="middle">11</text></g></g><g transform="translate(0,0) scale(1)"><g fill="#ffa0a0" stroke="#ffa0a0" stroke-width="1"><circle cx="224" cy="28" r="14" /><circle cx="224" cy="28" r="14" /></g></g><g transform="translate(0,0) scale(1)"><g stroke-width="0"><circle cx="224" cy="28" r="11" fill="#65A5FF" opacity="1" /><circle cx="112" cy="70" r="11" fill="#70B0FF" opacity="1" /><circle cx="336" cy="70" r="11" fill="#73B3FF" opacity="1" /><circle cx="56" cy="112" r="11" fill="#7ABAFF" opacity="1" /><circle cx="168" cy="112" r="11" fill="#76B6FF" opacity="1" /><circle cx="280" cy="112" r="11" fill="#88C8FF" opacity="1" /><circle cx="392" cy="112" r="11" fill="#69A9FF" opacity="1" /><circle cx="28" cy="154" r="11" fill="#81C1FF" opacity="1" /><circle cx="84" cy="154" r="11" fill="#84C4FF" opacity="1" /><circle cx="140" cy="154" r="11" fill="#7ABAFF" opacity="1" /><circle cx="196" cy="154" r="11" fill="#7DBDFF" opacity="1" /><circle cx="252" cy="154" r="11" fill="#8BCBFF" opacity="1" /></g><g font-size="14" font-family="sans-serif" fill="#ffffff"><text x="224" y="28" dominant-baseline="central" text-anchor="middle">12</text><text x="112" y="70" dominant-baseline="central" text-anchor="middle">9</text><text x="336" y="70" dominant-baseline="central" text-anchor="middle">8</text><text x="56" y="112" dominant-baseline="central" text-anchor="middle">6</text><text x="168" y="112" dominant-baseline="central" text-anchor="middle">7</text><text x="280" y="112" dominant-baseline="central" text-anchor="middle">2</text><text x="392" y="112" dominant-baseline="central" text-anchor="middle">11</text><text x="28" y="154" dominant-baseline="central" text-anchor="middle">4</text><text x="84" y="154" dominant-baseline="central" text-anchor="middle">3</text><text x="140" y="154" dominant-baseline="central" text-anchor="middle">6</text><text x="196" y="154" dominant-baseline="central" text-anchor="middle">5</text><text x="252" y="154" dominant-baseline="central" text-anchor="middle">1</text></g><g font-size="14" font-family="sans-serif" fill="#888888"><text x="-28" y="0" dominant-baseline="central" text-anchor="middle"></text></g></g></g><text x="16" y="452" font-size="16" text-anchor="middle" fill="#888888" font-family="sans-serif" >7</text><rect x ="476" y="432" width="460" height="200" fill="#ffffff" stroke="#888888" stroke-width="1"/><text transform="rotate(-35, 492,612)" x="492" y="612" font-size="24" text-anchor="left" fill="#e8e8e8"  font-family="Arial">UNDER CONSTRUCTION</text><g transform="translate(476,432)"><g transform="translate(0,0) scale(1)"><g stroke="#aae0ff" stroke-width="0" fill="#aae0ff"><circle cx="224" cy="28" r="22" /><circle cx="336" cy="70" r="22" /></g><g stroke="#aae0ff" stroke-width="44.8" fill="#aae0ff"><line x1="224" y1="28" x2="336" y2="70" stroke-linecap="round"/></g></g><g transform="translate(0,0) scale(1)"><g fill="#ffffff" stroke="#a0a0a0" stroke-width="1"><line x1="252" y1="154" x2="280" y2="112" stroke-linecap="round"/><circle cx="252" cy="154" r="14" /><line x1="196" y1="154" x2="168" y2="112" stroke-linecap="round"/><circle cx="196" cy="154" r="14" /><line x1="140" y1="154" x2="168" y2="112" stroke-linecap="round"/><circle cx="140" cy="154" r="14" /><line x1="84" y1="154" x2="56" y2="112" stroke-linecap="round"/><circle cx="84" cy="154" r="14" /><line x1="28" y1="154" x2="56" y2="112" stroke-linecap="round"/><circle cx="28" cy="154" r="14" /><line x1="392" y1="112" x2="336" y2="70" stroke-linecap="round"/><circle cx="392" cy="112" r="14" /><line x1="280" y1="112" x2="336" y2="70" stroke-linecap="round"/><circle cx="280" cy="112" r="14" /><line x1="168" y1="112" x2="112" y2="70" stroke-linecap="round"/><circle cx="168" cy="112" r="14" /><line x1="56" y1="112" x2="112" y2="70" stroke-linecap="round"/><circle cx="56" cy="112" r="14" /><line x1="336" y1="70" x2="224" y2="28" stroke-linecap="round"/><circle cx="336" cy="70" r="14" /><line x1="112" y1="70" x2="224" y2="28" stroke-linecap="round"/><circle cx="112" cy="70" r="14" /><circle cx="224" cy="28" r="14" /></g><g font-size="9" font-family="Verdana" fill="#888888"><text x="224" y="5" dominant-baseline="central" text-anchor="middle">0</text><text x="112" y="47" dominant-baseline="central" text-anchor="middle">1</text><text x="336" y="47" dominant-baseline="central" text-anchor="middle">2</text><text x="56" y="89" dominant-baseline="central" text-anchor="middle">3</text><text x="168" y="89" dominant-baseline="central" text-anchor="middle">4</text><text x="280" y="89" dominant-baseline="central" text-anchor="middle">5</text><text x="392" y="89" dominant-baseline="central" text-anchor="middle">6</text><text x="28" y="131" dominant-baseline="central" text-anchor="middle">7</text><text x="84" y="131" dominant-baseline="central" text-anchor="middle">8</text><text x="140" y="131" dominant-baseline="central" text-anchor="middle">9</text><text x="196" y="131" dominant-baseline="central" text-anchor="middle">10</text><text x="252" y="131" dominant-baseline="central" text-anchor="middle">11</text></g></g><g transform="translate(0,0) scale(1)"><g fill="#ffa0a0" stroke="#ffa0a0" stroke-width="1"><circle cx="336" cy="70" r="14" /><circle cx="224" cy="28" r="14" /></g></g><g transform="translate(0,0) scale(1)"><g stroke-width="0"><circle cx="224" cy="28" r="11" fill="#65A5FF" opacity="1" /><circle cx="112" cy="70" r="11" fill="#70B0FF" opacity="1" /><circle cx="336" cy="70" r="11" fill="#69A9FF" opacity="1" /><circle cx="56" cy="112" r="11" fill="#7ABAFF" opacity="1" /><circle cx="168" cy="112" r="11" fill="#76B6FF" opacity="1" /><circle cx="280" cy="112" r="11" fill="#88C8FF" opacity="1" /><circle cx="392" cy="112" r="11" fill="#73B3FF" opacity="1" /><circle cx="28" cy="154" r="11" fill="#81C1FF" opacity="1" /><circle cx="84" cy="154" r="11" fill="#84C4FF" opacity="1" /><circle cx="140" cy="154" r="11" fill="#7ABAFF" opacity="1" /><circle cx="196" cy="154" r="11" fill="#7DBDFF" opacity="1" /><circle cx="252" cy="154" r="11" fill="#8BCBFF" opacity="1" /></g><g font-size="14" font-family="sans-serif" fill="#ffffff"><text x="224" y="28" dominant-baseline="central" text-anchor="middle">12</text><text x="112" y="70" dominant-baseline="central" text-anchor="middle">9</text><text x="336" y="70" dominant-baseline="central" text-anchor="middle">11</text><text x="56" y="112" dominant-baseline="central" text-anchor="middle">6</text><text x="168" y="112" dominant-baseline="central" text-anchor="middle">7</text><text x="280" y="112" dominant-baseline="central" text-anchor="middle">2</text><text x="392" y="112" dominant-baseline="central" text-anchor="middle">8</text><text x="28" y="154" dominant-baseline="central" text-anchor="middle">4</text><text x="84" y="154" dominant-baseline="central" text-anchor="middle">3</text><text x="140" y="154" dominant-baseline="central" text-anchor="middle">6</text><text x="196" y="154" dominant-baseline="central" text-anchor="middle">5</text><text x="252" y="154" dominant-baseline="central" text-anchor="middle">1</text></g><g font-size="14" font-family="sans-serif" fill="#888888"><text x="-28" y="0" dominant-baseline="central" text-anchor="middle"></text></g></g></g><text x="492" y="452" font-size="16" text-anchor="middle" fill="#888888" font-family="sans-serif" >8</text></svg>

