<?xml version="1.0" encoding="UTF-8" standalone="no"?>
<svg
xmlns:svg="http://www.w3.org/2000/svg"
xmlns="http://www.w3.org/2000/svg"
xmlns:xlink="http://www.w3.org/1999/xlink"
viewBox ="0 0 280 200"
>
<defs><polygon points="0,0 6,6 0,12 18,6" id="m_tmpl2"/><marker id="token_arrow" markerUnits="strokeWidth" markerWidth="18" markerHeight="12" viewBox="0 0 18 12" refX="18" refY="6" orient="auto"><use xlink:href="#m_tmpl2" fill="#0000f0"/></marker></defs><rect x ="0" y="0" width="280" height="200" fill="#ffffff" stroke="#888888" stroke-width="1"/><g transform="translate(40,80) scale(1)"><g fill="#ffffff" stroke="#a0a0a0" stroke-width="1"><g fill="none" stroke="#000000" stroke-width="1"><path d="M 29.3899 74.0971 Q 34.871 35.043 7.05365 7.08844"  marker-end="url(#link_arrow)"/></g><g fill="none" stroke="#000000" stroke-width="1"><path d="M 35.0537 76.9116 Q 62.871 48.957 57.3899 9.90294"  marker-end="url(#link_arrow)"/></g><rect x="14" y="70" width="28" height="28" rx="4" ry="4" /><g fill="none" stroke="#000000" stroke-width="1"><path d="M 8.94427 4.47214 Q 28 14 47.0557 4.47214"  marker-end="url(#link_arrow)"/></g><g fill="none" stroke="#000000" stroke-width="1"><path d="M 8.94427 4.47214 Q 28 14 47.0557 4.47214"  marker-end="url(#link_arrow)"/></g><rect x="-14" y="-14" width="28" height="28" rx="4" ry="4" /><g fill="none" stroke="#000000" stroke-width="1"><path d="M 47.0557 -4.47214 Q 28 -14 8.94427 -4.47214"  marker-end="url(#link_arrow)"/></g><g fill="none" stroke="#000000" stroke-width="1"><path d="M 47.0557 -4.47214 Q 28 -14 8.94427 -4.47214"  marker-end="url(#link_arrow)"/></g><rect x="42" y="-14" width="28" height="28" rx="4" ry="4" /></g></g>
<g transform="translate(40,80) scale(1)"><g class="flash_g" fill="#ffa020" stroke="#ffa020" stroke-width="1"><rect x="14" y="70" width="28" height="28" rx="4" ry="4" /></g></g><g transform="translate(40,80) scale(1)"><g fill="#4080f0" stroke-width="0"><circle cx="28" cy="84" r="11" fill="#8BCBFF" opacity="1" /><circle cx="0" cy="0" r="11" fill="#8FCFFF" opacity="1" /><circle cx="56" cy="0" r="11" fill="#6FAFFF" opacity="1" /></g><g font-size="14" font-family="sans-serif" fill="#ffffff"><text x="28" y="84" dominant-baseline="central" text-anchor="middle">1</text><text x="0" y="0" dominant-baseline="central" text-anchor="middle">0</text><text x="56" y="0" dominant-baseline="central" text-anchor="middle">8</text></g></g><text x="16" y="20" font-size="16" text-anchor="middle" fill="#888888" font-family="sans-serif" >3</text></svg>

