<?xml version="1.0" encoding="UTF-8" standalone="no"?>
<svg
xmlns:svg="http://www.w3.org/2000/svg"
xmlns="http://www.w3.org/2000/svg"
xmlns:xlink="http://www.w3.org/1999/xlink"
width ="1184"
height ="432"
viewBox ="0 0 1184 432"
>
<defs><polygon points="0,0 6,6 0,12 18,6" id="m_tmpl2"/><marker id="token_arrow" markerUnits="strokeWidth" markerWidth="18" markerHeight="12" viewBox="0 0 18 12" refX="18" refY="6" orient="auto"><use xlink:href="#m_tmpl2" fill="#0000f0"/></marker></defs><defs><polygon points="0,0 0,4 0,8 16,4" id="m_tmpl3"/><marker id="link_arrow" markerUnits="strokeWidth" markerWidth="16" markerHeight="8" viewBox="0 0 16 8" refX="16" refY="4" orient="auto"><use xlink:href="#m_tmpl3" fill="#000000"/></marker></defs><rect x ="0" y="0" width="280" height="200" fill="#ffffff" stroke="#888888" stroke-width="1"/><text transform="rotate(-35, 16,180)" x="16" y="180" font-size="24" text-anchor="left" fill="#e8e8e8"  font-family="Arial">UNDER CONSTRUCTION</text><g transform="translate(0,0)"><g transform="translate(40,80) scale(1)"><g fill="#ffffff" stroke="#a0a0a0" stroke-width="1"><g fill="none" stroke="#000000" stroke-width="1"><path d="M 29.3899 74.0971 Q 34.871 35.043 7.05365 7.08844"  marker-end="url(#link_arrow)"/></g><g fill="none" stroke="#000000" stroke-width="1"><path d="M 29.3899 74.0971 Q 34.871 35.043 7.05365 7.08844"  marker-end="url(#link_arrow)"/></g><rect x="14" y="70" width="28" height="28" rx="4" ry="4" /><g fill="none" stroke="#000000" stroke-width="1"><path d="M -nan -nan Q -nan -nan -nan -nan"  marker-end="url(#link_arrow)"/></g><g fill="none" stroke="#000000" stroke-width="1"><path d="M -nan -nan Q -nan -nan -nan -nan"  marker-end="url(#link_arrow)"/></g><rect x="-14" y="-14" width="28" height="28" rx="4" ry="4" /></g></g>
<g transform="translate(40,80) scale(1)"><g class="flash_g" fill="#ffa020" stroke="#ffa020" stroke-width="1"><rect x="14" y="70" width="28" height="28" rx="4" ry="4" /></g></g><g transform="translate(40,80) scale(1)"><g fill="#4080f0" stroke-width="0"><circle cx="28" cy="84" r="11" fill="#6FAFFF" opacity="1" /><circle cx="0" cy="0" r="11" fill="#8FCFFF" opacity="1" /></g><g font-size="14" font-family="sans-serif" fill="#ffffff"><text x="28" y="84" dominant-baseline="central" text-anchor="middle">8</text><text x="0" y="0" dominant-baseline="central" text-anchor="middle">0</text></g></g></g><text x="16" y="20" font-size="16" text-anchor="middle" fill="#888888" font-family="sans-serif" >1</text><rect x ="296" y="0" width="280" height="200" fill="#ffffff" stroke="#888888" stroke-width="1"/><text transform="rotate(-35, 312,180)" x="312" y="180" font-size="24" text-anchor="left" fill="#e8e8e8"  font-family="Arial">UNDER CONSTRUCTION</text><g transform="translate(296,0)"><g transform="translate(40,80) scale(1)"><g fill="#ffffff" stroke="#a0a0a0" stroke-width="1"><g fill="none" stroke="#000000" stroke-width="1"><path d="M 47.0557 -4.47214 Q 28 -14 8.94427 -4.47214"  marker-end="url(#link_arrow)"/></g><g fill="none" stroke="#000000" stroke-width="1"><path d="M 47.0557 -4.47214 Q 28 -14 8.94427 -4.47214"  marker-end="url(#link_arrow)"/></g><rect x="42" y="-14" width="28" height="28" rx="4" ry="4" /><g fill="none" stroke="#000000" stroke-width="1"><path d="M 8.94427 4.47214 Q 28 14 47.0557 4.47214"  marker-end="url(#link_arrow)"/></g><g fill="none" stroke="#000000" stroke-width="1"><path d="M 8.94427 4.47214 Q 28 14 47.0557 4.47214"  marker-end="url(#link_arrow)"/></g><rect x="-14" y="-14" width="28" height="28" rx="4" ry="4" /></g></g>
<g transform="translate(40,80) scale(1)"><g class="flash_g" fill="#ffa0a0" stroke="#ffa0a0" stroke-width="1"><rect x="-14" y="-14" width="28" height="28" rx="4" ry="4" /></g></g><g transform="translate(40,80) scale(1)"><g class="flash_g" fill="#ffa0a0" stroke="#ffa0a0" stroke-width="1"><rect x="-14" y="-14" width="28" height="28" rx="4" ry="4" /></g></g><g transform="translate(40,80) scale(1)"><g fill="#4080f0" stroke-width="0"><circle cx="56" cy="0" r="11" fill="#6FAFFF" opacity="1" /><circle cx="0" cy="0" r="11" fill="#8FCFFF" opacity="1" /></g><g font-size="14" font-family="sans-serif" fill="#ffffff"><text x="56" y="0" dominant-baseline="central" text-anchor="middle">8</text><text x="0" y="0" dominant-baseline="central" text-anchor="middle">0</text></g></g></g><text x="312" y="20" font-size="16" text-anchor="middle" fill="#888888" font-family="sans-serif" >2</text><rect x ="592" y="0" width="280" height="200" fill="#ffffff" stroke="#888888" stroke-width="1"/><text transform="rotate(-35, 608,180)" x="608" y="180" font-size="24" text-anchor="left" fill="#e8e8e8"  font-family="Arial">UNDER CONSTRUCTION</text><g transform="translate(592,0)"><g transform="translate(40,80) scale(1)"><g fill="#ffffff" stroke="#a0a0a0" stroke-width="1"><g fill="none" stroke="#000000" stroke-width="1"><path d="M 29.3899 74.0971 Q 34.871 35.043 7.05365 7.08844"  marker-end="url(#link_arrow)"/></g><g fill="none" stroke="#000000" stroke-width="1"><path d="M 35.0537 76.9116 Q 62.871 48.957 57.3899 9.90294"  marker-end="url(#link_arrow)"/></g><rect x="14" y="70" width="28" height="28" rx="4" ry="4" /><g fill="none" stroke="#000000" stroke-width="1"><path d="M 8.94427 4.47214 Q 28 14 47.0557 4.47214"  marker-end="url(#link_arrow)"/></g><g fill="none" stroke="#000000" stroke-width="1"><path d="M 8.94427 4.47214 Q 28 14 47.0557 4.47214"  marker-end="url(#link_arrow)"/></g><rect x="-14" y="-14" width="28" height="28" rx="4" ry="4" /><g fill="none" stroke="#000000" stroke-width="1"><path d="M 47.0557 -4.47214 Q 28 -14 8.94427 -4.47214"  marker-end="url(#link_arrow)"/></g><g fill="none" stroke="#000000" stroke-width="1"><path d="M 47.0557 -4.47214 Q 28 -14 8.94427 -4.47214"  marker-end="url(#link_arrow)"/></g><rect x="42" y="-14" width="28" height="28" rx="4" ry="4" /></g></g>
<g transform="translate(40,80) scale(1)"><g class="flash_g" fill="#ffa020" stroke="#ffa020" stroke-width="1"><rect x="14" y="70" width="28" height="28" rx="4" ry="4" /></g></g><g transform="translate(40,80) scale(1)"><g fill="#4080f0" stroke-width="0"><circle cx="28" cy="84" r="11" fill="#8BCBFF" opacity="1" /><circle cx="0" cy="0" r="11" fill="#8FCFFF" opacity="1" /><circle cx="56" cy="0" r="11" fill="#6FAFFF" opacity="1" /></g><g font-size="14" font-family="sans-serif" fill="#ffffff"><text x="28" y="84" dominant-baseline="central" text-anchor="middle">1</text><text x="0" y="0" dominant-baseline="central" text-anchor="middle">0</text><text x="56" y="0" dominant-baseline="central" text-anchor="middle">8</text></g></g></g><text x="608" y="20" font-size="16" text-anchor="middle" fill="#888888" font-family="sans-serif" >3</text><rect x ="888" y="0" width="280" height="200" fill="#ffffff" stroke="#888888" stroke-width="1"/><text transform="rotate(-35, 904,180)" x="904" y="180" font-size="24" text-anchor="left" fill="#e8e8e8"  font-family="Arial">UNDER CONSTRUCTION</text><g transform="translate(888,0)"><g transform="translate(40,80) scale(1)"><g fill="#ffffff" stroke="#a0a0a0" stroke-width="1"><g fill="none" stroke="#000000" stroke-width="1"><path d="M 47.0557 -4.47214 Q 28 -14 8.94427 -4.47214"  marker-end="url(#link_arrow)"/></g><g fill="none" stroke="#000000" stroke-width="1"><path d="M 64.9443 4.47214 Q 84 14 103.056 4.47214"  marker-end="url(#link_arrow)"/></g><rect x="42" y="-14" width="28" height="28" rx="4" ry="4" /><g fill="none" stroke="#000000" stroke-width="1"><path d="M 8.94427 4.47214 Q 56 28 103.056 4.47214"  marker-end="url(#link_arrow)"/></g><g fill="none" stroke="#000000" stroke-width="1"><path d="M 8.94427 4.47214 Q 28 14 47.0557 4.47214"  marker-end="url(#link_arrow)"/></g><rect x="-14" y="-14" width="28" height="28" rx="4" ry="4" /><g fill="none" stroke="#000000" stroke-width="1"><path d="M 103.056 -4.47214 Q 84 -14 64.9443 -4.47214"  marker-end="url(#link_arrow)"/></g><g fill="none" stroke="#000000" stroke-width="1"><path d="M 103.056 -4.47214 Q 56 -28 8.94427 -4.47214"  marker-end="url(#link_arrow)"/></g><rect x="98" y="-14" width="28" height="28" rx="4" ry="4" /></g></g>
<g transform="translate(40,80) scale(1)"><g class="flash_g" fill="#ffa0a0" stroke="#ffa0a0" stroke-width="1"><rect x="-14" y="-14" width="28" height="28" rx="4" ry="4" /></g></g><g transform="translate(40,80) scale(1)"><g class="flash_g" fill="#ffa0a0" stroke="#ffa0a0" stroke-width="1"><rect x="98" y="-14" width="28" height="28" rx="4" ry="4" /></g></g><g transform="translate(40,80) scale(1)"><g fill="#4080f0" stroke-width="0"><circle cx="56" cy="0" r="11" fill="#8BCBFF" opacity="1" /><circle cx="0" cy="0" r="11" fill="#8FCFFF" opacity="1" /><circle cx="112" cy="0" r="11" fill="#6FAFFF" opacity="1" /></g><g font-size="14" font-family="sans-serif" fill="#ffffff"><text x="56" y="0" dominant-baseline="central" text-anchor="middle">1</text><text x="0" y="0" dominant-baseline="central" text-anchor="middle">0</text><text x="112" y="0" dominant-baseline="central" text-anchor="middle">8</text></g></g></g><text x="904" y="20" font-size="16" text-anchor="middle" fill="#888888" font-family="sans-serif" >4</text><rect x ="0" y="216" width="280" height="200" fill="#ffffff" stroke="#888888" stroke-width="1"/><text transform="rotate(-35, 16,396)" x="16" y="396" font-size="24" text-anchor="left" fill="#e8e8e8"  font-family="Arial">UNDER CONSTRUCTION</text><g transform="translate(0,216)"><g transform="translate(40,80) scale(1)"><g fill="#ffffff" stroke="#a0a0a0" stroke-width="1"><g fill="none" stroke="#000000" stroke-width="1"><path d="M 29.3899 74.0971 Q 34.871 35.043 7.05365 7.08844"  marker-end="url(#link_arrow)"/></g><g fill="none" stroke="#000000" stroke-width="1"><path d="M 35.0537 76.9116 Q 62.871 48.957 57.3899 9.90294"  marker-end="url(#link_arrow)"/></g><rect x="14" y="70" width="28" height="28" rx="4" ry="4" /><g fill="none" stroke="#000000" stroke-width="1"><path d="M 47.0557 -4.47214 Q 28 -14 8.94427 -4.47214"  marker-end="url(#link_arrow)"/></g><g fill="none" stroke="#000000" stroke-width="1"><path d="M 64.9443 4.47214 Q 84 14 103.056 4.47214"  marker-end="url(#link_arrow)"/></g><rect x="42" y="-14" width="28" height="28" rx="4" ry="4" /><g fill="none" stroke="#000000" stroke-width="1"><path d="M 8.94427 4.47214 Q 56 28 103.056 4.47214"  marker-end="url(#link_arrow)"/></g><g fill="none" stroke="#000000" stroke-width="1"><path d="M 8.94427 4.47214 Q 28 14 47.0557 4.47214"  marker-end="url(#link_arrow)"/></g><rect x="-14" y="-14" width="28" height="28" rx="4" ry="4" /><g fill="none" stroke="#000000" stroke-width="1"><path d="M 103.056 -4.47214 Q 84 -14 64.9443 -4.47214"  marker-end="url(#link_arrow)"/></g><g fill="none" stroke="#000000" stroke-width="1"><path d="M 103.056 -4.47214 Q 56 -28 8.94427 -4.47214"  marker-end="url(#link_arrow)"/></g><rect x="98" y="-14" width="28" height="28" rx="4" ry="4" /></g></g>
<g transform="translate(40,80) scale(1)"><g class="flash_g" fill="#ffa020" stroke="#ffa020" stroke-width="1"><rect x="14" y="70" width="28" height="28" rx="4" ry="4" /></g></g><g transform="translate(40,80) scale(1)"><g fill="#4080f0" stroke-width="0"><circle cx="28" cy="84" r="11" fill="#7BBBFF" opacity="1" /><circle cx="56" cy="0" r="11" fill="#8BCBFF" opacity="1" /><circle cx="0" cy="0" r="11" fill="#8FCFFF" opacity="1" /><circle cx="112" cy="0" r="11" fill="#6FAFFF" opacity="1" /></g><g font-size="14" font-family="sans-serif" fill="#ffffff"><text x="28" y="84" dominant-baseline="central" text-anchor="middle">5</text><text x="56" y="0" dominant-baseline="central" text-anchor="middle">1</text><text x="0" y="0" dominant-baseline="central" text-anchor="middle">0</text><text x="112" y="0" dominant-baseline="central" text-anchor="middle">8</text></g></g></g><text x="16" y="236" font-size="16" text-anchor="middle" fill="#888888" font-family="sans-serif" >5</text><rect x ="296" y="216" width="280" height="200" fill="#ffffff" stroke="#888888" stroke-width="1"/><text transform="rotate(-35, 312,396)" x="312" y="396" font-size="24" text-anchor="left" fill="#e8e8e8"  font-family="Arial">UNDER CONSTRUCTION</text><g transform="translate(296,216)"><g transform="translate(40,80) scale(1)"><g fill="#ffffff" stroke="#a0a0a0" stroke-width="1"><g fill="none" stroke="#000000" stroke-width="1"><path d="M 47.0557 -4.47214 Q 28 -14 8.94427 -4.47214"  marker-end="url(#link_arrow)"/></g><g fill="none" stroke="#000000" stroke-width="1"><path d="M 64.9443 4.47214 Q 84 14 103.056 4.47214"  marker-end="url(#link_arrow)"/></g><rect x="42" y="-14" width="28" height="28" rx="4" ry="4" /><g fill="none" stroke="#000000" stroke-width="1"><path d="M 103.056 -4.47214 Q 84 -14 64.9443 -4.47214"  marker-end="url(#link_arrow)"/></g><g fill="none" stroke="#000000" stroke-width="1"><path d="M 120.944 4.47214 Q 140 14 159.056 4.47214"  marker-end="url(#link_arrow)"/></g><rect x="98" y="-14" width="28" height="28" rx="4" ry="4" /><g fill="none" stroke="#000000" stroke-width="1"><path d="M 8.94427 4.47214 Q 84 42 159.056 4.47214"  marker-end="url(#link_arrow)"/></g><g fill="none" stroke="#000000" stroke-width="1"><path d="M 8.94427 4.47214 Q 28 14 47.0557 4.47214"  marker-end="url(#link_arrow)"/></g><rect x="-14" y="-14" width="28" height="28" rx="4" ry="4" /><g fill="none" stroke="#000000" stroke-width="1"><path d="M 159.056 -4.47214 Q 140 -14 120.944 -4.47214"  marker-end="url(#link_arrow)"/></g><g fill="none" stroke="#000000" stroke-width="1"><path d="M 159.056 -4.47214 Q 84 -42 8.94427 -4.47214"  marker-end="url(#link_arrow)"/></g><rect x="154" y="-14" width="28" height="28" rx="4" ry="4" /></g></g>
<g transform="translate(40,80) scale(1)"><g class="flash_g" fill="#ffa0a0" stroke="#ffa0a0" stroke-width="1"><rect x="-14" y="-14" width="28" height="28" rx="4" ry="4" /></g></g><g transform="translate(40,80) scale(1)"><g class="flash_g" fill="#ffa0a0" stroke="#ffa0a0" stroke-width="1"><rect x="98" y="-14" width="28" height="28" rx="4" ry="4" /></g></g><g transform="translate(40,80) scale(1)"><g fill="#4080f0" stroke-width="0"><circle cx="56" cy="0" r="11" fill="#7BBBFF" opacity="1" /><circle cx="112" cy="0" r="11" fill="#8BCBFF" opacity="1" /><circle cx="0" cy="0" r="11" fill="#8FCFFF" opacity="1" /><circle cx="168" cy="0" r="11" fill="#6FAFFF" opacity="1" /></g><g font-size="14" font-family="sans-serif" fill="#ffffff"><text x="56" y="0" dominant-baseline="central" text-anchor="middle">5</text><text x="112" y="0" dominant-baseline="central" text-anchor="middle">1</text><text x="0" y="0" dominant-baseline="central" text-anchor="middle">0</text><text x="168" y="0" dominant-baseline="central" text-anchor="middle">8</text></g></g></g><text x="312" y="236" font-size="16" text-anchor="middle" fill="#888888" font-family="sans-serif" >6</text><rect x ="592" y="216" width="280" height="200" fill="#ffffff" stroke="#888888" stroke-width="1"/><text transform="rotate(-35, 608,396)" x="608" y="396" font-size="24" text-anchor="left" fill="#e8e8e8"  font-family="Arial">UNDER CONSTRUCTION</text><g transform="translate(592,216)"><g transform="translate(40,80) scale(1)"><g fill="#ffffff" stroke="#a0a0a0" stroke-width="1"><g fill="none" stroke="#000000" stroke-width="1"><path d="M 29.3899 74.0971 Q 34.871 35.043 7.05365 7.08844"  marker-end="url(#link_arrow)"/></g><g fill="none" stroke="#000000" stroke-width="1"><path d="M 35.0537 76.9116 Q 62.871 48.957 57.3899 9.90294"  marker-end="url(#link_arrow)"/></g><rect x="14" y="70" width="28" height="28" rx="4" ry="4" /><g fill="none" stroke="#000000" stroke-width="1"><path d="M 47.0557 -4.47214 Q 28 -14 8.94427 -4.47214"  marker-end="url(#link_arrow)"/></g><g fill="none" stroke="#000000" stroke-width="1"><path d="M 64.9443 4.47214 Q 84 14 103.056 4.47214"  marker-end="url(#link_arrow)"/></g><rect x="42" y="-14" width="28" height="28" rx="4" ry="4" /><g fill="none" stroke="#000000" stroke-width="1"><path d="M 103.056 -4.47214 Q 84 -14 64.9443 -4.47214"  marker-end="url(#link_arrow)"/></g><g fill="none" stroke="#000000" stroke-width="1"><path d="M 120.944 4.47214 Q 140 14 159.056 4.47214"  marker-end="url(#link_arrow)"/></g><rect x="98" y="-14" width="28" height="28" rx="4" ry="4" /><g fill="none" stroke="#000000" stroke-width="1"><path d="M 8.94427 4.47214 Q 84 42 159.056 4.47214"  marker-end="url(#link_arrow)"/></g><g fill="none" stroke="#000000" stroke-width="1"><path d="M 8.94427 4.47214 Q 28 14 47.0557 4.47214"  marker-end="url(#link_arrow)"/></g><rect x="-14" y="-14" width="28" height="28" rx="4" ry="4" /><g fill="none" stroke="#000000" stroke-width="1"><path d="M 159.056 -4.47214 Q 140 -14 120.944 -4.47214"  marker-end="url(#link_arrow)"/></g><g fill="none" stroke="#000000" stroke-width="1"><path d="M 159.056 -4.47214 Q 84 -42 8.94427 -4.47214"  marker-end="url(#link_arrow)"/></g><rect x="154" y="-14" width="28" height="28" rx="4" ry="4" /></g></g>
<g transform="translate(40,80) scale(1)"><g class="flash_g" fill="#ffa020" stroke="#ffa020" stroke-width="1"><rect x="14" y="70" width="28" height="28" rx="4" ry="4" /></g></g><g transform="translate(40,80) scale(1)"><g fill="#4080f0" stroke-width="0"><circle cx="28" cy="84" r="11" fill="#83C3FF" opacity="1" /><circle cx="56" cy="0" r="11" fill="#7BBBFF" opacity="1" /><circle cx="112" cy="0" r="11" fill="#8BCBFF" opacity="1" /><circle cx="0" cy="0" r="11" fill="#8FCFFF" opacity="1" /><circle cx="168" cy="0" r="11" fill="#6FAFFF" opacity="1" /></g><g font-size="14" font-family="sans-serif" fill="#ffffff"><text x="28" y="84" dominant-baseline="central" text-anchor="middle">3</text><text x="56" y="0" dominant-baseline="central" text-anchor="middle">5</text><text x="112" y="0" dominant-baseline="central" text-anchor="middle">1</text><text x="0" y="0" dominant-baseline="central" text-anchor="middle">0</text><text x="168" y="0" dominant-baseline="central" text-anchor="middle">8</text></g></g></g><text x="608" y="236" font-size="16" text-anchor="middle" fill="#888888" font-family="sans-serif" >7</text><rect x ="888" y="216" width="280" height="200" fill="#ffffff" stroke="#888888" stroke-width="1"/><text transform="rotate(-35, 904,396)" x="904" y="396" font-size="24" text-anchor="left" fill="#e8e8e8"  font-family="Arial">UNDER CONSTRUCTION</text><g transform="translate(888,216)"><g transform="translate(40,80) scale(1)"><g fill="#ffffff" stroke="#a0a0a0" stroke-width="1"><g fill="none" stroke="#000000" stroke-width="1"><path d="M 47.0557 -4.47214 Q 28 -14 8.94427 -4.47214"  marker-end="url(#link_arrow)"/></g><g fill="none" stroke="#000000" stroke-width="1"><path d="M 64.9443 4.47214 Q 84 14 103.056 4.47214"  marker-end="url(#link_arrow)"/></g><rect x="42" y="-14" width="28" height="28" rx="4" ry="4" /><g fill="none" stroke="#000000" stroke-width="1"><path d="M 103.056 -4.47214 Q 84 -14 64.9443 -4.47214"  marker-end="url(#link_arrow)"/></g><g fill="none" stroke="#000000" stroke-width="1"><path d="M 120.944 4.47214 Q 140 14 159.056 4.47214"  marker-end="url(#link_arrow)"/></g><rect x="98" y="-14" width="28" height="28" rx="4" ry="4" /><g fill="none" stroke="#000000" stroke-width="1"><path d="M 159.056 -4.47214 Q 140 -14 120.944 -4.47214"  marker-end="url(#link_arrow)"/></g><g fill="none" stroke="#000000" stroke-width="1"><path d="M 176.944 4.47214 Q 196 14 215.056 4.47214"  marker-end="url(#link_arrow)"/></g><rect x="154" y="-14" width="28" height="28" rx="4" ry="4" /><g fill="none" stroke="#000000" stroke-width="1"><path d="M 8.94427 4.47214 Q 112 56 215.056 4.47214"  marker-end="url(#link_arrow)"/></g><g fill="none" stroke="#000000" stroke-width="1"><path d="M 8.94427 4.47214 Q 28 14 47.0557 4.47214"  marker-end="url(#link_arrow)"/></g><rect x="-14" y="-14" width="28" height="28" rx="4" ry="4" /><g fill="none" stroke="#000000" stroke-width="1"><path d="M 215.056 -4.47214 Q 196 -14 176.944 -4.47214"  marker-end="url(#link_arrow)"/></g><g fill="none" stroke="#000000" stroke-width="1"><path d="M 215.056 -4.47214 Q 112 -56 8.94427 -4.47214"  marker-end="url(#link_arrow)"/></g><rect x="210" y="-14" width="28" height="28" rx="4" ry="4" /></g></g>
<g transform="translate(40,80) scale(1)"><g class="flash_g" fill="#ffa0a0" stroke="#ffa0a0" stroke-width="1"><rect x="-14" y="-14" width="28" height="28" rx="4" ry="4" /></g></g><g transform="translate(40,80) scale(1)"><g class="flash_g" fill="#ffa0a0" stroke="#ffa0a0" stroke-width="1"><rect x="98" y="-14" width="28" height="28" rx="4" ry="4" /></g></g><g transform="translate(40,80) scale(1)"><g fill="#4080f0" stroke-width="0"><circle cx="56" cy="0" r="11" fill="#83C3FF" opacity="1" /><circle cx="112" cy="0" r="11" fill="#7BBBFF" opacity="1" /><circle cx="168" cy="0" r="11" fill="#8BCBFF" opacity="1" /><circle cx="0" cy="0" r="11" fill="#8FCFFF" opacity="1" /><circle cx="224" cy="0" r="11" fill="#6FAFFF" opacity="1" /></g><g font-size="14" font-family="sans-serif" fill="#ffffff"><text x="56" y="0" dominant-baseline="central" text-anchor="middle">3</text><text x="112" y="0" dominant-baseline="central" text-anchor="middle">5</text><text x="168" y="0" dominant-baseline="central" text-anchor="middle">1</text><text x="0" y="0" dominant-baseline="central" text-anchor="middle">0</text><text x="224" y="0" dominant-baseline="central" text-anchor="middle">8</text></g></g></g><text x="904" y="236" font-size="16" text-anchor="middle" fill="#888888" font-family="sans-serif" >8</text></svg>

