<?xml version="1.0" encoding="UTF-8" standalone="no"?>
<svg
xmlns:svg="http://www.w3.org/2000/svg"
xmlns="http://www.w3.org/2000/svg"
xmlns:xlink="http://www.w3.org/1999/xlink"
width ="1184"
height ="864"
viewBox ="0 0 1184 864"
>
<rect x ="0" y="0" width="280" height="200" fill="#ffffff" stroke="#888888" stroke-width="1"/><text transform="rotate(-35, 16,180)" x="16" y="180" font-size="24" text-anchor="left" fill="#e8e8e8"  font-family="Arial">UNDER CONSTRUCTION</text><g transform="translate(0,0)"><g transform="translate(17,2) scale(1)"><g stroke="#e8e8e8" stroke-width="0" fill="#e8e8e8"><circle cx="50" cy="50" r="22" /></g><g stroke="#e8e8e8" stroke-width="44.8" fill="#e8e8e8"></g></g><g transform="translate(17,2) scale(1)"><g fill="#ffffff" stroke="#a0a0a0" stroke-width="1"><line x1="50" y1="50" x2="120" y2="30" stroke-linecap="round"/><line x1="50" y1="50" x2="100" y2="100" stroke-linecap="round"/><line x1="50" y1="50" x2="80" y2="170" stroke-linecap="round"/><line x1="50" y1="50" x2="30" y2="140" stroke-linecap="round"/><line x1="120" y1="30" x2="50" y2="50" stroke-linecap="round"/><line x1="120" y1="30" x2="100" y2="100" stroke-linecap="round"/><line x1="120" y1="30" x2="170" y2="100" stroke-linecap="round"/><line x1="100" y1="100" x2="50" y2="50" stroke-linecap="round"/><line x1="100" y1="100" x2="120" y2="30" stroke-linecap="round"/><line x1="100" y1="100" x2="170" y2="100" stroke-linecap="round"/><line x1="100" y1="100" x2="220" y2="170" stroke-linecap="round"/><line x1="100" y1="100" x2="80" y2="170" stroke-linecap="round"/><line x1="30" y1="140" x2="50" y2="50" stroke-linecap="round"/><line x1="30" y1="140" x2="80" y2="170" stroke-linecap="round"/><line x1="80" y1="170" x2="50" y2="50" stroke-linecap="round"/><line x1="80" y1="170" x2="100" y2="100" stroke-linecap="round"/><line x1="80" y1="170" x2="30" y2="140" stroke-linecap="round"/><line x1="80" y1="170" x2="220" y2="170" stroke-linecap="round"/><line x1="170" y1="100" x2="120" y2="30" stroke-linecap="round"/><line x1="170" y1="100" x2="100" y2="100" stroke-linecap="round"/><line x1="170" y1="100" x2="220" y2="170" stroke-linecap="round"/><line x1="220" y1="170" x2="100" y2="100" stroke-linecap="round"/><line x1="220" y1="170" x2="80" y2="170" stroke-linecap="round"/><line x1="220" y1="170" x2="170" y2="100" stroke-linecap="round"/><circle cx="50" cy="50" r="14" /><circle cx="120" cy="30" r="14" /><circle cx="100" cy="100" r="14" /><circle cx="30" cy="140" r="14" /><circle cx="80" cy="170" r="14" /><circle cx="170" cy="100" r="14" /><circle cx="220" cy="170" r="14" /></g></g><g transform="translate(17,2) scale(1)"><g fill="#ff0000" stroke="#ff0000" stroke-width="1"><circle cx="50" cy="50" r="14" /></g></g><g transform="translate(17,2) scale(1)"><g stroke-width="0"><circle cx="50" cy="50" r="11" fill="#8FCFFF" opacity="1" /><circle cx="120" cy="30" r="11" fill="#404080" opacity="1" /><circle cx="100" cy="100" r="11" fill="#404080" opacity="1" /><circle cx="30" cy="140" r="11" fill="#404080" opacity="1" /><circle cx="80" cy="170" r="11" fill="#404080" opacity="1" /><circle cx="170" cy="100" r="11" fill="#404080" opacity="1" /><circle cx="220" cy="170" r="11" fill="#404080" opacity="1" /></g><g font-size="14" font-family="sans-serif" fill="#ffffff"><text x="50" y="50" dominant-baseline="central" text-anchor="middle">0</text><text x="120" y="30" dominant-baseline="central" text-anchor="middle">∞</text><text x="100" y="100" dominant-baseline="central" text-anchor="middle">∞</text><text x="30" y="140" dominant-baseline="central" text-anchor="middle">∞</text><text x="80" y="170" dominant-baseline="central" text-anchor="middle">∞</text><text x="170" y="100" dominant-baseline="central" text-anchor="middle">∞</text><text x="220" y="170" dominant-baseline="central" text-anchor="middle">∞</text></g><g font-size="14" font-family="sans-serif" fill="#888888"><text x="-28" y="0" dominant-baseline="central" text-anchor="middle">d</text></g></g></g><text x="16" y="20" font-size="16" text-anchor="middle" fill="#888888" font-family="sans-serif" >1</text><rect x ="296" y="0" width="280" height="200" fill="#ffffff" stroke="#888888" stroke-width="1"/><text transform="rotate(-35, 312,180)" x="312" y="180" font-size="24" text-anchor="left" fill="#e8e8e8"  font-family="Arial">UNDER CONSTRUCTION</text><g transform="translate(296,0)"><g transform="translate(17,2) scale(1)"><g stroke="#e8e8e8" stroke-width="0" fill="#e8e8e8"><circle cx="50" cy="50" r="22" /><circle cx="120" cy="30" r="22" /></g><g stroke="#e8e8e8" stroke-width="44.8" fill="#e8e8e8"><line x1="50" y1="50" x2="120" y2="30" stroke-linecap="round"/><line x1="120" y1="30" x2="50" y2="50" stroke-linecap="round"/></g></g><g transform="translate(17,2) scale(1)"><g stroke="#a0a0a0" stroke-width="8"><line x1="50" y1="50" x2="120" y2="30" stroke-linecap="round"/></g></g><g transform="translate(17,2) scale(1)"><g fill="#ffffff" stroke="#a0a0a0" stroke-width="1"><line x1="50" y1="50" x2="120" y2="30" stroke-linecap="round"/><line x1="50" y1="50" x2="100" y2="100" stroke-linecap="round"/><line x1="50" y1="50" x2="80" y2="170" stroke-linecap="round"/><line x1="50" y1="50" x2="30" y2="140" stroke-linecap="round"/><line x1="120" y1="30" x2="50" y2="50" stroke-linecap="round"/><line x1="120" y1="30" x2="100" y2="100" stroke-linecap="round"/><line x1="120" y1="30" x2="170" y2="100" stroke-linecap="round"/><line x1="100" y1="100" x2="50" y2="50" stroke-linecap="round"/><line x1="100" y1="100" x2="120" y2="30" stroke-linecap="round"/><line x1="100" y1="100" x2="170" y2="100" stroke-linecap="round"/><line x1="100" y1="100" x2="220" y2="170" stroke-linecap="round"/><line x1="100" y1="100" x2="80" y2="170" stroke-linecap="round"/><line x1="30" y1="140" x2="50" y2="50" stroke-linecap="round"/><line x1="30" y1="140" x2="80" y2="170" stroke-linecap="round"/><line x1="80" y1="170" x2="50" y2="50" stroke-linecap="round"/><line x1="80" y1="170" x2="100" y2="100" stroke-linecap="round"/><line x1="80" y1="170" x2="30" y2="140" stroke-linecap="round"/><line x1="80" y1="170" x2="220" y2="170" stroke-linecap="round"/><line x1="170" y1="100" x2="120" y2="30" stroke-linecap="round"/><line x1="170" y1="100" x2="100" y2="100" stroke-linecap="round"/><line x1="170" y1="100" x2="220" y2="170" stroke-linecap="round"/><line x1="220" y1="170" x2="100" y2="100" stroke-linecap="round"/><line x1="220" y1="170" x2="80" y2="170" stroke-linecap="round"/><line x1="220" y1="170" x2="170" y2="100" stroke-linecap="round"/><circle cx="50" cy="50" r="14" /><circle cx="120" cy="30" r="14" /><circle cx="100" cy="100" r="14" /><circle cx="30" cy="140" r="14" /><circle cx="80" cy="170" r="14" /><circle cx="170" cy="100" r="14" /><circle cx="220" cy="170" r="14" /></g></g><g transform="translate(17,2) scale(1)"><g fill="#ffffff" stroke="#ffa0a0" stroke-width="2"><circle cx="50" cy="50" r="14" /></g></g><g transform="translate(17,2) scale(1)"><g fill="#ffa0a0" stroke="#ffa0a0" stroke-width="1"><circle cx="120" cy="30" r="14" /></g></g><g stroke="#4080f0"><circle cx="133" cy="33" r="10" fill="#4080f0" opacity="0.8" /><circle cx="128" cy="34" r="10" fill="#4080f0" opacity="0.56" /><circle cx="123" cy="36" r="10" fill="#4080f0" opacity="0.392" /><circle cx="118" cy="37" r="10" fill="#4080f0" opacity="0.2744" /><circle cx="113" cy="38" r="10" fill="#4080f0" opacity="0.19208" /><circle cx="109" cy="40" r="10" fill="#4080f0" opacity="0.134456" /><circle cx="104" cy="41" r="10" fill="#4080f0" opacity="0.0941192" /><circle cx="99" cy="42" r="10" fill="#4080f0" opacity="0.0658834" /></g><g transform="translate(17,2) scale(1)"><g stroke-width="0"><circle cx="50" cy="50" r="11" fill="#8FCFFF" opacity="1" /><circle cx="120" cy="30" r="11" fill="#74B4FF" opacity="1" /><circle cx="100" cy="100" r="11" fill="#404080" opacity="1" /><circle cx="30" cy="140" r="11" fill="#404080" opacity="1" /><circle cx="80" cy="170" r="11" fill="#404080" opacity="1" /><circle cx="170" cy="100" r="11" fill="#404080" opacity="1" /><circle cx="220" cy="170" r="11" fill="#404080" opacity="1" /></g><g font-size="14" font-family="sans-serif" fill="#ffffff"><text x="50" y="50" dominant-baseline="central" text-anchor="middle">0</text><text x="120" y="30" dominant-baseline="central" text-anchor="middle">1</text><text x="100" y="100" dominant-baseline="central" text-anchor="middle">∞</text><text x="30" y="140" dominant-baseline="central" text-anchor="middle">∞</text><text x="80" y="170" dominant-baseline="central" text-anchor="middle">∞</text><text x="170" y="100" dominant-baseline="central" text-anchor="middle">∞</text><text x="220" y="170" dominant-baseline="central" text-anchor="middle">∞</text></g><g font-size="14" font-family="sans-serif" fill="#888888"><text x="-28" y="0" dominant-baseline="central" text-anchor="middle">d</text></g></g></g><text x="312" y="20" font-size="16" text-anchor="middle" fill="#888888" font-family="sans-serif" >2</text><rect x ="592" y="0" width="280" height="200" fill="#ffffff" stroke="#888888" stroke-width="1"/><text transform="rotate(-35, 608,180)" x="608" y="180" font-size="24" text-anchor="left" fill="#e8e8e8"  font-family="Arial">UNDER CONSTRUCTION</text><g transform="translate(592,0)"><g transform="translate(17,2) scale(1)"><g stroke="#e8e8e8" stroke-width="0" fill="#e8e8e8"><circle cx="50" cy="50" r="22" /><circle cx="120" cy="30" r="22" /><circle cx="100" cy="100" r="22" /></g><g stroke="#e8e8e8" stroke-width="44.8" fill="#e8e8e8"><line x1="50" y1="50" x2="120" y2="30" stroke-linecap="round"/><line x1="50" y1="50" x2="100" y2="100" stroke-linecap="round"/><line x1="120" y1="30" x2="50" y2="50" stroke-linecap="round"/><line x1="120" y1="30" x2="100" y2="100" stroke-linecap="round"/><line x1="100" y1="100" x2="50" y2="50" stroke-linecap="round"/><line x1="100" y1="100" x2="120" y2="30" stroke-linecap="round"/></g></g><g transform="translate(17,2) scale(1)"><g stroke="#a0a0a0" stroke-width="8"><line x1="50" y1="50" x2="120" y2="30" stroke-linecap="round"/><line x1="50" y1="50" x2="100" y2="100" stroke-linecap="round"/></g></g><g transform="translate(17,2) scale(1)"><g fill="#ffffff" stroke="#a0a0a0" stroke-width="1"><line x1="50" y1="50" x2="120" y2="30" stroke-linecap="round"/><line x1="50" y1="50" x2="100" y2="100" stroke-linecap="round"/><line x1="50" y1="50" x2="80" y2="170" stroke-linecap="round"/><line x1="50" y1="50" x2="30" y2="140" stroke-linecap="round"/><line x1="120" y1="30" x2="50" y2="50" stroke-linecap="round"/><line x1="120" y1="30" x2="100" y2="100" stroke-linecap="round"/><line x1="120" y1="30" x2="170" y2="100" stroke-linecap="round"/><line x1="100" y1="100" x2="50" y2="50" stroke-linecap="round"/><line x1="100" y1="100" x2="120" y2="30" stroke-linecap="round"/><line x1="100" y1="100" x2="170" y2="100" stroke-linecap="round"/><line x1="100" y1="100" x2="220" y2="170" stroke-linecap="round"/><line x1="100" y1="100" x2="80" y2="170" stroke-linecap="round"/><line x1="30" y1="140" x2="50" y2="50" stroke-linecap="round"/><line x1="30" y1="140" x2="80" y2="170" stroke-linecap="round"/><line x1="80" y1="170" x2="50" y2="50" stroke-linecap="round"/><line x1="80" y1="170" x2="100" y2="100" stroke-linecap="round"/><line x1="80" y1="170" x2="30" y2="140" stroke-linecap="round"/><line x1="80" y1="170" x2="220" y2="170" stroke-linecap="round"/><line x1="170" y1="100" x2="120" y2="30" stroke-linecap="round"/><line x1="170" y1="100" x2="100" y2="100" stroke-linecap="round"/><line x1="170" y1="100" x2="220" y2="170" stroke-linecap="round"/><line x1="220" y1="170" x2="100" y2="100" stroke-linecap="round"/><line x1="220" y1="170" x2="80" y2="170" stroke-linecap="round"/><line x1="220" y1="170" x2="170" y2="100" stroke-linecap="round"/><circle cx="50" cy="50" r="14" /><circle cx="120" cy="30" r="14" /><circle cx="100" cy="100" r="14" /><circle cx="30" cy="140" r="14" /><circle cx="80" cy="170" r="14" /><circle cx="170" cy="100" r="14" /><circle cx="220" cy="170" r="14" /></g></g><g transform="translate(17,2) scale(1)"><g fill="#ffffff" stroke="#ffa0a0" stroke-width="2"><circle cx="50" cy="50" r="14" /></g></g><g transform="translate(17,2) scale(1)"><g fill="#ffa0a0" stroke="#ffa0a0" stroke-width="1"><circle cx="100" cy="100" r="14" /></g></g><g stroke="#4080f0"><circle cx="114" cy="99" r="10" fill="#4080f0" opacity="0.8" /><circle cx="110" cy="95" r="10" fill="#4080f0" opacity="0.56" /><circle cx="107" cy="92" r="10" fill="#4080f0" opacity="0.392" /><circle cx="103" cy="88" r="10" fill="#4080f0" opacity="0.2744" /><circle cx="100" cy="85" r="10" fill="#4080f0" opacity="0.19208" /><circle cx="96" cy="81" r="10" fill="#4080f0" opacity="0.134456" /><circle cx="93" cy="78" r="10" fill="#4080f0" opacity="0.0941192" /><circle cx="89" cy="74" r="10" fill="#4080f0" opacity="0.0658834" /></g><g transform="translate(17,2) scale(1)"><g stroke-width="0"><circle cx="50" cy="50" r="11" fill="#8FCFFF" opacity="1" /><circle cx="120" cy="30" r="11" fill="#74B4FF" opacity="1" /><circle cx="100" cy="100" r="11" fill="#74B4FF" opacity="1" /><circle cx="30" cy="140" r="11" fill="#404080" opacity="1" /><circle cx="80" cy="170" r="11" fill="#404080" opacity="1" /><circle cx="170" cy="100" r="11" fill="#404080" opacity="1" /><circle cx="220" cy="170" r="11" fill="#404080" opacity="1" /></g><g font-size="14" font-family="sans-serif" fill="#ffffff"><text x="50" y="50" dominant-baseline="central" text-anchor="middle">0</text><text x="120" y="30" dominant-baseline="central" text-anchor="middle">1</text><text x="100" y="100" dominant-baseline="central" text-anchor="middle">1</text><text x="30" y="140" dominant-baseline="central" text-anchor="middle">∞</text><text x="80" y="170" dominant-baseline="central" text-anchor="middle">∞</text><text x="170" y="100" dominant-baseline="central" text-anchor="middle">∞</text><text x="220" y="170" dominant-baseline="central" text-anchor="middle">∞</text></g><g font-size="14" font-family="sans-serif" fill="#888888"><text x="-28" y="0" dominant-baseline="central" text-anchor="middle">d</text></g></g></g><text x="608" y="20" font-size="16" text-anchor="middle" fill="#888888" font-family="sans-serif" >3</text><rect x ="888" y="0" width="280" height="200" fill="#ffffff" stroke="#888888" stroke-width="1"/><text transform="rotate(-35, 904,180)" x="904" y="180" font-size="24" text-anchor="left" fill="#e8e8e8"  font-family="Arial">UNDER CONSTRUCTION</text><g transform="translate(888,0)"><g transform="translate(17,2) scale(1)"><g stroke="#e8e8e8" stroke-width="0" fill="#e8e8e8"><circle cx="50" cy="50" r="22" /><circle cx="120" cy="30" r="22" /><circle cx="100" cy="100" r="22" /><circle cx="80" cy="170" r="22" /></g><g stroke="#e8e8e8" stroke-width="44.8" fill="#e8e8e8"><line x1="50" y1="50" x2="120" y2="30" stroke-linecap="round"/><line x1="50" y1="50" x2="100" y2="100" stroke-linecap="round"/><line x1="50" y1="50" x2="80" y2="170" stroke-linecap="round"/><line x1="120" y1="30" x2="50" y2="50" stroke-linecap="round"/><line x1="120" y1="30" x2="100" y2="100" stroke-linecap="round"/><line x1="100" y1="100" x2="50" y2="50" stroke-linecap="round"/><line x1="100" y1="100" x2="120" y2="30" stroke-linecap="round"/><line x1="100" y1="100" x2="80" y2="170" stroke-linecap="round"/><line x1="80" y1="170" x2="50" y2="50" stroke-linecap="round"/><line x1="80" y1="170" x2="100" y2="100" stroke-linecap="round"/></g></g><g transform="translate(17,2) scale(1)"><g stroke="#a0a0a0" stroke-width="8"><line x1="50" y1="50" x2="120" y2="30" stroke-linecap="round"/><line x1="50" y1="50" x2="100" y2="100" stroke-linecap="round"/><line x1="50" y1="50" x2="80" y2="170" stroke-linecap="round"/></g></g><g transform="translate(17,2) scale(1)"><g fill="#ffffff" stroke="#a0a0a0" stroke-width="1"><line x1="50" y1="50" x2="120" y2="30" stroke-linecap="round"/><line x1="50" y1="50" x2="100" y2="100" stroke-linecap="round"/><line x1="50" y1="50" x2="80" y2="170" stroke-linecap="round"/><line x1="50" y1="50" x2="30" y2="140" stroke-linecap="round"/><line x1="120" y1="30" x2="50" y2="50" stroke-linecap="round"/><line x1="120" y1="30" x2="100" y2="100" stroke-linecap="round"/><line x1="120" y1="30" x2="170" y2="100" stroke-linecap="round"/><line x1="100" y1="100" x2="50" y2="50" stroke-linecap="round"/><line x1="100" y1="100" x2="120" y2="30" stroke-linecap="round"/><line x1="100" y1="100" x2="170" y2="100" stroke-linecap="round"/><line x1="100" y1="100" x2="220" y2="170" stroke-linecap="round"/><line x1="100" y1="100" x2="80" y2="170" stroke-linecap="round"/><line x1="30" y1="140" x2="50" y2="50" stroke-linecap="round"/><line x1="30" y1="140" x2="80" y2="170" stroke-linecap="round"/><line x1="80" y1="170" x2="50" y2="50" stroke-linecap="round"/><line x1="80" y1="170" x2="100" y2="100" stroke-linecap="round"/><line x1="80" y1="170" x2="30" y2="140" stroke-linecap="round"/><line x1="80" y1="170" x2="220" y2="170" stroke-linecap="round"/><line x1="170" y1="100" x2="120" y2="30" stroke-linecap="round"/><line x1="170" y1="100" x2="100" y2="100" stroke-linecap="round"/><line x1="170" y1="100" x2="220" y2="170" stroke-linecap="round"/><line x1="220" y1="170" x2="100" y2="100" stroke-linecap="round"/><line x1="220" y1="170" x2="80" y2="170" stroke-linecap="round"/><line x1="220" y1="170" x2="170" y2="100" stroke-linecap="round"/><circle cx="50" cy="50" r="14" /><circle cx="120" cy="30" r="14" /><circle cx="100" cy="100" r="14" /><circle cx="30" cy="140" r="14" /><circle cx="80" cy="170" r="14" /><circle cx="170" cy="100" r="14" /><circle cx="220" cy="170" r="14" /></g></g><g transform="translate(17,2) scale(1)"><g fill="#ffffff" stroke="#ffa0a0" stroke-width="2"><circle cx="50" cy="50" r="14" /></g></g><g transform="translate(17,2) scale(1)"><g fill="#ffa0a0" stroke="#ffa0a0" stroke-width="1"><circle cx="80" cy="170" r="14" /></g></g><g stroke="#4080f0"><circle cx="96" cy="168" r="10" fill="#4080f0" opacity="0.8" /><circle cx="95" cy="163" r="10" fill="#4080f0" opacity="0.56" /><circle cx="94" cy="158" r="10" fill="#4080f0" opacity="0.392" /><circle cx="93" cy="153" r="10" fill="#4080f0" opacity="0.2744" /><circle cx="91" cy="148" r="10" fill="#4080f0" opacity="0.19208" /><circle cx="90" cy="143" r="10" fill="#4080f0" opacity="0.134456" /><circle cx="89" cy="139" r="10" fill="#4080f0" opacity="0.0941192" /><circle cx="88" cy="134" r="10" fill="#4080f0" opacity="0.0658834" /></g><g transform="translate(17,2) scale(1)"><g stroke-width="0"><circle cx="50" cy="50" r="11" fill="#8FCFFF" opacity="1" /><circle cx="120" cy="30" r="11" fill="#74B4FF" opacity="1" /><circle cx="100" cy="100" r="11" fill="#74B4FF" opacity="1" /><circle cx="30" cy="140" r="11" fill="#404080" opacity="1" /><circle cx="80" cy="170" r="11" fill="#74B4FF" opacity="1" /><circle cx="170" cy="100" r="11" fill="#404080" opacity="1" /><circle cx="220" cy="170" r="11" fill="#404080" opacity="1" /></g><g font-size="14" font-family="sans-serif" fill="#ffffff"><text x="50" y="50" dominant-baseline="central" text-anchor="middle">0</text><text x="120" y="30" dominant-baseline="central" text-anchor="middle">1</text><text x="100" y="100" dominant-baseline="central" text-anchor="middle">1</text><text x="30" y="140" dominant-baseline="central" text-anchor="middle">∞</text><text x="80" y="170" dominant-baseline="central" text-anchor="middle">1</text><text x="170" y="100" dominant-baseline="central" text-anchor="middle">∞</text><text x="220" y="170" dominant-baseline="central" text-anchor="middle">∞</text></g><g font-size="14" font-family="sans-serif" fill="#888888"><text x="-28" y="0" dominant-baseline="central" text-anchor="middle">d</text></g></g></g><text x="904" y="20" font-size="16" text-anchor="middle" fill="#888888" font-family="sans-serif" >4</text><rect x ="0" y="216" width="280" height="200" fill="#ffffff" stroke="#888888" stroke-width="1"/><text transform="rotate(-35, 16,396)" x="16" y="396" font-size="24" text-anchor="left" fill="#e8e8e8"  font-family="Arial">UNDER CONSTRUCTION</text><g transform="translate(0,216)"><g transform="translate(17,2) scale(1)"><g stroke="#e8e8e8" stroke-width="0" fill="#e8e8e8"><circle cx="50" cy="50" r="22" /><circle cx="120" cy="30" r="22" /><circle cx="100" cy="100" r="22" /><circle cx="30" cy="140" r="22" /><circle cx="80" cy="170" r="22" /></g><g stroke="#e8e8e8" stroke-width="44.8" fill="#e8e8e8"><line x1="50" y1="50" x2="120" y2="30" stroke-linecap="round"/><line x1="50" y1="50" x2="100" y2="100" stroke-linecap="round"/><line x1="50" y1="50" x2="80" y2="170" stroke-linecap="round"/><line x1="50" y1="50" x2="30" y2="140" stroke-linecap="round"/><line x1="120" y1="30" x2="50" y2="50" stroke-linecap="round"/><line x1="120" y1="30" x2="100" y2="100" stroke-linecap="round"/><line x1="100" y1="100" x2="50" y2="50" stroke-linecap="round"/><line x1="100" y1="100" x2="120" y2="30" stroke-linecap="round"/><line x1="100" y1="100" x2="80" y2="170" stroke-linecap="round"/><line x1="30" y1="140" x2="50" y2="50" stroke-linecap="round"/><line x1="30" y1="140" x2="80" y2="170" stroke-linecap="round"/><line x1="80" y1="170" x2="50" y2="50" stroke-linecap="round"/><line x1="80" y1="170" x2="100" y2="100" stroke-linecap="round"/><line x1="80" y1="170" x2="30" y2="140" stroke-linecap="round"/></g></g><g transform="translate(17,2) scale(1)"><g stroke="#a0a0a0" stroke-width="8"><line x1="50" y1="50" x2="120" y2="30" stroke-linecap="round"/><line x1="50" y1="50" x2="100" y2="100" stroke-linecap="round"/><line x1="50" y1="50" x2="80" y2="170" stroke-linecap="round"/><line x1="50" y1="50" x2="30" y2="140" stroke-linecap="round"/></g></g><g transform="translate(17,2) scale(1)"><g fill="#ffffff" stroke="#a0a0a0" stroke-width="1"><line x1="50" y1="50" x2="120" y2="30" stroke-linecap="round"/><line x1="50" y1="50" x2="100" y2="100" stroke-linecap="round"/><line x1="50" y1="50" x2="80" y2="170" stroke-linecap="round"/><line x1="50" y1="50" x2="30" y2="140" stroke-linecap="round"/><line x1="120" y1="30" x2="50" y2="50" stroke-linecap="round"/><line x1="120" y1="30" x2="100" y2="100" stroke-linecap="round"/><line x1="120" y1="30" x2="170" y2="100" stroke-linecap="round"/><line x1="100" y1="100" x2="50" y2="50" stroke-linecap="round"/><line x1="100" y1="100" x2="120" y2="30" stroke-linecap="round"/><line x1="100" y1="100" x2="170" y2="100" stroke-linecap="round"/><line x1="100" y1="100" x2="220" y2="170" stroke-linecap="round"/><line x1="100" y1="100" x2="80" y2="170" stroke-linecap="round"/><line x1="30" y1="140" x2="50" y2="50" stroke-linecap="round"/><line x1="30" y1="140" x2="80" y2="170" stroke-linecap="round"/><line x1="80" y1="170" x2="50" y2="50" stroke-linecap="round"/><line x1="80" y1="170" x2="100" y2="100" stroke-linecap="round"/><line x1="80" y1="170" x2="30" y2="140" stroke-linecap="round"/><line x1="80" y1="170" x2="220" y2="170" stroke-linecap="round"/><line x1="170" y1="100" x2="120" y2="30" stroke-linecap="round"/><line x1="170" y1="100" x2="100" y2="100" stroke-linecap="round"/><line x1="170" y1="100" x2="220" y2="170" stroke-linecap="round"/><line x1="220" y1="170" x2="100" y2="100" stroke-linecap="round"/><line x1="220" y1="170" x2="80" y2="170" stroke-linecap="round"/><line x1="220" y1="170" x2="170" y2="100" stroke-linecap="round"/><circle cx="50" cy="50" r="14" /><circle cx="120" cy="30" r="14" /><circle cx="100" cy="100" r="14" /><circle cx="30" cy="140" r="14" /><circle cx="80" cy="170" r="14" /><circle cx="170" cy="100" r="14" /><circle cx="220" cy="170" r="14" /></g></g><g transform="translate(17,2) scale(1)"><g fill="#ffffff" stroke="#ffa0a0" stroke-width="2"><circle cx="50" cy="50" r="14" /></g></g><g transform="translate(17,2) scale(1)"><g fill="#ffa0a0" stroke="#ffa0a0" stroke-width="1"><circle cx="30" cy="140" r="14" /></g></g><g stroke="#4080f0"><circle cx="48" cy="138" r="10" fill="#4080f0" opacity="0.8" /><circle cx="49" cy="133" r="10" fill="#4080f0" opacity="0.56" /><circle cx="50" cy="128" r="10" fill="#4080f0" opacity="0.392" /><circle cx="51" cy="123" r="10" fill="#4080f0" opacity="0.2744" /><circle cx="52" cy="118" r="10" fill="#4080f0" opacity="0.19208" /><circle cx="53" cy="113" r="10" fill="#4080f0" opacity="0.134456" /><circle cx="54" cy="108" r="10" fill="#4080f0" opacity="0.0941192" /><circle cx="55" cy="103" r="10" fill="#4080f0" opacity="0.0658834" /></g><g transform="translate(17,2) scale(1)"><g stroke-width="0"><circle cx="50" cy="50" r="11" fill="#8FCFFF" opacity="1" /><circle cx="120" cy="30" r="11" fill="#74B4FF" opacity="1" /><circle cx="100" cy="100" r="11" fill="#74B4FF" opacity="1" /><circle cx="30" cy="140" r="11" fill="#74B4FF" opacity="1" /><circle cx="80" cy="170" r="11" fill="#74B4FF" opacity="1" /><circle cx="170" cy="100" r="11" fill="#404080" opacity="1" /><circle cx="220" cy="170" r="11" fill="#404080" opacity="1" /></g><g font-size="14" font-family="sans-serif" fill="#ffffff"><text x="50" y="50" dominant-baseline="central" text-anchor="middle">0</text><text x="120" y="30" dominant-baseline="central" text-anchor="middle">1</text><text x="100" y="100" dominant-baseline="central" text-anchor="middle">1</text><text x="30" y="140" dominant-baseline="central" text-anchor="middle">1</text><text x="80" y="170" dominant-baseline="central" text-anchor="middle">1</text><text x="170" y="100" dominant-baseline="central" text-anchor="middle">∞</text><text x="220" y="170" dominant-baseline="central" text-anchor="middle">∞</text></g><g font-size="14" font-family="sans-serif" fill="#888888"><text x="-28" y="0" dominant-baseline="central" text-anchor="middle">d</text></g></g></g><text x="16" y="236" font-size="16" text-anchor="middle" fill="#888888" font-family="sans-serif" >5</text><rect x ="296" y="216" width="280" height="200" fill="#ffffff" stroke="#888888" stroke-width="1"/><text transform="rotate(-35, 312,396)" x="312" y="396" font-size="24" text-anchor="left" fill="#e8e8e8"  font-family="Arial">UNDER CONSTRUCTION</text><g transform="translate(296,216)"><g transform="translate(17,2) scale(1)"><g stroke="#e8e8e8" stroke-width="0" fill="#e8e8e8"><circle cx="50" cy="50" r="22" /><circle cx="120" cy="30" r="22" /><circle cx="100" cy="100" r="22" /><circle cx="30" cy="140" r="22" /><circle cx="80" cy="170" r="22" /><circle cx="170" cy="100" r="22" /></g><g stroke="#e8e8e8" stroke-width="44.8" fill="#e8e8e8"><line x1="50" y1="50" x2="120" y2="30" stroke-linecap="round"/><line x1="50" y1="50" x2="100" y2="100" stroke-linecap="round"/><line x1="50" y1="50" x2="80" y2="170" stroke-linecap="round"/><line x1="50" y1="50" x2="30" y2="140" stroke-linecap="round"/><line x1="120" y1="30" x2="50" y2="50" stroke-linecap="round"/><line x1="120" y1="30" x2="100" y2="100" stroke-linecap="round"/><line x1="120" y1="30" x2="170" y2="100" stroke-linecap="round"/><line x1="100" y1="100" x2="50" y2="50" stroke-linecap="round"/><line x1="100" y1="100" x2="120" y2="30" stroke-linecap="round"/><line x1="100" y1="100" x2="170" y2="100" stroke-linecap="round"/><line x1="100" y1="100" x2="80" y2="170" stroke-linecap="round"/><line x1="30" y1="140" x2="50" y2="50" stroke-linecap="round"/><line x1="30" y1="140" x2="80" y2="170" stroke-linecap="round"/><line x1="80" y1="170" x2="50" y2="50" stroke-linecap="round"/><line x1="80" y1="170" x2="100" y2="100" stroke-linecap="round"/><line x1="80" y1="170" x2="30" y2="140" stroke-linecap="round"/><line x1="170" y1="100" x2="120" y2="30" stroke-linecap="round"/><line x1="170" y1="100" x2="100" y2="100" stroke-linecap="round"/></g></g><g transform="translate(17,2) scale(1)"><g stroke="#a0a0a0" stroke-width="8"><line x1="50" y1="50" x2="120" y2="30" stroke-linecap="round"/><line x1="50" y1="50" x2="100" y2="100" stroke-linecap="round"/><line x1="50" y1="50" x2="80" y2="170" stroke-linecap="round"/><line x1="50" y1="50" x2="30" y2="140" stroke-linecap="round"/><line x1="120" y1="30" x2="170" y2="100" stroke-linecap="round"/></g></g><g transform="translate(17,2) scale(1)"><g fill="#ffffff" stroke="#a0a0a0" stroke-width="1"><line x1="50" y1="50" x2="120" y2="30" stroke-linecap="round"/><line x1="50" y1="50" x2="100" y2="100" stroke-linecap="round"/><line x1="50" y1="50" x2="80" y2="170" stroke-linecap="round"/><line x1="50" y1="50" x2="30" y2="140" stroke-linecap="round"/><line x1="120" y1="30" x2="50" y2="50" stroke-linecap="round"/><line x1="120" y1="30" x2="100" y2="100" stroke-linecap="round"/><line x1="120" y1="30" x2="170" y2="100" stroke-linecap="round"/><line x1="100" y1="100" x2="50" y2="50" stroke-linecap="round"/><line x1="100" y1="100" x2="120" y2="30" stroke-linecap="round"/><line x1="100" y1="100" x2="170" y2="100" stroke-linecap="round"/><line x1="100" y1="100" x2="220" y2="170" stroke-linecap="round"/><line x1="100" y1="100" x2="80" y2="170" stroke-linecap="round"/><line x1="30" y1="140" x2="50" y2="50" stroke-linecap="round"/><line x1="30" y1="140" x2="80" y2="170" stroke-linecap="round"/><line x1="80" y1="170" x2="50" y2="50" stroke-linecap="round"/><line x1="80" y1="170" x2="100" y2="100" stroke-linecap="round"/><line x1="80" y1="170" x2="30" y2="140" stroke-linecap="round"/><line x1="80" y1="170" x2="220" y2="170" stroke-linecap="round"/><line x1="170" y1="100" x2="120" y2="30" stroke-linecap="round"/><line x1="170" y1="100" x2="100" y2="100" stroke-linecap="round"/><line x1="170" y1="100" x2="220" y2="170" stroke-linecap="round"/><line x1="220" y1="170" x2="100" y2="100" stroke-linecap="round"/><line x1="220" y1="170" x2="80" y2="170" stroke-linecap="round"/><line x1="220" y1="170" x2="170" y2="100" stroke-linecap="round"/><circle cx="50" cy="50" r="14" /><circle cx="120" cy="30" r="14" /><circle cx="100" cy="100" r="14" /><circle cx="30" cy="140" r="14" /><circle cx="80" cy="170" r="14" /><circle cx="170" cy="100" r="14" /><circle cx="220" cy="170" r="14" /></g></g><g transform="translate(17,2) scale(1)"><g fill="#ffffff" stroke="#ffa0a0" stroke-width="2"><circle cx="120" cy="30" r="14" /></g></g><g transform="translate(17,2) scale(1)"><g fill="#ffa0a0" stroke="#ffa0a0" stroke-width="1"><circle cx="170" cy="100" r="14" /></g></g><g stroke="#4080f0"><circle cx="185" cy="98" r="10" fill="#4080f0" opacity="0.8" /><circle cx="182" cy="94" r="10" fill="#4080f0" opacity="0.56" /><circle cx="179" cy="90" r="10" fill="#4080f0" opacity="0.392" /><circle cx="176" cy="86" r="10" fill="#4080f0" opacity="0.2744" /><circle cx="173" cy="82" r="10" fill="#4080f0" opacity="0.19208" /><circle cx="170" cy="78" r="10" fill="#4080f0" opacity="0.134456" /><circle cx="167" cy="74" r="10" fill="#4080f0" opacity="0.0941192" /><circle cx="164" cy="70" r="10" fill="#4080f0" opacity="0.0658834" /></g><g transform="translate(17,2) scale(1)"><g stroke-width="0"><circle cx="50" cy="50" r="11" fill="#8FCFFF" opacity="1" /><circle cx="120" cy="30" r="11" fill="#74B4FF" opacity="1" /><circle cx="100" cy="100" r="11" fill="#74B4FF" opacity="1" /><circle cx="30" cy="140" r="11" fill="#74B4FF" opacity="1" /><circle cx="80" cy="170" r="11" fill="#74B4FF" opacity="1" /><circle cx="170" cy="100" r="11" fill="#5A9AFF" opacity="1" /><circle cx="220" cy="170" r="11" fill="#404080" opacity="1" /></g><g font-size="14" font-family="sans-serif" fill="#ffffff"><text x="50" y="50" dominant-baseline="central" text-anchor="middle">0</text><text x="120" y="30" dominant-baseline="central" text-anchor="middle">1</text><text x="100" y="100" dominant-baseline="central" text-anchor="middle">1</text><text x="30" y="140" dominant-baseline="central" text-anchor="middle">1</text><text x="80" y="170" dominant-baseline="central" text-anchor="middle">1</text><text x="170" y="100" dominant-baseline="central" text-anchor="middle">2</text><text x="220" y="170" dominant-baseline="central" text-anchor="middle">∞</text></g><g font-size="14" font-family="sans-serif" fill="#888888"><text x="-28" y="0" dominant-baseline="central" text-anchor="middle">d</text></g></g></g><text x="312" y="236" font-size="16" text-anchor="middle" fill="#888888" font-family="sans-serif" >6</text><rect x ="592" y="216" width="280" height="200" fill="#ffffff" stroke="#888888" stroke-width="1"/><text transform="rotate(-35, 608,396)" x="608" y="396" font-size="24" text-anchor="left" fill="#e8e8e8"  font-family="Arial">UNDER CONSTRUCTION</text><g transform="translate(592,216)"><g transform="translate(17,2) scale(1)"><g stroke="#e8e8e8" stroke-width="0" fill="#e8e8e8"><circle cx="50" cy="50" r="22" /><circle cx="120" cy="30" r="22" /><circle cx="100" cy="100" r="22" /><circle cx="30" cy="140" r="22" /><circle cx="80" cy="170" r="22" /><circle cx="170" cy="100" r="22" /><circle cx="220" cy="170" r="22" /></g><g stroke="#e8e8e8" stroke-width="44.8" fill="#e8e8e8"><line x1="50" y1="50" x2="120" y2="30" stroke-linecap="round"/><line x1="50" y1="50" x2="100" y2="100" stroke-linecap="round"/><line x1="50" y1="50" x2="80" y2="170" stroke-linecap="round"/><line x1="50" y1="50" x2="30" y2="140" stroke-linecap="round"/><line x1="120" y1="30" x2="50" y2="50" stroke-linecap="round"/><line x1="120" y1="30" x2="100" y2="100" stroke-linecap="round"/><line x1="120" y1="30" x2="170" y2="100" stroke-linecap="round"/><line x1="100" y1="100" x2="50" y2="50" stroke-linecap="round"/><line x1="100" y1="100" x2="120" y2="30" stroke-linecap="round"/><line x1="100" y1="100" x2="170" y2="100" stroke-linecap="round"/><line x1="100" y1="100" x2="220" y2="170" stroke-linecap="round"/><line x1="100" y1="100" x2="80" y2="170" stroke-linecap="round"/><line x1="30" y1="140" x2="50" y2="50" stroke-linecap="round"/><line x1="30" y1="140" x2="80" y2="170" stroke-linecap="round"/><line x1="80" y1="170" x2="50" y2="50" stroke-linecap="round"/><line x1="80" y1="170" x2="100" y2="100" stroke-linecap="round"/><line x1="80" y1="170" x2="30" y2="140" stroke-linecap="round"/><line x1="80" y1="170" x2="220" y2="170" stroke-linecap="round"/><line x1="170" y1="100" x2="120" y2="30" stroke-linecap="round"/><line x1="170" y1="100" x2="100" y2="100" stroke-linecap="round"/><line x1="170" y1="100" x2="220" y2="170" stroke-linecap="round"/><line x1="220" y1="170" x2="100" y2="100" stroke-linecap="round"/><line x1="220" y1="170" x2="80" y2="170" stroke-linecap="round"/><line x1="220" y1="170" x2="170" y2="100" stroke-linecap="round"/></g></g><g transform="translate(17,2) scale(1)"><g stroke="#a0a0a0" stroke-width="8"><line x1="50" y1="50" x2="120" y2="30" stroke-linecap="round"/><line x1="50" y1="50" x2="100" y2="100" stroke-linecap="round"/><line x1="50" y1="50" x2="80" y2="170" stroke-linecap="round"/><line x1="50" y1="50" x2="30" y2="140" stroke-linecap="round"/><line x1="120" y1="30" x2="170" y2="100" stroke-linecap="round"/><line x1="100" y1="100" x2="220" y2="170" stroke-linecap="round"/></g></g><g transform="translate(17,2) scale(1)"><g fill="#ffffff" stroke="#a0a0a0" stroke-width="1"><line x1="50" y1="50" x2="120" y2="30" stroke-linecap="round"/><line x1="50" y1="50" x2="100" y2="100" stroke-linecap="round"/><line x1="50" y1="50" x2="80" y2="170" stroke-linecap="round"/><line x1="50" y1="50" x2="30" y2="140" stroke-linecap="round"/><line x1="120" y1="30" x2="50" y2="50" stroke-linecap="round"/><line x1="120" y1="30" x2="100" y2="100" stroke-linecap="round"/><line x1="120" y1="30" x2="170" y2="100" stroke-linecap="round"/><line x1="100" y1="100" x2="50" y2="50" stroke-linecap="round"/><line x1="100" y1="100" x2="120" y2="30" stroke-linecap="round"/><line x1="100" y1="100" x2="170" y2="100" stroke-linecap="round"/><line x1="100" y1="100" x2="220" y2="170" stroke-linecap="round"/><line x1="100" y1="100" x2="80" y2="170" stroke-linecap="round"/><line x1="30" y1="140" x2="50" y2="50" stroke-linecap="round"/><line x1="30" y1="140" x2="80" y2="170" stroke-linecap="round"/><line x1="80" y1="170" x2="50" y2="50" stroke-linecap="round"/><line x1="80" y1="170" x2="100" y2="100" stroke-linecap="round"/><line x1="80" y1="170" x2="30" y2="140" stroke-linecap="round"/><line x1="80" y1="170" x2="220" y2="170" stroke-linecap="round"/><line x1="170" y1="100" x2="120" y2="30" stroke-linecap="round"/><line x1="170" y1="100" x2="100" y2="100" stroke-linecap="round"/><line x1="170" y1="100" x2="220" y2="170" stroke-linecap="round"/><line x1="220" y1="170" x2="100" y2="100" stroke-linecap="round"/><line x1="220" y1="170" x2="80" y2="170" stroke-linecap="round"/><line x1="220" y1="170" x2="170" y2="100" stroke-linecap="round"/><circle cx="50" cy="50" r="14" /><circle cx="120" cy="30" r="14" /><circle cx="100" cy="100" r="14" /><circle cx="30" cy="140" r="14" /><circle cx="80" cy="170" r="14" /><circle cx="170" cy="100" r="14" /><circle cx="220" cy="170" r="14" /></g></g><g transform="translate(17,2) scale(1)"><g fill="#ffffff" stroke="#ffa0a0" stroke-width="2"><circle cx="100" cy="100" r="14" /></g></g><g transform="translate(17,2) scale(1)"><g fill="#ffa0a0" stroke="#ffa0a0" stroke-width="1"><circle cx="220" cy="170" r="14" /></g></g><g stroke="#4080f0"><circle cx="233" cy="170" r="10" fill="#4080f0" opacity="0.8" /><circle cx="229" cy="167" r="10" fill="#4080f0" opacity="0.56" /><circle cx="225" cy="165" r="10" fill="#4080f0" opacity="0.392" /><circle cx="220" cy="162" r="10" fill="#4080f0" opacity="0.2744" /><circle cx="216" cy="160" r="10" fill="#4080f0" opacity="0.19208" /><circle cx="212" cy="157" r="10" fill="#4080f0" opacity="0.134456" /><circle cx="207" cy="155" r="10" fill="#4080f0" opacity="0.0941192" /><circle cx="203" cy="152" r="10" fill="#4080f0" opacity="0.0658834" /></g><g transform="translate(17,2) scale(1)"><g stroke-width="0"><circle cx="50" cy="50" r="11" fill="#8FCFFF" opacity="1" /><circle cx="120" cy="30" r="11" fill="#74B4FF" opacity="1" /><circle cx="100" cy="100" r="11" fill="#74B4FF" opacity="1" /><circle cx="30" cy="140" r="11" fill="#74B4FF" opacity="1" /><circle cx="80" cy="170" r="11" fill="#74B4FF" opacity="1" /><circle cx="170" cy="100" r="11" fill="#5A9AFF" opacity="1" /><circle cx="220" cy="170" r="11" fill="#5A9AFF" opacity="1" /></g><g font-size="14" font-family="sans-serif" fill="#ffffff"><text x="50" y="50" dominant-baseline="central" text-anchor="middle">0</text><text x="120" y="30" dominant-baseline="central" text-anchor="middle">1</text><text x="100" y="100" dominant-baseline="central" text-anchor="middle">1</text><text x="30" y="140" dominant-baseline="central" text-anchor="middle">1</text><text x="80" y="170" dominant-baseline="central" text-anchor="middle">1</text><text x="170" y="100" dominant-baseline="central" text-anchor="middle">2</text><text x="220" y="170" dominant-baseline="central" text-anchor="middle">2</text></g><g font-size="14" font-family="sans-serif" fill="#888888"><text x="-28" y="0" dominant-baseline="central" text-anchor="middle">d</text></g></g></g><text x="608" y="236" font-size="16" text-anchor="middle" fill="#888888" font-family="sans-serif" >7</text></svg>

