<?xml version="1.0" encoding="UTF-8" standalone="no"?>
<svg
xmlns:svg="http://www.w3.org/2000/svg"
xmlns="http://www.w3.org/2000/svg"
xmlns:xlink="http://www.w3.org/1999/xlink"
width ="280"
height ="260"
viewBox ="0 0 280 260"
>
<defs><polygon points="0,0 6,8, 0,16 20,8" id="m_tmpl2"/><marker id="token_arrow"  markerUnits="userSpaceOnUse" markerWidth="20" markerHeight="16" viewBox="0 0 20 16" refX="14" refY="8" orient="auto"><use xlink:href="#m_tmpl2" fill="#60a0ff"/></marker></defs><defs><polygon points="0,0 0,4 0,8 12,4" id="m_tmpl3"/><marker id="link_arrow" markerUnits="strokeWidth" markerWidth="12" markerHeight="8" viewBox="0 0 12 8" refX="12" refY="4" orient="auto"><use xlink:href="#m_tmpl3" fill="#888888"/></marker></defs><g transform="translate(32,20) scale(1)"><g fill="none" stroke="#a0a0a0" stroke-width="1"><path d="M 92.9289 27.0711 Q 80 40 67.0711 52.9289"  marker-end="url(#link_arrow)"/><path d="M 100 30 Q 100 60 100 90"  marker-end="url(#link_arrow)"/><path d="M 107.071 27.0711 Q 120 40 132.929 52.9289"  marker-end="url(#link_arrow)"/><path d="M 67.0711 67.0711 Q 80 80 92.9289 92.9289"  marker-end="url(#link_arrow)"/><path d="M 147.071 67.0711 Q 160 80 172.929 92.9289"  marker-end="url(#link_arrow)"/><path d="M 30 100 Q 60 100 90 100"  marker-end="url(#link_arrow)"/><path d="M 110 100 Q 140 100 170 100"  marker-end="url(#link_arrow)"/></g><g fill="#ffffff" stroke="#a0a0a0" stroke-width="1"><circle cx="100" cy="20" r="10" /><circle cx="60" cy="60" r="10" /><circle cx="140" cy="60" r="10" /><circle cx="20" cy="100" r="10" /><circle cx="100" cy="100" r="10" /><circle cx="180" cy="100" r="10" /></g><g font-size="9" font-family="Verdana" fill="#888888"><text id="" x="100" y="2" dominant-baseline="central" text-anchor="middle">0</text><text id="" x="60" y="42" dominant-baseline="central" text-anchor="middle">1</text><text id="" x="140" y="42" dominant-baseline="central" text-anchor="middle">2</text><text id="" x="20" y="82" dominant-baseline="central" text-anchor="middle">3</text><text id="" x="100" y="82" dominant-baseline="central" text-anchor="middle">4</text><text id="" x="180" y="82" dominant-baseline="central" text-anchor="middle">5</text></g></g><g transform="translate(20,180) scale(0.64)"><g fill="none" stroke="#a0a0a0" stroke-width="1"><rect x="42" y="-14" width="28" height="28" rx="4" ry="4" /><rect x="322" y="-14" width="28" height="28" rx="4" ry="4" /><g fill="#d0d0d0"><rect x="-14" y="-14" width="28" height="28" rx="4" ry="4" /></g><rect x="266" y="-14" width="28" height="28" rx="4" ry="4" /><rect x="210" y="-14" width="28" height="28" rx="4" ry="4" /><rect x="154" y="-14" width="28" height="28" rx="4" ry="4" /><rect x="98" y="-14" width="28" height="28" rx="4" ry="4" /><path d="M 42 7 Q 28 7 14 7"  marker-end="url(#link_arrow)"/><path d="M 70 -7 Q 84 -7 98 -7"  marker-end="url(#link_arrow)"/><path d="M 322 7 Q 308 7 294 7"  marker-end="url(#link_arrow)"/><path d="M 344.625 -13.5474 Q 168 -107 -8.62538 -13.5474"  marker-end="url(#link_arrow)"/><path d="M -8.62538 13.5474 Q 168 107 344.625 13.5474"  marker-end="url(#link_arrow)"/><path d="M 14 -7 Q 28 -7 42 -7"  marker-end="url(#link_arrow)"/><path d="M 266 7 Q 252 7 238 7"  marker-end="url(#link_arrow)"/><path d="M 294 -7 Q 308 -7 322 -7"  marker-end="url(#link_arrow)"/><path d="M 210 7 Q 196 7 182 7"  marker-end="url(#link_arrow)"/><path d="M 238 -7 Q 252 -7 266 -7"  marker-end="url(#link_arrow)"/><path d="M 154 7 Q 140 7 126 7"  marker-end="url(#link_arrow)"/><path d="M 182 -7 Q 196 -7 210 -7"  marker-end="url(#link_arrow)"/><path d="M 98 7 Q 84 7 70 7"  marker-end="url(#link_arrow)"/><path d="M 126 -7 Q 140 -7 154 -7"  marker-end="url(#link_arrow)"/></g></g>
</svg>

