<?xml version="1.0" encoding="UTF-8" standalone="no"?>
<svg
xmlns:svg="http://www.w3.org/2000/svg"
xmlns="http://www.w3.org/2000/svg"
xmlns:xlink="http://www.w3.org/1999/xlink"
viewBox ="0 0 280 200"
>
<animateMotion/><defs><polygon points="0,0 6,8, 0,16 20,8" id="m_tmpl2"/><marker id="token_arrow"  markerUnits="userSpaceOnUse" markerWidth="20" markerHeight="16" viewBox="0 0 20 16" refX="14" refY="8" orient="auto"><use xlink:href="#m_tmpl2" fill="#60a0ff"/></marker></defs><defs><polygon points="0,0 0,4 0,8 12,4" id="m_tmpl3"/><marker id="link_arrow" markerUnits="strokeWidth" markerWidth="12" markerHeight="8" viewBox="0 0 12 8" refX="12" refY="4" orient="auto"><use xlink:href="#m_tmpl3" fill="#888888"/></marker></defs><rect x ="0" y="0" width="280" height="200" fill="#ffffff" stroke="#a0a0a0" stroke-width="0"/><g transform="translate(80,140) scale(1)"><g fill="#ffffff" stroke="#a0a0a0" stroke-width="1"><rect x="-14" y="-14" width="28" height="28" rx="4" ry="4" /></g></g><g transform="translate(140,140) scale(1)"><g fill="#ffffff" stroke="#a0a0a0" stroke-width="1"><rect x="-14" y="-14" width="28" height="28" rx="4" ry="4" /></g></g><g transform="translate(200,140) scale(1)"><g fill="#ffffff" stroke="#a0a0a0" stroke-width="1"><rect x="-14" y="-14" width="28" height="28" rx="4" ry="4" /></g></g><g transform="translate(200,140) scale(1)"><g class="flash_g" fill="#ff1493" stroke="#ff1493" stroke-width="1"><rect x="-14" y="-14" width="28" height="28" rx="4" ry="4" /></g><g fill="none" stroke="#a0a0a0" stroke-width="1"><rect x="-14" y="-14" width="28" height="28" rx="4" ry="4" /></g></g><g transform="translate(80,140) scale(1)"><g class="flash_g" fill="#ffffff" stroke="#ff1493" stroke-width="2"><rect x="-14" y="-14" width="28" height="28" rx="4" ry="4" /></g></g><g transform="translate(140,140) scale(1)"><g class="flash_g" fill="#ffffff" stroke="#ff1493" stroke-width="2"><rect x="-14" y="-14" width="28" height="28" rx="4" ry="4" /></g></g><g transform="translate(80,140) scale(1)"><g stroke-width="0"><circle cx="0" cy="0" r="10" fill="#89C9FF" id="var_a_7__0" /></g><g font-size="14" font-family="sans-serif" fill="#ffffff"><text id="text_a_7__0" x="0" y="0" dominant-baseline="central" text-anchor="middle">6</text></g><g font-size="14" font-family="sans-serif" fill="#4080f0"><text id="" x="0" y="-28" dominant-baseline="central" text-anchor="middle">a</text></g></g><g transform="translate(140,140) scale(1)"><g stroke-width="0"><circle cx="0" cy="0" r="10" fill="#8BCBFF" id="var_b_7__0" /></g><g font-size="14" font-family="sans-serif" fill="#ffffff"><text id="text_b_7__0" x="0" y="0" dominant-baseline="central" text-anchor="middle">4</text></g><g font-size="14" font-family="sans-serif" fill="#4080f0"><text id="" x="0" y="-28" dominant-baseline="central" text-anchor="middle">b</text></g></g><g transform="translate(200,140) scale(1)"><g stroke-width="0"><circle cx="0" cy="0" r="10" fill="#8DCDFF" id="var_r_6__0" /></g><g font-size="14" font-family="sans-serif" fill="#ffffff"><text id="text_r_6__0" x="0" y="0" dominant-baseline="central" text-anchor="middle">2</text></g><g font-size="14" font-family="sans-serif" fill="#4080f0"><text id="" x="0" y="-28" dominant-baseline="central" text-anchor="middle">r</text></g></g><g fill="#b0ffd0" stroke="#80b090" stroke-width="1" ><rect x="40" y="20" width="190" height="80" /></g><g fill="#c0e0ff" stroke="#8080b0" stroke-width="1" ><rect x="40" y="20" width="80" height="80" /><rect x="120" y="20" width="80" height="80" /><rect x="200" y="20" width="30" height="30" /><rect x="200" y="50" width="30" height="30" /><rect x="200" y="80" width="20" height="20" /></g><text x="16" y="20" font-size="16" text-anchor="middle" fill="#888888" font-family="sans-serif" >2-5</text><text x="140" y="184" font-size="9" text-anchor="middle"  font-family="Hiragino Kaku Gothic ProN, メイリオ, sans-serif">嘗試以 4×4 的正方形鋪滿。</text></svg>

