<?xml version="1.0" encoding="UTF-8" standalone="no"?>
<svg
xmlns:svg="http://www.w3.org/2000/svg"
xmlns="http://www.w3.org/2000/svg"
xmlns:xlink="http://www.w3.org/1999/xlink"
width ="280"
height ="200"
viewBox ="0 0 280 200"
>
<defs><polygon points="0,0 6,8, 0,16 20,8" id="m_tmpl2"/><marker id="token_arrow"  markerUnits="userSpaceOnUse" markerWidth="20" markerHeight="16" viewBox="0 0 20 16" refX="14" refY="8" orient="auto"><use xlink:href="#m_tmpl2" fill="#60a0ff"/></marker></defs><defs><polygon points="0,0 0,4 0,8 12,4" id="m_tmpl3"/><marker id="link_arrow" markerUnits="strokeWidth" markerWidth="12" markerHeight="8" viewBox="0 0 12 8" refX="12" refY="4" orient="auto"><use xlink:href="#m_tmpl3" fill="#888888"/></marker></defs><g transform="translate(42,86) scale(1)"><g fill="#aae0ff" stroke-width="0"><rect x="-19" y="-19" width="38" height="38" /></g></g><g transform="translate(42,86) scale(1)"><g fill="#aae0ff" stroke-width="0"><rect x="172" y="-19" width="39" height="38" /></g></g><g transform="translate(42,86) scale(1)"><g fill="#ffffff" stroke="#a0a0a0" stroke-width="1"><rect x="-14" y="-14" width="28" height="28" rx="4" ry="4" /><rect x="18" y="-14" width="28" height="28" rx="4" ry="4" /><rect x="50" y="-14" width="28" height="28" rx="4" ry="4" /><rect x="82" y="-14" width="28" height="28" rx="4" ry="4" /><rect x="114" y="-14" width="28" height="28" rx="4" ry="4" /><rect x="146" y="-14" width="28" height="28" rx="4" ry="4" /><rect x="178" y="-14" width="28" height="28" rx="4" ry="4" /></g><g font-size="9" font-family="Verdana" fill="#888888"><text id="" x="0" y="-22" dominant-baseline="central" text-anchor="middle">0</text><text id="" x="32" y="-22" dominant-baseline="central" text-anchor="middle">1</text><text id="" x="64" y="-22" dominant-baseline="central" text-anchor="middle">2</text><text id="" x="96" y="-22" dominant-baseline="central" text-anchor="middle">3</text><text id="" x="128" y="-22" dominant-baseline="central" text-anchor="middle">4</text><text id="" x="160" y="-22" dominant-baseline="central" text-anchor="middle">5</text><text id="" x="192" y="-22" dominant-baseline="central" text-anchor="middle">6</text></g></g><g transform="translate(42,86) scale(1)"><g class="flash_g" fill="#ff1493" stroke="#ff1493" stroke-width="1"><rect x="-14" y="-14" width="28" height="28" rx="4" ry="4" /><rect x="178" y="-14" width="28" height="28" rx="4" ry="4" /></g><g fill="none" stroke="#a0a0a0" stroke-width="1"><rect x="-14" y="-14" width="28" height="28" rx="4" ry="4" /><rect x="178" y="-14" width="28" height="28" rx="4" ry="4" /></g></g><g transform="translate(42,86) scale(1)"><g stroke-width="0"><circle cx="0" cy="0" r="10" fill="#5797FF" id="var_A_3__0" /><circle cx="32" cy="0" r="10" fill="#7FBFFF" id="var_A_3__1" /><circle cx="64" cy="0" r="10" fill="#77B7FF" id="var_A_3__2" /><circle cx="96" cy="0" r="10" fill="#6FAFFF" id="var_A_3__3" /><circle cx="128" cy="0" r="10" fill="#67A7FF" id="var_A_3__4" /><circle cx="160" cy="0" r="10" fill="#5F9FFF" id="var_A_3__5" /><circle cx="192" cy="0" r="10" fill="#87C7FF" id="var_A_3__6" /></g><g font-size="14" font-family="sans-serif" fill="#ffffff"><text id="text_A_3__0" x="0" y="0" dominant-baseline="central" text-anchor="middle">7</text><text id="text_A_3__1" x="32" y="0" dominant-baseline="central" text-anchor="middle">2</text><text id="text_A_3__2" x="64" y="0" dominant-baseline="central" text-anchor="middle">3</text><text id="text_A_3__3" x="96" y="0" dominant-baseline="central" text-anchor="middle">4</text><text id="text_A_3__4" x="128" y="0" dominant-baseline="central" text-anchor="middle">5</text><text id="text_A_3__5" x="160" y="0" dominant-baseline="central" text-anchor="middle">6</text><text id="text_A_3__6" x="192" y="0" dominant-baseline="central" text-anchor="middle">1</text></g><g font-size="14" font-family="sans-serif" fill="#4080f0"><text id="" x="-28" y="0" dominant-baseline="central" text-anchor="end">A</text></g><animateMotion xlink:href="#var_A_3__6" path="M -192,0 Q -96,96 0,0" dur="0.9s" repeatCount="1"/><animateMotion xlink:href="#text_A_3__6" path="M -192,0 Q -96,96 0,0" dur="0.9s" repeatCount="1"/><g fill="none" stroke="#60a0ff" stroke-width="4" stroke-linecap="round" stroke-dasharray="0.1, 8"><path class="for_print" d="M 9.89949 9.89949 Q 96 96 182.101 9.89949"  marker-end="url(#token_arrow)"/></g><animateMotion xlink:href="#var_A_3__0" path="M 192,0 Q 96,-96 0,0" dur="0.9s" repeatCount="1"/><animateMotion xlink:href="#text_A_3__0" path="M 192,0 Q 96,-96 0,0" dur="0.9s" repeatCount="1"/><g fill="none" stroke="#60a0ff" stroke-width="4" stroke-linecap="round" stroke-dasharray="0.1, 8"><path class="for_print" d="M 182.101 -9.89949 Q 96 -96 9.89949 -9.89949"  marker-end="url(#token_arrow)"/></g></g></svg>

