<?xml version="1.0" encoding="UTF-8" standalone="no"?>
<svg
xmlns:svg="http://www.w3.org/2000/svg"
xmlns="http://www.w3.org/2000/svg"
xmlns:xlink="http://www.w3.org/1999/xlink"
viewBox ="0 0 280 260"
>
<defs><polygon points="0,0 6,8, 0,16 20,8" id="m_tmpl2"/><marker id="token_arrow"  markerUnits="userSpaceOnUse" markerWidth="20" markerHeight="16" viewBox="0 0 20 16" refX="14" refY="8" orient="auto"><use xlink:href="#m_tmpl2" fill="#60a0ff"/></marker></defs><defs><polygon points="0,0 0,4 0,8 12,4" id="m_tmpl3"/><marker id="link_arrow" markerUnits="strokeWidth" markerWidth="12" markerHeight="8" viewBox="0 0 12 8" refX="12" refY="4" orient="auto"><use xlink:href="#m_tmpl3" fill="#888888"/></marker></defs><rect x ="0" y="0" width="280" height="260" fill="#ffffff" stroke="#a0a0a0" stroke-width="0"/><g transform="translate(50,40) scale(1)"><g stroke="#F0F8FF" stroke-width="0" fill="#F0F8FF"><circle cx="90" cy="0" r="22" /><circle cx="180" cy="36" r="22" /><circle cx="150" cy="72" r="22" /></g><g stroke="#F0F8FF" stroke-width="44.8" fill="#F0F8FF"><line x1="90" y1="0" x2="180" y2="36" stroke-linecap="round"/><line x1="180" y1="36" x2="150" y2="72" stroke-linecap="round"/><line x1="180" y1="36" x2="90" y2="0" stroke-linecap="round"/><line x1="150" y1="72" x2="180" y2="36" stroke-linecap="round"/></g></g><g transform="translate(50,40) scale(1)"><g fill="#ffffff" stroke="#a0a0a0" stroke-width="1"><line x1="90" y1="0" x2="30" y2="36" /><line x1="90" y1="0" x2="180" y2="36" /><circle cx="90" cy="0" r="14" /><line x1="30" y1="36" x2="0" y2="72" /><line x1="30" y1="36" x2="60" y2="72" /><circle cx="30" cy="36" r="14" /><circle cx="0" cy="72" r="14" /><circle cx="60" cy="72" r="14" /><line x1="180" y1="36" x2="150" y2="72" /><circle cx="180" cy="36" r="14" /><line x1="150" y1="72" x2="120" y2="108" /><circle cx="150" cy="72" r="14" /><circle cx="120" cy="108" r="14" /></g></g>
<g transform="translate(252,28) scale(1)"><g fill="#ffffff" stroke="#a0a0a0" stroke-width="1"><path d="M -14 0 L 0-14 L 14 0 L 0 14 L -14 0 z" /></g></g><g transform="translate(240,112) scale(1)"><g fill="#ffffff" stroke="#a0a0a0" stroke-width="1"><rect x="-14" y="-14" width="28" height="28" rx="4" ry="4" /></g></g><g transform="translate(50,40) scale(1)"><g class="flash_g" fill="#ffffff" stroke="#ff1493" stroke-width="2"><circle cx="150" cy="72" r="14" /></g></g><g transform="translate(252,28) scale(1)"><g class="flash_g" fill="#ffffff" stroke="#ff1493" stroke-width="1"  ><path d="M 0 -14 L -14 0 L 0 14 z" fill="#ff1493" stroke-width="0" /></g><g fill="none" stroke="#a0a0a0" stroke-width="1"><path d="M 0 -14 L 14 0 L 0 14 L -14 0 z"  /></g></g><g transform="translate(240,112) scale(1)"><g class="flash_g" fill="#ffffff" stroke="#ff1493" stroke-width="2"><rect x="-14" y="-14" width="28" height="28" rx="4" ry="4" /></g></g><g transform="translate(50,40) scale(1)"><g class="flash_g" transform="translate(150,58) rotate(0)" fill="#ff1493"><path d="M 0 0 L 8 -10 L 4 -10 L 4 -26 L -4 -26 L -4 -10 L -8 -10 z"/></g></g><g transform="translate(50,40) scale(1)"><g fill="#4080f0" stroke-width="0"><circle cx="90" cy="0" r="11" fill="#77B7FF" opacity="1" /><circle cx="30" cy="36" r="11" fill="#83C3FF" opacity="1" /><circle cx="0" cy="72" r="11" fill="#8BCBFF" opacity="1" /><circle cx="60" cy="72" r="11" fill="#7BBBFF" opacity="1" /><circle cx="180" cy="36" r="11" fill="#4383F3" opacity="1" /><circle cx="150" cy="72" r="11" fill="#5393FF" opacity="1" /><circle cx="120" cy="108" r="11" fill="#73B3FF" opacity="1" /></g><g font-size="14" font-family="sans-serif" fill="#ffffff"><text id="" x="90" y="0" dominant-baseline="central" text-anchor="middle">6</text><text id="" x="30" y="36" dominant-baseline="central" text-anchor="middle">3</text><text id="" x="0" y="72" dominant-baseline="central" text-anchor="middle">1</text><text id="" x="60" y="72" dominant-baseline="central" text-anchor="middle">5</text><text id="" x="180" y="36" dominant-baseline="central" text-anchor="middle">19</text><text id="" x="150" y="72" dominant-baseline="central" text-anchor="middle">15</text><text id="" x="120" y="108" dominant-baseline="central" text-anchor="middle">7</text></g></g><g transform="translate(240,112) scale(1)"><g stroke-width="0"><circle cx="0" cy="0" r="10" fill="#63A3FF" id="var__4__0" /></g><g font-size="14" font-family="sans-serif" fill="#ffffff"><text id="text__4__0" x="0" y="0" dominant-baseline="central" text-anchor="middle">11</text></g><g font-size="14" font-family="sans-serif" fill="#4080f0"><text id="" x="-28" y="0" dominant-baseline="central" text-anchor="end"></text></g></g><text x="16" y="20" font-size="16" text-anchor="middle" fill="#888888" font-family="sans-serif" >1-4</text><text x="140" y="244" font-size="9" text-anchor="middle"  font-family="Hiragino Kaku Gothic ProN, メイリオ, sans-serif">11 &lt; 19なので左に降ります。現在地のキー15と比較します。</text></svg>

