<?xml version="1.0" encoding="UTF-8" standalone="no"?>
<svg
xmlns:svg="http://www.w3.org/2000/svg"
xmlns="http://www.w3.org/2000/svg"
xmlns:xlink="http://www.w3.org/1999/xlink"
viewBox ="0 0 280 240"
>
<defs><polygon points="0,0 6,8, 0,16 20,8" id="m_tmpl2"/><marker id="token_arrow"  markerUnits="userSpaceOnUse" markerWidth="20" markerHeight="16" viewBox="0 0 20 16" refX="14" refY="8" orient="auto"><use xlink:href="#m_tmpl2" fill="#60a0ff"/></marker></defs><defs><polygon points="0,0 0,4 0,8 12,4" id="m_tmpl3"/><marker id="link_arrow" markerUnits="strokeWidth" markerWidth="12" markerHeight="8" viewBox="0 0 12 8" refX="12" refY="4" orient="auto"><use xlink:href="#m_tmpl3" fill="#888888"/></marker></defs><rect x ="0" y="0" width="280" height="240" fill="#ffffff" stroke="#a0a0a0" stroke-width="0"/><g transform="translate(60,40) scale(0.8)"><g fill="#ffffff" stroke="#a0a0a0" stroke-width="1"><rect x="-14" y="-14" width="28" height="28" rx="0" ry="0" /><rect x="14" y="-14" width="28" height="28" rx="0" ry="0" /><rect x="42" y="-14" width="28" height="28" rx="0" ry="0" /><rect x="70" y="-14" width="28" height="28" rx="0" ry="0" /><rect x="98" y="-14" width="28" height="28" rx="0" ry="0" /><rect x="126" y="-14" width="28" height="28" rx="0" ry="0" /><rect x="154" y="-14" width="28" height="28" rx="0" ry="0" /><rect x="182" y="-14" width="28" height="28" rx="0" ry="0" /><rect x="-14" y="14" width="28" height="28" rx="0" ry="0" /><rect x="14" y="14" width="28" height="28" rx="0" ry="0" /><rect x="42" y="14" width="28" height="28" rx="0" ry="0" /><rect x="70" y="14" width="28" height="28" rx="0" ry="0" /><rect x="98" y="14" width="28" height="28" rx="0" ry="0" /><rect x="126" y="14" width="28" height="28" rx="0" ry="0" /><rect x="154" y="14" width="28" height="28" rx="0" ry="0" /><rect x="182" y="14" width="28" height="28" rx="0" ry="0" /><rect x="-14" y="42" width="28" height="28" rx="0" ry="0" /><rect x="14" y="42" width="28" height="28" rx="0" ry="0" /><rect x="42" y="42" width="28" height="28" rx="0" ry="0" /><rect x="70" y="42" width="28" height="28" rx="0" ry="0" /><rect x="98" y="42" width="28" height="28" rx="0" ry="0" /><rect x="126" y="42" width="28" height="28" rx="0" ry="0" /><rect x="154" y="42" width="28" height="28" rx="0" ry="0" /><rect x="182" y="42" width="28" height="28" rx="0" ry="0" /><rect x="-14" y="70" width="28" height="28" rx="0" ry="0" /><rect x="14" y="70" width="28" height="28" rx="0" ry="0" /><rect x="42" y="70" width="28" height="28" rx="0" ry="0" /><rect x="70" y="70" width="28" height="28" rx="0" ry="0" /><rect x="98" y="70" width="28" height="28" rx="0" ry="0" /><rect x="126" y="70" width="28" height="28" rx="0" ry="0" /><rect x="154" y="70" width="28" height="28" rx="0" ry="0" /><rect x="182" y="70" width="28" height="28" rx="0" ry="0" /><rect x="-14" y="98" width="28" height="28" rx="0" ry="0" /><rect x="14" y="98" width="28" height="28" rx="0" ry="0" /><rect x="42" y="98" width="28" height="28" rx="0" ry="0" /><rect x="70" y="98" width="28" height="28" rx="0" ry="0" /><rect x="98" y="98" width="28" height="28" rx="0" ry="0" /><rect x="126" y="98" width="28" height="28" rx="0" ry="0" /><rect x="154" y="98" width="28" height="28" rx="0" ry="0" /><rect x="182" y="98" width="28" height="28" rx="0" ry="0" /><rect x="-14" y="126" width="28" height="28" rx="0" ry="0" /><rect x="14" y="126" width="28" height="28" rx="0" ry="0" /><rect x="42" y="126" width="28" height="28" rx="0" ry="0" /><rect x="70" y="126" width="28" height="28" rx="0" ry="0" /><rect x="98" y="126" width="28" height="28" rx="0" ry="0" /><rect x="126" y="126" width="28" height="28" rx="0" ry="0" /><rect x="154" y="126" width="28" height="28" rx="0" ry="0" /><rect x="182" y="126" width="28" height="28" rx="0" ry="0" /><rect x="-14" y="154" width="28" height="28" rx="0" ry="0" /><rect x="14" y="154" width="28" height="28" rx="0" ry="0" /><rect x="42" y="154" width="28" height="28" rx="0" ry="0" /><rect x="70" y="154" width="28" height="28" rx="0" ry="0" /><rect x="98" y="154" width="28" height="28" rx="0" ry="0" /><rect x="126" y="154" width="28" height="28" rx="0" ry="0" /><rect x="154" y="154" width="28" height="28" rx="0" ry="0" /><rect x="182" y="154" width="28" height="28" rx="0" ry="0" /></g><g font-size="9" font-family="Verdana" fill="#888888"><text id="" x="0" y="-25" dominant-baseline="central" text-anchor="middle">0</text><text id="" x="28" y="-25" dominant-baseline="central" text-anchor="middle">1</text><text id="" x="56" y="-25" dominant-baseline="central" text-anchor="middle">2</text><text id="" x="84" y="-25" dominant-baseline="central" text-anchor="middle">3</text><text id="" x="112" y="-25" dominant-baseline="central" text-anchor="middle">4</text><text id="" x="140" y="-25" dominant-baseline="central" text-anchor="middle">5</text><text id="" x="168" y="-25" dominant-baseline="central" text-anchor="middle">6</text><text id="" x="196" y="-25" dominant-baseline="central" text-anchor="middle">7</text><text id="" x="-25" y="0" dominant-baseline="end" text-anchor="middle">0</text><text id="" x="-25" y="28" dominant-baseline="end" text-anchor="middle">1</text><text id="" x="-25" y="56" dominant-baseline="end" text-anchor="middle">2</text><text id="" x="-25" y="84" dominant-baseline="end" text-anchor="middle">3</text><text id="" x="-25" y="112" dominant-baseline="end" text-anchor="middle">4</text><text id="" x="-25" y="140" dominant-baseline="end" text-anchor="middle">5</text><text id="" x="-25" y="168" dominant-baseline="end" text-anchor="middle">6</text></g></g><g transform="translate(60,40) scale(0.8)"><g class="flash_g" fill="#ffffff" stroke="#ff1493" stroke-width="2"><rect x="-14" y="42" width="28" height="28" rx="0" ry="0" /><rect x="14" y="42" width="28" height="28" rx="0" ry="0" /><rect x="42" y="42" width="28" height="28" rx="0" ry="0" /><rect x="70" y="42" width="28" height="28" rx="0" ry="0" /><rect x="98" y="42" width="28" height="28" rx="0" ry="0" /><rect x="126" y="42" width="28" height="28" rx="0" ry="0" /><rect x="154" y="42" width="28" height="28" rx="0" ry="0" /><rect x="182" y="42" width="28" height="28" rx="0" ry="0" /></g></g><g transform="translate(60,40) scale(0.8)"><g class="flash_g" fill="#ff1493" stroke="#ff1493" stroke-width="1"><rect x="-14" y="70" width="28" height="28" rx="0" ry="0" /><rect x="14" y="70" width="28" height="28" rx="0" ry="0" /><rect x="42" y="70" width="28" height="28" rx="0" ry="0" /><rect x="70" y="70" width="28" height="28" rx="0" ry="0" /><rect x="98" y="70" width="28" height="28" rx="0" ry="0" /><rect x="126" y="70" width="28" height="28" rx="0" ry="0" /><rect x="154" y="70" width="28" height="28" rx="0" ry="0" /><rect x="182" y="70" width="28" height="28" rx="0" ry="0" /></g><g fill="none" stroke="#a0a0a0" stroke-width="1"><rect x="-14" y="70" width="28" height="28" rx="0" ry="0" /><rect x="14" y="70" width="28" height="28" rx="0" ry="0" /><rect x="42" y="70" width="28" height="28" rx="0" ry="0" /><rect x="70" y="70" width="28" height="28" rx="0" ry="0" /><rect x="98" y="70" width="28" height="28" rx="0" ry="0" /><rect x="126" y="70" width="28" height="28" rx="0" ry="0" /><rect x="154" y="70" width="28" height="28" rx="0" ry="0" /><rect x="182" y="70" width="28" height="28" rx="0" ry="0" /></g></g><g transform="translate(60,40) scale(0.8)"><g stroke-width="0"><circle cx="28" cy="0" r="10" fill="#8FCFFF" id="var_A_13__1" /><circle cx="56" cy="0" r="10" fill="#8FCFFF" id="var_A_13__2" /><circle cx="84" cy="0" r="10" fill="#8FCFFF" id="var_A_13__3" /><circle cx="112" cy="0" r="10" fill="#8FCFFF" id="var_A_13__4" /><circle cx="140" cy="0" r="10" fill="#8FCFFF" id="var_A_13__5" /><circle cx="168" cy="0" r="10" fill="#8FCFFF" id="var_A_13__6" /><circle cx="196" cy="0" r="10" fill="#8FCFFF" id="var_A_13__7" /><circle cx="0" cy="28" r="10" fill="#8FCFFF" id="var_A_13__8" /><circle cx="28" cy="28" r="10" fill="#74B4FF" id="var_A_13__9" /><circle cx="56" cy="28" r="10" fill="#74B4FF" id="var_A_13__10" /><circle cx="84" cy="28" r="10" fill="#74B4FF" id="var_A_13__11" /><circle cx="112" cy="28" r="10" fill="#74B4FF" id="var_A_13__12" /><circle cx="140" cy="28" r="10" fill="#8FCFFF" id="var_A_13__13" /><circle cx="168" cy="28" r="10" fill="#8FCFFF" id="var_A_13__14" /><circle cx="196" cy="28" r="10" fill="#8FCFFF" id="var_A_13__15" /><circle cx="0" cy="56" r="10" fill="#8FCFFF" id="var_A_13__16" /><circle cx="28" cy="56" r="10" fill="#74B4FF" id="var_A_13__17" /><circle cx="56" cy="56" r="10" fill="#74B4FF" id="var_A_13__18" /><circle cx="84" cy="56" r="10" fill="#5A9AFF" id="var_A_13__19" /><circle cx="112" cy="56" r="10" fill="#5A9AFF" id="var_A_13__20" /><circle cx="140" cy="56" r="10" fill="#74B4FF" id="var_A_13__21" /><circle cx="168" cy="56" r="10" fill="#74B4FF" id="var_A_13__22" /><circle cx="196" cy="56" r="10" fill="#8FCFFF" id="var_A_13__23" /><circle cx="0" cy="84" r="10" fill="#8FCFFF" id="var_A_13__24" /><circle cx="28" cy="84" r="10" fill="#74B4FF" id="var_A_13__25" /><circle cx="56" cy="84" r="10" fill="#74B4FF" id="var_A_13__26" /><circle cx="84" cy="84" r="10" fill="#4080F0" id="var_A_13__27" /><circle cx="112" cy="84" r="10" fill="#4080F0" id="var_A_13__28" /><circle cx="140" cy="84" r="10" fill="#5A9AFF" id="var_A_13__29" /><circle cx="168" cy="84" r="10" fill="#74B4FF" id="var_A_13__30" /><circle cx="196" cy="84" r="10" fill="#8FCFFF" id="var_A_13__31" /><circle cx="28" cy="112" r="10" fill="#ffaaff" id="var_A_13__33" /><circle cx="56" cy="112" r="10" fill="#ffaaff" id="var_A_13__34" /><circle cx="84" cy="112" r="10" fill="#ffaaff" id="var_A_13__35" /><circle cx="112" cy="112" r="10" fill="#ffaaff" id="var_A_13__36" /><circle cx="140" cy="112" r="10" fill="#8FCFFF" id="var_A_13__37" /><circle cx="168" cy="112" r="10" fill="#8FCFFF" id="var_A_13__38" /><circle cx="196" cy="112" r="10" fill="#8FCFFF" id="var_A_13__39" /><circle cx="28" cy="140" r="10" fill="#8FCFFF" id="var_A_13__41" /><circle cx="56" cy="140" r="10" fill="#8FCFFF" id="var_A_13__42" /><circle cx="84" cy="140" r="10" fill="#8FCFFF" id="var_A_13__43" /><circle cx="112" cy="140" r="10" fill="#8FCFFF" id="var_A_13__44" /><circle cx="140" cy="140" r="10" fill="#8FCFFF" id="var_A_13__45" /><circle cx="168" cy="140" r="10" fill="#8FCFFF" id="var_A_13__46" /><circle cx="196" cy="140" r="10" fill="#8FCFFF" id="var_A_13__47" /><circle cx="28" cy="168" r="10" fill="#8FCFFF" id="var_A_13__49" /><circle cx="56" cy="168" r="10" fill="#8FCFFF" id="var_A_13__50" /><circle cx="84" cy="168" r="10" fill="#ffaaff" id="var_A_13__51" /><circle cx="112" cy="168" r="10" fill="#ffaaff" id="var_A_13__52" /><circle cx="140" cy="168" r="10" fill="#ffaaff" id="var_A_13__53" /><circle cx="168" cy="168" r="10" fill="#ffaaff" id="var_A_13__54" /><circle cx="196" cy="168" r="10" fill="#8FCFFF" id="var_A_13__55" /></g><g font-size="14" font-family="sans-serif" fill="#ffffff"><text id="text_A_13__1" x="28" y="0" dominant-baseline="central" text-anchor="middle">0</text><text id="text_A_13__2" x="56" y="0" dominant-baseline="central" text-anchor="middle">0</text><text id="text_A_13__3" x="84" y="0" dominant-baseline="central" text-anchor="middle">0</text><text id="text_A_13__4" x="112" y="0" dominant-baseline="central" text-anchor="middle">0</text><text id="text_A_13__5" x="140" y="0" dominant-baseline="central" text-anchor="middle">0</text><text id="text_A_13__6" x="168" y="0" dominant-baseline="central" text-anchor="middle">0</text><text id="text_A_13__7" x="196" y="0" dominant-baseline="central" text-anchor="middle">0</text><text id="text_A_13__8" x="0" y="28" dominant-baseline="central" text-anchor="middle">0</text><text id="text_A_13__9" x="28" y="28" dominant-baseline="central" text-anchor="middle">1</text><text id="text_A_13__10" x="56" y="28" dominant-baseline="central" text-anchor="middle">1</text><text id="text_A_13__11" x="84" y="28" dominant-baseline="central" text-anchor="middle">1</text><text id="text_A_13__12" x="112" y="28" dominant-baseline="central" text-anchor="middle">1</text><text id="text_A_13__13" x="140" y="28" dominant-baseline="central" text-anchor="middle">0</text><text id="text_A_13__14" x="168" y="28" dominant-baseline="central" text-anchor="middle">0</text><text id="text_A_13__15" x="196" y="28" dominant-baseline="central" text-anchor="middle">0</text><text id="text_A_13__16" x="0" y="56" dominant-baseline="central" text-anchor="middle">0</text><text id="text_A_13__17" x="28" y="56" dominant-baseline="central" text-anchor="middle">1</text><text id="text_A_13__18" x="56" y="56" dominant-baseline="central" text-anchor="middle">1</text><text id="text_A_13__19" x="84" y="56" dominant-baseline="central" text-anchor="middle">2</text><text id="text_A_13__20" x="112" y="56" dominant-baseline="central" text-anchor="middle">2</text><text id="text_A_13__21" x="140" y="56" dominant-baseline="central" text-anchor="middle">1</text><text id="text_A_13__22" x="168" y="56" dominant-baseline="central" text-anchor="middle">1</text><text id="text_A_13__23" x="196" y="56" dominant-baseline="central" text-anchor="middle">0</text><text id="text_A_13__24" x="0" y="84" dominant-baseline="central" text-anchor="middle">0</text><text id="text_A_13__25" x="28" y="84" dominant-baseline="central" text-anchor="middle">1</text><text id="text_A_13__26" x="56" y="84" dominant-baseline="central" text-anchor="middle">1</text><text id="text_A_13__27" x="84" y="84" dominant-baseline="central" text-anchor="middle">3</text><text id="text_A_13__28" x="112" y="84" dominant-baseline="central" text-anchor="middle">3</text><text id="text_A_13__29" x="140" y="84" dominant-baseline="central" text-anchor="middle">2</text><text id="text_A_13__30" x="168" y="84" dominant-baseline="central" text-anchor="middle">1</text><text id="text_A_13__31" x="196" y="84" dominant-baseline="central" text-anchor="middle">0</text><text id="text_A_13__33" x="28" y="112" dominant-baseline="central" text-anchor="middle">-1</text><text id="text_A_13__34" x="56" y="112" dominant-baseline="central" text-anchor="middle">-1</text><text id="text_A_13__35" x="84" y="112" dominant-baseline="central" text-anchor="middle">-1</text><text id="text_A_13__36" x="112" y="112" dominant-baseline="central" text-anchor="middle">-1</text><text id="text_A_13__37" x="140" y="112" dominant-baseline="central" text-anchor="middle">0</text><text id="text_A_13__38" x="168" y="112" dominant-baseline="central" text-anchor="middle">0</text><text id="text_A_13__39" x="196" y="112" dominant-baseline="central" text-anchor="middle">0</text><text id="text_A_13__41" x="28" y="140" dominant-baseline="central" text-anchor="middle">0</text><text id="text_A_13__42" x="56" y="140" dominant-baseline="central" text-anchor="middle">0</text><text id="text_A_13__43" x="84" y="140" dominant-baseline="central" text-anchor="middle">0</text><text id="text_A_13__44" x="112" y="140" dominant-baseline="central" text-anchor="middle">0</text><text id="text_A_13__45" x="140" y="140" dominant-baseline="central" text-anchor="middle">0</text><text id="text_A_13__46" x="168" y="140" dominant-baseline="central" text-anchor="middle">0</text><text id="text_A_13__47" x="196" y="140" dominant-baseline="central" text-anchor="middle">0</text><text id="text_A_13__49" x="28" y="168" dominant-baseline="central" text-anchor="middle">0</text><text id="text_A_13__50" x="56" y="168" dominant-baseline="central" text-anchor="middle">0</text><text id="text_A_13__51" x="84" y="168" dominant-baseline="central" text-anchor="middle">-2</text><text id="text_A_13__52" x="112" y="168" dominant-baseline="central" text-anchor="middle">-2</text><text id="text_A_13__53" x="140" y="168" dominant-baseline="central" text-anchor="middle">-2</text><text id="text_A_13__54" x="168" y="168" dominant-baseline="central" text-anchor="middle">-1</text><text id="text_A_13__55" x="196" y="168" dominant-baseline="central" text-anchor="middle">0</text></g></g><g transform="translate(60,40) scale(0.8)"><g fill="none" stroke="#6080ff" stroke-width="2"><rect x="14" y="14" width="112" height="84" /><rect x="70" y="42" width="112" height="112" /><rect x="70" y="70" width="84" height="84" /></g></g><text x="16" y="20" font-size="16" text-anchor="middle" fill="#888888" font-family="sans-serif" >3-3</text><text x="140" y="224" font-size="9" text-anchor="middle"  font-family="Hiragino Kaku Gothic ProN, メイリオ, sans-serif">A[x][3] &#8592; A[x][3]+ A[x][2]</text></svg>

