<?xml version="1.0" encoding="UTF-8" standalone="no"?>
<!-- Created with Inkscape (http://www.inkscape.org/) -->

<svg
   xmlns:dc="http://purl.org/dc/elements/1.1/"
   xmlns:cc="http://creativecommons.org/ns#"
   xmlns:rdf="http://www.w3.org/1999/02/22-rdf-syntax-ns#"
   xmlns:svg="http://www.w3.org/2000/svg"
   xmlns="http://www.w3.org/2000/svg"
   xmlns:sodipodi="http://sodipodi.sourceforge.net/DTD/sodipodi-0.dtd"
   xmlns:inkscape="http://www.inkscape.org/namespaces/inkscape"
   width="360pt"
   height="240pt"
   viewBox="0 0 127 84.66666"
   version="1.1"
   id="svg8"
   inkscape:version="0.92.4 (5da689c313, 2019-01-14)"
   sodipodi:docname="output.svg">
  <defs
     id="defs2" />
  <sodipodi:namedview
     id="base"
     pagecolor="#ffffff"
     bordercolor="#666666"
     borderopacity="1.0"
     inkscape:pageopacity="0.0"
     inkscape:pageshadow="2"
     inkscape:zoom="1.6612501"
     inkscape:cx="403.20551"
     inkscape:cy="23.687792"
     inkscape:document-units="pt"
     inkscape:current-layer="layer1"
     showgrid="true"
     units="pt"
     inkscape:window-width="2361"
     inkscape:window-height="1212"
     inkscape:window-x="108"
     inkscape:window-y="103"
     inkscape:window-maximized="0">
    <inkscape:grid
       type="xygrid"
       id="grid4518" />
  </sodipodi:namedview>
  <metadata
     id="metadata5">
    <rdf:RDF>
      <cc:Work
         rdf:about="">
        <dc:format>image/svg+xml</dc:format>
        <dc:type
           rdf:resource="http://purl.org/dc/dcmitype/StillImage" />
        <dc:title />
      </cc:Work>
    </rdf:RDF>
  </metadata>
  <g
     inkscape:label="Layer 1"
     inkscape:groupmode="layer"
     id="layer1"
     transform="translate(0,-212.33335)"
     style="opacity:0.99">
    <rect
       style="opacity:1;fill:#505050;fill-opacity:1;stroke:none;stroke-width:0.70555556;stroke-linecap:square;stroke-linejoin:miter;stroke-miterlimit:4;stroke-dasharray:none;stroke-dashoffset:0;stroke-opacity:1"
       id="rect831"
       width="29.104166"
       height="1.3229166"
       x="76.729164"
       y="286.41693" />
    <rect
       style="opacity:1;fill:#505050;fill-opacity:1;stroke:none;stroke-width:0.83301479;stroke-linecap:square;stroke-linejoin:miter;stroke-miterlimit:4;stroke-dasharray:none;stroke-dashoffset:0;stroke-opacity:1"
       id="rect833"
       width="1.3229166"
       height="60.854023"
       x="76.729164"
       y="226.88545" />
    <rect
       style="opacity:1;fill:#505050;fill-opacity:1;stroke:none;stroke-width:0.83301491;stroke-linecap:square;stroke-linejoin:miter;stroke-miterlimit:4;stroke-dasharray:none;stroke-dashoffset:0;stroke-opacity:1"
       id="rect833-2"
       width="1.3229166"
       height="60.854038"
       x="104.51042"
       y="226.88545" />
    <path
       style="fill:#207bee;fill-opacity:1;stroke:none;stroke-width:0.26458332px;stroke-linecap:butt;stroke-linejoin:miter;stroke-opacity:1"
       d="m 70.114572,269.21878 -5.291664,-3.96874 3e-6,2.64583 -5.29167,10e-6 c 0,0 -2.64583,0 -2.645832,-2.64584 l -3e-6,-3.96875 h -2.645834 l -3e-6,3.96876 c 0,0 5e-6,5.29166 5.291675,5.29166 l 5.29167,-1e-5 2e-6,2.64583 z"
       id="path879"
       inkscape:connector-curvature="0"
       sodipodi:nodetypes="ccccscccsccc" />
    <rect
       style="opacity:1;fill:#505050;fill-opacity:1;stroke:none;stroke-width:0.70555556;stroke-linecap:square;stroke-linejoin:miter;stroke-miterlimit:4;stroke-dasharray:none;stroke-dashoffset:0;stroke-opacity:1"
       id="rect831-6"
       width="29.104166"
       height="1.3229166"
       x="76.729164"
       y="274.51047" />
    <rect
       style="opacity:1;fill:#505050;fill-opacity:1;stroke:none;stroke-width:0.70555556;stroke-linecap:square;stroke-linejoin:miter;stroke-miterlimit:4;stroke-dasharray:none;stroke-dashoffset:0;stroke-opacity:1"
       id="rect831-6-9-9"
       width="29.104166"
       height="1.3229166"
       x="17.197914"
       y="262.60422" />
    <rect
       style="opacity:1;fill:#505050;fill-opacity:1;stroke:none;stroke-width:0.70555556;stroke-linecap:square;stroke-linejoin:miter;stroke-miterlimit:4;stroke-dasharray:none;stroke-dashoffset:0;stroke-opacity:1"
       id="rect831-6-9-8-2"
       width="29.104166"
       height="1.3229166"
       x="17.197914"
       y="250.69794" />
    <rect
       style="opacity:1;fill:#505050;fill-opacity:0.39215686;fill-rule:nonzero;stroke:none;stroke-width:0.22311637;stroke-linecap:square;stroke-linejoin:round;stroke-miterlimit:4;stroke-dasharray:none;stroke-dashoffset:0;stroke-opacity:1;paint-order:normal"
       id="rect912"
       width="5.2916617"
       height="5.2916765"
       x="71.4375"
       y="226.88544" />
    <rect
       style="opacity:1;fill:#505050;fill-opacity:0.54901961;fill-rule:nonzero;stroke:none;stroke-width:0.22311637;stroke-linecap:square;stroke-linejoin:round;stroke-miterlimit:4;stroke-dasharray:none;stroke-dashoffset:0;stroke-opacity:1;paint-order:normal"
       id="rect912-2"
       width="5.2916617"
       height="5.2916765"
       x="71.4375"
       y="238.79169" />
    <rect
       style="opacity:1;fill:#505050;fill-opacity:0.70588235;fill-rule:nonzero;stroke:none;stroke-width:0.22311637;stroke-linecap:square;stroke-linejoin:round;stroke-miterlimit:4;stroke-dasharray:none;stroke-dashoffset:0;stroke-opacity:1;paint-order:normal"
       id="rect912-9"
       width="5.2916617"
       height="5.2916765"
       x="71.4375"
       y="250.69795" />
    <rect
       style="opacity:1;fill:#505050;fill-opacity:0.8627451;fill-rule:nonzero;stroke:none;stroke-width:0.22311637;stroke-linecap:square;stroke-linejoin:round;stroke-miterlimit:4;stroke-dasharray:none;stroke-dashoffset:0;stroke-opacity:1;paint-order:normal"
       id="rect912-2-4"
       width="5.2916617"
       height="5.2916765"
       x="71.4375"
       y="262.60422" />
    <rect
       style="opacity:1;fill:#505050;fill-opacity:1;fill-rule:nonzero;stroke:none;stroke-width:0.22311637;stroke-linecap:square;stroke-linejoin:round;stroke-miterlimit:4;stroke-dasharray:none;stroke-dashoffset:0;stroke-opacity:1;paint-order:normal"
       id="rect912-95"
       width="5.2916617"
       height="5.2916765"
       x="71.4375"
       y="274.51047" />
    <path
       style="fill:#e1d5e9;fill-opacity:1;stroke:none;stroke-width:0.26458332px;stroke-linecap:butt;stroke-linejoin:miter;stroke-opacity:1"
       d="m 79.374996,283.77087 v -5.29167 c 0,0 0,-1.32292 1.322917,-1.32292 1.322916,0 21.166667,0 21.166667,0 0,0 1.32291,0 1.32291,1.32292 0,1.32292 0,5.29167 0,5.29167 0,0 0,1.32291 -1.32291,1.32291 -1.32292,0 -21.166667,0 -21.166667,0 0,0 -1.322917,0 -1.322917,-1.32291 z"
       id="path957"
       inkscape:connector-curvature="0" />
    <rect
       style="opacity:1;fill:#505050;fill-opacity:1;stroke:none;stroke-width:0.70555556;stroke-linecap:square;stroke-linejoin:miter;stroke-miterlimit:4;stroke-dasharray:none;stroke-dashoffset:0;stroke-opacity:1"
       id="rect831-6-5"
       width="29.104166"
       height="1.3229166"
       x="76.729164"
       y="262.60422" />
    <path
       style="opacity:0.98999999;fill:#e2d574;fill-opacity:1;stroke:none;stroke-width:0.26458332px;stroke-linecap:butt;stroke-linejoin:miter;stroke-opacity:1"
       d="m 79.374997,259.95837 v -5.29167 c 0,0 0,-1.32292 1.322917,-1.32292 1.322916,0 21.166666,0 21.166666,0 0,0 1.32291,0 1.32291,1.32292 0,1.32292 0,5.29167 0,5.29167 0,0 0,1.32291 -1.32291,1.32291 -1.32292,0 -21.166666,0 -21.166666,0 0,0 -1.322917,0 -1.322917,-1.32291 z"
       id="path957-8"
       inkscape:connector-curvature="0" />
    <rect
       style="opacity:1;fill:#505050;fill-opacity:1;stroke:none;stroke-width:0.70555556;stroke-linecap:square;stroke-linejoin:miter;stroke-miterlimit:4;stroke-dasharray:none;stroke-dashoffset:0;stroke-opacity:1"
       id="rect831-6-0"
       width="29.104166"
       height="1.3229166"
       x="76.729164"
       y="250.69795" />
    <path
       style="opacity:0.98999999;fill:#4ec6f0;fill-opacity:1;stroke:none;stroke-width:0.26458332px;stroke-linecap:butt;stroke-linejoin:miter;stroke-opacity:1"
       d="m 19.843749,259.95837 v -5.29167 c 0,0 0,-1.32292 1.322917,-1.32292 1.322916,0 21.166663,0 21.166663,0 0,0 1.32291,0 1.32291,1.32292 0,1.32292 0,5.29167 0,5.29167 0,0 0,1.32291 -1.32291,1.32291 -1.32292,0 -21.166663,0 -21.166663,0 0,0 -1.322917,0 -1.322917,-1.32291 z"
       id="path957-6"
       inkscape:connector-curvature="0" />
    <rect
       style="opacity:1;fill:#505050;fill-opacity:1;stroke:none;stroke-width:0.70555556;stroke-linecap:square;stroke-linejoin:miter;stroke-miterlimit:4;stroke-dasharray:none;stroke-dashoffset:0;stroke-opacity:1"
       id="rect831-6-52"
       width="29.104166"
       height="1.3229166"
       x="76.729164"
       y="238.79169" />
    <path
       style="opacity:0.98999999;fill:#4ed574;fill-opacity:1;stroke:none;stroke-width:0.26458332px;stroke-linecap:butt;stroke-linejoin:miter;stroke-opacity:1"
       d="m 79.374997,248.05212 v -5.29167 c 0,0 0,-1.32292 1.322917,-1.32292 1.322916,0 21.166666,0 21.166666,0 0,0 1.32291,0 1.32291,1.32292 0,1.32292 0,5.29167 0,5.29167 0,0 0,1.32291 -1.32291,1.32291 -1.32292,0 -21.166666,0 -21.166666,0 0,0 -1.322917,0 -1.322917,-1.32291 z"
       id="path957-84"
       inkscape:connector-curvature="0" />
    <rect
       style="opacity:1;fill:#505050;fill-opacity:1;stroke:none;stroke-width:0.70555556;stroke-linecap:square;stroke-linejoin:miter;stroke-miterlimit:4;stroke-dasharray:none;stroke-dashoffset:0;stroke-opacity:1"
       id="rect831-6-6"
       width="29.104166"
       height="1.3229166"
       x="76.729164"
       y="226.88545" />
    <path
       style="opacity:0.98999999;fill:#f3a775;fill-opacity:1;stroke:none;stroke-width:0.26458332px;stroke-linecap:butt;stroke-linejoin:miter;stroke-opacity:1"
       d="m 79.374997,236.14587 v -5.29167 c 0,0 0,-1.32292 1.322917,-1.32292 1.322916,0 21.166666,0 21.166666,0 0,0 1.32291,0 1.32291,1.32292 0,1.32292 0,5.29167 0,5.29167 0,0 0,1.32291 -1.32291,1.32291 -1.32292,0 -21.166666,0 -21.166666,0 0,0 -1.322917,0 -1.322917,-1.32291 z"
       id="path957-2"
       inkscape:connector-curvature="0" />
    <path
       style="fill:#207bee;fill-opacity:1;stroke:none;stroke-width:0.26458332px;stroke-linecap:butt;stroke-linejoin:miter;stroke-opacity:1"
       d="m 17.197916,257.31252 -5.291666,-3.96875 v 2.64583 l -9.2604168,1e-5 v 2.64583 H 11.90625 v 2.64583 z"
       id="path1016"
       inkscape:connector-curvature="0"
       sodipodi:nodetypes="cccccccc" />
    <path
       style="fill:#207bee;fill-opacity:1;stroke:none;stroke-width:0.26458332px;stroke-linecap:butt;stroke-linejoin:miter;stroke-opacity:1"
       d="m 54.239582,261.28129 h 2.645833 c 0,0 0,-5.29167 -5.291666,-5.29167 -5.291667,0 -5.291667,0 -5.291667,0 v 2.64583 h 5.291667 c 0,0 2.645833,0 2.645833,2.64584 z"
       id="path1020"
       inkscape:connector-curvature="0" />
    <path
       style="opacity:0.98999999;fill:#4ec6f0;fill-opacity:1;stroke:none;stroke-width:0.26458332px;stroke-linecap:butt;stroke-linejoin:miter;stroke-opacity:1"
       d="m 85.98958,271.8646 v -5.29167 c 0,0 0,-1.32292 1.322917,-1.32292 1.322916,0 21.166653,0 21.166653,0 0,0 1.32291,0 1.32291,1.32292 0,1.32292 0,5.29167 0,5.29167 0,0 0,1.32291 -1.32291,1.32291 -1.32292,0 -21.166653,0 -21.166653,0 0,0 -1.322917,0 -1.322917,-1.32291 z"
       id="path957-6-5"
       inkscape:connector-curvature="0" />
    <path
       style="opacity:0.98999999;fill:#207bee;fill-opacity:1;stroke:none;stroke-width:0.26458332px;stroke-linecap:butt;stroke-linejoin:miter;stroke-opacity:1"
       d="m 124.35416,269.21877 -5.29166,-3.96875 v 2.64583 l -6.61459,0 v 2.64583 l 6.61459,1e-5 v 2.64583 z"
       id="path1016-3"
       inkscape:connector-curvature="0"
       sodipodi:nodetypes="cccccccc" />
  </g>
</svg>
