<?xml version="1.0" encoding="UTF-8" standalone="no"?>
<svg
xmlns:svg="http://www.w3.org/2000/svg"
xmlns="http://www.w3.org/2000/svg"
xmlns:xlink="http://www.w3.org/1999/xlink"
viewBox ="0 0 480 200"
>
<defs><polygon points="0,0 6,8, 0,16 20,8" id="m_tmpl2"/><marker id="token_arrow"  markerUnits="userSpaceOnUse" markerWidth="20" markerHeight="16" viewBox="0 0 20 16" refX="14" refY="8" orient="auto"><use xlink:href="#m_tmpl2" fill="#60a0ff"/></marker></defs><defs><polygon points="0,0 0,4 0,8 12,4" id="m_tmpl3"/><marker id="link_arrow" markerUnits="strokeWidth" markerWidth="12" markerHeight="8" viewBox="0 0 12 8" refX="12" refY="4" orient="auto"><use xlink:href="#m_tmpl3" fill="#888888"/></marker></defs><rect x ="0" y="0" width="480" height="200" fill="#ffffff" stroke="#a0a0a0" stroke-width="0"/><g transform="translate(20,20) scale(1)"><g stroke="#F0F8FF" stroke-width="0" fill="#F0F8FF"><rect x="0" y="-14" width="448" height="28" /><rect x="0" y="14" width="224" height="28" /><rect x="224" y="14" width="224" height="28" /><rect x="112" y="42" width="112" height="28" /><rect x="336" y="42" width="112" height="28" /><rect x="112" y="70" width="56" height="28" /><rect x="336" y="70" width="56" height="28" /></g></g><g transform="translate(20,20) scale(1)"><g stroke="#c8e8ff" stroke-width="0" fill="#c8e8ff"><rect x="224" y="42" width="112" height="28" /><rect x="168" y="70" width="56" height="28" /><rect x="140" y="98" width="28" height="28" /><rect x="336" y="98" width="28" height="28" /></g></g><g transform="translate(20,20) scale(1)"><g stroke="#e8e8e8" stroke-width="0" fill="#e8e8e8"><rect x="0" y="42" width="112" height="28" /><rect x="392" y="70" width="56" height="28" /><rect x="112" y="98" width="28" height="28" /><rect x="364" y="98" width="28" height="28" /></g></g><g transform="translate(20,20) scale(1)"><g fill="#ffffff" stroke="#a0a0a0" stroke-width="1"><line x1="434" y1="112" x2="420" y2="84" stroke-linecap="round"/><circle cx="434" cy="112" r="10" /><line x1="406" y1="112" x2="420" y2="84" stroke-linecap="round"/><circle cx="406" cy="112" r="10" /><line x1="378" y1="112" x2="364" y2="84" stroke-linecap="round"/><circle cx="378" cy="112" r="10" /><line x1="350" y1="112" x2="364" y2="84" stroke-linecap="round"/><circle cx="350" cy="112" r="10" /><line x1="322" y1="112" x2="308" y2="84" stroke-linecap="round"/><circle cx="322" cy="112" r="10" /><line x1="294" y1="112" x2="308" y2="84" stroke-linecap="round"/><circle cx="294" cy="112" r="10" /><line x1="266" y1="112" x2="252" y2="84" stroke-linecap="round"/><circle cx="266" cy="112" r="10" /><line x1="238" y1="112" x2="252" y2="84" stroke-linecap="round"/><circle cx="238" cy="112" r="10" /><line x1="210" y1="112" x2="196" y2="84" stroke-linecap="round"/><circle cx="210" cy="112" r="10" /><line x1="182" y1="112" x2="196" y2="84" stroke-linecap="round"/><circle cx="182" cy="112" r="10" /><line x1="154" y1="112" x2="140" y2="84" stroke-linecap="round"/><circle cx="154" cy="112" r="10" /><line x1="126" y1="112" x2="140" y2="84" stroke-linecap="round"/><circle cx="126" cy="112" r="10" /><line x1="98" y1="112" x2="84" y2="84" stroke-linecap="round"/><circle cx="98" cy="112" r="10" /><line x1="70" y1="112" x2="84" y2="84" stroke-linecap="round"/><circle cx="70" cy="112" r="10" /><line x1="42" y1="112" x2="28" y2="84" stroke-linecap="round"/><circle cx="42" cy="112" r="10" /><line x1="14" y1="112" x2="28" y2="84" stroke-linecap="round"/><circle cx="14" cy="112" r="10" /><line x1="420" y1="84" x2="392" y2="56" stroke-linecap="round"/><circle cx="420" cy="84" r="10" /><line x1="364" y1="84" x2="392" y2="56" stroke-linecap="round"/><circle cx="364" cy="84" r="10" /><line x1="308" y1="84" x2="280" y2="56" stroke-linecap="round"/><circle cx="308" cy="84" r="10" /><line x1="252" y1="84" x2="280" y2="56" stroke-linecap="round"/><circle cx="252" cy="84" r="10" /><line x1="196" y1="84" x2="168" y2="56" stroke-linecap="round"/><circle cx="196" cy="84" r="10" /><line x1="140" y1="84" x2="168" y2="56" stroke-linecap="round"/><circle cx="140" cy="84" r="10" /><line x1="84" y1="84" x2="56" y2="56" stroke-linecap="round"/><circle cx="84" cy="84" r="10" /><line x1="28" y1="84" x2="56" y2="56" stroke-linecap="round"/><circle cx="28" cy="84" r="10" /><line x1="392" y1="56" x2="336" y2="28" stroke-linecap="round"/><circle cx="392" cy="56" r="10" /><line x1="280" y1="56" x2="336" y2="28" stroke-linecap="round"/><circle cx="280" cy="56" r="10" /><line x1="168" y1="56" x2="112" y2="28" stroke-linecap="round"/><circle cx="168" cy="56" r="10" /><line x1="56" y1="56" x2="112" y2="28" stroke-linecap="round"/><circle cx="56" cy="56" r="10" /><line x1="336" y1="28" x2="224" y2="0" stroke-linecap="round"/><circle cx="336" cy="28" r="10" /><line x1="112" y1="28" x2="224" y2="0" stroke-linecap="round"/><circle cx="112" cy="28" r="10" /><circle cx="224" cy="0" r="10" /></g></g><g transform="translate(20,20) scale(1)"><g class="flash_g" fill="#ff8c00" stroke="#ff8c00" stroke-width="1"><circle cx="224" cy="0" r="10" /></g><g fill="none" stroke="#a0a0a0" stroke-width="1"><circle cx="224" cy="0" r="10" /></g></g><g transform="translate(20,20) scale(1)"><g class="flash_g" fill="#ffffff" stroke="#ff8c00" stroke-width="2"><circle cx="112" cy="28" r="10" /></g></g><g transform="translate(20,20) scale(1)"><g class="flash_g" fill="#ffffff" stroke="#ff8c00" stroke-width="2"><circle cx="336" cy="28" r="10" /></g></g><g transform="translate(20,20) scale(1)"><g stroke-width="0"><circle cx="224" cy="0" r="7" fill="#4585F5" id="var_sum_22__0" /><circle cx="112" cy="28" r="7" fill="#5F9FFF" id="var_sum_22__1" /><circle cx="336" cy="28" r="7" fill="#74B4FF" id="var_sum_22__2" /><circle cx="56" cy="56" r="7" fill="#7FBFFF" id="var_sum_22__3" /><circle cx="168" cy="56" r="7" fill="#6FAFFF" id="var_sum_22__4" /><circle cx="280" cy="56" r="7" fill="#7FBFFF" id="var_sum_22__5" /><circle cx="392" cy="56" r="7" fill="#84C4FF" id="var_sum_22__6" /><circle cx="28" cy="84" r="7" fill="#8FCFFF" id="var_sum_22__7" /><circle cx="84" cy="84" r="7" fill="#7FBFFF" id="var_sum_22__8" /><circle cx="140" cy="84" r="7" fill="#7FBFFF" id="var_sum_22__9" /><circle cx="196" cy="84" r="7" fill="#7FBFFF" id="var_sum_22__10" /><circle cx="252" cy="84" r="7" fill="#7FBFFF" id="var_sum_22__11" /><circle cx="308" cy="84" r="7" fill="#8FCFFF" id="var_sum_22__12" /><circle cx="364" cy="84" r="7" fill="#89C9FF" id="var_sum_22__13" /><circle cx="420" cy="84" r="7" fill="#89C9FF" id="var_sum_22__14" /><circle cx="14" cy="112" r="7" fill="#8FCFFF" id="var_sum_22__15" /><circle cx="42" cy="112" r="7" fill="#8FCFFF" id="var_sum_22__16" /><circle cx="70" cy="112" r="7" fill="#84C4FF" id="var_sum_22__17" /><circle cx="98" cy="112" r="7" fill="#89C9FF" id="var_sum_22__18" /><circle cx="126" cy="112" r="7" fill="#84C4FF" id="var_sum_22__19" /><circle cx="154" cy="112" r="7" fill="#89C9FF" id="var_sum_22__20" /><circle cx="182" cy="112" r="7" fill="#8FCFFF" id="var_sum_22__21" /><circle cx="210" cy="112" r="7" fill="#7FBFFF" id="var_sum_22__22" /><circle cx="238" cy="112" r="7" fill="#84C4FF" id="var_sum_22__23" /><circle cx="266" cy="112" r="7" fill="#89C9FF" id="var_sum_22__24" /><circle cx="294" cy="112" r="7" fill="#8FCFFF" id="var_sum_22__25" /><circle cx="322" cy="112" r="7" fill="#8FCFFF" id="var_sum_22__26" /><circle cx="350" cy="112" r="7" fill="#89C9FF" id="var_sum_22__27" /><circle cx="378" cy="112" r="7" fill="#8FCFFF" id="var_sum_22__28" /><circle cx="406" cy="112" r="7" fill="#89C9FF" id="var_sum_22__29" /><circle cx="434" cy="112" r="7" fill="#8FCFFF" id="var_sum_22__30" /></g><g font-size="11" font-family="sans-serif" fill="#ffffff"><text id="text_sum_22__0" x="224" y="0" dominant-baseline="central" text-anchor="middle">14</text><text id="text_sum_22__1" x="112" y="28" dominant-baseline="central" text-anchor="middle">9</text><text id="text_sum_22__2" x="336" y="28" dominant-baseline="central" text-anchor="middle">5</text><text id="text_sum_22__3" x="56" y="56" dominant-baseline="central" text-anchor="middle">3</text><text id="text_sum_22__4" x="168" y="56" dominant-baseline="central" text-anchor="middle">6</text><text id="text_sum_22__5" x="280" y="56" dominant-baseline="central" text-anchor="middle">3</text><text id="text_sum_22__6" x="392" y="56" dominant-baseline="central" text-anchor="middle">2</text><text id="text_sum_22__7" x="28" y="84" dominant-baseline="central" text-anchor="middle">0</text><text id="text_sum_22__8" x="84" y="84" dominant-baseline="central" text-anchor="middle">3</text><text id="text_sum_22__9" x="140" y="84" dominant-baseline="central" text-anchor="middle">3</text><text id="text_sum_22__10" x="196" y="84" dominant-baseline="central" text-anchor="middle">3</text><text id="text_sum_22__11" x="252" y="84" dominant-baseline="central" text-anchor="middle">3</text><text id="text_sum_22__12" x="308" y="84" dominant-baseline="central" text-anchor="middle">0</text><text id="text_sum_22__13" x="364" y="84" dominant-baseline="central" text-anchor="middle">1</text><text id="text_sum_22__14" x="420" y="84" dominant-baseline="central" text-anchor="middle">1</text><text id="text_sum_22__15" x="14" y="112" dominant-baseline="central" text-anchor="middle">0</text><text id="text_sum_22__16" x="42" y="112" dominant-baseline="central" text-anchor="middle">0</text><text id="text_sum_22__17" x="70" y="112" dominant-baseline="central" text-anchor="middle">2</text><text id="text_sum_22__18" x="98" y="112" dominant-baseline="central" text-anchor="middle">1</text><text id="text_sum_22__19" x="126" y="112" dominant-baseline="central" text-anchor="middle">2</text><text id="text_sum_22__20" x="154" y="112" dominant-baseline="central" text-anchor="middle">1</text><text id="text_sum_22__21" x="182" y="112" dominant-baseline="central" text-anchor="middle">0</text><text id="text_sum_22__22" x="210" y="112" dominant-baseline="central" text-anchor="middle">3</text><text id="text_sum_22__23" x="238" y="112" dominant-baseline="central" text-anchor="middle">2</text><text id="text_sum_22__24" x="266" y="112" dominant-baseline="central" text-anchor="middle">1</text><text id="text_sum_22__25" x="294" y="112" dominant-baseline="central" text-anchor="middle">0</text><text id="text_sum_22__26" x="322" y="112" dominant-baseline="central" text-anchor="middle">0</text><text id="text_sum_22__27" x="350" y="112" dominant-baseline="central" text-anchor="middle">1</text><text id="text_sum_22__28" x="378" y="112" dominant-baseline="central" text-anchor="middle">0</text><text id="text_sum_22__29" x="406" y="112" dominant-baseline="central" text-anchor="middle">1</text><text id="text_sum_22__30" x="434" y="112" dominant-baseline="central" text-anchor="middle">0</text></g></g><g transform="translate(20,20) scale(1)"><g stroke-width="0"><circle cx="224" cy="0" r="7" fill="#00C0D0" id="var_res_16__0" /><circle cx="112" cy="28" r="7" fill="#17D7E7" id="var_res_16__1" /><circle cx="336" cy="28" r="7" fill="#17D7E7" id="var_res_16__2" /><circle cx="56" cy="56" r="7" fill="#2FEFFF" id="var_res_16__3" /><circle cx="168" cy="56" r="7" fill="#17D7E7" id="var_res_16__4" /><circle cx="280" cy="56" r="7" fill="#1DDDED" id="var_res_16__5" /><circle cx="392" cy="56" r="7" fill="#29E9F9" id="var_res_16__6" /><circle cx="140" cy="84" r="7" fill="#29E9F9" id="var_res_16__9" /><circle cx="196" cy="84" r="7" fill="#1DDDED" id="var_res_16__10" /><circle cx="364" cy="84" r="7" fill="#29E9F9" id="var_res_16__13" /><circle cx="420" cy="84" r="7" fill="#2FEFFF" id="var_res_16__14" /><circle cx="126" cy="112" r="7" fill="#2FEFFF" id="var_res_16__19" /><circle cx="154" cy="112" r="7" fill="#29E9F9" id="var_res_16__20" /><circle cx="350" cy="112" r="7" fill="#29E9F9" id="var_res_16__27" /><circle cx="378" cy="112" r="7" fill="#2FEFFF" id="var_res_16__28" /></g><g font-size="11" font-family="sans-serif" fill="#ffffff"><text id="text_res_16__0" x="224" y="0" dominant-baseline="central" text-anchor="middle">8</text><text id="text_res_16__1" x="112" y="28" dominant-baseline="central" text-anchor="middle">4</text><text id="text_res_16__2" x="336" y="28" dominant-baseline="central" text-anchor="middle">4</text><text id="text_res_16__3" x="56" y="56" dominant-baseline="central" text-anchor="middle">0</text><text id="text_res_16__4" x="168" y="56" dominant-baseline="central" text-anchor="middle">4</text><text id="text_res_16__5" x="280" y="56" dominant-baseline="central" text-anchor="middle">3</text><text id="text_res_16__6" x="392" y="56" dominant-baseline="central" text-anchor="middle">1</text><text id="text_res_16__9" x="140" y="84" dominant-baseline="central" text-anchor="middle">1</text><text id="text_res_16__10" x="196" y="84" dominant-baseline="central" text-anchor="middle">3</text><text id="text_res_16__13" x="364" y="84" dominant-baseline="central" text-anchor="middle">1</text><text id="text_res_16__14" x="420" y="84" dominant-baseline="central" text-anchor="middle">0</text><text id="text_res_16__19" x="126" y="112" dominant-baseline="central" text-anchor="middle">0</text><text id="text_res_16__20" x="154" y="112" dominant-baseline="central" text-anchor="middle">1</text><text id="text_res_16__27" x="350" y="112" dominant-baseline="central" text-anchor="middle">1</text><text id="text_res_16__28" x="378" y="112" dominant-baseline="central" text-anchor="middle">0</text></g><circle cx="112" cy="28" r="7" fill="#17D7E7" id="var_res_16__1_copy" /><g font-size="11" font-family="sans-serif" fill="#ffffff"><text id="text_res_16__1_copy" x="112" y="28" dominant-baseline="central" text-anchor="middle">4</text></g><animateMotion xlink:href="#var_res_16__1_copy" fill="freeze" begin="0s;accumulate.end" path="M0 0 L 112 -28" dur="0.9s" repeatCount="1"/><animateMotion xlink:href="#text_res_16__1_copy"  fill="freeze" begin="0s;accumulate.end"  path="M0 0 L 112 -28" dur="0.9s" repeatCount="1"/><g fill="none" stroke="#60a0ff" stroke-width="4" stroke-linecap="round" stroke-dasharray="0.1, 8"><path class="for_print" d="M 125.582 24.6045 L 210.418 3.3955"  marker-end="url(#token_arrow)"/></g><animate xlink:href="#var_res_16__1_copy" calcMode="spline" keyTimes="0;1" keySplines="1.0 0 1.0 1.0" fill="freeze" begin="0s;accumulate.end" from="1" to="0" attributeName="opacity" dur="0.9s" repeatCount="1"/><animate xlink:href="#text_res_16__1_copy" calcMode="spline" keyTimes="0;1" keySplines="1.0 0 1.0 1.0"  fill="freeze" begin="0s;accumulate.end" from="1" to="0" attributeName="opacity" dur="0.9s" repeatCount="1"/><circle cx="336" cy="28" r="7" fill="#17D7E7" id="var_res_16__2_copy" /><g font-size="11" font-family="sans-serif" fill="#ffffff"><text id="text_res_16__2_copy" x="336" y="28" dominant-baseline="central" text-anchor="middle">4</text></g><animateMotion xlink:href="#var_res_16__2_copy" fill="freeze" begin="0s;accumulate.end" path="M0 0 L -112 -28" dur="0.9s" repeatCount="1"/><animateMotion xlink:href="#text_res_16__2_copy"  fill="freeze" begin="0s;accumulate.end"  path="M0 0 L -112 -28" dur="0.9s" repeatCount="1"/><g fill="none" stroke="#60a0ff" stroke-width="4" stroke-linecap="round" stroke-dasharray="0.1, 8"><path class="for_print" d="M 322.418 24.6045 L 237.582 3.3955"  marker-end="url(#token_arrow)"/></g><animate xlink:href="#var_res_16__2_copy" calcMode="spline" keyTimes="0;1" keySplines="1.0 0 1.0 1.0" fill="freeze" begin="0s;accumulate.end" from="1" to="0" attributeName="opacity" dur="0.9s" repeatCount="1"/><animate xlink:href="#text_res_16__2_copy" calcMode="spline" keyTimes="0;1" keySplines="1.0 0 1.0 1.0"  fill="freeze" begin="0s;accumulate.end" from="1" to="0" attributeName="opacity" dur="0.9s" repeatCount="1"/></g><g fill="none" stroke="#000000" stroke-width="1"><g font-size="8" fill="#888888" stroke="none"><text id="" x="34" y="152" dominant-baseline="central" text-anchor="middle">[0]</text><text id="" x="62" y="152" dominant-baseline="central" text-anchor="middle">[1]</text><text id="" x="90" y="152" dominant-baseline="central" text-anchor="middle">[2]</text><text id="" x="118" y="152" dominant-baseline="central" text-anchor="middle">[3]</text><text id="" x="146" y="152" dominant-baseline="central" text-anchor="middle">[4]</text><text id="" x="174" y="152" dominant-baseline="central" text-anchor="middle">[5]</text><text id="" x="202" y="152" dominant-baseline="central" text-anchor="middle">[6]</text><text id="" x="230" y="152" dominant-baseline="central" text-anchor="middle">[7]</text><text id="" x="258" y="152" dominant-baseline="central" text-anchor="middle">[8]</text><text id="" x="286" y="152" dominant-baseline="central" text-anchor="middle">[9]</text><text id="" x="314" y="152" dominant-baseline="central" text-anchor="middle">[10]</text><text id="" x="342" y="152" dominant-baseline="central" text-anchor="middle">[11]</text><text id="" x="370" y="152" dominant-baseline="central" text-anchor="middle">[12]</text><text id="" x="398" y="152" dominant-baseline="central" text-anchor="middle">[13]</text><text id="" x="426" y="152" dominant-baseline="central" text-anchor="middle">[14]</text><text id="" x="454" y="152" dominant-baseline="central" text-anchor="middle">[15]</text></g></g><g transform="translate(20,20) scale(1)"><g fill="none" stroke="#6080ff" stroke-width="2"><rect x="140" y="98" width="224" height="28" /></g></g><text x="16" y="20" font-size="16" text-anchor="middle" fill="#888888" font-family="sans-serif" >1-22</text><text x="240" y="184" font-size="9" text-anchor="middle"  font-family="Hiragino Kaku Gothic ProN, メイリオ, sans-serif">探索区間[0, 16)がクエリ区間[5, 13)とクエリ区間外を含むので、左の子と右の子の値の和を返します。</text></svg>

