<?xml version="1.0" encoding="UTF-8" standalone="no"?>
<svg
xmlns:svg="http://www.w3.org/2000/svg"
xmlns="http://www.w3.org/2000/svg"
xmlns:xlink="http://www.w3.org/1999/xlink"
viewBox ="0 0 280 200"
>
<animateMotion/><defs><polygon points="0,0 6,8, 0,16 20,8" id="m_tmpl2"/><marker id="token_arrow"  markerUnits="userSpaceOnUse" markerWidth="20" markerHeight="16" viewBox="0 0 20 16" refX="14" refY="8" orient="auto"><use xlink:href="#m_tmpl2" fill="#60a0ff"/></marker></defs><defs><polygon points="0,0 0,4 0,8 12,4" id="m_tmpl3"/><marker id="link_arrow" markerUnits="strokeWidth" markerWidth="12" markerHeight="8" viewBox="0 0 12 8" refX="12" refY="4" orient="auto"><use xlink:href="#m_tmpl3" fill="#888888"/></marker></defs><rect x ="0" y="0" width="280" height="200" fill="#ffffff" stroke="#a0a0a0" stroke-width="0"/><g transform="translate(25,20) scale(1)"><g fill="none" stroke="#a0a0a0" stroke-width="1"><path d="M 34 50 Q 50 50 66 50"  marker-end="url(#link_arrow)"/><path d="M 80 64 Q 80 80 80 96"  marker-end="url(#link_arrow)"/><path d="M 126 50 Q 110 50 94 50"  marker-end="url(#link_arrow)"/><path d="M 140 64 Q 140 80 140 96"  marker-end="url(#link_arrow)"/><path d="M 186 50 Q 170 50 154 50"  marker-end="url(#link_arrow)"/><path d="M 20 96 Q 20 80 20 64"  marker-end="url(#link_arrow)"/><path d="M 66 110 Q 50 110 34 110"  marker-end="url(#link_arrow)"/><path d="M 70.1005 100.101 Q 50 80 29.8995 59.8995"  marker-end="url(#link_arrow)"/><path d="M 94 110 Q 110 110 126 110"  marker-end="url(#link_arrow)"/><path d="M 154 110 Q 170 110 186 110"  marker-end="url(#link_arrow)"/><path d="M 200 96 Q 200 80 200 64"  marker-end="url(#link_arrow)"/></g><g fill="#ffffff" stroke="#a0a0a0" stroke-width="1"><circle cx="20" cy="50" r="14" /><circle cx="80" cy="50" r="14" /><circle cx="140" cy="50" r="14" /><circle cx="200" cy="50" r="14" /><circle cx="20" cy="110" r="14" /><circle cx="80" cy="110" r="14" /><circle cx="140" cy="110" r="14" /><circle cx="200" cy="110" r="14" /></g><g font-size="9" font-family="Verdana" fill="#888888"></g></g><text x="16" y="20" font-size="16" text-anchor="middle" fill="#888888" font-family="sans-serif" >1-1</text></svg>

