<?xml version="1.0" encoding="UTF-8" standalone="no"?>
<svg
xmlns:svg="http://www.w3.org/2000/svg"
xmlns="http://www.w3.org/2000/svg"
xmlns:xlink="http://www.w3.org/1999/xlink"
width ="560"
height ="220"
viewBox ="0 0 560 220"
>
<defs><polygon points="0,0 6,8, 0,16 20,8" id="m_tmpl2"/><marker id="token_arrow"  markerUnits="userSpaceOnUse" markerWidth="20" markerHeight="16" viewBox="0 0 20 16" refX="14" refY="8" orient="auto"><use xlink:href="#m_tmpl2" fill="#60a0ff"/></marker></defs><defs><polygon points="0,0 0,4 0,8 12,4" id="m_tmpl3"/><marker id="link_arrow" markerUnits="strokeWidth" markerWidth="12" markerHeight="8" viewBox="0 0 12 8" refX="12" refY="4" orient="auto"><use xlink:href="#m_tmpl3" fill="#888888"/></marker></defs><g transform="translate(0,0) scale(1)"><g fill="#ffffff" stroke="#a0a0a0" stroke-width="1"><line x1="50" y1="50" x2="120" y2="30" stroke-linecap="round"/><line x1="50" y1="50" x2="100" y2="100" stroke-linecap="round"/><line x1="50" y1="50" x2="80" y2="170" stroke-linecap="round"/><line x1="50" y1="50" x2="30" y2="140" stroke-linecap="round"/><line x1="120" y1="30" x2="50" y2="50" stroke-linecap="round"/><line x1="120" y1="30" x2="100" y2="100" stroke-linecap="round"/><line x1="120" y1="30" x2="170" y2="100" stroke-linecap="round"/><line x1="100" y1="100" x2="50" y2="50" stroke-linecap="round"/><line x1="100" y1="100" x2="120" y2="30" stroke-linecap="round"/><line x1="100" y1="100" x2="80" y2="170" stroke-linecap="round"/><line x1="100" y1="100" x2="170" y2="100" stroke-linecap="round"/><line x1="100" y1="100" x2="220" y2="170" stroke-linecap="round"/><line x1="30" y1="140" x2="50" y2="50" stroke-linecap="round"/><line x1="30" y1="140" x2="80" y2="170" stroke-linecap="round"/><line x1="80" y1="170" x2="50" y2="50" stroke-linecap="round"/><line x1="80" y1="170" x2="100" y2="100" stroke-linecap="round"/><line x1="80" y1="170" x2="30" y2="140" stroke-linecap="round"/><line x1="80" y1="170" x2="220" y2="170" stroke-linecap="round"/><line x1="170" y1="100" x2="120" y2="30" stroke-linecap="round"/><line x1="170" y1="100" x2="100" y2="100" stroke-linecap="round"/><line x1="170" y1="100" x2="220" y2="170" stroke-linecap="round"/><line x1="220" y1="170" x2="100" y2="100" stroke-linecap="round"/><line x1="220" y1="170" x2="80" y2="170" stroke-linecap="round"/><line x1="220" y1="170" x2="170" y2="100" stroke-linecap="round"/><circle cx="50" cy="50" r="14" /><circle cx="120" cy="30" r="14" /><circle cx="100" cy="100" r="14" /><circle cx="30" cy="140" r="14" /><circle cx="80" cy="170" r="14" /><circle cx="170" cy="100" r="14" /><circle cx="220" cy="170" r="14" /><rect x="79" y="34" width="12" height="12" rx="2" ry="2" /><rect x="69" y="69" width="12" height="12" rx="2" ry="2" /><rect x="59" y="104" width="12" height="12" rx="2" ry="2" /><rect x="34" y="89" width="12" height="12" rx="2" ry="2" /><rect x="79" y="34" width="12" height="12" rx="2" ry="2" /><rect x="104" y="59" width="12" height="12" rx="2" ry="2" /><rect x="139" y="59" width="12" height="12" rx="2" ry="2" /><rect x="69" y="69" width="12" height="12" rx="2" ry="2" /><rect x="104" y="59" width="12" height="12" rx="2" ry="2" /><rect x="84" y="129" width="12" height="12" rx="2" ry="2" /><rect x="129" y="94" width="12" height="12" rx="2" ry="2" /><rect x="154" y="129" width="12" height="12" rx="2" ry="2" /><rect x="34" y="89" width="12" height="12" rx="2" ry="2" /><rect x="49" y="149" width="12" height="12" rx="2" ry="2" /><rect x="59" y="104" width="12" height="12" rx="2" ry="2" /><rect x="84" y="129" width="12" height="12" rx="2" ry="2" /><rect x="49" y="149" width="12" height="12" rx="2" ry="2" /><rect x="144" y="164" width="12" height="12" rx="2" ry="2" /><rect x="139" y="59" width="12" height="12" rx="2" ry="2" /><rect x="129" y="94" width="12" height="12" rx="2" ry="2" /><rect x="189" y="129" width="12" height="12" rx="2" ry="2" /><rect x="154" y="129" width="12" height="12" rx="2" ry="2" /><rect x="144" y="164" width="12" height="12" rx="2" ry="2" /><rect x="189" y="129" width="12" height="12" rx="2" ry="2" /></g><g font-size="9" font-family="Verdana" fill="#888888"><text id="" x="50" y="24" dominant-baseline="central" text-anchor="middle">0</text><text id="" x="120" y="4" dominant-baseline="central" text-anchor="middle">1</text><text id="" x="100" y="74" dominant-baseline="central" text-anchor="middle">2</text><text id="" x="30" y="114" dominant-baseline="central" text-anchor="middle">3</text><text id="" x="80" y="144" dominant-baseline="central" text-anchor="middle">4</text><text id="" x="170" y="74" dominant-baseline="central" text-anchor="middle">5</text><text id="" x="220" y="144" dominant-baseline="central" text-anchor="middle">6</text></g></g><defs><polygon points="0,0 6,6 0,12 18,6" id="m_tmpl2"/><marker id="m_o1" markerUnits="strokeWidth" markerWidth="10" markerHeight="10" viewBox="0 0 18 12" refX="18" refY="6" orient="auto"><use xlink:href="#m_tmpl2" fill="#a0a0a0"/></marker></defs><g transform="translate(240,80) scale(1)"><g fill="#ffffff" stroke="#a0a0a0" stroke-width="1"><path d="M 49.8329 93.7834 Q 73.5 75 97.1671 56.2166"  marker-end="url(#link_arrow)"/><path d="M 87.8723 90.7802 Q 94.5 75 101.128 59.2198"  marker-end="url(#link_arrow)"/><path d="M 108.872 40.7802 Q 115.5 25 122.128 9.21982"  marker-end="url(#link_arrow)"/><path d="M 122.128 90.7802 Q 115.5 75 108.872 59.2198"  marker-end="url(#link_arrow)"/><path d="M 160.167 93.7834 Q 136.5 75 112.833 56.2166"  marker-end="url(#link_arrow)"/><path d="M 201.407 44.8852 Q 168 25 134.593 5.11484"  marker-end="url(#link_arrow)"/><circle cx="42" cy="100" r="10" /><circle cx="84" cy="100" r="10" /><circle cx="105" cy="50" r="10" /><circle cx="126" cy="100" r="10" /><circle cx="168" cy="100" r="10" /><circle cx="210" cy="50" r="10" /><circle cx="126" cy="0" r="10" /></g><g font-size="9" font-family="Verdana" fill="#888888"><text x="42" y="84" dominant-baseline="central" text-anchor="middle">0</text><text x="84" y="84" dominant-baseline="central" text-anchor="middle">1</text><text x="105" y="34" dominant-baseline="central" text-anchor="middle">2</text><text x="126" y="84" dominant-baseline="central" text-anchor="middle">3</text><text x="168" y="84" dominant-baseline="central" text-anchor="middle">4</text><text x="210" y="34" dominant-baseline="central" text-anchor="middle">5</text><text x="126" y="-16" dominant-baseline="central" text-anchor="middle">6</text></g></g></svg>

