<?xml version="1.0" encoding="UTF-8" standalone="no"?>
<!-- Created with Inkscape (http://www.inkscape.org/) -->

<svg
   xmlns:dc="http://purl.org/dc/elements/1.1/"
   xmlns:cc="http://creativecommons.org/ns#"
   xmlns:rdf="http://www.w3.org/1999/02/22-rdf-syntax-ns#"
   xmlns:svg="http://www.w3.org/2000/svg"
   xmlns="http://www.w3.org/2000/svg"
   xmlns:xlink="http://www.w3.org/1999/xlink"
   xmlns:sodipodi="http://sodipodi.sourceforge.net/DTD/sodipodi-0.dtd"
   xmlns:inkscape="http://www.inkscape.org/namespaces/inkscape"
   width="1600"
   height="3600"
   viewBox="0 0 1600 3600"
   version="1.1"
   id="svg8"
   inkscape:version="0.92.3 (2405546, 2018-03-11)"
   sodipodi:docname="drawing.svg">
  <defs
     id="defs2" />
  <sodipodi:namedview
     id="base"
     pagecolor="#ffffff"
     bordercolor="#666666"
     borderopacity="1.0"
     inkscape:pageopacity="0.0"
     inkscape:pageshadow="2"
     inkscape:zoom="0.98994949"
     inkscape:cx="87.661926"
     inkscape:cy="622.68507"
     inkscape:document-units="mm"
     inkscape:current-layer="layer1"
     showgrid="false"
     inkscape:window-width="3413"
     inkscape:window-height="1795"
     inkscape:window-x="-13"
     inkscape:window-y="-13"
     inkscape:window-maximized="1" />
  <metadata
     id="metadata5">
    <rdf:RDF>
      <cc:Work
         rdf:about="">
        <dc:format>image/svg+xml</dc:format>
        <dc:type
           rdf:resource="http://purl.org/dc/dcmitype/StillImage" />
        <dc:title></dc:title>
      </cc:Work>
    </rdf:RDF>
  </metadata>

<rect x ="0" y="0" width="280" height="200" fill="#ffffff" stroke="#888888" stroke-width="1"/><text transform="rotate(-35, 16,180)" x="16" y="180" font-size="24" text-anchor="left" fill="#e8e8e8"  font-family="Arial">UNDER CONSTRUCTION</text><g transform="translate(0,0)"><g transform="translate(80,80) scale(1)"><g fill="#ffffff" stroke="#a0a0a0" stroke-width="1"><rect x="-14" y="-14" width="28" height="28" /></g></g><g transform="translate(200,80) scale(1)"><g fill="#ffffff" stroke="#a0a0a0" stroke-width="1"><rect x="-14" y="-14" width="28" height="28" /></g></g><g transform="translate(140,140) scale(1)"><g fill="#ffffff" stroke="#a0a0a0" stroke-width="1"><rect x="-14" y="-14" width="28" height="28" /></g></g><g transform="translate(80,80) scale(1)"><g fill="#ffffff" stroke="#ffa0a0" stroke-width="2"><rect x="-14"  y="-14" width="28"  height="28" /></g></g><g transform="translate(200,80) scale(1)"><g fill="#ffffff" stroke="#ffa0a0" stroke-width="2"><rect x="-14"  y="-14" width="28"  height="28" /></g></g><g transform="translate(80,80) scale(1)"><g fill="#4080f0" stroke-width="0"><circle r="10" cx="0" cy="0" fill="#ffffff"/><circle r="10" cx="0" cy="0" opacity="0.84"/></g><g font-size="14" font-family="sans-serif" fill="white"><text x="0" y="0" dominant-baseline="central" text-anchor="middle">8</text></g></g><g transform="translate(200,80) scale(1)"><g fill="#4080f0" stroke-width="0"><circle r="10" cx="0" cy="0" fill="#ffffff"/><circle r="10" cx="0" cy="0" opacity="0.6"/></g><g font-size="14" font-family="sans-serif" fill="white"><text x="0" y="0" dominant-baseline="central" text-anchor="middle">5</text></g></g><g transform="translate(140,140) scale(1)"><g fill="#4080f0" stroke-width="0"><circle r="10" cx="0" cy="0" fill="#ffffff"/><circle r="10" cx="0" cy="0" opacity="0.2"/></g><g font-size="14" font-family="sans-serif" fill="white"><text x="0" y="0" dominant-baseline="central" text-anchor="middle">0</text></g></g></g><text x="16" y="20" font-size="16" text-anchor="middle" fill="#888888" font-family="sans-serif" >1</text><rect x ="296" y="0" width="280" height="200" fill="#ffffff" stroke="#888888" stroke-width="1"/><text transform="rotate(-35, 312,180)" x="312" y="180" font-size="24" text-anchor="left" fill="#e8e8e8"  font-family="Arial">UNDER CONSTRUCTION</text><g transform="translate(296,0)"><g transform="translate(80,80) scale(1)"><g fill="#ffffff" stroke="#a0a0a0" stroke-width="1"><rect x="-14" y="-14" width="28" height="28" /></g></g><g transform="translate(200,80) scale(1)"><g fill="#ffffff" stroke="#a0a0a0" stroke-width="1"><rect x="-14" y="-14" width="28" height="28" /></g></g><g transform="translate(140,140) scale(1)"><g fill="#ffffff" stroke="#a0a0a0" stroke-width="1"><rect x="-14" y="-14" width="28" height="28" /></g></g><g transform="translate(200,80) scale(1)"><g fill="#ffffff" stroke="#ffa0a0" stroke-width="2"><rect x="-14"  y="-14" width="28"  height="28" /></g></g><g transform="translate(140,140) scale(1)"><g fill="#ffa0a0" stroke="#a0a0a0" stroke-width="1"><rect x="-14"  y="-14" width="28"  height="28" /></g></g><g stroke="#8888ff"><line x1="140" y1="140" x2="147" y2="133" stroke-width="20" stroke-linecap="round" opacity="0.4"/><line x1="140" y1="140" x2="150" y2="130" stroke-width="20" stroke-linecap="round" opacity="0.24"/><line x1="140" y1="140" x2="154" y2="126" stroke-width="20" stroke-linecap="round" opacity="0.144"/><line x1="140" y1="140" x2="157" y2="123" stroke-width="20" stroke-linecap="round" opacity="0.0864"/><line x1="140" y1="140" x2="161" y2="119" stroke-width="20" stroke-linecap="round" opacity="0.05184"/><line x1="140" y1="140" x2="164" y2="116" stroke-width="20" stroke-linecap="round" opacity="0.031104"/><line x1="140" y1="140" x2="168" y2="112" stroke-width="20" stroke-linecap="round" opacity="0.0186624"/><line x1="140" y1="140" x2="171" y2="109" stroke-width="20" stroke-linecap="round" opacity="0.0111974"/></g><g transform="translate(80,80) scale(1)"><g fill="#4080f0" stroke-width="0"><circle r="10" cx="0" cy="0" fill="#ffffff"/><circle r="10" cx="0" cy="0" opacity="0.84"/></g><g font-size="14" font-family="sans-serif" fill="white"><text x="0" y="0" dominant-baseline="central" text-anchor="middle">8</text></g></g><g transform="translate(200,80) scale(1)"><g fill="#4080f0" stroke-width="0"><circle r="10" cx="0" cy="0" fill="#ffffff"/><circle r="10" cx="0" cy="0" opacity="0.6"/></g><g font-size="14" font-family="sans-serif" fill="white"><text x="0" y="0" dominant-baseline="central" text-anchor="middle">5</text></g></g><g transform="translate(140,140) scale(1)"><g fill="#4080f0" stroke-width="0"><circle r="10" cx="0" cy="0" fill="#ffffff"/><circle r="10" cx="0" cy="0" opacity="0.6"/></g><g font-size="14" font-family="sans-serif" fill="white"><text x="0" y="0" dominant-baseline="central" text-anchor="middle">5</text></g></g></g><text x="312" y="20" font-size="16" text-anchor="middle" fill="#888888" font-family="sans-serif" >2</text><rect x ="592" y="0" width="280" height="200" fill="#ffffff" stroke="#888888" stroke-width="1"/><text transform="rotate(-35, 608,180)" x="608" y="180" font-size="24" text-anchor="left" fill="#e8e8e8"  font-family="Arial">UNDER CONSTRUCTION</text><g transform="translate(592,0)"><g transform="translate(80,80) scale(1)"><g fill="#ffffff" stroke="#a0a0a0" stroke-width="1"><rect x="-14" y="-14" width="28" height="28" /></g></g><g transform="translate(200,80) scale(1)"><g fill="#ffffff" stroke="#a0a0a0" stroke-width="1"><rect x="-14" y="-14" width="28" height="28" /></g></g><g transform="translate(140,140) scale(1)"><g fill="#ffffff" stroke="#a0a0a0" stroke-width="1"><rect x="-14" y="-14" width="28" height="28" /></g></g><g transform="translate(80,80) scale(1)"><g fill="#4080f0" stroke-width="0"><circle r="10" cx="0" cy="0" fill="#ffffff"/><circle r="10" cx="0" cy="0" opacity="0.84"/></g><g font-size="14" font-family="sans-serif" fill="white"><text x="0" y="0" dominant-baseline="central" text-anchor="middle">8</text></g></g><g transform="translate(200,80) scale(1)"><g fill="#4080f0" stroke-width="0"><circle r="10" cx="0" cy="0" fill="#ffffff"/><circle r="10" cx="0" cy="0" opacity="0.6"/></g><g font-size="14" font-family="sans-serif" fill="white"><text x="0" y="0" dominant-baseline="central" text-anchor="middle">5</text></g></g><g transform="translate(140,140) scale(1)"><g fill="#4080f0" stroke-width="0"><circle r="10" cx="0" cy="0" fill="#ffffff"/><circle r="10" cx="0" cy="0" opacity="0.6"/></g><g font-size="14" font-family="sans-serif" fill="white"><text x="0" y="0" dominant-baseline="central" text-anchor="middle">5</text></g></g></g><text x="608" y="20" font-size="16" text-anchor="middle" fill="#888888" font-family="sans-serif" >3</text></svg>

