<?xml version="1.0" encoding="UTF-8" standalone="no"?>
<svg
xmlns:svg="http://www.w3.org/2000/svg"
xmlns="http://www.w3.org/2000/svg"
xmlns:xlink="http://www.w3.org/1999/xlink"
width ="480"
height ="200"
viewBox ="0 0 480 200"
>
<defs><polygon points="0,0 6,8, 0,16 20,8" id="m_tmpl2"/><marker id="token_arrow"  markerUnits="userSpaceOnUse" markerWidth="20" markerHeight="16" viewBox="0 0 20 16" refX="14" refY="8" orient="auto"><use xlink:href="#m_tmpl2" fill="#60a0ff"/></marker></defs><defs><polygon points="0,0 0,4 0,8 12,4" id="m_tmpl3"/><marker id="link_arrow" markerUnits="strokeWidth" markerWidth="12" markerHeight="8" viewBox="0 0 12 8" refX="12" refY="4" orient="auto"><use xlink:href="#m_tmpl3" fill="#888888"/></marker></defs><g transform="translate(20,20) scale(1)"><g fill="#ffffff" stroke="#a0a0a0" stroke-width="1"><line x1="434" y1="112" x2="420" y2="84" stroke-linecap="round"/><circle cx="434" cy="112" r="10" /><line x1="406" y1="112" x2="420" y2="84" stroke-linecap="round"/><circle cx="406" cy="112" r="10" /><line x1="378" y1="112" x2="364" y2="84" stroke-linecap="round"/><circle cx="378" cy="112" r="10" /><line x1="350" y1="112" x2="364" y2="84" stroke-linecap="round"/><circle cx="350" cy="112" r="10" /><line x1="322" y1="112" x2="308" y2="84" stroke-linecap="round"/><circle cx="322" cy="112" r="10" /><line x1="294" y1="112" x2="308" y2="84" stroke-linecap="round"/><circle cx="294" cy="112" r="10" /><line x1="266" y1="112" x2="252" y2="84" stroke-linecap="round"/><circle cx="266" cy="112" r="10" /><line x1="238" y1="112" x2="252" y2="84" stroke-linecap="round"/><circle cx="238" cy="112" r="10" /><line x1="210" y1="112" x2="196" y2="84" stroke-linecap="round"/><circle cx="210" cy="112" r="10" /><line x1="182" y1="112" x2="196" y2="84" stroke-linecap="round"/><circle cx="182" cy="112" r="10" /><line x1="154" y1="112" x2="140" y2="84" stroke-linecap="round"/><circle cx="154" cy="112" r="10" /><line x1="126" y1="112" x2="140" y2="84" stroke-linecap="round"/><circle cx="126" cy="112" r="10" /><line x1="98" y1="112" x2="84" y2="84" stroke-linecap="round"/><circle cx="98" cy="112" r="10" /><line x1="70" y1="112" x2="84" y2="84" stroke-linecap="round"/><circle cx="70" cy="112" r="10" /><line x1="42" y1="112" x2="28" y2="84" stroke-linecap="round"/><circle cx="42" cy="112" r="10" /><line x1="14" y1="112" x2="28" y2="84" stroke-linecap="round"/><circle cx="14" cy="112" r="10" /><line x1="420" y1="84" x2="392" y2="56" stroke-linecap="round"/><circle cx="420" cy="84" r="10" /><line x1="364" y1="84" x2="392" y2="56" stroke-linecap="round"/><circle cx="364" cy="84" r="10" /><line x1="308" y1="84" x2="280" y2="56" stroke-linecap="round"/><circle cx="308" cy="84" r="10" /><line x1="252" y1="84" x2="280" y2="56" stroke-linecap="round"/><circle cx="252" cy="84" r="10" /><line x1="196" y1="84" x2="168" y2="56" stroke-linecap="round"/><circle cx="196" cy="84" r="10" /><line x1="140" y1="84" x2="168" y2="56" stroke-linecap="round"/><circle cx="140" cy="84" r="10" /><line x1="84" y1="84" x2="56" y2="56" stroke-linecap="round"/><circle cx="84" cy="84" r="10" /><line x1="28" y1="84" x2="56" y2="56" stroke-linecap="round"/><circle cx="28" cy="84" r="10" /><line x1="392" y1="56" x2="336" y2="28" stroke-linecap="round"/><circle cx="392" cy="56" r="10" /><line x1="280" y1="56" x2="336" y2="28" stroke-linecap="round"/><circle cx="280" cy="56" r="10" /><line x1="168" y1="56" x2="112" y2="28" stroke-linecap="round"/><circle cx="168" cy="56" r="10" /><line x1="56" y1="56" x2="112" y2="28" stroke-linecap="round"/><circle cx="56" cy="56" r="10" /><line x1="336" y1="28" x2="224" y2="0" stroke-linecap="round"/><circle cx="336" cy="28" r="10" /><line x1="112" y1="28" x2="224" y2="0" stroke-linecap="round"/><circle cx="112" cy="28" r="10" /><circle cx="224" cy="0" r="10" /></g></g></svg>

