<?xml version="1.0" encoding="UTF-8" standalone="no"?>
<svg
xmlns:svg="http://www.w3.org/2000/svg"
xmlns="http://www.w3.org/2000/svg"
xmlns:xlink="http://www.w3.org/1999/xlink"
viewBox ="0 0 280 200"
>
<animateMotion/><defs><polygon points="0,0 6,8, 0,16 20,8" id="m_tmpl2"/><marker id="token_arrow"  markerUnits="userSpaceOnUse" markerWidth="20" markerHeight="16" viewBox="0 0 20 16" refX="14" refY="8" orient="auto"><use xlink:href="#m_tmpl2" fill="#60a0ff"/></marker></defs><defs><polygon points="0,0 0,4 0,8 12,4" id="m_tmpl3"/><marker id="link_arrow" markerUnits="strokeWidth" markerWidth="12" markerHeight="8" viewBox="0 0 12 8" refX="12" refY="4" orient="auto"><use xlink:href="#m_tmpl3" fill="#888888"/></marker></defs><rect x ="0" y="0" width="280" height="200" fill="#ffffff" stroke="#a0a0a0" stroke-width="0"/><g transform="translate(25,20) scale(1)"><g stroke="#F0F8FF" stroke-width="0" fill="#F0F8FF"><circle cx="20" cy="50" r="22" /><circle cx="80" cy="50" r="22" /><circle cx="140" cy="50" r="22" /><circle cx="200" cy="50" r="22" /><circle cx="20" cy="110" r="22" /><circle cx="80" cy="110" r="22" /><circle cx="140" cy="110" r="22" /><circle cx="200" cy="110" r="22" /></g><g stroke="#F0F8FF" stroke-width="44.8" fill="#F0F8FF"><line x1="20" y1="50" x2="80" y2="50" stroke-linecap="round"/><line x1="80" y1="50" x2="80" y2="110" stroke-linecap="round"/><line x1="140" y1="50" x2="80" y2="50" stroke-linecap="round"/><line x1="140" y1="50" x2="140" y2="110" stroke-linecap="round"/><line x1="200" y1="50" x2="140" y2="50" stroke-linecap="round"/><line x1="20" y1="110" x2="20" y2="50" stroke-linecap="round"/><line x1="80" y1="110" x2="20" y2="110" stroke-linecap="round"/><line x1="80" y1="110" x2="20" y2="50" stroke-linecap="round"/><line x1="80" y1="110" x2="140" y2="110" stroke-linecap="round"/><line x1="140" y1="110" x2="200" y2="110" stroke-linecap="round"/><line x1="200" y1="110" x2="200" y2="50" stroke-linecap="round"/></g></g><g transform="translate(25,20) scale(1)"><g stroke="#c8e8ff" stroke-width="0" fill="#c8e8ff"><circle cx="20" cy="110" r="22" /></g><g stroke="#c8e8ff" stroke-width="44.8" fill="#c8e8ff"></g></g><g transform="translate(25,20) scale(1)"><g stroke="#c0c0c0" stroke-width="8"></g></g><g transform="translate(25,20) scale(1)"><g stroke="#ffa0a0" stroke-width="8"><line x1="20" y1="110" x2="20" y2="50" stroke-linecap="round"/><line x1="80" y1="110" x2="20" y2="50" stroke-linecap="round"/><line x1="140" y1="50" x2="80" y2="50" stroke-linecap="round"/></g></g><g transform="translate(25,20) scale(1)"><g fill="none" stroke="#a0a0a0" stroke-width="1"><path d="M 34 50 Q 50 50 66 50"  marker-end="url(#link_arrow)"/><path d="M 80 64 Q 80 80 80 96"  marker-end="url(#link_arrow)"/><path d="M 126 50 Q 110 50 94 50"  marker-end="url(#link_arrow)"/><path d="M 140 64 Q 140 80 140 96"  marker-end="url(#link_arrow)"/><path d="M 186 50 Q 170 50 154 50"  marker-end="url(#link_arrow)"/><path d="M 20 96 Q 20 80 20 64"  marker-end="url(#link_arrow)"/><path d="M 66 110 Q 50 110 34 110"  marker-end="url(#link_arrow)"/><path d="M 70.1005 100.101 Q 50 80 29.8995 59.8995"  marker-end="url(#link_arrow)"/><path d="M 94 110 Q 110 110 126 110"  marker-end="url(#link_arrow)"/><path d="M 154 110 Q 170 110 186 110"  marker-end="url(#link_arrow)"/><path d="M 200 96 Q 200 80 200 64"  marker-end="url(#link_arrow)"/></g><g fill="#ffffff" stroke="#a0a0a0" stroke-width="1"><circle cx="20" cy="50" r="14" /><circle cx="80" cy="50" r="14" /><circle cx="140" cy="50" r="14" /><circle cx="200" cy="50" r="14" /><circle cx="20" cy="110" r="14" /><circle cx="80" cy="110" r="14" /><circle cx="140" cy="110" r="14" /><circle cx="200" cy="110" r="14" /></g><g font-size="9" font-family="Verdana" fill="#888888"></g></g><g transform="translate(25,20) scale(1)"><g class="flash_g" fill="#da70d6" stroke="#da70d6" stroke-width="1"><circle cx="80" cy="50" r="14" /></g><g fill="none" stroke="#a0a0a0" stroke-width="1"><circle cx="80" cy="50" r="14" /></g></g><g transform="translate(25,20) scale(1)"><g stroke-width="0"><circle cx="20" cy="50" r="10" fill="#e8e8e8" id="var_color_12__0" /><circle cx="80" cy="50" r="10" fill="#e8e8e8" id="var_color_12__1" /><circle cx="140" cy="50" r="10" fill="#e8e8e8" id="var_color_12__2" /><circle cx="200" cy="50" r="10" fill="#e8e8e8" id="var_color_12__3" /><circle cx="20" cy="110" r="10" fill="#c8c8c8" id="var_color_12__4" /><circle cx="80" cy="110" r="10" fill="#e8e8e8" id="var_color_12__5" /><circle cx="140" cy="110" r="10" fill="#e8e8e8" id="var_color_12__6" /><circle cx="200" cy="110" r="10" fill="#e8e8e8" id="var_color_12__7" /></g><g font-size="14" font-family="sans-serif" fill="#888888"><text id="text_color_12__0" x="20" y="50" dominant-baseline="central" text-anchor="middle">1</text><text id="text_color_12__1" x="80" y="50" dominant-baseline="central" text-anchor="middle">1</text><text id="text_color_12__2" x="140" y="50" dominant-baseline="central" text-anchor="middle">1</text><text id="text_color_12__3" x="200" y="50" dominant-baseline="central" text-anchor="middle">1</text><text id="text_color_12__4" x="20" y="110" dominant-baseline="central" text-anchor="middle">2</text><text id="text_color_12__5" x="80" y="110" dominant-baseline="central" text-anchor="middle">1</text><text id="text_color_12__6" x="140" y="110" dominant-baseline="central" text-anchor="middle">1</text><text id="text_color_12__7" x="200" y="110" dominant-baseline="central" text-anchor="middle">1</text></g><g font-size="14" font-family="sans-serif" fill="#ffffff"><text id="" x="-28" y="0" dominant-baseline="central" text-anchor="end">color</text></g></g><text x="16" y="20" font-size="16" text-anchor="middle" fill="#888888" font-family="sans-serif" >1-13</text><text x="140" y="184" font-size="9" text-anchor="middle"  font-family="Hiragino Kaku Gothic ProN, メイリオ, sans-serif">發現有邊指向已走訪過的節點。</text></svg>

