<?xml version="1.0" encoding="UTF-8" standalone="no"?>
<svg
xmlns:svg="http://www.w3.org/2000/svg"
xmlns="http://www.w3.org/2000/svg"
xmlns:xlink="http://www.w3.org/1999/xlink"
viewBox ="0 0 280 260"
>
<defs><polygon points="0,0 6,8, 0,16 20,8" id="m_tmpl2"/><marker id="token_arrow"  markerUnits="userSpaceOnUse" markerWidth="20" markerHeight="16" viewBox="0 0 20 16" refX="14" refY="8" orient="auto"><use xlink:href="#m_tmpl2" fill="#60a0ff"/></marker></defs><defs><polygon points="0,0 0,4 0,8 12,4" id="m_tmpl3"/><marker id="link_arrow" markerUnits="strokeWidth" markerWidth="12" markerHeight="8" viewBox="0 0 12 8" refX="12" refY="4" orient="auto"><use xlink:href="#m_tmpl3" fill="#888888"/></marker></defs><rect x ="0" y="0" width="280" height="260" fill="#ffffff" stroke="#a0a0a0" stroke-width="0"/><g transform="translate(40,40) scale(1)"><g stroke="#F0F8FF" stroke-width="0" fill="#F0F8FF"><circle cx="30" cy="0" r="22" /><circle cx="90" cy="0" r="22" /><circle cx="60" cy="50" r="22" /><circle cx="0" cy="50" r="22" /><circle cx="150" cy="0" r="22" /><circle cx="120" cy="50" r="22" /><circle cx="90" cy="100" r="22" /><circle cx="30" cy="100" r="22" /><circle cx="180" cy="50" r="22" /><circle cx="150" cy="100" r="22" /><circle cx="120" cy="150" r="22" /></g><g stroke="#F0F8FF" stroke-width="44.8" fill="#F0F8FF"><line x1="30" y1="0" x2="90" y2="0" stroke-linecap="round"/><line x1="30" y1="0" x2="60" y2="50" stroke-linecap="round"/><line x1="30" y1="0" x2="0" y2="50" stroke-linecap="round"/><line x1="90" y1="0" x2="30" y2="0" stroke-linecap="round"/><line x1="90" y1="0" x2="150" y2="0" stroke-linecap="round"/><line x1="90" y1="0" x2="120" y2="50" stroke-linecap="round"/><line x1="90" y1="0" x2="60" y2="50" stroke-linecap="round"/><line x1="60" y1="50" x2="30" y2="0" stroke-linecap="round"/><line x1="60" y1="50" x2="90" y2="0" stroke-linecap="round"/><line x1="60" y1="50" x2="120" y2="50" stroke-linecap="round"/><line x1="60" y1="50" x2="90" y2="100" stroke-linecap="round"/><line x1="60" y1="50" x2="30" y2="100" stroke-linecap="round"/><line x1="60" y1="50" x2="0" y2="50" stroke-linecap="round"/><line x1="0" y1="50" x2="30" y2="0" stroke-linecap="round"/><line x1="0" y1="50" x2="60" y2="50" stroke-linecap="round"/><line x1="0" y1="50" x2="30" y2="100" stroke-linecap="round"/><line x1="150" y1="0" x2="90" y2="0" stroke-linecap="round"/><line x1="150" y1="0" x2="180" y2="50" stroke-linecap="round"/><line x1="150" y1="0" x2="120" y2="50" stroke-linecap="round"/><line x1="120" y1="50" x2="90" y2="0" stroke-linecap="round"/><line x1="120" y1="50" x2="60" y2="50" stroke-linecap="round"/><line x1="120" y1="50" x2="150" y2="0" stroke-linecap="round"/><line x1="120" y1="50" x2="180" y2="50" stroke-linecap="round"/><line x1="120" y1="50" x2="150" y2="100" stroke-linecap="round"/><line x1="90" y1="100" x2="60" y2="50" stroke-linecap="round"/><line x1="90" y1="100" x2="150" y2="100" stroke-linecap="round"/><line x1="90" y1="100" x2="30" y2="100" stroke-linecap="round"/><line x1="90" y1="100" x2="120" y2="150" stroke-linecap="round"/><line x1="30" y1="100" x2="60" y2="50" stroke-linecap="round"/><line x1="30" y1="100" x2="0" y2="50" stroke-linecap="round"/><line x1="30" y1="100" x2="90" y2="100" stroke-linecap="round"/><line x1="180" y1="50" x2="150" y2="0" stroke-linecap="round"/><line x1="180" y1="50" x2="120" y2="50" stroke-linecap="round"/><line x1="180" y1="50" x2="150" y2="100" stroke-linecap="round"/><line x1="150" y1="100" x2="120" y2="50" stroke-linecap="round"/><line x1="150" y1="100" x2="90" y2="100" stroke-linecap="round"/><line x1="150" y1="100" x2="180" y2="50" stroke-linecap="round"/><line x1="150" y1="100" x2="120" y2="150" stroke-linecap="round"/><line x1="120" y1="150" x2="90" y2="100" stroke-linecap="round"/><line x1="120" y1="150" x2="150" y2="100" stroke-linecap="round"/></g></g><g transform="translate(40,40) scale(1)"><g stroke="#a0a0a0" stroke-width="8"><line x1="30" y1="0" x2="90" y2="0" stroke-linecap="round"/><line x1="30" y1="0" x2="60" y2="50" stroke-linecap="round"/><line x1="30" y1="0" x2="0" y2="50" stroke-linecap="round"/><line x1="90" y1="0" x2="150" y2="0" stroke-linecap="round"/><line x1="90" y1="0" x2="120" y2="50" stroke-linecap="round"/><line x1="60" y1="50" x2="90" y2="100" stroke-linecap="round"/><line x1="60" y1="50" x2="30" y2="100" stroke-linecap="round"/><line x1="150" y1="0" x2="180" y2="50" stroke-linecap="round"/><line x1="120" y1="50" x2="150" y2="100" stroke-linecap="round"/><line x1="90" y1="100" x2="120" y2="150" stroke-linecap="round"/></g></g><g transform="translate(40,40) scale(1)"><g fill="#ffffff" stroke="#a0a0a0" stroke-width="1"><line x1="30" y1="0" x2="90" y2="0" stroke-linecap="round"/><line x1="30" y1="0" x2="60" y2="50" stroke-linecap="round"/><line x1="30" y1="0" x2="0" y2="50" stroke-linecap="round"/><line x1="90" y1="0" x2="30" y2="0" stroke-linecap="round"/><line x1="90" y1="0" x2="150" y2="0" stroke-linecap="round"/><line x1="90" y1="0" x2="120" y2="50" stroke-linecap="round"/><line x1="90" y1="0" x2="60" y2="50" stroke-linecap="round"/><line x1="60" y1="50" x2="30" y2="0" stroke-linecap="round"/><line x1="60" y1="50" x2="90" y2="0" stroke-linecap="round"/><line x1="60" y1="50" x2="120" y2="50" stroke-linecap="round"/><line x1="60" y1="50" x2="90" y2="100" stroke-linecap="round"/><line x1="60" y1="50" x2="30" y2="100" stroke-linecap="round"/><line x1="60" y1="50" x2="0" y2="50" stroke-linecap="round"/><line x1="0" y1="50" x2="30" y2="0" stroke-linecap="round"/><line x1="0" y1="50" x2="60" y2="50" stroke-linecap="round"/><line x1="0" y1="50" x2="30" y2="100" stroke-linecap="round"/><line x1="150" y1="0" x2="90" y2="0" stroke-linecap="round"/><line x1="150" y1="0" x2="180" y2="50" stroke-linecap="round"/><line x1="150" y1="0" x2="120" y2="50" stroke-linecap="round"/><line x1="120" y1="50" x2="90" y2="0" stroke-linecap="round"/><line x1="120" y1="50" x2="60" y2="50" stroke-linecap="round"/><line x1="120" y1="50" x2="150" y2="0" stroke-linecap="round"/><line x1="120" y1="50" x2="180" y2="50" stroke-linecap="round"/><line x1="120" y1="50" x2="150" y2="100" stroke-linecap="round"/><line x1="90" y1="100" x2="60" y2="50" stroke-linecap="round"/><line x1="90" y1="100" x2="150" y2="100" stroke-linecap="round"/><line x1="90" y1="100" x2="30" y2="100" stroke-linecap="round"/><line x1="90" y1="100" x2="120" y2="150" stroke-linecap="round"/><line x1="30" y1="100" x2="60" y2="50" stroke-linecap="round"/><line x1="30" y1="100" x2="0" y2="50" stroke-linecap="round"/><line x1="30" y1="100" x2="90" y2="100" stroke-linecap="round"/><line x1="180" y1="50" x2="150" y2="0" stroke-linecap="round"/><line x1="180" y1="50" x2="120" y2="50" stroke-linecap="round"/><line x1="180" y1="50" x2="150" y2="100" stroke-linecap="round"/><line x1="150" y1="100" x2="120" y2="50" stroke-linecap="round"/><line x1="150" y1="100" x2="90" y2="100" stroke-linecap="round"/><line x1="150" y1="100" x2="180" y2="50" stroke-linecap="round"/><line x1="150" y1="100" x2="120" y2="150" stroke-linecap="round"/><line x1="120" y1="150" x2="90" y2="100" stroke-linecap="round"/><line x1="120" y1="150" x2="150" y2="100" stroke-linecap="round"/><circle cx="30" cy="0" r="14" /><circle cx="90" cy="0" r="14" /><circle cx="60" cy="50" r="14" /><circle cx="0" cy="50" r="14" /><circle cx="150" cy="0" r="14" /><circle cx="120" cy="50" r="14" /><circle cx="90" cy="100" r="14" /><circle cx="30" cy="100" r="14" /><circle cx="180" cy="50" r="14" /><circle cx="150" cy="100" r="14" /><circle cx="120" cy="150" r="14" /></g><g font-size="9" font-family="Verdana" fill="#888888"><text id="" x="30" y="-25" dominant-baseline="central" text-anchor="middle">0</text><text id="" x="90" y="-25" dominant-baseline="central" text-anchor="middle">1</text><text id="" x="60" y="24" dominant-baseline="central" text-anchor="middle">2</text><text id="" x="0" y="24" dominant-baseline="central" text-anchor="middle">3</text><text id="" x="150" y="-25" dominant-baseline="central" text-anchor="middle">4</text><text id="" x="120" y="24" dominant-baseline="central" text-anchor="middle">5</text><text id="" x="90" y="74" dominant-baseline="central" text-anchor="middle">6</text><text id="" x="30" y="74" dominant-baseline="central" text-anchor="middle">7</text><text id="" x="180" y="24" dominant-baseline="central" text-anchor="middle">8</text><text id="" x="150" y="74" dominant-baseline="central" text-anchor="middle">9</text><text id="" x="120" y="124" dominant-baseline="central" text-anchor="middle">10</text></g></g><g transform="translate(40,40) scale(1)"><g class="flash_g" fill="#ffffff" stroke="#ff1493" stroke-width="2"><circle cx="180" cy="50" r="14" /></g></g><g transform="translate(40,40) scale(1)"><g class="flash_g" fill="#ff1493" stroke="#ff1493" stroke-width="1"></g><g fill="none" stroke="#a0a0a0" stroke-width="1"></g></g><g transform="translate(40,40) scale(1)"><g stroke-width="0"><circle cx="30" cy="0" r="10" fill="#8FCFFF" id="var_dist_10__0" /><circle cx="90" cy="0" r="10" fill="#7BBBFF" id="var_dist_10__1" /><circle cx="60" cy="50" r="10" fill="#7BBBFF" id="var_dist_10__2" /><circle cx="0" cy="50" r="10" fill="#7BBBFF" id="var_dist_10__3" /><circle cx="150" cy="0" r="10" fill="#67A7FF" id="var_dist_10__4" /><circle cx="120" cy="50" r="10" fill="#67A7FF" id="var_dist_10__5" /><circle cx="90" cy="100" r="10" fill="#67A7FF" id="var_dist_10__6" /><circle cx="30" cy="100" r="10" fill="#67A7FF" id="var_dist_10__7" /><circle cx="180" cy="50" r="10" fill="#5393FF" id="var_dist_10__8" /><circle cx="150" cy="100" r="10" fill="#5393FF" id="var_dist_10__9" /><circle cx="120" cy="150" r="10" fill="#5393FF" id="var_dist_10__10" /></g><g font-size="14" font-family="sans-serif" fill="#ffffff"><text id="text_dist_10__0" x="30" y="0" dominant-baseline="central" text-anchor="middle">0</text><text id="text_dist_10__1" x="90" y="0" dominant-baseline="central" text-anchor="middle">1</text><text id="text_dist_10__2" x="60" y="50" dominant-baseline="central" text-anchor="middle">1</text><text id="text_dist_10__3" x="0" y="50" dominant-baseline="central" text-anchor="middle">1</text><text id="text_dist_10__4" x="150" y="0" dominant-baseline="central" text-anchor="middle">2</text><text id="text_dist_10__5" x="120" y="50" dominant-baseline="central" text-anchor="middle">2</text><text id="text_dist_10__6" x="90" y="100" dominant-baseline="central" text-anchor="middle">2</text><text id="text_dist_10__7" x="30" y="100" dominant-baseline="central" text-anchor="middle">2</text><text id="text_dist_10__8" x="180" y="50" dominant-baseline="central" text-anchor="middle">3</text><text id="text_dist_10__9" x="150" y="100" dominant-baseline="central" text-anchor="middle">3</text><text id="text_dist_10__10" x="120" y="150" dominant-baseline="central" text-anchor="middle">3</text></g></g><text x="16" y="20" font-size="16" text-anchor="middle" fill="#888888" font-family="sans-serif" >2-9</text><text x="140" y="244" font-size="9" text-anchor="middle"  font-family="Hiragino Kaku Gothic ProN, メイリオ, sans-serif">ノード8に隣接するノードの最短距離をdist[8] + 1 に更新します。</text></svg>

