<?xml version="1.0" encoding="UTF-8" standalone="no"?>
<svg
xmlns:svg="http://www.w3.org/2000/svg"
xmlns="http://www.w3.org/2000/svg"
xmlns:xlink="http://www.w3.org/1999/xlink"
width ="280"
height ="260"
viewBox ="0 0 280 260"
>
<defs><polygon points="0,0 6,8, 0,16 20,8" id="m_tmpl2"/><marker id="token_arrow"  markerUnits="userSpaceOnUse" markerWidth="20" markerHeight="16" viewBox="0 0 20 16" refX="14" refY="8" orient="auto"><use xlink:href="#m_tmpl2" fill="#60a0ff"/></marker></defs><defs><polygon points="0,0 0,4 0,8 12,4" id="m_tmpl3"/><marker id="link_arrow" markerUnits="strokeWidth" markerWidth="12" markerHeight="8" viewBox="0 0 12 8" refX="12" refY="4" orient="auto"><use xlink:href="#m_tmpl3" fill="#888888"/></marker></defs><g transform="translate(40,40) scale(1)"><g fill="#ffffff" stroke="#a0a0a0" stroke-width="1"><line x1="30" y1="0" x2="90" y2="0" stroke-linecap="round"/><line x1="30" y1="0" x2="60" y2="50" stroke-linecap="round"/><line x1="30" y1="0" x2="0" y2="50" stroke-linecap="round"/><line x1="90" y1="0" x2="30" y2="0" stroke-linecap="round"/><line x1="90" y1="0" x2="150" y2="0" stroke-linecap="round"/><line x1="90" y1="0" x2="120" y2="50" stroke-linecap="round"/><line x1="90" y1="0" x2="60" y2="50" stroke-linecap="round"/><line x1="60" y1="50" x2="30" y2="0" stroke-linecap="round"/><line x1="60" y1="50" x2="90" y2="0" stroke-linecap="round"/><line x1="60" y1="50" x2="120" y2="50" stroke-linecap="round"/><line x1="60" y1="50" x2="90" y2="100" stroke-linecap="round"/><line x1="60" y1="50" x2="30" y2="100" stroke-linecap="round"/><line x1="60" y1="50" x2="0" y2="50" stroke-linecap="round"/><line x1="0" y1="50" x2="30" y2="0" stroke-linecap="round"/><line x1="0" y1="50" x2="60" y2="50" stroke-linecap="round"/><line x1="0" y1="50" x2="30" y2="100" stroke-linecap="round"/><line x1="150" y1="0" x2="90" y2="0" stroke-linecap="round"/><line x1="150" y1="0" x2="180" y2="50" stroke-linecap="round"/><line x1="150" y1="0" x2="120" y2="50" stroke-linecap="round"/><line x1="120" y1="50" x2="90" y2="0" stroke-linecap="round"/><line x1="120" y1="50" x2="60" y2="50" stroke-linecap="round"/><line x1="120" y1="50" x2="150" y2="0" stroke-linecap="round"/><line x1="120" y1="50" x2="180" y2="50" stroke-linecap="round"/><line x1="120" y1="50" x2="150" y2="100" stroke-linecap="round"/><line x1="90" y1="100" x2="60" y2="50" stroke-linecap="round"/><line x1="90" y1="100" x2="150" y2="100" stroke-linecap="round"/><line x1="90" y1="100" x2="30" y2="100" stroke-linecap="round"/><line x1="90" y1="100" x2="120" y2="150" stroke-linecap="round"/><line x1="30" y1="100" x2="60" y2="50" stroke-linecap="round"/><line x1="30" y1="100" x2="0" y2="50" stroke-linecap="round"/><line x1="30" y1="100" x2="90" y2="100" stroke-linecap="round"/><line x1="180" y1="50" x2="150" y2="0" stroke-linecap="round"/><line x1="180" y1="50" x2="120" y2="50" stroke-linecap="round"/><line x1="180" y1="50" x2="150" y2="100" stroke-linecap="round"/><line x1="150" y1="100" x2="120" y2="50" stroke-linecap="round"/><line x1="150" y1="100" x2="90" y2="100" stroke-linecap="round"/><line x1="150" y1="100" x2="180" y2="50" stroke-linecap="round"/><line x1="150" y1="100" x2="120" y2="150" stroke-linecap="round"/><line x1="120" y1="150" x2="90" y2="100" stroke-linecap="round"/><line x1="120" y1="150" x2="150" y2="100" stroke-linecap="round"/><circle cx="30" cy="0" r="14" /><circle cx="90" cy="0" r="14" /><circle cx="60" cy="50" r="14" /><circle cx="0" cy="50" r="14" /><circle cx="150" cy="0" r="14" /><circle cx="120" cy="50" r="14" /><circle cx="90" cy="100" r="14" /><circle cx="30" cy="100" r="14" /><circle cx="180" cy="50" r="14" /><circle cx="150" cy="100" r="14" /><circle cx="120" cy="150" r="14" /></g><g font-size="9" font-family="Verdana" fill="#888888"><text id="" x="30" y="-25" dominant-baseline="central" text-anchor="middle">0</text><text id="" x="90" y="-25" dominant-baseline="central" text-anchor="middle">1</text><text id="" x="60" y="24" dominant-baseline="central" text-anchor="middle">2</text><text id="" x="0" y="24" dominant-baseline="central" text-anchor="middle">3</text><text id="" x="150" y="-25" dominant-baseline="central" text-anchor="middle">4</text><text id="" x="120" y="24" dominant-baseline="central" text-anchor="middle">5</text><text id="" x="90" y="74" dominant-baseline="central" text-anchor="middle">6</text><text id="" x="30" y="74" dominant-baseline="central" text-anchor="middle">7</text><text id="" x="180" y="24" dominant-baseline="central" text-anchor="middle">8</text><text id="" x="150" y="74" dominant-baseline="central" text-anchor="middle">9</text><text id="" x="120" y="124" dominant-baseline="central" text-anchor="middle">10</text></g></g><g transform="translate(40,40) scale(1)"><g stroke-width="0"><circle cx="30" cy="0" r="10" fill="#8FCFFF" id="var_dist_13__0" /><circle cx="90" cy="0" r="10" fill="#7BBBFF" id="var_dist_13__1" /><circle cx="60" cy="50" r="10" fill="#7BBBFF" id="var_dist_13__2" /><circle cx="0" cy="50" r="10" fill="#7BBBFF" id="var_dist_13__3" /><circle cx="150" cy="0" r="10" fill="#67A7FF" id="var_dist_13__4" /><circle cx="120" cy="50" r="10" fill="#67A7FF" id="var_dist_13__5" /><circle cx="90" cy="100" r="10" fill="#67A7FF" id="var_dist_13__6" /><circle cx="30" cy="100" r="10" fill="#67A7FF" id="var_dist_13__7" /><circle cx="180" cy="50" r="10" fill="#5393FF" id="var_dist_13__8" /><circle cx="150" cy="100" r="10" fill="#5393FF" id="var_dist_13__9" /><circle cx="120" cy="150" r="10" fill="#5393FF" id="var_dist_13__10" /></g><g font-size="14" font-family="sans-serif" fill="#ffffff"><text id="text_dist_13__0" x="30" y="0" dominant-baseline="central" text-anchor="middle">0</text><text id="text_dist_13__1" x="90" y="0" dominant-baseline="central" text-anchor="middle">1</text><text id="text_dist_13__2" x="60" y="50" dominant-baseline="central" text-anchor="middle">1</text><text id="text_dist_13__3" x="0" y="50" dominant-baseline="central" text-anchor="middle">1</text><text id="text_dist_13__4" x="150" y="0" dominant-baseline="central" text-anchor="middle">2</text><text id="text_dist_13__5" x="120" y="50" dominant-baseline="central" text-anchor="middle">2</text><text id="text_dist_13__6" x="90" y="100" dominant-baseline="central" text-anchor="middle">2</text><text id="text_dist_13__7" x="30" y="100" dominant-baseline="central" text-anchor="middle">2</text><text id="text_dist_13__8" x="180" y="50" dominant-baseline="central" text-anchor="middle">3</text><text id="text_dist_13__9" x="150" y="100" dominant-baseline="central" text-anchor="middle">3</text><text id="text_dist_13__10" x="120" y="150" dominant-baseline="central" text-anchor="middle">3</text></g></g></svg>

