<?xml version="1.0" encoding="UTF-8" standalone="no"?>
<svg
xmlns:svg="http://www.w3.org/2000/svg"
xmlns="http://www.w3.org/2000/svg"
xmlns:xlink="http://www.w3.org/1999/xlink"
viewBox ="0 0 500 220"
>
<defs><polygon points="0,0 6,8, 0,16 20,8" id="m_tmpl2"/><marker id="token_arrow"  markerUnits="userSpaceOnUse" markerWidth="20" markerHeight="16" viewBox="0 0 20 16" refX="14" refY="8" orient="auto"><use xlink:href="#m_tmpl2" fill="#60a0ff"/></marker></defs><defs><polygon points="0,0 0,4 0,8 12,4" id="m_tmpl3"/><marker id="link_arrow" markerUnits="strokeWidth" markerWidth="12" markerHeight="8" viewBox="0 0 12 8" refX="12" refY="4" orient="auto"><use xlink:href="#m_tmpl3" fill="#888888"/></marker></defs><rect x ="0" y="0" width="500" height="220" fill="#ffffff" stroke="#a0a0a0" stroke-width="0"/><g transform="translate(20,0) scale(1)"><g stroke="#aae0ff" stroke-width="0" fill="#aae0ff"><circle cx="40" cy="100" r="22" /><circle cx="110" cy="50" r="22" /><circle cx="110" cy="150" r="22" /></g><g stroke="#aae0ff" stroke-width="44.8" fill="#aae0ff"><line x1="40" y1="100" x2="110" y2="50" stroke-linecap="round"/><line x1="40" y1="100" x2="110" y2="150" stroke-linecap="round"/><line x1="110" y1="50" x2="40" y2="100" stroke-linecap="round"/><line x1="110" y1="50" x2="110" y2="150" stroke-linecap="round"/><line x1="110" y1="150" x2="40" y2="100" stroke-linecap="round"/><line x1="110" y1="150" x2="110" y2="50" stroke-linecap="round"/></g></g><g transform="translate(20,0) scale(1)"><g stroke="#888888" stroke-width="8"><line x1="110" y1="150" x2="110" y2="50" stroke-linecap="round"/><line x1="40" y1="100" x2="110" y2="150" stroke-linecap="round"/><line x1="110" y1="50" x2="210" y2="50" stroke-linecap="round"/><line x1="110" y1="150" x2="210" y2="150" stroke-linecap="round"/></g></g><g transform="translate(20,0) scale(1)"><g fill="#ffffff" stroke="#a0a0a0" stroke-width="1"><line x1="40" y1="100" x2="110" y2="50" stroke-linecap="round"/><line x1="40" y1="100" x2="110" y2="150" stroke-linecap="round"/><line x1="110" y1="50" x2="40" y2="100" stroke-linecap="round"/><line x1="110" y1="50" x2="210" y2="50" stroke-linecap="round"/><line x1="110" y1="50" x2="110" y2="150" stroke-linecap="round"/><line x1="110" y1="150" x2="40" y2="100" stroke-linecap="round"/><line x1="110" y1="150" x2="110" y2="50" stroke-linecap="round"/><line x1="110" y1="150" x2="210" y2="50" stroke-linecap="round"/><line x1="110" y1="150" x2="210" y2="150" stroke-linecap="round"/><line x1="210" y1="50" x2="110" y2="50" stroke-linecap="round"/><line x1="210" y1="50" x2="110" y2="150" stroke-linecap="round"/><line x1="210" y1="50" x2="210" y2="150" stroke-linecap="round"/><line x1="210" y1="150" x2="110" y2="150" stroke-linecap="round"/><line x1="210" y1="150" x2="210" y2="50" stroke-linecap="round"/><circle cx="40" cy="100" r="14" /><circle cx="110" cy="50" r="14" /><circle cx="110" cy="150" r="14" /><circle cx="210" cy="50" r="14" /><circle cx="210" cy="150" r="14" /><rect x="69" y="69" width="12" height="12" rx="2" ry="2" /><rect x="69" y="119" width="12" height="12" rx="2" ry="2" /><rect x="69" y="69" width="12" height="12" rx="2" ry="2" /><rect x="154" y="44" width="12" height="12" rx="2" ry="2" /><rect x="104" y="94" width="12" height="12" rx="2" ry="2" /><rect x="69" y="119" width="12" height="12" rx="2" ry="2" /><rect x="104" y="94" width="12" height="12" rx="2" ry="2" /><rect x="154" y="94" width="12" height="12" rx="2" ry="2" /><rect x="154" y="144" width="12" height="12" rx="2" ry="2" /><rect x="154" y="44" width="12" height="12" rx="2" ry="2" /><rect x="154" y="94" width="12" height="12" rx="2" ry="2" /><rect x="204" y="94" width="12" height="12" rx="2" ry="2" /><rect x="154" y="144" width="12" height="12" rx="2" ry="2" /><rect x="204" y="94" width="12" height="12" rx="2" ry="2" /></g><g font-size="9" font-family="Verdana" fill="#888888"><text id="" x="40" y="74" dominant-baseline="central" text-anchor="middle">0</text><text id="" x="110" y="24" dominant-baseline="central" text-anchor="middle">1</text><text id="" x="110" y="124" dominant-baseline="central" text-anchor="middle">2</text><text id="" x="210" y="24" dominant-baseline="central" text-anchor="middle">3</text><text id="" x="210" y="124" dominant-baseline="central" text-anchor="middle">4</text></g></g><g transform="translate(20,0) scale(1)"><g class="flash_g" fill="#ffffff" stroke="#ff1493" stroke-width="2"><rect x="154" y="44" width="12" height="12" rx="2" ry="2" /></g></g><g transform="translate(20,0) scale(1)"><g class="flash_g" fill="#ffffff" stroke="#ff1493" stroke-width="2"><circle cx="110" cy="50" r="14" /></g></g><g transform="translate(20,0) scale(1)"><g class="flash_g" fill="#ff1493" stroke="#ff1493" stroke-width="1"><circle cx="210" cy="50" r="14" /></g><g fill="none" stroke="#a0a0a0" stroke-width="1"><circle cx="210" cy="50" r="14" /></g></g><g transform="translate(20,0) scale(1)"><g transform="translate(110,36) rotate(45)" fill="#ff1493"><path d="M 0 0 L 8 -10 L 4 -10 L 4 -26 L -4 -26 L -4 -10 L -8 -10 z"/></g></g><g transform="translate(20,0) scale(1)"><g stroke-width="0"><circle cx="40" cy="100" r="10" fill="#8FCFFF" id="var_dist_11__0" /><circle cx="110" cy="50" r="10" fill="#80C0FF" id="var_dist_11__1" /><circle cx="110" cy="150" r="10" fill="#85C5FF" id="var_dist_11__2" /><circle cx="210" cy="50" r="10" fill="#76B6FF" id="var_dist_11__3" /><circle cx="210" cy="150" r="10" fill="#5D9DFF" id="var_dist_11__4" /></g><g font-size="14" font-family="sans-serif" fill="#ffffff"><text id="text_dist_11__0" x="40" y="100" dominant-baseline="central" text-anchor="middle">0</text><text id="text_dist_11__1" x="110" y="50" dominant-baseline="central" text-anchor="middle">3</text><text id="text_dist_11__2" x="110" y="150" dominant-baseline="central" text-anchor="middle">2</text><text id="text_dist_11__3" x="210" y="50" dominant-baseline="central" text-anchor="middle">5</text><text id="text_dist_11__4" x="210" y="150" dominant-baseline="central" text-anchor="middle">10</text></g><animate xlink:href="#var_dist_11__3" from="0" to="10.5" attributeName="r" dur="0.9s" repeatCount="1"/><animate xlink:href="#text_dist_11__3" from="0" to="14" attributeName="font-size" dur="0.9s" repeatCount="1"/></g><g transform="translate(20,0) scale(1)"><g font-size="11" font-family="sans-serif" fill="#888888"><text id="" x="75" y="75" dominant-baseline="central" text-anchor="middle">4</text><text id="" x="75" y="125" dominant-baseline="central" text-anchor="middle">2</text><text id="" x="75" y="75" dominant-baseline="central" text-anchor="middle">4</text><text id="" x="160" y="50" dominant-baseline="central" text-anchor="middle">2</text><text id="" x="110" y="100" dominant-baseline="central" text-anchor="middle">1</text><text id="" x="75" y="125" dominant-baseline="central" text-anchor="middle">2</text><text id="" x="110" y="100" dominant-baseline="central" text-anchor="middle">1</text><text id="" x="160" y="100" dominant-baseline="central" text-anchor="middle">6</text><text id="" x="160" y="150" dominant-baseline="central" text-anchor="middle">8</text><text id="" x="160" y="50" dominant-baseline="central" text-anchor="middle">2</text><text id="" x="160" y="100" dominant-baseline="central" text-anchor="middle">6</text><text id="" x="210" y="100" dominant-baseline="central" text-anchor="middle">2</text><text id="" x="160" y="150" dominant-baseline="central" text-anchor="middle">8</text><text id="" x="210" y="100" dominant-baseline="central" text-anchor="middle">2</text></g></g><g transform="translate(270,30) scale(1)"><g stroke="#F0F8FF" stroke-width="0" fill="#F0F8FF"><circle cx="112" cy="28" r="28" /><circle cx="56" cy="70" r="28" /><circle cx="168" cy="70" r="28" /></g><g stroke="#F0F8FF" stroke-width="57.6" fill="#F0F8FF"><line x1="112" y1="28" x2="56" y2="70" stroke-linecap="round"/><line x1="112" y1="28" x2="168" y2="70" stroke-linecap="round"/></g></g><g transform="translate(270,30) scale(1)"><g fill="#ffffff" stroke="#a0a0a0" stroke-width="1"><line x1="140" y1="112" x2="168" y2="70" stroke-linecap="round"/><rect x="122" y="94" width="36" height="36" rx="4" ry="4" /><line x1="84" y1="112" x2="56" y2="70" stroke-linecap="round"/><rect x="66" y="94" width="36" height="36" rx="4" ry="4" /><line x1="28" y1="112" x2="56" y2="70" stroke-linecap="round"/><rect x="10" y="94" width="36" height="36" rx="4" ry="4" /><line x1="168" y1="70" x2="112" y2="28" stroke-linecap="round"/><rect x="150" y="52" width="36" height="36" rx="4" ry="4" /><line x1="56" y1="70" x2="112" y2="28" stroke-linecap="round"/><rect x="38" y="52" width="36" height="36" rx="4" ry="4" /><rect x="94" y="10" width="36" height="36" rx="4" ry="4" /></g></g><g transform="translate(472,28) scale(1)"><g fill="#ffffff" stroke="#a0a0a0" stroke-width="1"><path d="M -14 0 L 0-14 L 14 0 L 0 14 L -14 0 z" /></g></g><g transform="translate(270,30) scale(1)"><g class="flash_g" fill="#ffd700" stroke="#ffd700" stroke-width="1"><rect x="10" y="94" width="36" height="36" rx="4" ry="4" /></g><g fill="none" stroke="#a0a0a0" stroke-width="1"><rect x="10" y="94" width="36" height="36" rx="4" ry="4" /></g></g><g transform="translate(270,30) scale(1)"><g stroke-width="0"><path d="M 125,28 a 13 13 0 0 0 -26,0 z" fill="#81C1FF" id="var_A_15__0"/><path d="M 69,70 a 13 13 0 0 0 -26,0 z" fill="#6CACFF" id="var_A_15__1"/><path d="M 181,70 a 13 13 0 0 0 -26,0 z" fill="#73B3FF" id="var_A_15__2"/><path d="M 41,112 a 13 13 0 0 0 -26,0 z" fill="#7DBDFF" id="var_A_15__3"/></g><g font-size="11" font-family="sans-serif" fill="#ffffff"><text id="text_A_15__0" x="112" y="22" dominant-baseline="central" text-anchor="middle">4</text><text id="text_A_15__1" x="56" y="64" dominant-baseline="central" text-anchor="middle">10</text><text id="text_A_15__2" x="168" y="64" dominant-baseline="central" text-anchor="middle">8</text><text id="text_A_15__3" x="28" y="106" dominant-baseline="central" text-anchor="middle">5</text></g><animateMotion xlink:href="#var_A_15__3" path="M80 0 L 0 0" dur="0.9s" repeatCount="1"/><animateMotion xlink:href="#text_A_15__3" path="M80 0 L 0 0" dur="0.9s" repeatCount="1"/><g fill="none" stroke="#60a0ff" stroke-width="4" stroke-linecap="round" stroke-dasharray="0.1, 8"><path class="for_print" d="M 94 112 L 42 112"  marker-end="url(#token_arrow)"/></g></g><g transform="translate(270,30) scale(1)"><g stroke-width="0"><path d="M 125,28 a 13 13 0 0 1 -26,0 z" fill="#aaaaaa" id="var_nodeId_15__0"/><path d="M 69,70 a 13 13 0 0 1 -26,0 z" fill="#aaaaaa" id="var_nodeId_15__1"/><path d="M 181,70 a 13 13 0 0 1 -26,0 z" fill="#aaaaaa" id="var_nodeId_15__2"/><path d="M 41,112 a 13 13 0 0 1 -26,0 z" fill="#aaaaaa" id="var_nodeId_15__3"/></g><g font-size="11" font-family="sans-serif" fill="#ffffff"><text id="text_nodeId_15__0" x="112" y="34" dominant-baseline="central" text-anchor="middle">1</text><text id="text_nodeId_15__1" x="56" y="76" dominant-baseline="central" text-anchor="middle">4</text><text id="text_nodeId_15__2" x="168" y="76" dominant-baseline="central" text-anchor="middle">3</text><text id="text_nodeId_15__3" x="28" y="118" dominant-baseline="central" text-anchor="middle">3</text></g><animateMotion xlink:href="#var_nodeId_15__3" path="M80 0 L 0 0" dur="0.9s" repeatCount="1"/><animateMotion xlink:href="#text_nodeId_15__3" path="M80 0 L 0 0" dur="0.9s" repeatCount="1"/><g fill="none" stroke="#60a0ff" stroke-width="4" stroke-linecap="round" stroke-dasharray="0.1, 8"><path class="for_print" d="M 94 112 L 42 112"  marker-end="url(#token_arrow)"/></g></g><text x="16" y="20" font-size="16" text-anchor="middle" fill="#888888" font-family="sans-serif" >2-14</text><text x="250" y="204" font-size="9" text-anchor="middle"  font-family="Hiragino Kaku Gothic ProN, メイリオ, sans-serif">1に隣接するノード3の暫定距離を更新し優先度付きキューに挿入します。</text></svg>

