<?xml version="1.0" encoding="UTF-8" standalone="no"?>
<svg
xmlns:svg="http://www.w3.org/2000/svg"
xmlns="http://www.w3.org/2000/svg"
xmlns:xlink="http://www.w3.org/1999/xlink"
viewBox ="0 0 280 200"
>
<animateMotion/><defs><polygon points="0,0 6,8, 0,16 20,8" id="m_tmpl2"/><marker id="token_arrow"  markerUnits="userSpaceOnUse" markerWidth="20" markerHeight="16" viewBox="0 0 20 16" refX="14" refY="8" orient="auto"><use xlink:href="#m_tmpl2" fill="#60a0ff"/></marker></defs><defs><polygon points="0,0 0,4 0,8 12,4" id="m_tmpl3"/><marker id="link_arrow" markerUnits="strokeWidth" markerWidth="12" markerHeight="8" viewBox="0 0 12 8" refX="12" refY="4" orient="auto"><use xlink:href="#m_tmpl3" fill="#888888"/></marker></defs><rect x ="0" y="0" width="280" height="200" fill="#ffffff" stroke="#a0a0a0" stroke-width="0"/><g transform="translate(30,100) scale(1)"><g fill="none" stroke="#a0a0a0" stroke-width="1"><rect x="42" y="-14" width="28" height="28" rx="4" ry="4" /><rect x="98" y="-14" width="28" height="28" rx="4" ry="4" /><g fill="#d0d0d0"><rect x="-14" y="-14" width="28" height="28" rx="4" ry="4" /></g><rect x="154" y="-14" width="28" height="28" rx="4" ry="4" /><path d="M 42 7 Q 28 7 14 7"  marker-end="url(#link_arrow)"/><path d="M 70 -7 Q 84 -7 98 -7"  marker-end="url(#link_arrow)"/><path d="M 102.101 -2.89949 Q 56 -49 9.89949 -2.89949"  marker-end="url(#link_arrow)"/><path d="M 126 -7 Q 140 -7 154 -7"  marker-end="url(#link_arrow)"/><path d="M -8.74532 13.7693 Q 84 65 176.745 13.7693"  marker-end="url(#link_arrow)"/><path d="M 9.89949 2.89949 Q 56 49 102.101 2.89949"  marker-end="url(#link_arrow)"/><path d="M 154 7 Q 140 7 126 7"  marker-end="url(#link_arrow)"/><path d="M 176.745 -13.7693 Q 84 -65 -8.74532 -13.7693"  marker-end="url(#link_arrow)"/></g></g>
<g transform="translate(30,100) scale(1)"><g class="flash_g" fill="#ff8c00" stroke="#ff8c00" stroke-width="1"><rect x="42" y="-14" width="28" height="28" rx="4" ry="4" /></g><g fill="none" stroke="#a0a0a0" stroke-width="1"><rect x="42" y="-14" width="28" height="28" rx="4" ry="4" /></g></g><g transform="translate(30,100) scale(1)"><g fill="#ffffff" stroke-width="0"><g stroke-width="1" stroke="#c0c0c0"><circle cx="112" cy="0" r="11" fill="#FFFFFF" opacity="1" /></g><g stroke-width="1" stroke="#c0c0c0"><circle cx="168" cy="0" r="11" fill="#FFFFFF" opacity="1" /></g><g stroke-width="1" stroke="#c0c0c0"><circle cx="56" cy="0" r="11" fill="#FFFFFF" opacity="1" /></g></g><g font-size="14" font-family="sans-serif" fill="#888888"><text id="" x="112" y="0" dominant-baseline="central" text-anchor="middle">1</text><text id="" x="168" y="0" dominant-baseline="central" text-anchor="middle">8</text><text id="" x="56" y="0" dominant-baseline="central" text-anchor="middle">5</text></g></g><text x="16" y="20" font-size="16" text-anchor="middle" fill="#888888" font-family="sans-serif" >1-5</text><text x="140" y="184" font-size="9" text-anchor="middle"  font-family="Hiragino Kaku Gothic ProN, メイリオ, sans-serif">產生節點，並將其置於串列最前端。</text></svg>

