<?xml version="1.0" encoding="UTF-8" standalone="no"?>
<svg
xmlns:svg="http://www.w3.org/2000/svg"
xmlns="http://www.w3.org/2000/svg"
xmlns:xlink="http://www.w3.org/1999/xlink"
viewBox ="0 0 480 200"
>
<animateMotion/><defs><polygon points="0,0 6,8, 0,16 20,8" id="m_tmpl2"/><marker id="token_arrow"  markerUnits="userSpaceOnUse" markerWidth="20" markerHeight="16" viewBox="0 0 20 16" refX="14" refY="8" orient="auto"><use xlink:href="#m_tmpl2" fill="#60a0ff"/></marker></defs><defs><polygon points="0,0 0,4 0,8 12,4" id="m_tmpl3"/><marker id="link_arrow" markerUnits="strokeWidth" markerWidth="12" markerHeight="8" viewBox="0 0 12 8" refX="12" refY="4" orient="auto"><use xlink:href="#m_tmpl3" fill="#888888"/></marker></defs><rect x ="0" y="0" width="480" height="200" fill="#ffffff" stroke="#a0a0a0" stroke-width="0"/><g transform="translate(0,50) scale(1)"><g stroke="#FFCCCC" stroke-width="0" fill="#FFCCCC"><circle cx="42" cy="0" r="16" /></g><g stroke="#FFE5CC" stroke-width="0" fill="#FFE5CC"><circle cx="84" cy="0" r="16" /></g><g stroke="#FFE5CC" stroke-width="0" fill="#FFE5CC"><circle cx="84" cy="50" r="16" /></g><g stroke="#E5FFCC" stroke-width="0" fill="#E5FFCC"><circle cx="126" cy="0" r="16" /></g><g stroke="#CCFFCC" stroke-width="0" fill="#CCFFCC"><circle cx="168" cy="0" r="16" /></g><g stroke="#CCFFE5" stroke-width="0" fill="#CCFFE5"><circle cx="210" cy="0" r="16" /></g><g stroke="#CCFFFF" stroke-width="0" fill="#CCFFFF"><circle cx="252" cy="0" r="16" /></g><g stroke="#CCE5FF" stroke-width="0" fill="#CCE5FF"><circle cx="294" cy="0" r="16" /></g><g stroke="#CCCCFF" stroke-width="0" fill="#CCCCFF"><circle cx="336" cy="0" r="16" /></g><g stroke="#E5CCFF" stroke-width="0" fill="#E5CCFF"><circle cx="378" cy="0" r="16" /></g><g stroke="#FFCCCC" stroke-width="32" fill="#FFCCCC"><line x1="42" y1="0" x2="42" y2="0" stroke-linecap="round"/></g><g stroke="#FFE5CC" stroke-width="32" fill="#FFE5CC"><line x1="84" y1="0" x2="84" y2="0" stroke-linecap="round"/></g><g stroke="#FFE5CC" stroke-width="32" fill="#FFE5CC"><line x1="84" y1="50" x2="84" y2="0" stroke-linecap="round"/></g><g stroke="#E5FFCC" stroke-width="32" fill="#E5FFCC"><line x1="126" y1="0" x2="126" y2="0" stroke-linecap="round"/></g><g stroke="#CCFFCC" stroke-width="32" fill="#CCFFCC"><line x1="168" y1="0" x2="168" y2="0" stroke-linecap="round"/></g><g stroke="#CCFFE5" stroke-width="32" fill="#CCFFE5"><line x1="210" y1="0" x2="210" y2="0" stroke-linecap="round"/></g><g stroke="#CCFFFF" stroke-width="32" fill="#CCFFFF"><line x1="252" y1="0" x2="252" y2="0" stroke-linecap="round"/></g><g stroke="#CCE5FF" stroke-width="32" fill="#CCE5FF"><line x1="294" y1="0" x2="294" y2="0" stroke-linecap="round"/></g><g stroke="#CCCCFF" stroke-width="32" fill="#CCCCFF"><line x1="336" y1="0" x2="336" y2="0" stroke-linecap="round"/></g><g stroke="#E5CCFF" stroke-width="32" fill="#E5CCFF"><line x1="378" y1="0" x2="378" y2="0" stroke-linecap="round"/></g></g><defs><polygon points="0,0 6,6 0,12 18,6" id="m_tmpl2"/><marker id="m_o1" markerUnits="strokeWidth" markerWidth="10" markerHeight="10" viewBox="0 0 18 12" refX="18" refY="6" orient="auto"><use xlink:href="#m_tmpl2" fill="#a0a0a0"/></marker></defs><g transform="translate(0,50) scale(1)"><g fill="#ffffff" stroke="#a0a0a0" stroke-width="1"><path d="M 84 40 Q 84 25 84 10"  marker-end="url(#link_arrow)"/><circle cx="42" cy="0" r="10" /><circle cx="84" cy="0" r="10" /><circle cx="84" cy="50" r="10" /><circle cx="126" cy="0" r="10" /><circle cx="168" cy="0" r="10" /><circle cx="210" cy="0" r="10" /><circle cx="252" cy="0" r="10" /><circle cx="294" cy="0" r="10" /><circle cx="336" cy="0" r="10" /><circle cx="378" cy="0" r="10" /></g><g font-size="9" font-family="Verdana" fill="#888888"><text x="42" y="-16" dominant-baseline="central" text-anchor="middle">0</text><text x="84" y="-16" dominant-baseline="central" text-anchor="middle">1</text><text x="84" y="34" dominant-baseline="central" text-anchor="middle">2</text><text x="126" y="-16" dominant-baseline="central" text-anchor="middle">3</text><text x="168" y="-16" dominant-baseline="central" text-anchor="middle">4</text><text x="210" y="-16" dominant-baseline="central" text-anchor="middle">5</text><text x="252" y="-16" dominant-baseline="central" text-anchor="middle">6</text><text x="294" y="-16" dominant-baseline="central" text-anchor="middle">7</text><text x="336" y="-16" dominant-baseline="central" text-anchor="middle">8</text><text x="378" y="-16" dominant-baseline="central" text-anchor="middle">9</text></g></g><g transform="translate(452,28) scale(1)"><g fill="#ffffff" stroke="#a0a0a0" stroke-width="1"><path d="M -14 0 L 0-14 L 14 0 L 0 14 L -14 0 z" /></g></g><g transform="translate(452,28) scale(1)"><g class="flash_g" fill="#ffffff" stroke="#ff1493" stroke-width="1"  ><path d="M 0 -14 L -14 0 L 0 14 z" fill="#ff1493" stroke-width="0" /></g><g fill="none" stroke="#a0a0a0" stroke-width="1"><path d="M 0 -14 L 14 0 L 0 14 L -14 0 z"  /></g></g><g transform="translate(0,50) scale(1)"><g class="flash_g" fill="#ffffff" stroke="#ff1493" stroke-width="2"><circle cx="168" cy="0" r="10" /></g></g><g transform="translate(0,50) scale(1)"><g class="flash_g" fill="#ffffff" stroke="#ff1493" stroke-width="2"><circle cx="126" cy="0" r="10" /></g></g><g transform="translate(0,50) scale(1)"><g class="flash_g" fill="#da70d6" stroke="#da70d6" stroke-width="1"></g><g fill="none" stroke="#a0a0a0" stroke-width="1"></g></g><g transform="translate(0,50) scale(1)"><g class="flash_g" transform="translate(168,-10) rotate(0)" fill="#ff8c00"><path d="M 0 0 L 8 -10 L 4 -10 L 4 -26 L -4 -26 L -4 -10 L -8 -10 z"/></g></g><g transform="translate(0,50) scale(1)"><g class="flash_g" transform="translate(126,-10) rotate(0)" fill="#ff8c00"><path d="M 0 0 L 8 -10 L 4 -10 L 4 -26 L -4 -26 L -4 -10 L -8 -10 z"/></g></g><g transform="translate(0,50) scale(1)"><g stroke-width="0"><circle cx="42" cy="0" r="7" fill="#8FCFFF" id="var_weight_5__0" /><circle cx="84" cy="0" r="7" fill="#8FCFFF" id="var_weight_5__1" /><circle cx="84" cy="50" r="7" fill="#7BBBFF" id="var_weight_5__2" /><circle cx="126" cy="0" r="7" fill="#8FCFFF" id="var_weight_5__3" /><circle cx="168" cy="0" r="7" fill="#8FCFFF" id="var_weight_5__4" /><circle cx="210" cy="0" r="7" fill="#8FCFFF" id="var_weight_5__5" /><circle cx="252" cy="0" r="7" fill="#8FCFFF" id="var_weight_5__6" /><circle cx="294" cy="0" r="7" fill="#8FCFFF" id="var_weight_5__7" /><circle cx="336" cy="0" r="7" fill="#8FCFFF" id="var_weight_5__8" /><circle cx="378" cy="0" r="7" fill="#8FCFFF" id="var_weight_5__9" /></g><g font-size="11" font-family="sans-serif" fill="#ffffff"><text id="text_weight_5__0" x="42" y="0" dominant-baseline="central" text-anchor="middle">0</text><text id="text_weight_5__1" x="84" y="0" dominant-baseline="central" text-anchor="middle">0</text><text id="text_weight_5__2" x="84" y="50" dominant-baseline="central" text-anchor="middle">2</text><text id="text_weight_5__3" x="126" y="0" dominant-baseline="central" text-anchor="middle">0</text><text id="text_weight_5__4" x="168" y="0" dominant-baseline="central" text-anchor="middle">0</text><text id="text_weight_5__5" x="210" y="0" dominant-baseline="central" text-anchor="middle">0</text><text id="text_weight_5__6" x="252" y="0" dominant-baseline="central" text-anchor="middle">0</text><text id="text_weight_5__7" x="294" y="0" dominant-baseline="central" text-anchor="middle">0</text><text id="text_weight_5__8" x="336" y="0" dominant-baseline="central" text-anchor="middle">0</text><text id="text_weight_5__9" x="378" y="0" dominant-baseline="central" text-anchor="middle">0</text></g></g><text x="16" y="20" font-size="16" text-anchor="middle" fill="#888888" font-family="sans-serif" >1-5</text><text x="240" y="184" font-size="9" text-anchor="middle"  font-family="Hiragino Kaku Gothic ProN, メイリオ, sans-serif">Compressing path and finding the root</text></svg>

