<?xml version="1.0" encoding="UTF-8" standalone="no"?>
<svg
xmlns:svg="http://www.w3.org/2000/svg"
xmlns="http://www.w3.org/2000/svg"
xmlns:xlink="http://www.w3.org/1999/xlink"
width ="420"
height ="200"
viewBox ="0 0 420 200"
>
<defs><polygon points="0,0 6,6 0,12 18,6" id="m_tmpl2"/><marker id="token_arrow" markerUnits="strokeWidth" markerWidth="18" markerHeight="12" viewBox="0 0 18 12" refX="18" refY="6" orient="auto"><use xlink:href="#m_tmpl2" fill="#0000f0"/></marker></defs><defs><polygon points="0,0 0,4 0,8 16,4" id="m_tmpl3"/><marker id="link_arrow" markerUnits="strokeWidth" markerWidth="16" markerHeight="8" viewBox="0 0 16 8" refX="16" refY="4" orient="auto"><use xlink:href="#m_tmpl3" fill="#000000"/></marker></defs><g transform="translate(0,0) scale(1)"><g stroke="#e8e8e8" stroke-width="0" fill="#e8e8e8"><circle cx="224" cy="28" r="22" /><circle cx="112" cy="70" r="22" /><circle cx="336" cy="70" r="22" /><circle cx="56" cy="112" r="22" /><circle cx="168" cy="112" r="22" /><circle cx="280" cy="112" r="22" /><circle cx="392" cy="112" r="22" /><circle cx="28" cy="154" r="22" /></g><g stroke="#e8e8e8" stroke-width="44.8" fill="#e8e8e8"><line x1="224" y1="28" x2="112" y2="70" stroke-linecap="round"/><line x1="224" y1="28" x2="336" y2="70" stroke-linecap="round"/><line x1="112" y1="70" x2="56" y2="112" stroke-linecap="round"/><line x1="112" y1="70" x2="168" y2="112" stroke-linecap="round"/><line x1="336" y1="70" x2="280" y2="112" stroke-linecap="round"/><line x1="336" y1="70" x2="392" y2="112" stroke-linecap="round"/><line x1="56" y1="112" x2="28" y2="154" stroke-linecap="round"/></g></g><g transform="translate(0,0) scale(1)"><g stroke="#aae0ff" stroke-width="0" fill="#aae0ff"><circle cx="224" cy="28" r="22" /><circle cx="112" cy="70" r="22" /><circle cx="56" cy="112" r="22" /><circle cx="28" cy="154" r="22" /></g><g stroke="#aae0ff" stroke-width="44.8" fill="#aae0ff"><line x1="224" y1="28" x2="112" y2="70" stroke-linecap="round"/><line x1="112" y1="70" x2="56" y2="112" stroke-linecap="round"/><line x1="56" y1="112" x2="28" y2="154" stroke-linecap="round"/></g></g><g transform="translate(0,0) scale(1)"><g fill="#ffffff" stroke="#a0a0a0" stroke-width="1"><line x1="140" y1="154" x2="168" y2="112" stroke-linecap="round"/><circle cx="140" cy="154" r="14" /><line x1="84" y1="154" x2="56" y2="112" stroke-linecap="round"/><circle cx="84" cy="154" r="14" /><line x1="28" y1="154" x2="56" y2="112" stroke-linecap="round"/><circle cx="28" cy="154" r="14" /><line x1="392" y1="112" x2="336" y2="70" stroke-linecap="round"/><circle cx="392" cy="112" r="14" /><line x1="280" y1="112" x2="336" y2="70" stroke-linecap="round"/><circle cx="280" cy="112" r="14" /><line x1="168" y1="112" x2="112" y2="70" stroke-linecap="round"/><circle cx="168" cy="112" r="14" /><line x1="56" y1="112" x2="112" y2="70" stroke-linecap="round"/><circle cx="56" cy="112" r="14" /><line x1="336" y1="70" x2="224" y2="28" stroke-linecap="round"/><circle cx="336" cy="70" r="14" /><line x1="112" y1="70" x2="224" y2="28" stroke-linecap="round"/><circle cx="112" cy="70" r="14" /><circle cx="224" cy="28" r="14" /></g><g font-size="9" font-family="Verdana" fill="#888888"><text id="" x="224" y="5" dominant-baseline="central" text-anchor="middle">0</text><text id="" x="112" y="47" dominant-baseline="central" text-anchor="middle">1</text><text id="" x="336" y="47" dominant-baseline="central" text-anchor="middle">2</text><text id="" x="56" y="89" dominant-baseline="central" text-anchor="middle">3</text><text id="" x="168" y="89" dominant-baseline="central" text-anchor="middle">4</text><text id="" x="280" y="89" dominant-baseline="central" text-anchor="middle">5</text><text id="" x="392" y="89" dominant-baseline="central" text-anchor="middle">6</text><text id="" x="28" y="131" dominant-baseline="central" text-anchor="middle">7</text><text id="" x="84" y="131" dominant-baseline="central" text-anchor="middle">8</text><text id="" x="140" y="131" dominant-baseline="central" text-anchor="middle">9</text></g></g><g transform="translate(0,0) scale(1)"><g class="flash_g" fill="#ff1493" stroke="#ff1493" stroke-width="1"><circle cx="224" cy="28" r="14" /><circle cx="112" cy="70" r="14" /><circle cx="56" cy="112" r="14" /><circle cx="28" cy="154" r="14" /></g></g><g transform="translate(0,0) scale(1)"><g stroke-width="0"><circle cx="224" cy="28" r="10" fill="#5B9BFF" id="var_A_0" /><circle cx="112" cy="70" r="10" fill="#73B3FF" id="var_A_1" /><circle cx="336" cy="70" r="10" fill="#69A9FF" id="var_A_2" /><circle cx="56" cy="112" r="10" fill="#7ABAFF" id="var_A_3" /><circle cx="168" cy="112" r="10" fill="#8BCBFF" id="var_A_4" /><circle cx="280" cy="112" r="10" fill="#84C4FF" id="var_A_5" /><circle cx="392" cy="112" r="10" fill="#70B0FF" id="var_A_6" /><circle cx="28" cy="154" r="10" fill="#7DBDFF" id="var_A_7" /><circle cx="84" cy="154" r="10" fill="#4A8AFA" id="var_A_8" /><circle cx="140" cy="154" r="10" fill="#4080F0" id="var_A_9" /></g><g font-size="14" font-family="sans-serif" fill="#ffffff"><text id="text_A_0" x="224" y="28" dominant-baseline="central" text-anchor="middle">15</text><text id="text_A_1" x="112" y="70" dominant-baseline="central" text-anchor="middle">8</text><text id="text_A_2" x="336" y="70" dominant-baseline="central" text-anchor="middle">11</text><text id="text_A_3" x="56" y="112" dominant-baseline="central" text-anchor="middle">6</text><text id="text_A_4" x="168" y="112" dominant-baseline="central" text-anchor="middle">1</text><text id="text_A_5" x="280" y="112" dominant-baseline="central" text-anchor="middle">3</text><text id="text_A_6" x="392" y="112" dominant-baseline="central" text-anchor="middle">9</text><text id="text_A_7" x="28" y="154" dominant-baseline="central" text-anchor="middle">5</text><text id="text_A_8" x="84" y="154" dominant-baseline="central" text-anchor="middle">20</text><text id="text_A_9" x="140" y="154" dominant-baseline="central" text-anchor="middle">23</text></g><g font-size="14" font-family="sans-serif" fill="#4080f0"><text id="" x="-28" y="0" dominant-baseline="central" text-anchor="middle">A</text></g><animateMotion xlink:href="#var_A_1" path="M112 -42 L 0 0" dur="1s" repeatCount="1"/><animateMotion xlink:href="#text_A_1" path="M112 -42 L 0 0" dur="1s" repeatCount="1"/><g fill="none" stroke="#0000ff" stroke-width="1"><path class="for_print" d="M 210.891 32.9157 L 125.109 65.0843"  marker-end="url(#token_arrow)"/></g><animateMotion xlink:href="#var_A_3" path="M56 -42 L 0 0" dur="1s" repeatCount="1"/><animateMotion xlink:href="#text_A_3" path="M56 -42 L 0 0" dur="1s" repeatCount="1"/><g fill="none" stroke="#0000ff" stroke-width="1"><path class="for_print" d="M 100.8 78.4 L 67.2 103.6"  marker-end="url(#token_arrow)"/></g><animateMotion xlink:href="#var_A_7" path="M28 -42 L 0 0" dur="1s" repeatCount="1"/><animateMotion xlink:href="#text_A_7" path="M28 -42 L 0 0" dur="1s" repeatCount="1"/><g fill="none" stroke="#0000ff" stroke-width="1"><path class="for_print" d="M 48.2342 123.649 L 35.7658 142.351"  marker-end="url(#token_arrow)"/></g><animateMotion xlink:href="#var_A_0" path="M-196 126 Q -35.2721 160.577 0 0" dur="1s" repeatCount="1"/><animateMotion xlink:href="#text_A_0" path="M-196 126 Q -35.2721 160.577 0 0" dur="1s" repeatCount="1"/><g fill="none" stroke="#0000ff" stroke-width="1"><path class="for_print" d="M 41.6942 156.91 Q 188 188 220.927 41.6585"  marker-end="url(#token_arrow)"/></g></g></svg>

