<?xml version="1.0" encoding="UTF-8" standalone="no"?>
<svg
xmlns:svg="http://www.w3.org/2000/svg"
xmlns="http://www.w3.org/2000/svg"
xmlns:xlink="http://www.w3.org/1999/xlink"
viewBox ="0 0 280 200"
>
<animateMotion/><defs><polygon points="0,0 6,8, 0,16 20,8" id="m_tmpl2"/><marker id="token_arrow"  markerUnits="userSpaceOnUse" markerWidth="20" markerHeight="16" viewBox="0 0 20 16" refX="14" refY="8" orient="auto"><use xlink:href="#m_tmpl2" fill="#60a0ff"/></marker></defs><defs><polygon points="0,0 0,4 0,8 12,4" id="m_tmpl3"/><marker id="link_arrow" markerUnits="strokeWidth" markerWidth="12" markerHeight="8" viewBox="0 0 12 8" refX="12" refY="4" orient="auto"><use xlink:href="#m_tmpl3" fill="#888888"/></marker></defs><rect x ="0" y="0" width="280" height="200" fill="#ffffff" stroke="#a0a0a0" stroke-width="0"/><g transform="translate(28,30) scale(1)"><g stroke="#F0F8FF" stroke-width="0" fill="#F0F8FF"><circle cx="28" cy="84" r="22" /></g><g stroke="#F0F8FF" stroke-width="44.8" fill="#F0F8FF"></g></g><g transform="translate(28,30) scale(1)"><g fill="#ffffff" stroke="#a0a0a0" stroke-width="1"><line x1="84" y1="84" x2="56" y2="42" stroke-linecap="round"/><line x1="140" y1="84" x2="168" y2="42" stroke-linecap="round"/><line x1="168" y1="42" x2="112" y2="0" stroke-linecap="round"/><line x1="56" y1="42" x2="112" y2="0" stroke-linecap="round"/><line x1="98" y1="126" x2="84" y2="84" stroke-linecap="round"/><line x1="28" y1="84" x2="56" y2="42" stroke-linecap="round"/><line x1="70" y1="126" x2="84" y2="84" stroke-linecap="round"/><line x1="196" y1="84" x2="168" y2="42" stroke-linecap="round"/><line x1="210" y1="126" x2="196" y2="84" stroke-linecap="round"/><circle cx="84" cy="84" r="14" /><circle cx="140" cy="84" r="14" /><circle cx="112" cy="0" r="14" /><circle cx="168" cy="42" r="14" /><circle cx="56" cy="42" r="14" /><circle cx="98" cy="126" r="14" /><circle cx="28" cy="84" r="14" /><circle cx="70" cy="126" r="14" /><circle cx="196" cy="84" r="14" /><circle cx="210" cy="126" r="14" /></g><g font-size="9" font-family="Verdana" fill="#888888"><text id="" x="84" y="61" dominant-baseline="central" text-anchor="middle">0</text><text id="" x="140" y="61" dominant-baseline="central" text-anchor="middle">1</text><text id="" x="112" y="-22" dominant-baseline="central" text-anchor="middle">2</text><text id="" x="168" y="19" dominant-baseline="central" text-anchor="middle">3</text><text id="" x="56" y="19" dominant-baseline="central" text-anchor="middle">4</text><text id="" x="98" y="103" dominant-baseline="central" text-anchor="middle">5</text><text id="" x="28" y="61" dominant-baseline="central" text-anchor="middle">6</text><text id="" x="70" y="103" dominant-baseline="central" text-anchor="middle">7</text><text id="" x="196" y="61" dominant-baseline="central" text-anchor="middle">8</text><text id="" x="210" y="103" dominant-baseline="central" text-anchor="middle">9</text></g></g><g transform="translate(28,30) scale(1)"><g class="flash_g" fill="#ff1493" stroke="#ff1493" stroke-width="1"><circle cx="28" cy="84" r="14" /></g><g fill="none" stroke="#a0a0a0" stroke-width="1"><circle cx="28" cy="84" r="14" /></g></g><g transform="translate(28,30) scale(1)"><g stroke-width="0"><circle cx="28" cy="84" r="10" fill="#87C7FF" id="var_L_1__6" /></g><g font-size="14" font-family="sans-serif" fill="#ffffff"><text id="text_L_1__6" x="28" y="84" dominant-baseline="central" text-anchor="middle">1</text></g></g><text x="16" y="20" font-size="16" text-anchor="middle" fill="#888888" font-family="sans-serif" >1-2</text><text x="140" y="184" font-size="9" text-anchor="middle"  font-family="Hiragino Kaku Gothic ProN, メイリオ, sans-serif">左部分木と右部分木の訪問が完了した状態でノード6を訪問します。。</text></svg>

