<?xml version="1.0" encoding="UTF-8" standalone="no"?>
<svg
xmlns:svg="http://www.w3.org/2000/svg"
xmlns="http://www.w3.org/2000/svg"
xmlns:xlink="http://www.w3.org/1999/xlink"
width ="280"
height ="200"
viewBox ="0 0 280 200"
>
<defs><polygon points="0,0 6,6 0,12 18,6" id="m_tmpl2"/><marker id="token_arrow" markerUnits="strokeWidth" markerWidth="18" markerHeight="12" viewBox="0 0 18 12" refX="18" refY="6" orient="auto"><use xlink:href="#m_tmpl2" fill="#0000f0"/></marker></defs><g transform="translate(60,100) scale(1)"><g fill="#ffffff" stroke="#a0a0a0" stroke-width="1"><rect x="-14" y="-14" width="28" height="28" rx="4" ry="4" /><rect x="18" y="-14" width="28" height="28" rx="4" ry="4" /><rect x="50" y="-14" width="28" height="28" rx="4" ry="4" /><rect x="82" y="-14" width="28" height="28" rx="4" ry="4" /><rect x="114" y="-14" width="28" height="28" rx="4" ry="4" /><rect x="146" y="-14" width="28" height="28" rx="4" ry="4" /></g><g font-size="9" font-family="Verdana" fill="#888888"><text x="0" y="-25" dominant-baseline="central" text-anchor="middle">0</text><text x="32" y="-25" dominant-baseline="central" text-anchor="middle">1</text><text x="64" y="-25" dominant-baseline="central" text-anchor="middle">2</text><text x="96" y="-25" dominant-baseline="central" text-anchor="middle">3</text><text x="128" y="-25" dominant-baseline="central" text-anchor="middle">4</text><text x="160" y="-25" dominant-baseline="central" text-anchor="middle">5</text></g></g><g transform="translate(60,100) scale(1)"><g fill="#ffffff" stroke="#ffa0a0" stroke-width="2"><rect x="-14" y="-14" width="28" height="28" rx="4" ry="4" /></g></g><g transform="translate(60,100) scale(1)"><g transform="translate(0,-14) rotate(0)" fill="#ff4040"><path d="M 0 0 L 8 -10 L 4 -10 L 4 -26 L -4 -26 L -4 -10 L -8 -10 z"/></g></g><g transform="translate(60,100) scale(1)"><g transform="translate(96,-14) rotate(0)" fill="#8080ff"><path d="M 0 0 L 8 -10 L 4 -10 L 4 -26 L -4 -26 L -4 -10 L -8 -10 z"/></g></g><g stroke="#66c088" transform="translate(60,100)  scale(1)"><circle cx="-59" cy="0" r="10" fill="#66c088" opacity="0.5" /><circle cx="-54" cy="0" r="10" fill="#66c088" opacity="0.3" /><circle cx="-49" cy="0" r="10" fill="#66c088" opacity="0.18" /><circle cx="-44" cy="0" r="10" fill="#66c088" opacity="0.108" /><circle cx="-39" cy="0" r="10" fill="#66c088" opacity="0.0648" /><circle cx="-34" cy="0" r="10" fill="#66c088" opacity="0.03888" /><g fill="none" stroke="#0000f0" stroke-width="1"><line x1="-10" y1="0" x2="-54" y2="0"  marker-end="url(#token_arrow)"/></g></g><g transform="translate(60,100) scale(1)"><g stroke-width="0"><circle cx="0" cy="0" r="10" fill="#66c088" opacity="1" /><circle cx="32" cy="0" r="10" fill="#66c088" opacity="1" /><circle cx="64" cy="0" r="10" fill="#66c088" opacity="1" /></g><g font-size="14" font-family="sans-serif" fill="#ffffff"><text x="0" y="0" dominant-baseline="central" text-anchor="middle">3</text><text x="32" y="0" dominant-baseline="central" text-anchor="middle">8</text><text x="64" y="0" dominant-baseline="central" text-anchor="middle">1</text></g><g font-size="14" font-family="sans-serif" fill="#66c088"><text x="-28" y="0" dominant-baseline="central" text-anchor="middle">buff</text></g></g></svg>

