<?xml version="1.0" encoding="UTF-8" standalone="no"?>
<svg
xmlns:dc="http://purl.org/dc/elements/1.1/"
xmlns:rdf="http://www.w3.org/1999/02/22-rdf-syntax-ns#"
xmlns:svg="http://www.w3.org/2000/svg"
xmlns="http://www.w3.org/2000/svg"
xmlns:xlink="http://www.w3.org/1999/xlink"
version="1.1"
width ="1488"
height ="196"
viewBox ="0 0 1488 196"
>
<rect x ="0" y="0" width="480" height="180" fill="#ffffff" stroke="#888888" stroke-width="1"/><text transform="rotate(-35, 16,180)" x="16" y="180" font-size="24" text-anchor="left" fill="#e8e8e8"  font-family="Arial">UNDER CONSTRUCTION</text><g transform="translate(0,0)"><g transform="translate(0,0) scale(1)"><g stroke="#a0a0a0" stroke-width="0" fill="#a0a0a0"><rect x="0" y="-14" width="448" height="28" /><rect x="0" y="14" width="224" height="28" /><rect x="112" y="42" width="112" height="28" /></g></g><g transform="translate(0,0) scale(1)"><g fill="#ffffff" stroke="#a0a0a0" stroke-width="1"><line x1="434" y1="112" x2="420" y2="84" stroke-linecap="round"/><circle cx="434" cy="112" r="9" /><line x1="406" y1="112" x2="420" y2="84" stroke-linecap="round"/><circle cx="406" cy="112" r="9" /><line x1="378" y1="112" x2="364" y2="84" stroke-linecap="round"/><circle cx="378" cy="112" r="9" /><line x1="350" y1="112" x2="364" y2="84" stroke-linecap="round"/><circle cx="350" cy="112" r="9" /><line x1="322" y1="112" x2="308" y2="84" stroke-linecap="round"/><circle cx="322" cy="112" r="9" /><line x1="294" y1="112" x2="308" y2="84" stroke-linecap="round"/><circle cx="294" cy="112" r="9" /><line x1="266" y1="112" x2="252" y2="84" stroke-linecap="round"/><circle cx="266" cy="112" r="9" /><line x1="238" y1="112" x2="252" y2="84" stroke-linecap="round"/><circle cx="238" cy="112" r="9" /><line x1="210" y1="112" x2="196" y2="84" stroke-linecap="round"/><circle cx="210" cy="112" r="9" /><line x1="182" y1="112" x2="196" y2="84" stroke-linecap="round"/><circle cx="182" cy="112" r="9" /><line x1="154" y1="112" x2="140" y2="84" stroke-linecap="round"/><circle cx="154" cy="112" r="9" /><line x1="126" y1="112" x2="140" y2="84" stroke-linecap="round"/><circle cx="126" cy="112" r="9" /><line x1="98" y1="112" x2="84" y2="84" stroke-linecap="round"/><circle cx="98" cy="112" r="9" /><line x1="70" y1="112" x2="84" y2="84" stroke-linecap="round"/><circle cx="70" cy="112" r="9" /><line x1="42" y1="112" x2="28" y2="84" stroke-linecap="round"/><circle cx="42" cy="112" r="9" /><line x1="14" y1="112" x2="28" y2="84" stroke-linecap="round"/><circle cx="14" cy="112" r="9" /><line x1="420" y1="84" x2="392" y2="56" stroke-linecap="round"/><circle cx="420" cy="84" r="9" /><line x1="364" y1="84" x2="392" y2="56" stroke-linecap="round"/><circle cx="364" cy="84" r="9" /><line x1="308" y1="84" x2="280" y2="56" stroke-linecap="round"/><circle cx="308" cy="84" r="9" /><line x1="252" y1="84" x2="280" y2="56" stroke-linecap="round"/><circle cx="252" cy="84" r="9" /><line x1="196" y1="84" x2="168" y2="56" stroke-linecap="round"/><circle cx="196" cy="84" r="9" /><line x1="140" y1="84" x2="168" y2="56" stroke-linecap="round"/><circle cx="140" cy="84" r="9" /><line x1="84" y1="84" x2="56" y2="56" stroke-linecap="round"/><circle cx="84" cy="84" r="9" /><line x1="28" y1="84" x2="56" y2="56" stroke-linecap="round"/><circle cx="28" cy="84" r="9" /><line x1="392" y1="56" x2="336" y2="28" stroke-linecap="round"/><circle cx="392" cy="56" r="9" /><line x1="280" y1="56" x2="336" y2="28" stroke-linecap="round"/><circle cx="280" cy="56" r="9" /><line x1="168" y1="56" x2="112" y2="28" stroke-linecap="round"/><circle cx="168" cy="56" r="9" /><line x1="56" y1="56" x2="112" y2="28" stroke-linecap="round"/><circle cx="56" cy="56" r="9" /><line x1="336" y1="28" x2="224" y2="0" stroke-linecap="round"/><circle cx="336" cy="28" r="9" /><line x1="112" y1="28" x2="224" y2="0" stroke-linecap="round"/><circle cx="112" cy="28" r="9" /><circle cx="224" cy="0" r="9" /></g></g></g><text x="16" y="20" font-size="16" text-anchor="middle" fill="#888888" font-family="sans-serif" >1</text></svg>

