<?xml version="1.0" encoding="UTF-8" standalone="no"?>
<svg
xmlns:svg="http://www.w3.org/2000/svg"
xmlns="http://www.w3.org/2000/svg"
xmlns:xlink="http://www.w3.org/1999/xlink"
width ="280"
height ="200"
viewBox ="0 0 280 200"
>
<g transform="translate(17,2) scale(1)"><g fill="#ffffff" stroke="#a0a0a0" stroke-width="1"><line x1="50" y1="50" x2="120" y2="30" stroke-linecap="round"/><line x1="50" y1="50" x2="100" y2="100" stroke-linecap="round"/><line x1="50" y1="50" x2="80" y2="170" stroke-linecap="round"/><line x1="50" y1="50" x2="30" y2="140" stroke-linecap="round"/><line x1="120" y1="30" x2="50" y2="50" stroke-linecap="round"/><line x1="120" y1="30" x2="100" y2="100" stroke-linecap="round"/><line x1="120" y1="30" x2="170" y2="100" stroke-linecap="round"/><line x1="100" y1="100" x2="50" y2="50" stroke-linecap="round"/><line x1="100" y1="100" x2="120" y2="30" stroke-linecap="round"/><line x1="100" y1="100" x2="170" y2="100" stroke-linecap="round"/><line x1="100" y1="100" x2="220" y2="170" stroke-linecap="round"/><line x1="100" y1="100" x2="80" y2="170" stroke-linecap="round"/><line x1="30" y1="140" x2="50" y2="50" stroke-linecap="round"/><line x1="30" y1="140" x2="80" y2="170" stroke-linecap="round"/><line x1="80" y1="170" x2="50" y2="50" stroke-linecap="round"/><line x1="80" y1="170" x2="100" y2="100" stroke-linecap="round"/><line x1="80" y1="170" x2="30" y2="140" stroke-linecap="round"/><line x1="80" y1="170" x2="220" y2="170" stroke-linecap="round"/><line x1="170" y1="100" x2="120" y2="30" stroke-linecap="round"/><line x1="170" y1="100" x2="100" y2="100" stroke-linecap="round"/><line x1="170" y1="100" x2="220" y2="170" stroke-linecap="round"/><line x1="220" y1="170" x2="100" y2="100" stroke-linecap="round"/><line x1="220" y1="170" x2="80" y2="170" stroke-linecap="round"/><line x1="220" y1="170" x2="170" y2="100" stroke-linecap="round"/><circle cx="50" cy="50" r="14" /><circle cx="120" cy="30" r="14" /><circle cx="100" cy="100" r="14" /><circle cx="30" cy="140" r="14" /><circle cx="80" cy="170" r="14" /><circle cx="170" cy="100" r="14" /><circle cx="220" cy="170" r="14" /></g></g><g transform="translate(17,2) scale(1)"><g stroke-width="0"><circle cx="50" cy="50" r="11" fill="#8FCFFF" opacity="1" /><circle cx="120" cy="30" r="11" fill="#74B4FF" opacity="1" /><circle cx="100" cy="100" r="11" fill="#74B4FF" opacity="1" /><circle cx="30" cy="140" r="11" fill="#74B4FF" opacity="1" /><circle cx="80" cy="170" r="11" fill="#74B4FF" opacity="1" /><circle cx="170" cy="100" r="11" fill="#5A9AFF" opacity="1" /><circle cx="220" cy="170" r="11" fill="#5A9AFF" opacity="1" /></g><g font-size="14" font-family="sans-serif" fill="#ffffff"><text x="50" y="50" dominant-baseline="central" text-anchor="middle">0</text><text x="120" y="30" dominant-baseline="central" text-anchor="middle">1</text><text x="100" y="100" dominant-baseline="central" text-anchor="middle">1</text><text x="30" y="140" dominant-baseline="central" text-anchor="middle">1</text><text x="80" y="170" dominant-baseline="central" text-anchor="middle">1</text><text x="170" y="100" dominant-baseline="central" text-anchor="middle">2</text><text x="220" y="170" dominant-baseline="central" text-anchor="middle">2</text></g><g font-size="14" font-family="sans-serif" fill="#888888"><text x="-28" y="0" dominant-baseline="central" text-anchor="middle">d</text></g></g></svg>

