<?xml version="1.0" encoding="UTF-8" standalone="no"?>
<svg
xmlns:svg="http://www.w3.org/2000/svg"
xmlns="http://www.w3.org/2000/svg"
xmlns:xlink="http://www.w3.org/1999/xlink"
viewBox ="0 0 280 260"
>
<animateMotion/><defs><polygon points="0,0 6,8, 0,16 20,8" id="m_tmpl2"/><marker id="token_arrow"  markerUnits="userSpaceOnUse" markerWidth="20" markerHeight="16" viewBox="0 0 20 16" refX="14" refY="8" orient="auto"><use xlink:href="#m_tmpl2" fill="#60a0ff"/></marker></defs><defs><polygon points="0,0 0,4 0,8 12,4" id="m_tmpl3"/><marker id="link_arrow" markerUnits="strokeWidth" markerWidth="12" markerHeight="8" viewBox="0 0 12 8" refX="12" refY="4" orient="auto"><use xlink:href="#m_tmpl3" fill="#888888"/></marker></defs><rect x ="0" y="0" width="280" height="260" fill="#ffffff" stroke="#a0a0a0" stroke-width="0"/><g transform="translate(0,30) scale(1)"><g stroke="#F0F8FF" stroke-width="0" fill="#F0F8FF"><circle cx="50" cy="50" r="22" /><circle cx="120" cy="30" r="22" /><circle cx="100" cy="100" r="22" /><circle cx="30" cy="140" r="22" /><circle cx="80" cy="170" r="22" /></g><g stroke="#F0F8FF" stroke-width="44.8" fill="#F0F8FF"><line x1="50" y1="50" x2="120" y2="30" stroke-linecap="round"/><line x1="50" y1="50" x2="100" y2="100" stroke-linecap="round"/><line x1="50" y1="50" x2="80" y2="170" stroke-linecap="round"/><line x1="50" y1="50" x2="30" y2="140" stroke-linecap="round"/><line x1="120" y1="30" x2="50" y2="50" stroke-linecap="round"/><line x1="120" y1="30" x2="100" y2="100" stroke-linecap="round"/><line x1="100" y1="100" x2="50" y2="50" stroke-linecap="round"/><line x1="100" y1="100" x2="120" y2="30" stroke-linecap="round"/><line x1="100" y1="100" x2="80" y2="170" stroke-linecap="round"/><line x1="30" y1="140" x2="50" y2="50" stroke-linecap="round"/><line x1="30" y1="140" x2="80" y2="170" stroke-linecap="round"/><line x1="80" y1="170" x2="50" y2="50" stroke-linecap="round"/><line x1="80" y1="170" x2="100" y2="100" stroke-linecap="round"/><line x1="80" y1="170" x2="30" y2="140" stroke-linecap="round"/></g></g><g transform="translate(0,30) scale(1)"><g stroke="#c8e8ff" stroke-width="0" fill="#c8e8ff"><circle cx="30" cy="140" r="22" /></g><g stroke="#c8e8ff" stroke-width="44.8" fill="#c8e8ff"></g></g><g transform="translate(0,30) scale(1)"><g stroke="#a0a0a0" stroke-width="8"><line x1="50" y1="50" x2="120" y2="30" stroke-linecap="round"/><line x1="120" y1="30" x2="100" y2="100" stroke-linecap="round"/><line x1="100" y1="100" x2="80" y2="170" stroke-linecap="round"/><line x1="80" y1="170" x2="30" y2="140" stroke-linecap="round"/></g></g><g transform="translate(0,30) scale(1)"><g fill="#ffffff" stroke="#a0a0a0" stroke-width="1"><line x1="50" y1="50" x2="120" y2="30" stroke-linecap="round"/><line x1="50" y1="50" x2="100" y2="100" stroke-linecap="round"/><line x1="50" y1="50" x2="80" y2="170" stroke-linecap="round"/><line x1="50" y1="50" x2="30" y2="140" stroke-linecap="round"/><line x1="120" y1="30" x2="50" y2="50" stroke-linecap="round"/><line x1="120" y1="30" x2="100" y2="100" stroke-linecap="round"/><line x1="120" y1="30" x2="170" y2="100" stroke-linecap="round"/><line x1="100" y1="100" x2="50" y2="50" stroke-linecap="round"/><line x1="100" y1="100" x2="120" y2="30" stroke-linecap="round"/><line x1="100" y1="100" x2="80" y2="170" stroke-linecap="round"/><line x1="100" y1="100" x2="170" y2="100" stroke-linecap="round"/><line x1="100" y1="100" x2="220" y2="170" stroke-linecap="round"/><line x1="30" y1="140" x2="50" y2="50" stroke-linecap="round"/><line x1="30" y1="140" x2="80" y2="170" stroke-linecap="round"/><line x1="80" y1="170" x2="50" y2="50" stroke-linecap="round"/><line x1="80" y1="170" x2="100" y2="100" stroke-linecap="round"/><line x1="80" y1="170" x2="30" y2="140" stroke-linecap="round"/><line x1="80" y1="170" x2="220" y2="170" stroke-linecap="round"/><line x1="170" y1="100" x2="120" y2="30" stroke-linecap="round"/><line x1="170" y1="100" x2="100" y2="100" stroke-linecap="round"/><line x1="170" y1="100" x2="220" y2="170" stroke-linecap="round"/><line x1="220" y1="170" x2="100" y2="100" stroke-linecap="round"/><line x1="220" y1="170" x2="80" y2="170" stroke-linecap="round"/><line x1="220" y1="170" x2="170" y2="100" stroke-linecap="round"/><circle cx="50" cy="50" r="14" /><circle cx="120" cy="30" r="14" /><circle cx="100" cy="100" r="14" /><circle cx="30" cy="140" r="14" /><circle cx="80" cy="170" r="14" /><circle cx="170" cy="100" r="14" /><circle cx="220" cy="170" r="14" /></g><g font-size="9" font-family="Verdana" fill="#888888"><text id="" x="50" y="24" dominant-baseline="central" text-anchor="middle">0</text><text id="" x="120" y="4" dominant-baseline="central" text-anchor="middle">1</text><text id="" x="100" y="74" dominant-baseline="central" text-anchor="middle">2</text><text id="" x="30" y="114" dominant-baseline="central" text-anchor="middle">3</text><text id="" x="80" y="144" dominant-baseline="central" text-anchor="middle">4</text><text id="" x="170" y="74" dominant-baseline="central" text-anchor="middle">5</text><text id="" x="220" y="144" dominant-baseline="central" text-anchor="middle">6</text></g></g><g transform="translate(0,30) scale(1)"><g class="flash_g" fill="#ffffff" stroke="#ff8c00" stroke-width="2"><circle cx="80" cy="170" r="14" /></g></g><g transform="translate(0,30) scale(1)"><g stroke-width="0"><circle cx="50" cy="50" r="10" fill="#e8e8e8" id="var_color_11__0" /><circle cx="120" cy="30" r="10" fill="#e8e8e8" id="var_color_11__1" /><circle cx="100" cy="100" r="10" fill="#e8e8e8" id="var_color_11__2" /><circle cx="30" cy="140" r="10" fill="#c8c8c8" id="var_color_11__3" /><circle cx="80" cy="170" r="10" fill="#e8e8e8" id="var_color_11__4" /></g><g font-size="14" font-family="sans-serif" fill="#888888"><text id="text_color_11__0" x="50" y="50" dominant-baseline="central" text-anchor="middle">1</text><text id="text_color_11__1" x="120" y="30" dominant-baseline="central" text-anchor="middle">1</text><text id="text_color_11__2" x="100" y="100" dominant-baseline="central" text-anchor="middle">1</text><text id="text_color_11__3" x="30" y="140" dominant-baseline="central" text-anchor="middle">2</text><text id="text_color_11__4" x="80" y="170" dominant-baseline="central" text-anchor="middle">1</text></g></g><g transform="translate(250,40) scale(0.7)"><g fill="#ffffff" stroke="#a0a0a0" stroke-width="1"><rect x="-14" y="178" width="28" height="28" rx="4" ry="4" /><rect x="-14" y="146" width="28" height="28" rx="4" ry="4" /><rect x="-14" y="114" width="28" height="28" rx="4" ry="4" /><rect x="-14" y="82" width="28" height="28" rx="4" ry="4" /><rect x="-14" y="50" width="28" height="28" rx="4" ry="4" /><rect x="-14" y="18" width="28" height="28" rx="4" ry="4" /><rect x="-14" y="-14" width="28" height="28" rx="4" ry="4" /></g><g font-size="9" font-family="Verdana" fill="#888888"><text id="" x="-22" y="192" dominant-baseline="central" text-anchor="middle">0</text><text id="" x="-22" y="160" dominant-baseline="central" text-anchor="middle">1</text><text id="" x="-22" y="128" dominant-baseline="central" text-anchor="middle">2</text><text id="" x="-22" y="96" dominant-baseline="central" text-anchor="middle">3</text><text id="" x="-22" y="64" dominant-baseline="central" text-anchor="middle">4</text><text id="" x="-22" y="32" dominant-baseline="central" text-anchor="middle">5</text><text id="" x="-22" y="0" dominant-baseline="central" text-anchor="middle">6</text></g></g><g transform="translate(250,40) scale(0.7)"><g class="flash_g" fill="#ffffff" stroke="#ff8c00" stroke-width="2"><rect x="-14" y="82" width="28" height="28" rx="4" ry="4" /></g></g><g transform="translate(250,40) scale(0.7)"><g transform="translate(14,96) rotate(90)" fill="#ff1493"><path d="M 0 0 L 8 -10 L 4 -10 L 4 -26 L -4 -26 L -4 -10 L -8 -10 z"/></g></g><g transform="translate(250,40) scale(0.7)"><g stroke-width="1" stroke="#c0c0c0"><circle cx="0" cy="192" r="10" fill="#ffffff" id="var_S_12__0" /><circle cx="0" cy="160" r="10" fill="#ffffff" id="var_S_12__1" /><circle cx="0" cy="128" r="10" fill="#ffffff" id="var_S_12__2" /><circle cx="0" cy="96" r="10" fill="#ffffff" id="var_S_12__3" /></g><g font-size="14" font-family="sans-serif" fill="#888888"><text id="text_S_12__0" x="0" y="192" dominant-baseline="central" text-anchor="middle">0</text><text id="text_S_12__1" x="0" y="160" dominant-baseline="central" text-anchor="middle">1</text><text id="text_S_12__2" x="0" y="128" dominant-baseline="central" text-anchor="middle">2</text><text id="text_S_12__3" x="0" y="96" dominant-baseline="central" text-anchor="middle">4</text></g><g font-size="14" font-family="sans-serif" fill="#ffffff"><text id="" x="0" y="-28" dominant-baseline="central" text-anchor="middle">S</text></g></g><text x="16" y="20" font-size="16" text-anchor="middle" fill="#888888" font-family="sans-serif" >2-11</text><text x="140" y="244" font-size="9" text-anchor="middle"  font-family="Hiragino Kaku Gothic ProN, メイリオ, sans-serif">檢視位於堆疊頂端的節點 4。</text></svg>

