<?xml version="1.0" encoding="UTF-8" standalone="no"?>
<svg
xmlns:svg="http://www.w3.org/2000/svg"
xmlns="http://www.w3.org/2000/svg"
xmlns:xlink="http://www.w3.org/1999/xlink"
width ="280"
height ="200"
viewBox ="0 0 280 200"
>
<defs><polygon points="0,0 6,6 0,12 18,6" id="m_tmpl2"/><marker id="token_arrow" markerUnits="strokeWidth" markerWidth="18" markerHeight="12" viewBox="0 0 18 12" refX="18" refY="6" orient="auto"><use xlink:href="#m_tmpl2" fill="#0000f0"/></marker></defs><defs><polygon points="0,0 0,4 0,8 16,4" id="m_tmpl3"/><marker id="link_arrow" markerUnits="strokeWidth" markerWidth="16" markerHeight="8" viewBox="0 0 16 8" refX="16" refY="4" orient="auto"><use xlink:href="#m_tmpl3" fill="#888888"/></marker></defs><g transform="translate(28,30) scale(1)"><g fill="#ffffff" stroke="#a0a0a0" stroke-width="1"><line x1="84" y1="84" x2="56" y2="42" stroke-linecap="round"/><line x1="140" y1="84" x2="168" y2="42" stroke-linecap="round"/><line x1="168" y1="42" x2="112" y2="0" stroke-linecap="round"/><line x1="56" y1="42" x2="112" y2="0" stroke-linecap="round"/><line x1="98" y1="126" x2="84" y2="84" stroke-linecap="round"/><line x1="28" y1="84" x2="56" y2="42" stroke-linecap="round"/><line x1="70" y1="126" x2="84" y2="84" stroke-linecap="round"/><line x1="196" y1="84" x2="168" y2="42" stroke-linecap="round"/><line x1="210" y1="126" x2="196" y2="84" stroke-linecap="round"/><circle cx="84" cy="84" r="14" /><circle cx="140" cy="84" r="14" /><circle cx="112" cy="0" r="14" /><circle cx="168" cy="42" r="14" /><circle cx="56" cy="42" r="14" /><circle cx="98" cy="126" r="14" /><circle cx="28" cy="84" r="14" /><circle cx="70" cy="126" r="14" /><circle cx="196" cy="84" r="14" /><circle cx="210" cy="126" r="14" /></g><g font-size="9" font-family="Verdana" fill="#888888"><text id="" x="84" y="61" dominant-baseline="central" text-anchor="middle">0</text><text id="" x="140" y="61" dominant-baseline="central" text-anchor="middle">1</text><text id="" x="112" y="-22" dominant-baseline="central" text-anchor="middle">2</text><text id="" x="168" y="19" dominant-baseline="central" text-anchor="middle">3</text><text id="" x="56" y="19" dominant-baseline="central" text-anchor="middle">4</text><text id="" x="98" y="103" dominant-baseline="central" text-anchor="middle">5</text><text id="" x="28" y="61" dominant-baseline="central" text-anchor="middle">6</text><text id="" x="70" y="103" dominant-baseline="central" text-anchor="middle">7</text><text id="" x="196" y="61" dominant-baseline="central" text-anchor="middle">8</text><text id="" x="210" y="103" dominant-baseline="central" text-anchor="middle">9</text></g></g><g transform="translate(28,30) scale(1)"><g stroke-width="0"><circle cx="84" cy="84" r="10" fill="#6FAFFF" id="var_label_11__0" /><circle cx="140" cy="84" r="10" fill="#5797FF" id="var_label_11__1" /><circle cx="112" cy="0" r="10" fill="#5F9FFF" id="var_label_11__2" /><circle cx="168" cy="42" r="10" fill="#4F8FFF" id="var_label_11__3" /><circle cx="56" cy="42" r="10" fill="#7FBFFF" id="var_label_11__4" /><circle cx="98" cy="126" r="10" fill="#67A7FF" id="var_label_11__5" /><circle cx="28" cy="84" r="10" fill="#87C7FF" id="var_label_11__6" /><circle cx="70" cy="126" r="10" fill="#77B7FF" id="var_label_11__7" /><circle cx="196" cy="84" r="10" fill="#4787F7" id="var_label_11__8" /><circle cx="210" cy="126" r="10" fill="#4080F0" id="var_label_11__9" /></g><g font-size="14" font-family="sans-serif" fill="#ffffff"><text id="text_label_11__0" x="84" y="84" dominant-baseline="central" text-anchor="middle">4</text><text id="text_label_11__1" x="140" y="84" dominant-baseline="central" text-anchor="middle">7</text><text id="text_label_11__2" x="112" y="0" dominant-baseline="central" text-anchor="middle">6</text><text id="text_label_11__3" x="168" y="42" dominant-baseline="central" text-anchor="middle">8</text><text id="text_label_11__4" x="56" y="42" dominant-baseline="central" text-anchor="middle">2</text><text id="text_label_11__5" x="98" y="126" dominant-baseline="central" text-anchor="middle">5</text><text id="text_label_11__6" x="28" y="84" dominant-baseline="central" text-anchor="middle">1</text><text id="text_label_11__7" x="70" y="126" dominant-baseline="central" text-anchor="middle">3</text><text id="text_label_11__8" x="196" y="84" dominant-baseline="central" text-anchor="middle">9</text><text id="text_label_11__9" x="210" y="126" dominant-baseline="central" text-anchor="middle">10</text></g><g font-size="14" font-family="sans-serif" fill="#4080f0"><text id="" x="-28" y="0" dominant-baseline="central" text-anchor="end">label</text></g></g></svg>

