<?xml version="1.0" encoding="UTF-8" standalone="no"?>
<svg
xmlns:svg="http://www.w3.org/2000/svg"
xmlns="http://www.w3.org/2000/svg"
xmlns:xlink="http://www.w3.org/1999/xlink"
viewBox ="0 0 560 220"
>
<defs><polygon points="0,0 6,8, 0,16 20,8" id="m_tmpl2"/><marker id="token_arrow"  markerUnits="userSpaceOnUse" markerWidth="20" markerHeight="16" viewBox="0 0 20 16" refX="14" refY="8" orient="auto"><use xlink:href="#m_tmpl2" fill="#60a0ff"/></marker></defs><defs><polygon points="0,0 0,4 0,8 16,4" id="m_tmpl3"/><marker id="link_arrow" markerUnits="strokeWidth" markerWidth="16" markerHeight="8" viewBox="0 0 16 8" refX="16" refY="4" orient="auto"><use xlink:href="#m_tmpl3" fill="#888888"/></marker></defs><rect x ="0" y="0" width="560" height="220" fill="#ffffff" stroke="#888888" stroke-width="1"/><g transform="translate(20,0) scale(1)"><g stroke="#e8e8e8" stroke-width="0" fill="#e8e8e8"><circle cx="40" cy="100" r="22" /><circle cx="100" cy="40" r="22" /><circle cx="100" cy="160" r="22" /><circle cx="200" cy="40" r="22" /><circle cx="200" cy="160" r="22" /></g><g stroke="#e8e8e8" stroke-width="44.8" fill="#e8e8e8"><line x1="40" y1="100" x2="100" y2="40" stroke-linecap="round"/><line x1="40" y1="100" x2="100" y2="160" stroke-linecap="round"/><line x1="100" y1="40" x2="40" y2="100" stroke-linecap="round"/><line x1="100" y1="40" x2="200" y2="40" stroke-linecap="round"/><line x1="100" y1="40" x2="100" y2="160" stroke-linecap="round"/><line x1="100" y1="160" x2="40" y2="100" stroke-linecap="round"/><line x1="100" y1="160" x2="100" y2="40" stroke-linecap="round"/><line x1="100" y1="160" x2="200" y2="40" stroke-linecap="round"/><line x1="100" y1="160" x2="200" y2="160" stroke-linecap="round"/><line x1="200" y1="40" x2="100" y2="40" stroke-linecap="round"/><line x1="200" y1="40" x2="100" y2="160" stroke-linecap="round"/><line x1="200" y1="40" x2="200" y2="160" stroke-linecap="round"/><line x1="200" y1="160" x2="100" y2="160" stroke-linecap="round"/><line x1="200" y1="160" x2="200" y2="40" stroke-linecap="round"/></g></g><g transform="translate(20,0) scale(1)"><g stroke="#aae0ff" stroke-width="0" fill="#aae0ff"><circle cx="40" cy="100" r="22" /><circle cx="100" cy="40" r="22" /><circle cx="100" cy="160" r="22" /></g><g stroke="#aae0ff" stroke-width="44.8" fill="#aae0ff"><line x1="40" y1="100" x2="100" y2="40" stroke-linecap="round"/><line x1="40" y1="100" x2="100" y2="160" stroke-linecap="round"/><line x1="100" y1="40" x2="40" y2="100" stroke-linecap="round"/><line x1="100" y1="40" x2="100" y2="160" stroke-linecap="round"/><line x1="100" y1="160" x2="40" y2="100" stroke-linecap="round"/><line x1="100" y1="160" x2="100" y2="40" stroke-linecap="round"/></g></g><g transform="translate(20,0) scale(1)"><g stroke="#888888" stroke-width="8"><line x1="100" y1="160" x2="100" y2="40" stroke-linecap="round"/><line x1="40" y1="100" x2="100" y2="160" stroke-linecap="round"/><line x1="100" y1="40" x2="200" y2="40" stroke-linecap="round"/><line x1="100" y1="160" x2="200" y2="160" stroke-linecap="round"/></g></g><g transform="translate(20,0) scale(1)"><g fill="#ffffff" stroke="#a0a0a0" stroke-width="1"><line x1="40" y1="100" x2="100" y2="40" stroke-linecap="round"/><line x1="40" y1="100" x2="100" y2="160" stroke-linecap="round"/><line x1="100" y1="40" x2="40" y2="100" stroke-linecap="round"/><line x1="100" y1="40" x2="200" y2="40" stroke-linecap="round"/><line x1="100" y1="40" x2="100" y2="160" stroke-linecap="round"/><line x1="100" y1="160" x2="40" y2="100" stroke-linecap="round"/><line x1="100" y1="160" x2="100" y2="40" stroke-linecap="round"/><line x1="100" y1="160" x2="200" y2="40" stroke-linecap="round"/><line x1="100" y1="160" x2="200" y2="160" stroke-linecap="round"/><line x1="200" y1="40" x2="100" y2="40" stroke-linecap="round"/><line x1="200" y1="40" x2="100" y2="160" stroke-linecap="round"/><line x1="200" y1="40" x2="200" y2="160" stroke-linecap="round"/><line x1="200" y1="160" x2="100" y2="160" stroke-linecap="round"/><line x1="200" y1="160" x2="200" y2="40" stroke-linecap="round"/><circle cx="40" cy="100" r="14" /><circle cx="100" cy="40" r="14" /><circle cx="100" cy="160" r="14" /><circle cx="200" cy="40" r="14" /><circle cx="200" cy="160" r="14" /><rect x="64" y="64" width="12" height="12" rx="2" ry="2" /><rect x="64" y="124" width="12" height="12" rx="2" ry="2" /><rect x="64" y="64" width="12" height="12" rx="2" ry="2" /><rect x="144" y="34" width="12" height="12" rx="2" ry="2" /><rect x="94" y="94" width="12" height="12" rx="2" ry="2" /><rect x="64" y="124" width="12" height="12" rx="2" ry="2" /><rect x="94" y="94" width="12" height="12" rx="2" ry="2" /><rect x="144" y="94" width="12" height="12" rx="2" ry="2" /><rect x="144" y="154" width="12" height="12" rx="2" ry="2" /><rect x="144" y="34" width="12" height="12" rx="2" ry="2" /><rect x="144" y="94" width="12" height="12" rx="2" ry="2" /><rect x="194" y="94" width="12" height="12" rx="2" ry="2" /><rect x="144" y="154" width="12" height="12" rx="2" ry="2" /><rect x="194" y="94" width="12" height="12" rx="2" ry="2" /></g><g font-size="9" font-family="Verdana" fill="#888888"><text id="" x="40" y="74" dominant-baseline="central" text-anchor="middle">0</text><text id="" x="100" y="14" dominant-baseline="central" text-anchor="middle">1</text><text id="" x="100" y="134" dominant-baseline="central" text-anchor="middle">2</text><text id="" x="200" y="14" dominant-baseline="central" text-anchor="middle">3</text><text id="" x="200" y="134" dominant-baseline="central" text-anchor="middle">4</text></g></g><g transform="translate(20,0) scale(1)"><g stroke-width="0"><circle cx="40" cy="100" r="10" fill="#8FCFFF" id="var_dist_11__0" /><circle cx="100" cy="40" r="10" fill="#80C0FF" id="var_dist_11__1" /><circle cx="100" cy="160" r="10" fill="#85C5FF" id="var_dist_11__2" /><circle cx="200" cy="40" r="10" fill="#76B6FF" id="var_dist_11__3" /><circle cx="200" cy="160" r="10" fill="#5D9DFF" id="var_dist_11__4" /></g><g font-size="14" font-family="sans-serif" fill="#ffffff"><text id="text_dist_11__0" x="40" y="100" dominant-baseline="central" text-anchor="middle">0</text><text id="text_dist_11__1" x="100" y="40" dominant-baseline="central" text-anchor="middle">3</text><text id="text_dist_11__2" x="100" y="160" dominant-baseline="central" text-anchor="middle">2</text><text id="text_dist_11__3" x="200" y="40" dominant-baseline="central" text-anchor="middle">5</text><text id="text_dist_11__4" x="200" y="160" dominant-baseline="central" text-anchor="middle">10</text></g><animate xlink:href="#var_dist_11__3" from="0" to="10.5" attributeName="r" dur="1s" repeatCount="1"/><animate xlink:href="#text_dist_11__3" from="0" to="14" attributeName="font-size" dur="1s" repeatCount="1"/></g><g transform="translate(20,0) scale(1)"><g font-size="11" font-family="sans-serif" fill="#888888"><text id="" x="70" y="70" dominant-baseline="central" text-anchor="middle">4</text><text id="" x="70" y="130" dominant-baseline="central" text-anchor="middle">2</text><text id="" x="70" y="70" dominant-baseline="central" text-anchor="middle">4</text><text id="" x="150" y="40" dominant-baseline="central" text-anchor="middle">2</text><text id="" x="100" y="100" dominant-baseline="central" text-anchor="middle">1</text><text id="" x="70" y="130" dominant-baseline="central" text-anchor="middle">2</text><text id="" x="100" y="100" dominant-baseline="central" text-anchor="middle">1</text><text id="" x="150" y="100" dominant-baseline="central" text-anchor="middle">6</text><text id="" x="150" y="160" dominant-baseline="central" text-anchor="middle">8</text><text id="" x="150" y="40" dominant-baseline="central" text-anchor="middle">2</text><text id="" x="150" y="100" dominant-baseline="central" text-anchor="middle">6</text><text id="" x="200" y="100" dominant-baseline="central" text-anchor="middle">2</text><text id="" x="150" y="160" dominant-baseline="central" text-anchor="middle">8</text><text id="" x="200" y="100" dominant-baseline="central" text-anchor="middle">2</text></g></g><g transform="translate(280,40) scale(1)"><g stroke="#F0F8FF" stroke-width="0" fill="#F0F8FF"><circle cx="112" cy="28" r="22" /><circle cx="56" cy="70" r="22" /><circle cx="168" cy="70" r="22" /><circle cx="28" cy="112" r="22" /></g><g stroke="#F0F8FF" stroke-width="44.8" fill="#F0F8FF"><line x1="112" y1="28" x2="56" y2="70" stroke-linecap="round"/><line x1="112" y1="28" x2="168" y2="70" stroke-linecap="round"/><line x1="56" y1="70" x2="28" y2="112" stroke-linecap="round"/></g></g><g transform="translate(280,40) scale(1)"><g stroke="#98FB98" stroke-width="0" fill="#98FB98"><circle cx="56" cy="70" r="22" /><circle cx="28" cy="112" r="22" /></g><g stroke="#98FB98" stroke-width="44.8" fill="#98FB98"><line x1="56" y1="70" x2="28" y2="112" stroke-linecap="round"/></g></g><g transform="translate(280,40) scale(1)"><g fill="#ffffff" stroke="#a0a0a0" stroke-width="1"><line x1="196" y1="112" x2="168" y2="70" stroke-linecap="round"/><rect x="182" y="98" width="28" height="28" rx="4" ry="4" /><line x1="140" y1="112" x2="168" y2="70" stroke-linecap="round"/><rect x="126" y="98" width="28" height="28" rx="4" ry="4" /><line x1="84" y1="112" x2="56" y2="70" stroke-linecap="round"/><rect x="70" y="98" width="28" height="28" rx="4" ry="4" /><line x1="28" y1="112" x2="56" y2="70" stroke-linecap="round"/><rect x="14" y="98" width="28" height="28" rx="4" ry="4" /><line x1="168" y1="70" x2="112" y2="28" stroke-linecap="round"/><rect x="154" y="56" width="28" height="28" rx="4" ry="4" /><line x1="56" y1="70" x2="112" y2="28" stroke-linecap="round"/><rect x="42" y="56" width="28" height="28" rx="4" ry="4" /><rect x="98" y="14" width="28" height="28" rx="4" ry="4" /></g><g font-size="9" font-family="Verdana" fill="#888888"><text id="" x="112" y="5" dominant-baseline="central" text-anchor="middle">0</text><text id="" x="56" y="47" dominant-baseline="central" text-anchor="middle">1</text><text id="" x="168" y="47" dominant-baseline="central" text-anchor="middle">2</text><text id="" x="28" y="89" dominant-baseline="central" text-anchor="middle">3</text><text id="" x="84" y="89" dominant-baseline="central" text-anchor="middle">4</text><text id="" x="140" y="89" dominant-baseline="central" text-anchor="middle">5</text><text id="" x="196" y="89" dominant-baseline="central" text-anchor="middle">6</text></g></g><g transform="translate(532,28) scale(1)"><g fill="#ffffff" stroke="#a0a0a0" stroke-width="1"><path d="M -14 0 L 0-14 L 14 0 L 0 14 L -14 0 z" /></g></g><g transform="translate(280,40) scale(1)"><g class="flash_g" fill="#ff1493" stroke="#ff1493" stroke-width="1"><rect x="14" y="98" width="28" height="28" rx="4" ry="4" /><rect x="42" y="56" width="28" height="28" rx="4" ry="4" /></g><g fill="none" stroke="#a0a0a0" stroke-width="1"><rect x="14" y="98" width="28" height="28" rx="4" ry="4" /><rect x="42" y="56" width="28" height="28" rx="4" ry="4" /></g></g><g transform="translate(280,40) scale(1)"><g stroke-width="0"><path d="M 122,28 a 10 10 0 0 0 -20,0 z" fill="#81C1FF" id="var_A_33554450__0"/><path d="M 66,70 a 10 10 0 0 0 -20,0 z" fill="#7DBDFF" id="var_A_33554450__1"/><path d="M 178,70 a 10 10 0 0 0 -20,0 z" fill="#73B3FF" id="var_A_33554450__2"/><path d="M 38,112 a 10 10 0 0 0 -20,0 z" fill="#6CACFF" id="var_A_33554450__3"/></g><g font-size="11" font-family="sans-serif" fill="#ffffff"><text id="text_A_33554450__0" x="112" y="23" dominant-baseline="central" text-anchor="middle">4</text><text id="text_A_33554450__1" x="56" y="65" dominant-baseline="central" text-anchor="middle">5</text><text id="text_A_33554450__2" x="168" y="65" dominant-baseline="central" text-anchor="middle">8</text><text id="text_A_33554450__3" x="28" y="107" dominant-baseline="central" text-anchor="middle">10</text></g><animateMotion xlink:href="#var_A_33554450__3" path="M28 -42 L 0 0" dur="1s" repeatCount="1"/><animateMotion xlink:href="#text_A_33554450__3" path="M28 -42 L 0 0" dur="1s" repeatCount="1"/><g fill="none" stroke="#60a0ff" stroke-width="4" stroke-linecap="round" stroke-dasharray="0.1, 8"><path class="for_print" d="M 48.2342 81.6487 L 35.7658 100.351"  marker-end="url(#token_arrow)"/></g><animateMotion xlink:href="#var_A_33554450__1" path="M-28 42 L 0 0" dur="1s" repeatCount="1"/><animateMotion xlink:href="#text_A_33554450__1" path="M-28 42 L 0 0" dur="1s" repeatCount="1"/><g fill="none" stroke="#60a0ff" stroke-width="4" stroke-linecap="round" stroke-dasharray="0.1, 8"><path class="for_print" d="M 35.7658 100.351 L 48.2342 81.6487"  marker-end="url(#token_arrow)"/></g></g><g transform="translate(280,40) scale(1)"><g stroke-width="0"><path d="M 122,28 a 10 10 0 0 1 -20,0 z" fill="#aaaaaa" id="var_V_7455096__0"/><path d="M 66,70 a 10 10 0 0 1 -20,0 z" fill="#aaaaaa" id="var_V_7455096__1"/><path d="M 178,70 a 10 10 0 0 1 -20,0 z" fill="#aaaaaa" id="var_V_7455096__2"/><path d="M 38,112 a 10 10 0 0 1 -20,0 z" fill="#aaaaaa" id="var_V_7455096__3"/></g><g font-size="11" font-family="sans-serif" fill="#ffffff"><text id="text_V_7455096__0" x="112" y="33" dominant-baseline="central" text-anchor="middle">1</text><text id="text_V_7455096__1" x="56" y="75" dominant-baseline="central" text-anchor="middle">3</text><text id="text_V_7455096__2" x="168" y="75" dominant-baseline="central" text-anchor="middle">3</text><text id="text_V_7455096__3" x="28" y="117" dominant-baseline="central" text-anchor="middle">4</text></g><animateMotion xlink:href="#var_V_7455096__3" path="M28 -42 L 0 0" dur="1s" repeatCount="1"/><animateMotion xlink:href="#text_V_7455096__3" path="M28 -42 L 0 0" dur="1s" repeatCount="1"/><g fill="none" stroke="#60a0ff" stroke-width="4" stroke-linecap="round" stroke-dasharray="0.1, 8"><path class="for_print" d="M 48.2342 81.6487 L 35.7658 100.351"  marker-end="url(#token_arrow)"/></g><animateMotion xlink:href="#var_V_7455096__1" path="M-28 42 L 0 0" dur="1s" repeatCount="1"/><animateMotion xlink:href="#text_V_7455096__1" path="M-28 42 L 0 0" dur="1s" repeatCount="1"/><g fill="none" stroke="#60a0ff" stroke-width="4" stroke-linecap="round" stroke-dasharray="0.1, 8"><path class="for_print" d="M 35.7658 100.351 L 48.2342 81.6487"  marker-end="url(#token_arrow)"/></g></g><text x="16" y="20" font-size="16" text-anchor="middle" fill="#888888" font-family="sans-serif" >2-15</text><text x="280" y="204" font-size="9" text-anchor="middle">変更された要素をヒープ条件を満たすよう根に移動します。</text></svg>

