<?xml version="1.0" encoding="UTF-8" standalone="no"?>
<svg
xmlns:svg="http://www.w3.org/2000/svg"
xmlns="http://www.w3.org/2000/svg"
xmlns:xlink="http://www.w3.org/1999/xlink"
width ="560"
height ="220"
viewBox ="0 0 560 220"
>
<defs><polygon points="0,0 6,8, 0,16 20,8" id="m_tmpl2"/><marker id="token_arrow"  markerUnits="userSpaceOnUse" markerWidth="20" markerHeight="16" viewBox="0 0 20 16" refX="14" refY="8" orient="auto"><use xlink:href="#m_tmpl2" fill="#60a0ff"/></marker></defs><defs><polygon points="0,0 0,4 0,8 16,4" id="m_tmpl3"/><marker id="link_arrow" markerUnits="strokeWidth" markerWidth="16" markerHeight="8" viewBox="0 0 16 8" refX="16" refY="4" orient="auto"><use xlink:href="#m_tmpl3" fill="#888888"/></marker></defs><g transform="translate(20,0) scale(1)"><g fill="#ffffff" stroke="#a0a0a0" stroke-width="1"><line x1="40" y1="100" x2="100" y2="40" stroke-linecap="round"/><line x1="40" y1="100" x2="100" y2="160" stroke-linecap="round"/><line x1="100" y1="40" x2="40" y2="100" stroke-linecap="round"/><line x1="100" y1="40" x2="200" y2="40" stroke-linecap="round"/><line x1="100" y1="40" x2="100" y2="160" stroke-linecap="round"/><line x1="100" y1="160" x2="40" y2="100" stroke-linecap="round"/><line x1="100" y1="160" x2="100" y2="40" stroke-linecap="round"/><line x1="100" y1="160" x2="200" y2="40" stroke-linecap="round"/><line x1="100" y1="160" x2="200" y2="160" stroke-linecap="round"/><line x1="200" y1="40" x2="100" y2="40" stroke-linecap="round"/><line x1="200" y1="40" x2="100" y2="160" stroke-linecap="round"/><line x1="200" y1="40" x2="200" y2="160" stroke-linecap="round"/><line x1="200" y1="160" x2="100" y2="160" stroke-linecap="round"/><line x1="200" y1="160" x2="200" y2="40" stroke-linecap="round"/><circle cx="40" cy="100" r="14" /><circle cx="100" cy="40" r="14" /><circle cx="100" cy="160" r="14" /><circle cx="200" cy="40" r="14" /><circle cx="200" cy="160" r="14" /><rect x="64" y="64" width="12" height="12" rx="2" ry="2" /><rect x="64" y="124" width="12" height="12" rx="2" ry="2" /><rect x="64" y="64" width="12" height="12" rx="2" ry="2" /><rect x="144" y="34" width="12" height="12" rx="2" ry="2" /><rect x="94" y="94" width="12" height="12" rx="2" ry="2" /><rect x="64" y="124" width="12" height="12" rx="2" ry="2" /><rect x="94" y="94" width="12" height="12" rx="2" ry="2" /><rect x="144" y="94" width="12" height="12" rx="2" ry="2" /><rect x="144" y="154" width="12" height="12" rx="2" ry="2" /><rect x="144" y="34" width="12" height="12" rx="2" ry="2" /><rect x="144" y="94" width="12" height="12" rx="2" ry="2" /><rect x="194" y="94" width="12" height="12" rx="2" ry="2" /><rect x="144" y="154" width="12" height="12" rx="2" ry="2" /><rect x="194" y="94" width="12" height="12" rx="2" ry="2" /></g><g font-size="9" font-family="Verdana" fill="#888888"><text id="" x="40" y="74" dominant-baseline="central" text-anchor="middle">0</text><text id="" x="100" y="14" dominant-baseline="central" text-anchor="middle">1</text><text id="" x="100" y="134" dominant-baseline="central" text-anchor="middle">2</text><text id="" x="200" y="14" dominant-baseline="central" text-anchor="middle">3</text><text id="" x="200" y="134" dominant-baseline="central" text-anchor="middle">4</text></g></g><g transform="translate(280,40) scale(1)"><g fill="#ffffff" stroke="#a0a0a0" stroke-width="1"><line x1="196" y1="112" x2="168" y2="70" stroke-linecap="round"/><rect x="182" y="98" width="28" height="28" rx="4" ry="4" /><line x1="140" y1="112" x2="168" y2="70" stroke-linecap="round"/><rect x="126" y="98" width="28" height="28" rx="4" ry="4" /><line x1="84" y1="112" x2="56" y2="70" stroke-linecap="round"/><rect x="70" y="98" width="28" height="28" rx="4" ry="4" /><line x1="28" y1="112" x2="56" y2="70" stroke-linecap="round"/><rect x="14" y="98" width="28" height="28" rx="4" ry="4" /><line x1="168" y1="70" x2="112" y2="28" stroke-linecap="round"/><rect x="154" y="56" width="28" height="28" rx="4" ry="4" /><line x1="56" y1="70" x2="112" y2="28" stroke-linecap="round"/><rect x="42" y="56" width="28" height="28" rx="4" ry="4" /><rect x="98" y="14" width="28" height="28" rx="4" ry="4" /></g><g font-size="9" font-family="Verdana" fill="#888888"><text id="" x="112" y="5" dominant-baseline="central" text-anchor="middle">0</text><text id="" x="56" y="47" dominant-baseline="central" text-anchor="middle">1</text><text id="" x="168" y="47" dominant-baseline="central" text-anchor="middle">2</text><text id="" x="28" y="89" dominant-baseline="central" text-anchor="middle">3</text><text id="" x="84" y="89" dominant-baseline="central" text-anchor="middle">4</text><text id="" x="140" y="89" dominant-baseline="central" text-anchor="middle">5</text><text id="" x="196" y="89" dominant-baseline="central" text-anchor="middle">6</text></g></g><g transform="translate(20,0) scale(1)"><g stroke-width="0"><circle cx="40" cy="100" r="10" fill="#8FCFFF" id="var_dist_19__0" /><circle cx="100" cy="40" r="10" fill="#80C0FF" id="var_dist_19__1" /><circle cx="100" cy="160" r="10" fill="#85C5FF" id="var_dist_19__2" /><circle cx="200" cy="40" r="10" fill="#76B6FF" id="var_dist_19__3" /><circle cx="200" cy="160" r="10" fill="#6CACFF" id="var_dist_19__4" /></g><g font-size="14" font-family="sans-serif" fill="#ffffff"><text id="text_dist_19__0" x="40" y="100" dominant-baseline="central" text-anchor="middle">0</text><text id="text_dist_19__1" x="100" y="40" dominant-baseline="central" text-anchor="middle">3</text><text id="text_dist_19__2" x="100" y="160" dominant-baseline="central" text-anchor="middle">2</text><text id="text_dist_19__3" x="200" y="40" dominant-baseline="central" text-anchor="middle">5</text><text id="text_dist_19__4" x="200" y="160" dominant-baseline="central" text-anchor="middle">7</text></g></g></svg>

