<?xml version="1.0" encoding="UTF-8" standalone="no"?>
<svg
xmlns:svg="http://www.w3.org/2000/svg"
xmlns="http://www.w3.org/2000/svg"
xmlns:xlink="http://www.w3.org/1999/xlink"
viewBox ="0 0 480 200"
>
<defs><polygon points="0,0 6,6 0,12 18,6" id="m_tmpl2"/><marker id="token_arrow" markerUnits="strokeWidth" markerWidth="18" markerHeight="12" viewBox="0 0 18 12" refX="18" refY="6" orient="auto"><use xlink:href="#m_tmpl2" fill="#0000f0"/></marker></defs><defs><polygon points="0,0 0,4 0,8 16,4" id="m_tmpl3"/><marker id="link_arrow" markerUnits="strokeWidth" markerWidth="16" markerHeight="8" viewBox="0 0 16 8" refX="16" refY="4" orient="auto"><use xlink:href="#m_tmpl3" fill="#888888"/></marker></defs><rect x ="0" y="0" width="480" height="200" fill="#ffffff" stroke="#888888" stroke-width="1"/><g transform="translate(0,60) scale(1)"><g stroke="#FFCCCC" stroke-width="0" fill="#FFCCCC"><circle cx="42" cy="0" r="16" /></g><g stroke="#FFE5CC" stroke-width="0" fill="#FFE5CC"><circle cx="84" cy="0" r="16" /></g><g stroke="#FFFFCC" stroke-width="0" fill="#FFFFCC"><circle cx="126" cy="0" r="16" /></g><g stroke="#CCFFE5" stroke-width="0" fill="#CCFFE5"><circle cx="210" cy="40" r="16" /></g><g stroke="#CCFFCC" stroke-width="0" fill="#CCFFCC"><circle cx="168" cy="0" r="16" /></g><g stroke="#CCFFE5" stroke-width="0" fill="#CCFFE5"><circle cx="210" cy="0" r="16" /></g><g stroke="#CCFFFF" stroke-width="0" fill="#CCFFFF"><circle cx="252" cy="0" r="16" /></g><g stroke="#CCCCFF" stroke-width="0" fill="#CCCCFF"><circle cx="294" cy="40" r="16" /></g><g stroke="#CCCCFF" stroke-width="0" fill="#CCCCFF"><circle cx="315" cy="0" r="16" /></g><g stroke="#CCCCFF" stroke-width="0" fill="#CCCCFF"><circle cx="336" cy="40" r="16" /></g><g stroke="#FFCCCC" stroke-width="32" fill="#FFCCCC"><line x1="42" y1="0" x2="42" y2="0" stroke-linecap="round"/></g><g stroke="#FFE5CC" stroke-width="32" fill="#FFE5CC"><line x1="84" y1="0" x2="84" y2="0" stroke-linecap="round"/></g><g stroke="#FFFFCC" stroke-width="32" fill="#FFFFCC"><line x1="126" y1="0" x2="126" y2="0" stroke-linecap="round"/></g><g stroke="#CCFFE5" stroke-width="32" fill="#CCFFE5"><line x1="210" y1="40" x2="210" y2="0" stroke-linecap="round"/></g><g stroke="#CCFFCC" stroke-width="32" fill="#CCFFCC"><line x1="168" y1="0" x2="168" y2="0" stroke-linecap="round"/></g><g stroke="#CCFFE5" stroke-width="32" fill="#CCFFE5"><line x1="210" y1="0" x2="210" y2="0" stroke-linecap="round"/></g><g stroke="#CCFFFF" stroke-width="32" fill="#CCFFFF"><line x1="252" y1="0" x2="252" y2="0" stroke-linecap="round"/></g><g stroke="#CCCCFF" stroke-width="32" fill="#CCCCFF"><line x1="294" y1="40" x2="315" y2="0" stroke-linecap="round"/></g><g stroke="#CCCCFF" stroke-width="32" fill="#CCCCFF"><line x1="315" y1="0" x2="315" y2="0" stroke-linecap="round"/></g><g stroke="#CCCCFF" stroke-width="32" fill="#CCCCFF"><line x1="336" y1="40" x2="315" y2="0" stroke-linecap="round"/></g></g><defs><polygon points="0,0 6,6 0,12 18,6" id="m_tmpl2"/><marker id="m_o1" markerUnits="strokeWidth" markerWidth="10" markerHeight="10" viewBox="0 0 18 12" refX="18" refY="6" orient="auto"><use xlink:href="#m_tmpl2" fill="#a0a0a0"/></marker></defs><g transform="translate(0,60) scale(1)"><g fill="#ffffff" stroke="#a0a0a0" stroke-width="1"><path d="M 210 40 L 210 10"  marker-end="url(#m_o1)"/><path d="M 294 40 L 310 9"  marker-end="url(#m_o1)"/><path d="M 336 40 L 320 9"  marker-end="url(#m_o1)"/><circle cx="42" cy="0" r="10" /><circle cx="84" cy="0" r="10" /><circle cx="126" cy="0" r="10" /><circle cx="210" cy="40" r="10" /><circle cx="168" cy="0" r="10" /><circle cx="210" cy="0" r="10" /><circle cx="252" cy="0" r="10" /><circle cx="294" cy="40" r="10" /><circle cx="315" cy="0" r="10" /><circle cx="336" cy="40" r="10" /></g><g font-size="9" font-family="Verdana" fill="#888888"><text x="42" y="-16" dominant-baseline="central" text-anchor="middle">0</text><text x="84" y="-16" dominant-baseline="central" text-anchor="middle">1</text><text x="126" y="-16" dominant-baseline="central" text-anchor="middle">2</text><text x="210" y="24" dominant-baseline="central" text-anchor="middle">3</text><text x="168" y="-16" dominant-baseline="central" text-anchor="middle">4</text><text x="210" y="-16" dominant-baseline="central" text-anchor="middle">5</text><text x="252" y="-16" dominant-baseline="central" text-anchor="middle">6</text><text x="294" y="24" dominant-baseline="central" text-anchor="middle">7</text><text x="315" y="-16" dominant-baseline="central" text-anchor="middle">8</text><text x="336" y="24" dominant-baseline="central" text-anchor="middle">9</text></g></g><g transform="translate(460,20) scale(1)"><g fill="#ffffff" stroke="#a0a0a0" stroke-width="1"><path d="M -14 0 L 0-14 L 14 0 L 0 14 L -14 0 z" /></g></g><g transform="translate(460,20) scale(1)"><g class="flash_g" fill="#ffffff" stroke="#ff1493" stroke-width="1"  ><path d="M 0 -14 L -14 0 L 0 14 z" fill="#ff1493" stroke-width="0" /></g><g fill="none" stroke="#a0a0a0" stroke-width="1"><path d="M 0 -14 L 14 0 L 0 14 L -14 0 z"  /></g></g><g transform="translate(0,60) scale(1)"><g class="flash_g" fill="#ffffff" stroke="#ff1493" stroke-width="2"><circle cx="315" cy="0" r="10" /></g></g><g transform="translate(0,60) scale(1)"><g class="flash_g" fill="#ffffff" stroke="#ff1493" stroke-width="2"><circle cx="210" cy="0" r="10" /></g></g><text x="16" y="20" font-size="16" text-anchor="middle" fill="#888888" font-family="sans-serif" >8</text></svg>

