<?xml version="1.0" encoding="UTF-8" standalone="no"?>
<svg
xmlns:svg="http://www.w3.org/2000/svg"
xmlns="http://www.w3.org/2000/svg"
xmlns:xlink="http://www.w3.org/1999/xlink"
viewBox ="0 0 600 200"
>
<defs><polygon points="0,0 6,8, 0,16 20,8" id="m_tmpl2"/><marker id="token_arrow"  markerUnits="userSpaceOnUse" markerWidth="20" markerHeight="16" viewBox="0 0 20 16" refX="14" refY="8" orient="auto"><use xlink:href="#m_tmpl2" fill="#60a0ff"/></marker></defs><defs><polygon points="0,0 0,4 0,8 12,4" id="m_tmpl3"/><marker id="link_arrow" markerUnits="strokeWidth" markerWidth="12" markerHeight="8" viewBox="0 0 12 8" refX="12" refY="4" orient="auto"><use xlink:href="#m_tmpl3" fill="#888888"/></marker></defs><rect x ="0" y="0" width="600" height="200" fill="#ffffff" stroke="#a0a0a0" stroke-width="0"/><g transform="translate(40,150) scale(0.7)"><g fill="#F0F8FF"><rect x="140" y="-19" width="39" height="39" /></g></g><g transform="translate(340,40) scale(0.7)"><g stroke="#F0F8FF" stroke-width="0" fill="#F0F8FF"><circle cx="160" cy="0" r="16" /></g><g stroke="#F0F8FF" stroke-width="32" fill="#F0F8FF"></g></g><g transform="translate(40,150) scale(0.7)"><g fill="#ffffff" stroke="#a0a0a0" stroke-width="1"><rect x="-14" y="-14" width="28" height="28" rx="4" ry="4" /><rect x="18" y="-14" width="28" height="28" rx="4" ry="4" /><rect x="50" y="-14" width="28" height="28" rx="4" ry="4" /><rect x="82" y="-14" width="28" height="28" rx="4" ry="4" /><rect x="114" y="-14" width="28" height="28" rx="4" ry="4" /><rect x="146" y="-14" width="28" height="28" rx="4" ry="4" /><rect x="178" y="-14" width="28" height="28" rx="4" ry="4" /><rect x="210" y="-14" width="28" height="28" rx="4" ry="4" /><rect x="242" y="-14" width="28" height="28" rx="4" ry="4" /><rect x="274" y="-14" width="28" height="28" rx="4" ry="4" /><rect x="306" y="-14" width="28" height="28" rx="4" ry="4" /><rect x="338" y="-14" width="28" height="28" rx="4" ry="4" /></g><g font-size="9" font-family="Verdana" fill="#888888"><text id="" x="0" y="-22" dominant-baseline="central" text-anchor="middle">0</text><text id="" x="32" y="-22" dominant-baseline="central" text-anchor="middle">1</text><text id="" x="64" y="-22" dominant-baseline="central" text-anchor="middle">2</text><text id="" x="96" y="-22" dominant-baseline="central" text-anchor="middle">3</text><text id="" x="128" y="-22" dominant-baseline="central" text-anchor="middle">4</text><text id="" x="160" y="-22" dominant-baseline="central" text-anchor="middle">5</text><text id="" x="192" y="-22" dominant-baseline="central" text-anchor="middle">6</text><text id="" x="224" y="-22" dominant-baseline="central" text-anchor="middle">7</text><text id="" x="256" y="-22" dominant-baseline="central" text-anchor="middle">8</text><text id="" x="288" y="-22" dominant-baseline="central" text-anchor="middle">9</text><text id="" x="320" y="-22" dominant-baseline="central" text-anchor="middle">10</text><text id="" x="352" y="-22" dominant-baseline="central" text-anchor="middle">11</text></g></g><g transform="translate(340,40) scale(0.7)"><g fill="#ffffff" stroke="#a0a0a0" stroke-width="1"><circle cx="160" cy="0" r="10" /></g></g>
<g transform="translate(40,150) scale(0.7)"><g class="flash_g" fill="#ff1493" stroke="#ff1493" stroke-width="1"><rect x="-14" y="-14" width="28" height="28" rx="4" ry="4" /><rect x="18" y="-14" width="28" height="28" rx="4" ry="4" /><rect x="50" y="-14" width="28" height="28" rx="4" ry="4" /><rect x="82" y="-14" width="28" height="28" rx="4" ry="4" /><rect x="114" y="-14" width="28" height="28" rx="4" ry="4" /><rect x="146" y="-14" width="28" height="28" rx="4" ry="4" /><rect x="178" y="-14" width="28" height="28" rx="4" ry="4" /><rect x="210" y="-14" width="28" height="28" rx="4" ry="4" /><rect x="242" y="-14" width="28" height="28" rx="4" ry="4" /><rect x="274" y="-14" width="28" height="28" rx="4" ry="4" /><rect x="306" y="-14" width="28" height="28" rx="4" ry="4" /><rect x="338" y="-14" width="28" height="28" rx="4" ry="4" /></g><g fill="none" stroke="#a0a0a0" stroke-width="1"><rect x="-14" y="-14" width="28" height="28" rx="4" ry="4" /><rect x="18" y="-14" width="28" height="28" rx="4" ry="4" /><rect x="50" y="-14" width="28" height="28" rx="4" ry="4" /><rect x="82" y="-14" width="28" height="28" rx="4" ry="4" /><rect x="114" y="-14" width="28" height="28" rx="4" ry="4" /><rect x="146" y="-14" width="28" height="28" rx="4" ry="4" /><rect x="178" y="-14" width="28" height="28" rx="4" ry="4" /><rect x="210" y="-14" width="28" height="28" rx="4" ry="4" /><rect x="242" y="-14" width="28" height="28" rx="4" ry="4" /><rect x="274" y="-14" width="28" height="28" rx="4" ry="4" /><rect x="306" y="-14" width="28" height="28" rx="4" ry="4" /><rect x="338" y="-14" width="28" height="28" rx="4" ry="4" /></g></g><g transform="translate(340,40) scale(0.7)"><g class="flash_g" fill="#ff1493" stroke="#ff1493" stroke-width="1"><circle cx="160" cy="0" r="10" /></g><g fill="none" stroke="#a0a0a0" stroke-width="1"><circle cx="160" cy="0" r="10" /></g></g><g transform="translate(40,150) scale(0.7)"><g transform="translate(160,-14) rotate(0)" fill="#ff1493"><path d="M 0 0 L 8 -10 L 4 -10 L 4 -26 L -4 -26 L -4 -10 L -8 -10 z"/></g></g><g transform="translate(40,150) scale(0.7)"><g stroke-width="0"><circle cx="0" cy="0" r="10" fill="#88C8FF" id="var_A_2__0" /><circle cx="32" cy="0" r="10" fill="#7FBFFF" id="var_A_2__1" /><circle cx="64" cy="0" r="10" fill="#8BCBFF" id="var_A_2__2" /><circle cx="96" cy="0" r="10" fill="#7CBCFF" id="var_A_2__3" /><circle cx="128" cy="0" r="10" fill="#85C5FF" id="var_A_2__4" /><circle cx="160" cy="0" r="10" fill="#78B8FF" id="var_A_2__5" /><circle cx="192" cy="0" r="10" fill="#6CACFF" id="var_A_2__6" /><circle cx="224" cy="0" r="10" fill="#4080F0" id="var_A_2__7" /><circle cx="256" cy="0" r="10" fill="#72B2FF" id="var_A_2__8" /><circle cx="288" cy="0" r="10" fill="#4C8CFC" id="var_A_2__9" /><circle cx="320" cy="0" r="10" fill="#62A2FF" id="var_A_2__10" /><circle cx="352" cy="0" r="10" fill="#5696FF" id="var_A_2__11" /></g><g font-size="14" font-family="sans-serif" fill="#ffffff"><text id="text_A_2__0" x="0" y="0" dominant-baseline="central" text-anchor="middle">2</text><text id="text_A_2__1" x="32" y="0" dominant-baseline="central" text-anchor="middle">5</text><text id="text_A_2__2" x="64" y="0" dominant-baseline="central" text-anchor="middle">1</text><text id="text_A_2__3" x="96" y="0" dominant-baseline="central" text-anchor="middle">6</text><text id="text_A_2__4" x="128" y="0" dominant-baseline="central" text-anchor="middle">3</text><text id="text_A_2__5" x="160" y="0" dominant-baseline="central" text-anchor="middle">7</text><text id="text_A_2__6" x="192" y="0" dominant-baseline="central" text-anchor="middle">11</text><text id="text_A_2__7" x="224" y="0" dominant-baseline="central" text-anchor="middle">25</text><text id="text_A_2__8" x="256" y="0" dominant-baseline="central" text-anchor="middle">9</text><text id="text_A_2__9" x="288" y="0" dominant-baseline="central" text-anchor="middle">21</text><text id="text_A_2__10" x="320" y="0" dominant-baseline="central" text-anchor="middle">14</text><text id="text_A_2__11" x="352" y="0" dominant-baseline="central" text-anchor="middle">18</text></g><g font-size="14" font-family="sans-serif" fill="#4080f0"><text id="" x="-28" y="0" dominant-baseline="central" text-anchor="end">A</text></g><animateMotion xlink:href="#var_A_2__0" path="M96 0 L 0 0" dur="0.9s" repeatCount="1"/><animateMotion xlink:href="#text_A_2__0" path="M96 0 L 0 0" dur="0.9s" repeatCount="1"/><g fill="none" stroke="#60a0ff" stroke-width="4" stroke-linecap="round" stroke-dasharray="0.1, 8"><path class="for_print" d="M 82 0 L 14 0"  marker-end="url(#token_arrow)"/></g><animateMotion xlink:href="#var_A_2__1" path="M96 0 L 0 0" dur="0.9s" repeatCount="1"/><animateMotion xlink:href="#text_A_2__1" path="M96 0 L 0 0" dur="0.9s" repeatCount="1"/><g fill="none" stroke="#60a0ff" stroke-width="4" stroke-linecap="round" stroke-dasharray="0.1, 8"><path class="for_print" d="M 114 0 L 46 0"  marker-end="url(#token_arrow)"/></g><animateMotion xlink:href="#var_A_2__2" path="M128 0 L 0 0" dur="0.9s" repeatCount="1"/><animateMotion xlink:href="#text_A_2__2" path="M128 0 L 0 0" dur="0.9s" repeatCount="1"/><g fill="none" stroke="#60a0ff" stroke-width="4" stroke-linecap="round" stroke-dasharray="0.1, 8"><path class="for_print" d="M 178 0 L 78 0"  marker-end="url(#token_arrow)"/></g><animateMotion xlink:href="#var_A_2__3" path="M192 0 L 0 0" dur="0.9s" repeatCount="1"/><animateMotion xlink:href="#text_A_2__3" path="M192 0 L 0 0" dur="0.9s" repeatCount="1"/><g fill="none" stroke="#60a0ff" stroke-width="4" stroke-linecap="round" stroke-dasharray="0.1, 8"><path class="for_print" d="M 274 0 L 110 0"  marker-end="url(#token_arrow)"/></g><animateMotion xlink:href="#var_A_2__4" path="M192 0 L 0 0" dur="0.9s" repeatCount="1"/><animateMotion xlink:href="#text_A_2__4" path="M192 0 L 0 0" dur="0.9s" repeatCount="1"/><g fill="none" stroke="#60a0ff" stroke-width="4" stroke-linecap="round" stroke-dasharray="0.1, 8"><path class="for_print" d="M 306 0 L 142 0"  marker-end="url(#token_arrow)"/></g><animateMotion xlink:href="#var_A_2__5" path="M192 0 L 0 0" dur="0.9s" repeatCount="1"/><animateMotion xlink:href="#text_A_2__5" path="M192 0 L 0 0" dur="0.9s" repeatCount="1"/><g fill="none" stroke="#60a0ff" stroke-width="4" stroke-linecap="round" stroke-dasharray="0.1, 8"><path class="for_print" d="M 338 0 L 174 0"  marker-end="url(#token_arrow)"/></g><animateMotion xlink:href="#var_A_2__6" path="M-128 0 L 0 0" dur="0.9s" repeatCount="1"/><animateMotion xlink:href="#text_A_2__6" path="M-128 0 L 0 0" dur="0.9s" repeatCount="1"/><g fill="none" stroke="#60a0ff" stroke-width="4" stroke-linecap="round" stroke-dasharray="0.1, 8"><path class="for_print" d="M 78 0 L 178 0"  marker-end="url(#token_arrow)"/></g><animateMotion xlink:href="#var_A_2__7" path="M0 0 L 0 0" dur="0.9s" repeatCount="1"/><animateMotion xlink:href="#text_A_2__7" path="M0 0 L 0 0" dur="0.9s" repeatCount="1"/><animateMotion xlink:href="#var_A_2__8" path="M0 0 L 0 0" dur="0.9s" repeatCount="1"/><animateMotion xlink:href="#text_A_2__8" path="M0 0 L 0 0" dur="0.9s" repeatCount="1"/><animateMotion xlink:href="#var_A_2__9" path="M-288 0 L 0 0" dur="0.9s" repeatCount="1"/><animateMotion xlink:href="#text_A_2__9" path="M-288 0 L 0 0" dur="0.9s" repeatCount="1"/><g fill="none" stroke="#60a0ff" stroke-width="4" stroke-linecap="round" stroke-dasharray="0.1, 8"><path class="for_print" d="M 14 0 L 274 0"  marker-end="url(#token_arrow)"/></g><animateMotion xlink:href="#var_A_2__10" path="M-288 0 L 0 0" dur="0.9s" repeatCount="1"/><animateMotion xlink:href="#text_A_2__10" path="M-288 0 L 0 0" dur="0.9s" repeatCount="1"/><g fill="none" stroke="#60a0ff" stroke-width="4" stroke-linecap="round" stroke-dasharray="0.1, 8"><path class="for_print" d="M 46 0 L 306 0"  marker-end="url(#token_arrow)"/></g><animateMotion xlink:href="#var_A_2__11" path="M-192 0 L 0 0" dur="0.9s" repeatCount="1"/><animateMotion xlink:href="#text_A_2__11" path="M-192 0 L 0 0" dur="0.9s" repeatCount="1"/><g fill="none" stroke="#60a0ff" stroke-width="4" stroke-linecap="round" stroke-dasharray="0.1, 8"><path class="for_print" d="M 174 0 L 338 0"  marker-end="url(#token_arrow)"/></g></g><g transform="translate(40,150) scale(0.7)"><g fill="#4080f0" stroke-width="0"><rect x="-10" y="-41" width="20" height="5" opacity="0.08" rx="2" ry="2" id="bar_A_0" /><rect x="22" y="-50" width="20" height="14" opacity="0.2" rx="2" ry="2" id="bar_A_1" /><rect x="54" y="-38" width="20" height="2" opacity="0.04" rx="2" ry="2" id="bar_A_2" /><rect x="86" y="-52" width="20" height="16" opacity="0.24" rx="2" ry="2" id="bar_A_3" /><rect x="118" y="-44" width="20" height="8" opacity="0.12" rx="2" ry="2" id="bar_A_4" /><rect x="150" y="-55" width="20" height="19" opacity="0.28" rx="2" ry="2" id="bar_A_5" /><rect x="182" y="-66" width="20" height="30" opacity="0.44" rx="2" ry="2" id="bar_A_6" /><rect x="214" y="-106" width="20" height="70" opacity="1" rx="2" ry="2" id="bar_A_7" /><rect x="246" y="-61" width="20" height="25" opacity="0.36" rx="2" ry="2" id="bar_A_8" /><rect x="278" y="-94" width="20" height="58" opacity="0.84" rx="2" ry="2" id="bar_A_9" /><rect x="310" y="-75" width="20" height="39" opacity="0.56" rx="2" ry="2" id="bar_A_10" /><rect x="342" y="-86" width="20" height="50" opacity="0.72" rx="2" ry="2" id="bar_A_11" /><animateMotion xlink:href="#bar_A_0" path="M96 0 L 0 0" dur="0.9s" repeatCount="1"/><animateMotion xlink:href="#bar_A_1" path="M96 0 L 0 0" dur="0.9s" repeatCount="1"/><animateMotion xlink:href="#bar_A_2" path="M128 0 L 0 0" dur="0.9s" repeatCount="1"/><animateMotion xlink:href="#bar_A_3" path="M192 0 L 0 0" dur="0.9s" repeatCount="1"/><animateMotion xlink:href="#bar_A_4" path="M192 0 L 0 0" dur="0.9s" repeatCount="1"/><animateMotion xlink:href="#bar_A_5" path="M192 0 L 0 0" dur="0.9s" repeatCount="1"/><animateMotion xlink:href="#bar_A_6" path="M-128 0 L 0 0" dur="0.9s" repeatCount="1"/><animateMotion xlink:href="#bar_A_7" path="M0 0 L 0 0" dur="0.9s" repeatCount="1"/><animateMotion xlink:href="#bar_A_8" path="M0 0 L 0 0" dur="0.9s" repeatCount="1"/><animateMotion xlink:href="#bar_A_9" path="M-288 0 L 0 0" dur="0.9s" repeatCount="1"/><animateMotion xlink:href="#bar_A_10" path="M-288 0 L 0 0" dur="0.9s" repeatCount="1"/><animateMotion xlink:href="#bar_A_11" path="M-192 0 L 0 0" dur="0.9s" repeatCount="1"/></g></g><text x="16" y="20" font-size="16" text-anchor="middle" fill="#888888" font-family="sans-serif" >2-1</text><text x="300" y="184" font-size="9" text-anchor="middle"  font-family="Hiragino Kaku Gothic ProN, メイリオ, sans-serif">partition(0, 11) により区間[0, 11] の要素を分割します。</text></svg>

