<?xml version="1.0" encoding="UTF-8" standalone="no"?>
<svg
xmlns:svg="http://www.w3.org/2000/svg"
xmlns="http://www.w3.org/2000/svg"
xmlns:xlink="http://www.w3.org/1999/xlink"
width ="280"
height ="200"
viewBox ="0 0 280 200"
>
<defs><polygon points="0,0 6,6 0,12 18,6" id="m_tmpl2"/><marker id="token_arrow" markerUnits="strokeWidth" markerWidth="18" markerHeight="12" viewBox="0 0 18 12" refX="18" refY="6" orient="auto"><use xlink:href="#m_tmpl2" fill="#0000f0"/></marker></defs><g transform="translate(76,120) scale(1)"><g fill="#e8e8e8" stroke-width="0"><rect x="-19" y="-19" width="38" height="38" /></g></g><g transform="translate(76,120) scale(1)"><g fill="#80f0a0" stroke-width="0"><rect x="44" y="-19" width="103" height="38" /></g></g><g transform="translate(76,120) scale(1)"><g fill="#ffffff" stroke="#a0a0a0" stroke-width="1"><rect x="-14" y="-14" width="28" height="28" rx="4" ry="4" /><rect x="18" y="-14" width="28" height="28" rx="4" ry="4" /><rect x="50" y="-14" width="28" height="28" rx="4" ry="4" /><rect x="82" y="-14" width="28" height="28" rx="4" ry="4" /><rect x="114" y="-14" width="28" height="28" rx="4" ry="4" /></g><g font-size="9" font-family="Verdana" fill="#888888"><text x="0" y="-25" dominant-baseline="central" text-anchor="middle">0</text><text x="32" y="-25" dominant-baseline="central" text-anchor="middle">1</text><text x="64" y="-25" dominant-baseline="central" text-anchor="middle">2</text><text x="96" y="-25" dominant-baseline="central" text-anchor="middle">3</text><text x="128" y="-25" dominant-baseline="central" text-anchor="middle">4</text></g></g><g transform="translate(76,120) scale(1)"><g fill="#ffa0a0" stroke="#ffa0a0" stroke-width="1"><rect x="50" y="-14" width="28" height="28" rx="4" ry="4" /><rect x="82" y="-14" width="28" height="28" rx="4" ry="4" /></g></g><g transform="translate(76,120) scale(1)"><g stroke-width="0"><circle cx="0" cy="0" r="10" fill="#60A0FF" opacity="1" /><circle cx="32" cy="0" r="10" fill="#5393FF" opacity="1" /><circle cx="64" cy="0" r="10" fill="#74B4FF" opacity="1" /><circle cx="96" cy="0" r="10" fill="#4080F0" opacity="1" /><circle cx="128" cy="0" r="10" fill="#6EAEFF" opacity="1" /></g><g font-size="14" font-family="sans-serif" fill="#ffffff"><text x="0" y="0" dominant-baseline="central" text-anchor="middle">7</text><text x="32" y="0" dominant-baseline="central" text-anchor="middle">9</text><text x="64" y="0" dominant-baseline="central" text-anchor="middle">4</text><text x="96" y="0" dominant-baseline="central" text-anchor="middle">12</text><text x="128" y="0" dominant-baseline="central" text-anchor="middle">5</text></g><g font-size="14" font-family="sans-serif" fill="#4080f0"><text x="-28" y="0" dominant-baseline="central" text-anchor="middle">v</text></g></g><g transform="translate(76,120) scale(1)"><g fill="#4080f0" stroke-width="0"><rect x="-10" y="-76" width="20" height="40" opacity="0.583333" rx="2" ry="2" /><rect x="22" y="-88" width="20" height="52" opacity="0.75" rx="2" ry="2" /><rect x="54" y="-59" width="20" height="23" opacity="0.333333" rx="2" ry="2" /><rect x="86" y="-106" width="20" height="70" opacity="1" rx="2" ry="2" /><rect x="118" y="-65" width="20" height="29" opacity="0.416667" rx="2" ry="2" /></g></g></svg>

