<?xml version="1.0" encoding="UTF-8" standalone="no"?>
<svg
xmlns:svg="http://www.w3.org/2000/svg"
xmlns="http://www.w3.org/2000/svg"
xmlns:xlink="http://www.w3.org/1999/xlink"
width ="200"
height ="280"
viewBox ="0 0 200 280"
>
<defs><polygon points="0,0 6,8, 0,16 20,8" id="m_tmpl2"/><marker id="token_arrow"  markerUnits="userSpaceOnUse" markerWidth="20" markerHeight="16" viewBox="0 0 20 16" refX="14" refY="8" orient="auto"><use xlink:href="#m_tmpl2" fill="#60a0ff"/></marker></defs><defs><polygon points="0,0 0,4 0,8 12,4" id="m_tmpl3"/><marker id="link_arrow" markerUnits="strokeWidth" markerWidth="12" markerHeight="8" viewBox="0 0 12 8" refX="12" refY="4" orient="auto"><use xlink:href="#m_tmpl3" fill="#888888"/></marker></defs><g transform="translate(100,84) scale(1)"><g fill="#ffffff" stroke="#a0a0a0" stroke-width="1"><rect x="-14" y="114" width="28" height="28" rx="4" ry="4" /><rect x="-14" y="82" width="28" height="28" rx="4" ry="4" /><rect x="-14" y="50" width="28" height="28" rx="4" ry="4" /><rect x="-14" y="18" width="28" height="28" rx="4" ry="4" /><rect x="-14" y="-14" width="28" height="28" rx="4" ry="4" /></g><g font-size="9" font-family="Verdana" fill="#888888"><text id="" x="-22" y="128" dominant-baseline="central" text-anchor="middle">0</text><text id="" x="-22" y="96" dominant-baseline="central" text-anchor="middle">1</text><text id="" x="-22" y="64" dominant-baseline="central" text-anchor="middle">2</text><text id="" x="-22" y="32" dominant-baseline="central" text-anchor="middle">3</text><text id="" x="-22" y="0" dominant-baseline="central" text-anchor="middle">4</text></g></g><g transform="translate(100,84) scale(1)"><g stroke-width="0"><circle cx="0" cy="128" r="10" fill="#f0f080" id="var_S_8__0" /></g><g font-size="14" font-family="sans-serif" fill="#888888"><text id="text_S_8__0" x="0" y="128" dominant-baseline="central" text-anchor="middle">8</text></g><g font-size="14" font-family="sans-serif" fill="#ffffff"><text id="" x="0" y="-28" dominant-baseline="central" text-anchor="middle">S</text></g></g></svg>

