<?xml version="1.0" encoding="UTF-8" standalone="no"?>
<svg
xmlns:svg="http://www.w3.org/2000/svg"
xmlns="http://www.w3.org/2000/svg"
xmlns:xlink="http://www.w3.org/1999/xlink"
width ="1184"
height ="1080"
viewBox ="0 0 1184 1080"
>
<defs><polygon points="0,0 6,6 0,12 18,6" id="m_tmpl2"/><marker id="token_arrow" markerUnits="strokeWidth" markerWidth="18" markerHeight="12" viewBox="0 0 18 12" refX="18" refY="6" orient="auto"><use xlink:href="#m_tmpl2" fill="#0000f0"/></marker></defs><rect x ="0" y="0" width="280" height="200" fill="#ffffff" stroke="#888888" stroke-width="1"/><text transform="rotate(-35, 16,180)" x="16" y="180" font-size="24" text-anchor="left" fill="#e8e8e8"  font-family="Arial">UNDER CONSTRUCTION</text><g transform="translate(0,0)"><g transform="translate(28,30) scale(1)"><g fill="#ffffff" stroke="#a0a0a0" stroke-width="1"><line x1="84" y1="84" x2="56" y2="42" stroke-linecap="round"/><line x1="140" y1="84" x2="168" y2="42" stroke-linecap="round"/><line x1="168" y1="42" x2="112" y2="0" stroke-linecap="round"/><line x1="56" y1="42" x2="112" y2="0" stroke-linecap="round"/><line x1="98" y1="126" x2="84" y2="84" stroke-linecap="round"/><line x1="28" y1="84" x2="56" y2="42" stroke-linecap="round"/><line x1="70" y1="126" x2="84" y2="84" stroke-linecap="round"/><line x1="196" y1="84" x2="168" y2="42" stroke-linecap="round"/><line x1="210" y1="126" x2="196" y2="84" stroke-linecap="round"/><circle cx="84" cy="84" r="14" /><circle cx="140" cy="84" r="14" /><circle cx="112" cy="0" r="14" /><circle cx="168" cy="42" r="14" /><circle cx="56" cy="42" r="14" /><circle cx="98" cy="126" r="14" /><circle cx="28" cy="84" r="14" /><circle cx="70" cy="126" r="14" /><circle cx="196" cy="84" r="14" /><circle cx="210" cy="126" r="14" /></g><g font-size="9" font-family="Verdana" fill="#888888"><text x="84" y="61" dominant-baseline="central" text-anchor="middle">0</text><text x="140" y="61" dominant-baseline="central" text-anchor="middle">1</text><text x="112" y="-22" dominant-baseline="central" text-anchor="middle">2</text><text x="168" y="19" dominant-baseline="central" text-anchor="middle">3</text><text x="56" y="19" dominant-baseline="central" text-anchor="middle">4</text><text x="98" y="103" dominant-baseline="central" text-anchor="middle">5</text><text x="28" y="61" dominant-baseline="central" text-anchor="middle">6</text><text x="70" y="103" dominant-baseline="central" text-anchor="middle">7</text><text x="196" y="61" dominant-baseline="central" text-anchor="middle">8</text><text x="210" y="103" dominant-baseline="central" text-anchor="middle">9</text></g></g></g><text x="16" y="20" font-size="16" text-anchor="middle" fill="#888888" font-family="sans-serif" >1</text><rect x ="296" y="0" width="280" height="200" fill="#ffffff" stroke="#888888" stroke-width="1"/><text transform="rotate(-35, 312,180)" x="312" y="180" font-size="24" text-anchor="left" fill="#e8e8e8"  font-family="Arial">UNDER CONSTRUCTION</text><g transform="translate(296,0)"><g transform="translate(28,30) scale(1)"><g stroke="#aae0ff" stroke-width="0" fill="#aae0ff"><circle cx="112" cy="0" r="22" /></g><g stroke="#aae0ff" stroke-width="44.8" fill="#aae0ff"></g></g><g transform="translate(28,30) scale(1)"><g fill="#ffffff" stroke="#a0a0a0" stroke-width="1"><line x1="84" y1="84" x2="56" y2="42" stroke-linecap="round"/><line x1="140" y1="84" x2="168" y2="42" stroke-linecap="round"/><line x1="168" y1="42" x2="112" y2="0" stroke-linecap="round"/><line x1="56" y1="42" x2="112" y2="0" stroke-linecap="round"/><line x1="98" y1="126" x2="84" y2="84" stroke-linecap="round"/><line x1="28" y1="84" x2="56" y2="42" stroke-linecap="round"/><line x1="70" y1="126" x2="84" y2="84" stroke-linecap="round"/><line x1="196" y1="84" x2="168" y2="42" stroke-linecap="round"/><line x1="210" y1="126" x2="196" y2="84" stroke-linecap="round"/><circle cx="84" cy="84" r="14" /><circle cx="140" cy="84" r="14" /><circle cx="112" cy="0" r="14" /><circle cx="168" cy="42" r="14" /><circle cx="56" cy="42" r="14" /><circle cx="98" cy="126" r="14" /><circle cx="28" cy="84" r="14" /><circle cx="70" cy="126" r="14" /><circle cx="196" cy="84" r="14" /><circle cx="210" cy="126" r="14" /></g><g font-size="9" font-family="Verdana" fill="#888888"><text x="84" y="61" dominant-baseline="central" text-anchor="middle">0</text><text x="140" y="61" dominant-baseline="central" text-anchor="middle">1</text><text x="112" y="-22" dominant-baseline="central" text-anchor="middle">2</text><text x="168" y="19" dominant-baseline="central" text-anchor="middle">3</text><text x="56" y="19" dominant-baseline="central" text-anchor="middle">4</text><text x="98" y="103" dominant-baseline="central" text-anchor="middle">5</text><text x="28" y="61" dominant-baseline="central" text-anchor="middle">6</text><text x="70" y="103" dominant-baseline="central" text-anchor="middle">7</text><text x="196" y="61" dominant-baseline="central" text-anchor="middle">8</text><text x="210" y="103" dominant-baseline="central" text-anchor="middle">9</text></g></g><g transform="translate(28,30) scale(1)"><g class="flash_g" fill="#ffa0a0" stroke="#ffa0a0" stroke-width="1"><circle cx="112" cy="0" r="14" /></g></g><g transform="translate(28,30) scale(1)"><g stroke-width="0"></g><g font-size="14" font-family="sans-serif" fill="#888888"><text x="112" y="0" dominant-baseline="central" text-anchor="middle">1</text></g><g font-size="14" font-family="sans-serif" fill="#ffffff"><text x="-28" y="0" dominant-baseline="central" text-anchor="middle">label</text></g></g></g><text x="312" y="20" font-size="16" text-anchor="middle" fill="#888888" font-family="sans-serif" >2</text><rect x ="592" y="0" width="280" height="200" fill="#ffffff" stroke="#888888" stroke-width="1"/><text transform="rotate(-35, 608,180)" x="608" y="180" font-size="24" text-anchor="left" fill="#e8e8e8"  font-family="Arial">UNDER CONSTRUCTION</text><g transform="translate(592,0)"><g transform="translate(28,30) scale(1)"><g stroke="#aae0ff" stroke-width="0" fill="#aae0ff"><circle cx="112" cy="0" r="22" /><circle cx="56" cy="42" r="22" /></g><g stroke="#aae0ff" stroke-width="44.8" fill="#aae0ff"><line x1="112" y1="0" x2="56" y2="42" stroke-linecap="round"/></g></g><g transform="translate(28,30) scale(1)"><g fill="#ffffff" stroke="#a0a0a0" stroke-width="1"><line x1="84" y1="84" x2="56" y2="42" stroke-linecap="round"/><line x1="140" y1="84" x2="168" y2="42" stroke-linecap="round"/><line x1="168" y1="42" x2="112" y2="0" stroke-linecap="round"/><line x1="56" y1="42" x2="112" y2="0" stroke-linecap="round"/><line x1="98" y1="126" x2="84" y2="84" stroke-linecap="round"/><line x1="28" y1="84" x2="56" y2="42" stroke-linecap="round"/><line x1="70" y1="126" x2="84" y2="84" stroke-linecap="round"/><line x1="196" y1="84" x2="168" y2="42" stroke-linecap="round"/><line x1="210" y1="126" x2="196" y2="84" stroke-linecap="round"/><circle cx="84" cy="84" r="14" /><circle cx="140" cy="84" r="14" /><circle cx="112" cy="0" r="14" /><circle cx="168" cy="42" r="14" /><circle cx="56" cy="42" r="14" /><circle cx="98" cy="126" r="14" /><circle cx="28" cy="84" r="14" /><circle cx="70" cy="126" r="14" /><circle cx="196" cy="84" r="14" /><circle cx="210" cy="126" r="14" /></g><g font-size="9" font-family="Verdana" fill="#888888"><text x="84" y="61" dominant-baseline="central" text-anchor="middle">0</text><text x="140" y="61" dominant-baseline="central" text-anchor="middle">1</text><text x="112" y="-22" dominant-baseline="central" text-anchor="middle">2</text><text x="168" y="19" dominant-baseline="central" text-anchor="middle">3</text><text x="56" y="19" dominant-baseline="central" text-anchor="middle">4</text><text x="98" y="103" dominant-baseline="central" text-anchor="middle">5</text><text x="28" y="61" dominant-baseline="central" text-anchor="middle">6</text><text x="70" y="103" dominant-baseline="central" text-anchor="middle">7</text><text x="196" y="61" dominant-baseline="central" text-anchor="middle">8</text><text x="210" y="103" dominant-baseline="central" text-anchor="middle">9</text></g></g><g transform="translate(28,30) scale(1)"><g class="flash_g" fill="#ffa0a0" stroke="#ffa0a0" stroke-width="1"><circle cx="56" cy="42" r="14" /></g></g><g transform="translate(28,30) scale(1)"><g stroke-width="0"></g><g font-size="14" font-family="sans-serif" fill="#888888"><text x="112" y="0" dominant-baseline="central" text-anchor="middle">1</text><text x="56" y="42" dominant-baseline="central" text-anchor="middle">2</text></g><g font-size="14" font-family="sans-serif" fill="#ffffff"><text x="-28" y="0" dominant-baseline="central" text-anchor="middle">label</text></g></g></g><text x="608" y="20" font-size="16" text-anchor="middle" fill="#888888" font-family="sans-serif" >3</text><rect x ="888" y="0" width="280" height="200" fill="#ffffff" stroke="#888888" stroke-width="1"/><text transform="rotate(-35, 904,180)" x="904" y="180" font-size="24" text-anchor="left" fill="#e8e8e8"  font-family="Arial">UNDER CONSTRUCTION</text><g transform="translate(888,0)"><g transform="translate(28,30) scale(1)"><g stroke="#aae0ff" stroke-width="0" fill="#aae0ff"><circle cx="112" cy="0" r="22" /><circle cx="56" cy="42" r="22" /><circle cx="28" cy="84" r="22" /></g><g stroke="#aae0ff" stroke-width="44.8" fill="#aae0ff"><line x1="112" y1="0" x2="56" y2="42" stroke-linecap="round"/><line x1="56" y1="42" x2="28" y2="84" stroke-linecap="round"/></g></g><g transform="translate(28,30) scale(1)"><g fill="#ffffff" stroke="#a0a0a0" stroke-width="1"><line x1="84" y1="84" x2="56" y2="42" stroke-linecap="round"/><line x1="140" y1="84" x2="168" y2="42" stroke-linecap="round"/><line x1="168" y1="42" x2="112" y2="0" stroke-linecap="round"/><line x1="56" y1="42" x2="112" y2="0" stroke-linecap="round"/><line x1="98" y1="126" x2="84" y2="84" stroke-linecap="round"/><line x1="28" y1="84" x2="56" y2="42" stroke-linecap="round"/><line x1="70" y1="126" x2="84" y2="84" stroke-linecap="round"/><line x1="196" y1="84" x2="168" y2="42" stroke-linecap="round"/><line x1="210" y1="126" x2="196" y2="84" stroke-linecap="round"/><circle cx="84" cy="84" r="14" /><circle cx="140" cy="84" r="14" /><circle cx="112" cy="0" r="14" /><circle cx="168" cy="42" r="14" /><circle cx="56" cy="42" r="14" /><circle cx="98" cy="126" r="14" /><circle cx="28" cy="84" r="14" /><circle cx="70" cy="126" r="14" /><circle cx="196" cy="84" r="14" /><circle cx="210" cy="126" r="14" /></g><g font-size="9" font-family="Verdana" fill="#888888"><text x="84" y="61" dominant-baseline="central" text-anchor="middle">0</text><text x="140" y="61" dominant-baseline="central" text-anchor="middle">1</text><text x="112" y="-22" dominant-baseline="central" text-anchor="middle">2</text><text x="168" y="19" dominant-baseline="central" text-anchor="middle">3</text><text x="56" y="19" dominant-baseline="central" text-anchor="middle">4</text><text x="98" y="103" dominant-baseline="central" text-anchor="middle">5</text><text x="28" y="61" dominant-baseline="central" text-anchor="middle">6</text><text x="70" y="103" dominant-baseline="central" text-anchor="middle">7</text><text x="196" y="61" dominant-baseline="central" text-anchor="middle">8</text><text x="210" y="103" dominant-baseline="central" text-anchor="middle">9</text></g></g><g transform="translate(28,30) scale(1)"><g class="flash_g" fill="#ffa0a0" stroke="#ffa0a0" stroke-width="1"><circle cx="28" cy="84" r="14" /></g></g><g transform="translate(28,30) scale(1)"><g stroke-width="0"></g><g font-size="14" font-family="sans-serif" fill="#888888"><text x="112" y="0" dominant-baseline="central" text-anchor="middle">1</text><text x="56" y="42" dominant-baseline="central" text-anchor="middle">2</text><text x="28" y="84" dominant-baseline="central" text-anchor="middle">3</text></g><g font-size="14" font-family="sans-serif" fill="#ffffff"><text x="-28" y="0" dominant-baseline="central" text-anchor="middle">label</text></g></g></g><text x="904" y="20" font-size="16" text-anchor="middle" fill="#888888" font-family="sans-serif" >4</text><rect x ="0" y="216" width="280" height="200" fill="#ffffff" stroke="#888888" stroke-width="1"/><text transform="rotate(-35, 16,396)" x="16" y="396" font-size="24" text-anchor="left" fill="#e8e8e8"  font-family="Arial">UNDER CONSTRUCTION</text><g transform="translate(0,216)"><g transform="translate(28,30) scale(1)"><g stroke="#aae0ff" stroke-width="0" fill="#aae0ff"><circle cx="84" cy="84" r="22" /><circle cx="112" cy="0" r="22" /><circle cx="56" cy="42" r="22" /><circle cx="28" cy="84" r="22" /></g><g stroke="#aae0ff" stroke-width="44.8" fill="#aae0ff"><line x1="112" y1="0" x2="56" y2="42" stroke-linecap="round"/><line x1="56" y1="42" x2="28" y2="84" stroke-linecap="round"/><line x1="56" y1="42" x2="84" y2="84" stroke-linecap="round"/></g></g><g transform="translate(28,30) scale(1)"><g fill="#ffffff" stroke="#a0a0a0" stroke-width="1"><line x1="84" y1="84" x2="56" y2="42" stroke-linecap="round"/><line x1="140" y1="84" x2="168" y2="42" stroke-linecap="round"/><line x1="168" y1="42" x2="112" y2="0" stroke-linecap="round"/><line x1="56" y1="42" x2="112" y2="0" stroke-linecap="round"/><line x1="98" y1="126" x2="84" y2="84" stroke-linecap="round"/><line x1="28" y1="84" x2="56" y2="42" stroke-linecap="round"/><line x1="70" y1="126" x2="84" y2="84" stroke-linecap="round"/><line x1="196" y1="84" x2="168" y2="42" stroke-linecap="round"/><line x1="210" y1="126" x2="196" y2="84" stroke-linecap="round"/><circle cx="84" cy="84" r="14" /><circle cx="140" cy="84" r="14" /><circle cx="112" cy="0" r="14" /><circle cx="168" cy="42" r="14" /><circle cx="56" cy="42" r="14" /><circle cx="98" cy="126" r="14" /><circle cx="28" cy="84" r="14" /><circle cx="70" cy="126" r="14" /><circle cx="196" cy="84" r="14" /><circle cx="210" cy="126" r="14" /></g><g font-size="9" font-family="Verdana" fill="#888888"><text x="84" y="61" dominant-baseline="central" text-anchor="middle">0</text><text x="140" y="61" dominant-baseline="central" text-anchor="middle">1</text><text x="112" y="-22" dominant-baseline="central" text-anchor="middle">2</text><text x="168" y="19" dominant-baseline="central" text-anchor="middle">3</text><text x="56" y="19" dominant-baseline="central" text-anchor="middle">4</text><text x="98" y="103" dominant-baseline="central" text-anchor="middle">5</text><text x="28" y="61" dominant-baseline="central" text-anchor="middle">6</text><text x="70" y="103" dominant-baseline="central" text-anchor="middle">7</text><text x="196" y="61" dominant-baseline="central" text-anchor="middle">8</text><text x="210" y="103" dominant-baseline="central" text-anchor="middle">9</text></g></g><g transform="translate(28,30) scale(1)"><g class="flash_g" fill="#ffa0a0" stroke="#ffa0a0" stroke-width="1"><circle cx="84" cy="84" r="14" /></g></g><g transform="translate(28,30) scale(1)"><g stroke-width="0"></g><g font-size="14" font-family="sans-serif" fill="#888888"><text x="84" y="84" dominant-baseline="central" text-anchor="middle">4</text><text x="112" y="0" dominant-baseline="central" text-anchor="middle">1</text><text x="56" y="42" dominant-baseline="central" text-anchor="middle">2</text><text x="28" y="84" dominant-baseline="central" text-anchor="middle">3</text></g><g font-size="14" font-family="sans-serif" fill="#ffffff"><text x="-28" y="0" dominant-baseline="central" text-anchor="middle">label</text></g></g></g><text x="16" y="236" font-size="16" text-anchor="middle" fill="#888888" font-family="sans-serif" >5</text><rect x ="296" y="216" width="280" height="200" fill="#ffffff" stroke="#888888" stroke-width="1"/><text transform="rotate(-35, 312,396)" x="312" y="396" font-size="24" text-anchor="left" fill="#e8e8e8"  font-family="Arial">UNDER CONSTRUCTION</text><g transform="translate(296,216)"><g transform="translate(28,30) scale(1)"><g stroke="#aae0ff" stroke-width="0" fill="#aae0ff"><circle cx="84" cy="84" r="22" /><circle cx="112" cy="0" r="22" /><circle cx="56" cy="42" r="22" /><circle cx="28" cy="84" r="22" /><circle cx="70" cy="126" r="22" /></g><g stroke="#aae0ff" stroke-width="44.8" fill="#aae0ff"><line x1="84" y1="84" x2="70" y2="126" stroke-linecap="round"/><line x1="112" y1="0" x2="56" y2="42" stroke-linecap="round"/><line x1="56" y1="42" x2="28" y2="84" stroke-linecap="round"/><line x1="56" y1="42" x2="84" y2="84" stroke-linecap="round"/></g></g><g transform="translate(28,30) scale(1)"><g fill="#ffffff" stroke="#a0a0a0" stroke-width="1"><line x1="84" y1="84" x2="56" y2="42" stroke-linecap="round"/><line x1="140" y1="84" x2="168" y2="42" stroke-linecap="round"/><line x1="168" y1="42" x2="112" y2="0" stroke-linecap="round"/><line x1="56" y1="42" x2="112" y2="0" stroke-linecap="round"/><line x1="98" y1="126" x2="84" y2="84" stroke-linecap="round"/><line x1="28" y1="84" x2="56" y2="42" stroke-linecap="round"/><line x1="70" y1="126" x2="84" y2="84" stroke-linecap="round"/><line x1="196" y1="84" x2="168" y2="42" stroke-linecap="round"/><line x1="210" y1="126" x2="196" y2="84" stroke-linecap="round"/><circle cx="84" cy="84" r="14" /><circle cx="140" cy="84" r="14" /><circle cx="112" cy="0" r="14" /><circle cx="168" cy="42" r="14" /><circle cx="56" cy="42" r="14" /><circle cx="98" cy="126" r="14" /><circle cx="28" cy="84" r="14" /><circle cx="70" cy="126" r="14" /><circle cx="196" cy="84" r="14" /><circle cx="210" cy="126" r="14" /></g><g font-size="9" font-family="Verdana" fill="#888888"><text x="84" y="61" dominant-baseline="central" text-anchor="middle">0</text><text x="140" y="61" dominant-baseline="central" text-anchor="middle">1</text><text x="112" y="-22" dominant-baseline="central" text-anchor="middle">2</text><text x="168" y="19" dominant-baseline="central" text-anchor="middle">3</text><text x="56" y="19" dominant-baseline="central" text-anchor="middle">4</text><text x="98" y="103" dominant-baseline="central" text-anchor="middle">5</text><text x="28" y="61" dominant-baseline="central" text-anchor="middle">6</text><text x="70" y="103" dominant-baseline="central" text-anchor="middle">7</text><text x="196" y="61" dominant-baseline="central" text-anchor="middle">8</text><text x="210" y="103" dominant-baseline="central" text-anchor="middle">9</text></g></g><g transform="translate(28,30) scale(1)"><g class="flash_g" fill="#ffa0a0" stroke="#ffa0a0" stroke-width="1"><circle cx="70" cy="126" r="14" /></g></g><g transform="translate(28,30) scale(1)"><g stroke-width="0"></g><g font-size="14" font-family="sans-serif" fill="#888888"><text x="84" y="84" dominant-baseline="central" text-anchor="middle">4</text><text x="112" y="0" dominant-baseline="central" text-anchor="middle">1</text><text x="56" y="42" dominant-baseline="central" text-anchor="middle">2</text><text x="28" y="84" dominant-baseline="central" text-anchor="middle">3</text><text x="70" y="126" dominant-baseline="central" text-anchor="middle">5</text></g><g font-size="14" font-family="sans-serif" fill="#ffffff"><text x="-28" y="0" dominant-baseline="central" text-anchor="middle">label</text></g></g></g><text x="312" y="236" font-size="16" text-anchor="middle" fill="#888888" font-family="sans-serif" >6</text><rect x ="592" y="216" width="280" height="200" fill="#ffffff" stroke="#888888" stroke-width="1"/><text transform="rotate(-35, 608,396)" x="608" y="396" font-size="24" text-anchor="left" fill="#e8e8e8"  font-family="Arial">UNDER CONSTRUCTION</text><g transform="translate(592,216)"><g transform="translate(28,30) scale(1)"><g stroke="#aae0ff" stroke-width="0" fill="#aae0ff"><circle cx="84" cy="84" r="22" /><circle cx="112" cy="0" r="22" /><circle cx="56" cy="42" r="22" /><circle cx="98" cy="126" r="22" /><circle cx="28" cy="84" r="22" /><circle cx="70" cy="126" r="22" /></g><g stroke="#aae0ff" stroke-width="44.8" fill="#aae0ff"><line x1="84" y1="84" x2="70" y2="126" stroke-linecap="round"/><line x1="84" y1="84" x2="98" y2="126" stroke-linecap="round"/><line x1="112" y1="0" x2="56" y2="42" stroke-linecap="round"/><line x1="56" y1="42" x2="28" y2="84" stroke-linecap="round"/><line x1="56" y1="42" x2="84" y2="84" stroke-linecap="round"/></g></g><g transform="translate(28,30) scale(1)"><g fill="#ffffff" stroke="#a0a0a0" stroke-width="1"><line x1="84" y1="84" x2="56" y2="42" stroke-linecap="round"/><line x1="140" y1="84" x2="168" y2="42" stroke-linecap="round"/><line x1="168" y1="42" x2="112" y2="0" stroke-linecap="round"/><line x1="56" y1="42" x2="112" y2="0" stroke-linecap="round"/><line x1="98" y1="126" x2="84" y2="84" stroke-linecap="round"/><line x1="28" y1="84" x2="56" y2="42" stroke-linecap="round"/><line x1="70" y1="126" x2="84" y2="84" stroke-linecap="round"/><line x1="196" y1="84" x2="168" y2="42" stroke-linecap="round"/><line x1="210" y1="126" x2="196" y2="84" stroke-linecap="round"/><circle cx="84" cy="84" r="14" /><circle cx="140" cy="84" r="14" /><circle cx="112" cy="0" r="14" /><circle cx="168" cy="42" r="14" /><circle cx="56" cy="42" r="14" /><circle cx="98" cy="126" r="14" /><circle cx="28" cy="84" r="14" /><circle cx="70" cy="126" r="14" /><circle cx="196" cy="84" r="14" /><circle cx="210" cy="126" r="14" /></g><g font-size="9" font-family="Verdana" fill="#888888"><text x="84" y="61" dominant-baseline="central" text-anchor="middle">0</text><text x="140" y="61" dominant-baseline="central" text-anchor="middle">1</text><text x="112" y="-22" dominant-baseline="central" text-anchor="middle">2</text><text x="168" y="19" dominant-baseline="central" text-anchor="middle">3</text><text x="56" y="19" dominant-baseline="central" text-anchor="middle">4</text><text x="98" y="103" dominant-baseline="central" text-anchor="middle">5</text><text x="28" y="61" dominant-baseline="central" text-anchor="middle">6</text><text x="70" y="103" dominant-baseline="central" text-anchor="middle">7</text><text x="196" y="61" dominant-baseline="central" text-anchor="middle">8</text><text x="210" y="103" dominant-baseline="central" text-anchor="middle">9</text></g></g><g transform="translate(28,30) scale(1)"><g class="flash_g" fill="#ffa0a0" stroke="#ffa0a0" stroke-width="1"><circle cx="98" cy="126" r="14" /></g></g><g transform="translate(28,30) scale(1)"><g stroke-width="0"></g><g font-size="14" font-family="sans-serif" fill="#888888"><text x="84" y="84" dominant-baseline="central" text-anchor="middle">4</text><text x="112" y="0" dominant-baseline="central" text-anchor="middle">1</text><text x="56" y="42" dominant-baseline="central" text-anchor="middle">2</text><text x="98" y="126" dominant-baseline="central" text-anchor="middle">6</text><text x="28" y="84" dominant-baseline="central" text-anchor="middle">3</text><text x="70" y="126" dominant-baseline="central" text-anchor="middle">5</text></g><g font-size="14" font-family="sans-serif" fill="#ffffff"><text x="-28" y="0" dominant-baseline="central" text-anchor="middle">label</text></g></g></g><text x="608" y="236" font-size="16" text-anchor="middle" fill="#888888" font-family="sans-serif" >7</text><rect x ="888" y="216" width="280" height="200" fill="#ffffff" stroke="#888888" stroke-width="1"/><text transform="rotate(-35, 904,396)" x="904" y="396" font-size="24" text-anchor="left" fill="#e8e8e8"  font-family="Arial">UNDER CONSTRUCTION</text><g transform="translate(888,216)"><g transform="translate(28,30) scale(1)"><g stroke="#aae0ff" stroke-width="0" fill="#aae0ff"><circle cx="84" cy="84" r="22" /><circle cx="112" cy="0" r="22" /><circle cx="168" cy="42" r="22" /><circle cx="56" cy="42" r="22" /><circle cx="98" cy="126" r="22" /><circle cx="28" cy="84" r="22" /><circle cx="70" cy="126" r="22" /></g><g stroke="#aae0ff" stroke-width="44.8" fill="#aae0ff"><line x1="84" y1="84" x2="70" y2="126" stroke-linecap="round"/><line x1="84" y1="84" x2="98" y2="126" stroke-linecap="round"/><line x1="112" y1="0" x2="56" y2="42" stroke-linecap="round"/><line x1="112" y1="0" x2="168" y2="42" stroke-linecap="round"/><line x1="56" y1="42" x2="28" y2="84" stroke-linecap="round"/><line x1="56" y1="42" x2="84" y2="84" stroke-linecap="round"/></g></g><g transform="translate(28,30) scale(1)"><g fill="#ffffff" stroke="#a0a0a0" stroke-width="1"><line x1="84" y1="84" x2="56" y2="42" stroke-linecap="round"/><line x1="140" y1="84" x2="168" y2="42" stroke-linecap="round"/><line x1="168" y1="42" x2="112" y2="0" stroke-linecap="round"/><line x1="56" y1="42" x2="112" y2="0" stroke-linecap="round"/><line x1="98" y1="126" x2="84" y2="84" stroke-linecap="round"/><line x1="28" y1="84" x2="56" y2="42" stroke-linecap="round"/><line x1="70" y1="126" x2="84" y2="84" stroke-linecap="round"/><line x1="196" y1="84" x2="168" y2="42" stroke-linecap="round"/><line x1="210" y1="126" x2="196" y2="84" stroke-linecap="round"/><circle cx="84" cy="84" r="14" /><circle cx="140" cy="84" r="14" /><circle cx="112" cy="0" r="14" /><circle cx="168" cy="42" r="14" /><circle cx="56" cy="42" r="14" /><circle cx="98" cy="126" r="14" /><circle cx="28" cy="84" r="14" /><circle cx="70" cy="126" r="14" /><circle cx="196" cy="84" r="14" /><circle cx="210" cy="126" r="14" /></g><g font-size="9" font-family="Verdana" fill="#888888"><text x="84" y="61" dominant-baseline="central" text-anchor="middle">0</text><text x="140" y="61" dominant-baseline="central" text-anchor="middle">1</text><text x="112" y="-22" dominant-baseline="central" text-anchor="middle">2</text><text x="168" y="19" dominant-baseline="central" text-anchor="middle">3</text><text x="56" y="19" dominant-baseline="central" text-anchor="middle">4</text><text x="98" y="103" dominant-baseline="central" text-anchor="middle">5</text><text x="28" y="61" dominant-baseline="central" text-anchor="middle">6</text><text x="70" y="103" dominant-baseline="central" text-anchor="middle">7</text><text x="196" y="61" dominant-baseline="central" text-anchor="middle">8</text><text x="210" y="103" dominant-baseline="central" text-anchor="middle">9</text></g></g><g transform="translate(28,30) scale(1)"><g class="flash_g" fill="#ffa0a0" stroke="#ffa0a0" stroke-width="1"><circle cx="168" cy="42" r="14" /></g></g><g transform="translate(28,30) scale(1)"><g stroke-width="0"></g><g font-size="14" font-family="sans-serif" fill="#888888"><text x="84" y="84" dominant-baseline="central" text-anchor="middle">4</text><text x="112" y="0" dominant-baseline="central" text-anchor="middle">1</text><text x="168" y="42" dominant-baseline="central" text-anchor="middle">7</text><text x="56" y="42" dominant-baseline="central" text-anchor="middle">2</text><text x="98" y="126" dominant-baseline="central" text-anchor="middle">6</text><text x="28" y="84" dominant-baseline="central" text-anchor="middle">3</text><text x="70" y="126" dominant-baseline="central" text-anchor="middle">5</text></g><g font-size="14" font-family="sans-serif" fill="#ffffff"><text x="-28" y="0" dominant-baseline="central" text-anchor="middle">label</text></g></g></g><text x="904" y="236" font-size="16" text-anchor="middle" fill="#888888" font-family="sans-serif" >8</text><rect x ="0" y="432" width="280" height="200" fill="#ffffff" stroke="#888888" stroke-width="1"/><text transform="rotate(-35, 16,612)" x="16" y="612" font-size="24" text-anchor="left" fill="#e8e8e8"  font-family="Arial">UNDER CONSTRUCTION</text><g transform="translate(0,432)"><g transform="translate(28,30) scale(1)"><g stroke="#aae0ff" stroke-width="0" fill="#aae0ff"><circle cx="84" cy="84" r="22" /><circle cx="140" cy="84" r="22" /><circle cx="112" cy="0" r="22" /><circle cx="168" cy="42" r="22" /><circle cx="56" cy="42" r="22" /><circle cx="98" cy="126" r="22" /><circle cx="28" cy="84" r="22" /><circle cx="70" cy="126" r="22" /></g><g stroke="#aae0ff" stroke-width="44.8" fill="#aae0ff"><line x1="84" y1="84" x2="70" y2="126" stroke-linecap="round"/><line x1="84" y1="84" x2="98" y2="126" stroke-linecap="round"/><line x1="112" y1="0" x2="56" y2="42" stroke-linecap="round"/><line x1="112" y1="0" x2="168" y2="42" stroke-linecap="round"/><line x1="168" y1="42" x2="140" y2="84" stroke-linecap="round"/><line x1="56" y1="42" x2="28" y2="84" stroke-linecap="round"/><line x1="56" y1="42" x2="84" y2="84" stroke-linecap="round"/></g></g><g transform="translate(28,30) scale(1)"><g fill="#ffffff" stroke="#a0a0a0" stroke-width="1"><line x1="84" y1="84" x2="56" y2="42" stroke-linecap="round"/><line x1="140" y1="84" x2="168" y2="42" stroke-linecap="round"/><line x1="168" y1="42" x2="112" y2="0" stroke-linecap="round"/><line x1="56" y1="42" x2="112" y2="0" stroke-linecap="round"/><line x1="98" y1="126" x2="84" y2="84" stroke-linecap="round"/><line x1="28" y1="84" x2="56" y2="42" stroke-linecap="round"/><line x1="70" y1="126" x2="84" y2="84" stroke-linecap="round"/><line x1="196" y1="84" x2="168" y2="42" stroke-linecap="round"/><line x1="210" y1="126" x2="196" y2="84" stroke-linecap="round"/><circle cx="84" cy="84" r="14" /><circle cx="140" cy="84" r="14" /><circle cx="112" cy="0" r="14" /><circle cx="168" cy="42" r="14" /><circle cx="56" cy="42" r="14" /><circle cx="98" cy="126" r="14" /><circle cx="28" cy="84" r="14" /><circle cx="70" cy="126" r="14" /><circle cx="196" cy="84" r="14" /><circle cx="210" cy="126" r="14" /></g><g font-size="9" font-family="Verdana" fill="#888888"><text x="84" y="61" dominant-baseline="central" text-anchor="middle">0</text><text x="140" y="61" dominant-baseline="central" text-anchor="middle">1</text><text x="112" y="-22" dominant-baseline="central" text-anchor="middle">2</text><text x="168" y="19" dominant-baseline="central" text-anchor="middle">3</text><text x="56" y="19" dominant-baseline="central" text-anchor="middle">4</text><text x="98" y="103" dominant-baseline="central" text-anchor="middle">5</text><text x="28" y="61" dominant-baseline="central" text-anchor="middle">6</text><text x="70" y="103" dominant-baseline="central" text-anchor="middle">7</text><text x="196" y="61" dominant-baseline="central" text-anchor="middle">8</text><text x="210" y="103" dominant-baseline="central" text-anchor="middle">9</text></g></g><g transform="translate(28,30) scale(1)"><g class="flash_g" fill="#ffa0a0" stroke="#ffa0a0" stroke-width="1"><circle cx="140" cy="84" r="14" /></g></g><g transform="translate(28,30) scale(1)"><g stroke-width="0"></g><g font-size="14" font-family="sans-serif" fill="#888888"><text x="84" y="84" dominant-baseline="central" text-anchor="middle">4</text><text x="140" y="84" dominant-baseline="central" text-anchor="middle">8</text><text x="112" y="0" dominant-baseline="central" text-anchor="middle">1</text><text x="168" y="42" dominant-baseline="central" text-anchor="middle">7</text><text x="56" y="42" dominant-baseline="central" text-anchor="middle">2</text><text x="98" y="126" dominant-baseline="central" text-anchor="middle">6</text><text x="28" y="84" dominant-baseline="central" text-anchor="middle">3</text><text x="70" y="126" dominant-baseline="central" text-anchor="middle">5</text></g><g font-size="14" font-family="sans-serif" fill="#ffffff"><text x="-28" y="0" dominant-baseline="central" text-anchor="middle">label</text></g></g></g><text x="16" y="452" font-size="16" text-anchor="middle" fill="#888888" font-family="sans-serif" >9</text><rect x ="296" y="432" width="280" height="200" fill="#ffffff" stroke="#888888" stroke-width="1"/><text transform="rotate(-35, 312,612)" x="312" y="612" font-size="24" text-anchor="left" fill="#e8e8e8"  font-family="Arial">UNDER CONSTRUCTION</text><g transform="translate(296,432)"><g transform="translate(28,30) scale(1)"><g stroke="#aae0ff" stroke-width="0" fill="#aae0ff"><circle cx="84" cy="84" r="22" /><circle cx="140" cy="84" r="22" /><circle cx="112" cy="0" r="22" /><circle cx="168" cy="42" r="22" /><circle cx="56" cy="42" r="22" /><circle cx="98" cy="126" r="22" /><circle cx="28" cy="84" r="22" /><circle cx="70" cy="126" r="22" /><circle cx="196" cy="84" r="22" /></g><g stroke="#aae0ff" stroke-width="44.8" fill="#aae0ff"><line x1="84" y1="84" x2="70" y2="126" stroke-linecap="round"/><line x1="84" y1="84" x2="98" y2="126" stroke-linecap="round"/><line x1="112" y1="0" x2="56" y2="42" stroke-linecap="round"/><line x1="112" y1="0" x2="168" y2="42" stroke-linecap="round"/><line x1="168" y1="42" x2="140" y2="84" stroke-linecap="round"/><line x1="168" y1="42" x2="196" y2="84" stroke-linecap="round"/><line x1="56" y1="42" x2="28" y2="84" stroke-linecap="round"/><line x1="56" y1="42" x2="84" y2="84" stroke-linecap="round"/></g></g><g transform="translate(28,30) scale(1)"><g fill="#ffffff" stroke="#a0a0a0" stroke-width="1"><line x1="84" y1="84" x2="56" y2="42" stroke-linecap="round"/><line x1="140" y1="84" x2="168" y2="42" stroke-linecap="round"/><line x1="168" y1="42" x2="112" y2="0" stroke-linecap="round"/><line x1="56" y1="42" x2="112" y2="0" stroke-linecap="round"/><line x1="98" y1="126" x2="84" y2="84" stroke-linecap="round"/><line x1="28" y1="84" x2="56" y2="42" stroke-linecap="round"/><line x1="70" y1="126" x2="84" y2="84" stroke-linecap="round"/><line x1="196" y1="84" x2="168" y2="42" stroke-linecap="round"/><line x1="210" y1="126" x2="196" y2="84" stroke-linecap="round"/><circle cx="84" cy="84" r="14" /><circle cx="140" cy="84" r="14" /><circle cx="112" cy="0" r="14" /><circle cx="168" cy="42" r="14" /><circle cx="56" cy="42" r="14" /><circle cx="98" cy="126" r="14" /><circle cx="28" cy="84" r="14" /><circle cx="70" cy="126" r="14" /><circle cx="196" cy="84" r="14" /><circle cx="210" cy="126" r="14" /></g><g font-size="9" font-family="Verdana" fill="#888888"><text x="84" y="61" dominant-baseline="central" text-anchor="middle">0</text><text x="140" y="61" dominant-baseline="central" text-anchor="middle">1</text><text x="112" y="-22" dominant-baseline="central" text-anchor="middle">2</text><text x="168" y="19" dominant-baseline="central" text-anchor="middle">3</text><text x="56" y="19" dominant-baseline="central" text-anchor="middle">4</text><text x="98" y="103" dominant-baseline="central" text-anchor="middle">5</text><text x="28" y="61" dominant-baseline="central" text-anchor="middle">6</text><text x="70" y="103" dominant-baseline="central" text-anchor="middle">7</text><text x="196" y="61" dominant-baseline="central" text-anchor="middle">8</text><text x="210" y="103" dominant-baseline="central" text-anchor="middle">9</text></g></g><g transform="translate(28,30) scale(1)"><g class="flash_g" fill="#ffa0a0" stroke="#ffa0a0" stroke-width="1"><circle cx="196" cy="84" r="14" /></g></g><g transform="translate(28,30) scale(1)"><g stroke-width="0"></g><g font-size="14" font-family="sans-serif" fill="#888888"><text x="84" y="84" dominant-baseline="central" text-anchor="middle">4</text><text x="140" y="84" dominant-baseline="central" text-anchor="middle">8</text><text x="112" y="0" dominant-baseline="central" text-anchor="middle">1</text><text x="168" y="42" dominant-baseline="central" text-anchor="middle">7</text><text x="56" y="42" dominant-baseline="central" text-anchor="middle">2</text><text x="98" y="126" dominant-baseline="central" text-anchor="middle">6</text><text x="28" y="84" dominant-baseline="central" text-anchor="middle">3</text><text x="70" y="126" dominant-baseline="central" text-anchor="middle">5</text><text x="196" y="84" dominant-baseline="central" text-anchor="middle">9</text></g><g font-size="14" font-family="sans-serif" fill="#ffffff"><text x="-28" y="0" dominant-baseline="central" text-anchor="middle">label</text></g></g></g><text x="312" y="452" font-size="16" text-anchor="middle" fill="#888888" font-family="sans-serif" >10</text><rect x ="592" y="432" width="280" height="200" fill="#ffffff" stroke="#888888" stroke-width="1"/><text transform="rotate(-35, 608,612)" x="608" y="612" font-size="24" text-anchor="left" fill="#e8e8e8"  font-family="Arial">UNDER CONSTRUCTION</text><g transform="translate(592,432)"><g transform="translate(28,30) scale(1)"><g stroke="#aae0ff" stroke-width="0" fill="#aae0ff"><circle cx="84" cy="84" r="22" /><circle cx="140" cy="84" r="22" /><circle cx="112" cy="0" r="22" /><circle cx="168" cy="42" r="22" /><circle cx="56" cy="42" r="22" /><circle cx="98" cy="126" r="22" /><circle cx="28" cy="84" r="22" /><circle cx="70" cy="126" r="22" /><circle cx="196" cy="84" r="22" /><circle cx="210" cy="126" r="22" /></g><g stroke="#aae0ff" stroke-width="44.8" fill="#aae0ff"><line x1="84" y1="84" x2="70" y2="126" stroke-linecap="round"/><line x1="84" y1="84" x2="98" y2="126" stroke-linecap="round"/><line x1="112" y1="0" x2="56" y2="42" stroke-linecap="round"/><line x1="112" y1="0" x2="168" y2="42" stroke-linecap="round"/><line x1="168" y1="42" x2="140" y2="84" stroke-linecap="round"/><line x1="168" y1="42" x2="196" y2="84" stroke-linecap="round"/><line x1="56" y1="42" x2="28" y2="84" stroke-linecap="round"/><line x1="56" y1="42" x2="84" y2="84" stroke-linecap="round"/><line x1="196" y1="84" x2="210" y2="126" stroke-linecap="round"/></g></g><g transform="translate(28,30) scale(1)"><g fill="#ffffff" stroke="#a0a0a0" stroke-width="1"><line x1="84" y1="84" x2="56" y2="42" stroke-linecap="round"/><line x1="140" y1="84" x2="168" y2="42" stroke-linecap="round"/><line x1="168" y1="42" x2="112" y2="0" stroke-linecap="round"/><line x1="56" y1="42" x2="112" y2="0" stroke-linecap="round"/><line x1="98" y1="126" x2="84" y2="84" stroke-linecap="round"/><line x1="28" y1="84" x2="56" y2="42" stroke-linecap="round"/><line x1="70" y1="126" x2="84" y2="84" stroke-linecap="round"/><line x1="196" y1="84" x2="168" y2="42" stroke-linecap="round"/><line x1="210" y1="126" x2="196" y2="84" stroke-linecap="round"/><circle cx="84" cy="84" r="14" /><circle cx="140" cy="84" r="14" /><circle cx="112" cy="0" r="14" /><circle cx="168" cy="42" r="14" /><circle cx="56" cy="42" r="14" /><circle cx="98" cy="126" r="14" /><circle cx="28" cy="84" r="14" /><circle cx="70" cy="126" r="14" /><circle cx="196" cy="84" r="14" /><circle cx="210" cy="126" r="14" /></g><g font-size="9" font-family="Verdana" fill="#888888"><text x="84" y="61" dominant-baseline="central" text-anchor="middle">0</text><text x="140" y="61" dominant-baseline="central" text-anchor="middle">1</text><text x="112" y="-22" dominant-baseline="central" text-anchor="middle">2</text><text x="168" y="19" dominant-baseline="central" text-anchor="middle">3</text><text x="56" y="19" dominant-baseline="central" text-anchor="middle">4</text><text x="98" y="103" dominant-baseline="central" text-anchor="middle">5</text><text x="28" y="61" dominant-baseline="central" text-anchor="middle">6</text><text x="70" y="103" dominant-baseline="central" text-anchor="middle">7</text><text x="196" y="61" dominant-baseline="central" text-anchor="middle">8</text><text x="210" y="103" dominant-baseline="central" text-anchor="middle">9</text></g></g><g transform="translate(28,30) scale(1)"><g class="flash_g" fill="#ffa0a0" stroke="#ffa0a0" stroke-width="1"><circle cx="210" cy="126" r="14" /></g></g><g transform="translate(28,30) scale(1)"><g stroke-width="0"></g><g font-size="14" font-family="sans-serif" fill="#888888"><text x="84" y="84" dominant-baseline="central" text-anchor="middle">4</text><text x="140" y="84" dominant-baseline="central" text-anchor="middle">8</text><text x="112" y="0" dominant-baseline="central" text-anchor="middle">1</text><text x="168" y="42" dominant-baseline="central" text-anchor="middle">7</text><text x="56" y="42" dominant-baseline="central" text-anchor="middle">2</text><text x="98" y="126" dominant-baseline="central" text-anchor="middle">6</text><text x="28" y="84" dominant-baseline="central" text-anchor="middle">3</text><text x="70" y="126" dominant-baseline="central" text-anchor="middle">5</text><text x="196" y="84" dominant-baseline="central" text-anchor="middle">9</text><text x="210" y="126" dominant-baseline="central" text-anchor="middle">10</text></g><g font-size="14" font-family="sans-serif" fill="#ffffff"><text x="-28" y="0" dominant-baseline="central" text-anchor="middle">label</text></g></g></g><text x="608" y="452" font-size="16" text-anchor="middle" fill="#888888" font-family="sans-serif" >11</text></svg>

