<?xml version="1.0" encoding="UTF-8" standalone="no"?>
<svg
xmlns:svg="http://www.w3.org/2000/svg"
xmlns="http://www.w3.org/2000/svg"
xmlns:xlink="http://www.w3.org/1999/xlink"
width ="280"
height ="200"
viewBox ="0 0 280 200"
>
<defs><polygon points="0,0 6,8, 0,16 20,8" id="m_tmpl2"/><marker id="token_arrow"  markerUnits="userSpaceOnUse" markerWidth="20" markerHeight="16" viewBox="0 0 20 16" refX="14" refY="8" orient="auto"><use xlink:href="#m_tmpl2" fill="#60a0ff"/></marker></defs><defs><polygon points="0,0 0,4 0,8 12,4" id="m_tmpl3"/><marker id="link_arrow" markerUnits="strokeWidth" markerWidth="12" markerHeight="8" viewBox="0 0 12 8" refX="12" refY="4" orient="auto"><use xlink:href="#m_tmpl3" fill="#888888"/></marker></defs><g transform="translate(12,12) scale(1)"><g fill="#ffffff" stroke="#a0a0a0" stroke-width="1"><line x1="20" y1="70" x2="60" y2="50" stroke-linecap="round"/><line x1="20" y1="70" x2="60" y2="140" stroke-linecap="round"/><line x1="60" y1="50" x2="20" y2="70" stroke-linecap="round"/><line x1="60" y1="50" x2="60" y2="140" stroke-linecap="round"/><line x1="60" y1="140" x2="60" y2="50" stroke-linecap="round"/><line x1="60" y1="140" x2="20" y2="70" stroke-linecap="round"/><line x1="100" y1="90" x2="150" y2="130" stroke-linecap="round"/><line x1="150" y1="130" x2="100" y2="90" stroke-linecap="round"/><line x1="140" y1="50" x2="180" y2="30" stroke-linecap="round"/><line x1="140" y1="50" x2="210" y2="150" stroke-linecap="round"/><line x1="140" y1="50" x2="220" y2="90" stroke-linecap="round"/><line x1="180" y1="30" x2="140" y2="50" stroke-linecap="round"/><line x1="180" y1="30" x2="220" y2="90" stroke-linecap="round"/><line x1="220" y1="90" x2="180" y2="30" stroke-linecap="round"/><line x1="220" y1="90" x2="210" y2="150" stroke-linecap="round"/><line x1="220" y1="90" x2="140" y2="50" stroke-linecap="round"/><line x1="210" y1="150" x2="220" y2="90" stroke-linecap="round"/><line x1="210" y1="150" x2="140" y2="50" stroke-linecap="round"/><circle cx="20" cy="70" r="14" /><circle cx="60" cy="50" r="14" /><circle cx="60" cy="140" r="14" /><circle cx="100" cy="90" r="14" /><circle cx="150" cy="130" r="14" /><circle cx="140" cy="50" r="14" /><circle cx="180" cy="30" r="14" /><circle cx="220" cy="90" r="14" /><circle cx="210" cy="150" r="14" /></g><g font-size="9" font-family="Verdana" fill="#888888"><text id="" x="20" y="44" dominant-baseline="central" text-anchor="middle">0</text><text id="" x="60" y="24" dominant-baseline="central" text-anchor="middle">1</text><text id="" x="60" y="114" dominant-baseline="central" text-anchor="middle">2</text><text id="" x="100" y="64" dominant-baseline="central" text-anchor="middle">3</text><text id="" x="150" y="104" dominant-baseline="central" text-anchor="middle">4</text><text id="" x="140" y="24" dominant-baseline="central" text-anchor="middle">5</text><text id="" x="180" y="4" dominant-baseline="central" text-anchor="middle">6</text><text id="" x="220" y="64" dominant-baseline="central" text-anchor="middle">7</text><text id="" x="210" y="124" dominant-baseline="central" text-anchor="middle">8</text></g></g><g transform="translate(252,28) scale(1)"><g fill="#ffffff" stroke="#a0a0a0" stroke-width="1"><rect x="-14" y="-14" width="28" height="28" rx="4" ry="4" /></g></g><g transform="translate(252,28) scale(1)"><g stroke-width="0"><circle cx="0" cy="0" r="10" fill="#f0f080" id="var_palette_13__0" /></g><g font-size="14" font-family="sans-serif" fill="#888888"><text id="text_palette_13__0" x="0" y="0" dominant-baseline="central" text-anchor="middle">3</text></g></g><g transform="translate(12,12) scale(1)"><g stroke-width="0"><circle cx="20" cy="70" r="10" fill="#b8e8ff" id="var_color_13__0" /><circle cx="60" cy="50" r="10" fill="#b8e8ff" id="var_color_13__1" /><circle cx="60" cy="140" r="10" fill="#b8e8ff" id="var_color_13__2" /><circle cx="100" cy="90" r="10" fill="#c0e040" id="var_color_13__3" /><circle cx="150" cy="130" r="10" fill="#c0e040" id="var_color_13__4" /><circle cx="140" cy="50" r="10" fill="#f0f080" id="var_color_13__5" /><circle cx="180" cy="30" r="10" fill="#f0f080" id="var_color_13__6" /><circle cx="220" cy="90" r="10" fill="#f0f080" id="var_color_13__7" /><circle cx="210" cy="150" r="10" fill="#f0f080" id="var_color_13__8" /></g><g font-size="14" font-family="sans-serif" fill="#888888"><text id="text_color_13__0" x="20" y="70" dominant-baseline="central" text-anchor="middle">1</text><text id="text_color_13__1" x="60" y="50" dominant-baseline="central" text-anchor="middle">1</text><text id="text_color_13__2" x="60" y="140" dominant-baseline="central" text-anchor="middle">1</text><text id="text_color_13__3" x="100" y="90" dominant-baseline="central" text-anchor="middle">2</text><text id="text_color_13__4" x="150" y="130" dominant-baseline="central" text-anchor="middle">2</text><text id="text_color_13__5" x="140" y="50" dominant-baseline="central" text-anchor="middle">3</text><text id="text_color_13__6" x="180" y="30" dominant-baseline="central" text-anchor="middle">3</text><text id="text_color_13__7" x="220" y="90" dominant-baseline="central" text-anchor="middle">3</text><text id="text_color_13__8" x="210" y="150" dominant-baseline="central" text-anchor="middle">3</text></g></g></svg>

