<?xml version="1.0" encoding="UTF-8" standalone="no"?>
<svg
xmlns:svg="http://www.w3.org/2000/svg"
xmlns="http://www.w3.org/2000/svg"
xmlns:xlink="http://www.w3.org/1999/xlink"
viewBox ="0 0 280 260"
>
<animateMotion/><defs><polygon points="0,0 6,8, 0,16 20,8" id="m_tmpl2"/><marker id="token_arrow"  markerUnits="userSpaceOnUse" markerWidth="20" markerHeight="16" viewBox="0 0 20 16" refX="14" refY="8" orient="auto"><use xlink:href="#m_tmpl2" fill="#60a0ff"/></marker></defs><defs><polygon points="0,0 0,4 0,8 12,4" id="m_tmpl3"/><marker id="link_arrow" markerUnits="strokeWidth" markerWidth="12" markerHeight="8" viewBox="0 0 12 8" refX="12" refY="4" orient="auto"><use xlink:href="#m_tmpl3" fill="#888888"/></marker></defs><rect x ="0" y="0" width="280" height="260" fill="#ffffff" stroke="#a0a0a0" stroke-width="0"/><g transform="translate(32,20) scale(1)"><g stroke="#F0F8FF" stroke-width="0" fill="#F0F8FF"><circle cx="100" cy="20" r="16" /></g><g stroke="#F0F8FF" stroke-width="32" fill="#F0F8FF"></g></g><g transform="translate(32,20) scale(1)"><g stroke="#c8e8ff" stroke-width="0" fill="#c8e8ff"></g><g stroke="#c8e8ff" stroke-width="32" fill="#c8e8ff"></g></g><g transform="translate(32,20) scale(1)"><g fill="none" stroke="#a0a0a0" stroke-width="1"><path d="M 92.9289 27.0711 Q 80 40 67.0711 52.9289"  marker-end="url(#link_arrow)"/><path d="M 100 30 Q 100 60 100 90"  marker-end="url(#link_arrow)"/><path d="M 107.071 27.0711 Q 120 40 132.929 52.9289"  marker-end="url(#link_arrow)"/><path d="M 67.0711 67.0711 Q 80 80 92.9289 92.9289"  marker-end="url(#link_arrow)"/><path d="M 147.071 67.0711 Q 160 80 172.929 92.9289"  marker-end="url(#link_arrow)"/><path d="M 30 100 Q 60 100 90 100"  marker-end="url(#link_arrow)"/><path d="M 110 100 Q 140 100 170 100"  marker-end="url(#link_arrow)"/></g><g fill="#ffffff" stroke="#a0a0a0" stroke-width="1"><circle cx="100" cy="20" r="10" /><circle cx="60" cy="60" r="10" /><circle cx="140" cy="60" r="10" /><circle cx="20" cy="100" r="10" /><circle cx="100" cy="100" r="10" /><circle cx="180" cy="100" r="10" /></g><g font-size="9" font-family="Verdana" fill="#888888"><text id="" x="100" y="2" dominant-baseline="central" text-anchor="middle">0</text><text id="" x="60" y="42" dominant-baseline="central" text-anchor="middle">1</text><text id="" x="140" y="42" dominant-baseline="central" text-anchor="middle">2</text><text id="" x="20" y="82" dominant-baseline="central" text-anchor="middle">3</text><text id="" x="100" y="82" dominant-baseline="central" text-anchor="middle">4</text><text id="" x="180" y="82" dominant-baseline="central" text-anchor="middle">5</text></g></g><g transform="translate(32,20) scale(1)"><g class="flash_g" fill="#ff1493" stroke="#ff1493" stroke-width="1"><circle cx="100" cy="20" r="10" /></g><g fill="none" stroke="#a0a0a0" stroke-width="1"><circle cx="100" cy="20" r="10" /></g></g><text x="16" y="20" font-size="16" text-anchor="middle" fill="#888888" font-family="sans-serif" >1-1</text><text x="140" y="244" font-size="9" text-anchor="middle"  font-family="Hiragino Kaku Gothic ProN, メイリオ, sans-serif">走訪節點 0。</text></svg>

