<?xml version="1.0" encoding="UTF-8" standalone="no"?>
<svg
xmlns:svg="http://www.w3.org/2000/svg"
xmlns="http://www.w3.org/2000/svg"
xmlns:xlink="http://www.w3.org/1999/xlink"
width ="480"
height ="200"
viewBox ="0 0 480 200"
>
<defs><polygon points="0,0 6,8, 0,16 20,8" id="m_tmpl2"/><marker id="token_arrow"  markerUnits="userSpaceOnUse" markerWidth="20" markerHeight="16" viewBox="0 0 20 16" refX="14" refY="8" orient="auto"><use xlink:href="#m_tmpl2" fill="#60a0ff"/></marker></defs><defs><polygon points="0,0 0,4 0,8 12,4" id="m_tmpl3"/><marker id="link_arrow" markerUnits="strokeWidth" markerWidth="12" markerHeight="8" viewBox="0 0 12 8" refX="12" refY="4" orient="auto"><use xlink:href="#m_tmpl3" fill="#888888"/></marker></defs><g transform="translate(86,140) scale(1)"><g fill="#ffffff" stroke="#a0a0a0" stroke-width="1"><rect x="-14" y="-14" width="28" height="28" rx="4" ry="4" /><rect x="18" y="-14" width="28" height="28" rx="4" ry="4" /><rect x="50" y="-14" width="28" height="28" rx="4" ry="4" /><rect x="82" y="-14" width="28" height="28" rx="4" ry="4" /><rect x="114" y="-14" width="28" height="28" rx="4" ry="4" /><rect x="146" y="-14" width="28" height="28" rx="4" ry="4" /><rect x="178" y="-14" width="28" height="28" rx="4" ry="4" /><rect x="210" y="-14" width="28" height="28" rx="4" ry="4" /><rect x="242" y="-14" width="28" height="28" rx="4" ry="4" /><rect x="274" y="-14" width="28" height="28" rx="4" ry="4" /><rect x="306" y="-14" width="28" height="28" rx="4" ry="4" /><rect x="338" y="-14" width="28" height="28" rx="4" ry="4" /></g></g><g transform="translate(86,140) scale(1)"><g stroke-width="0"><circle cx="0" cy="0" r="10" fill="#6CACFF" id="var_A_3__0" /><circle cx="32" cy="0" r="10" fill="#85C5FF" id="var_A_3__1" /><circle cx="64" cy="0" r="10" fill="#4484F4" id="var_A_3__2" /><circle cx="96" cy="0" r="10" fill="#62A2FF" id="var_A_3__3" /><circle cx="128" cy="0" r="10" fill="#71B1FF" id="var_A_3__4" /><circle cx="160" cy="0" r="10" fill="#67A7FF" id="var_A_3__5" /><circle cx="192" cy="0" r="10" fill="#5393FF" id="var_A_3__6" /><circle cx="224" cy="0" r="10" fill="#76B6FF" id="var_A_3__7" /><circle cx="256" cy="0" r="10" fill="#80C0FF" id="var_A_3__8" /><circle cx="288" cy="0" r="10" fill="#7BBBFF" id="var_A_3__9" /><circle cx="320" cy="0" r="10" fill="#4E8EFE" id="var_A_3__10" /><circle cx="352" cy="0" r="10" fill="#8ACAFF" id="var_A_3__11" /></g><g font-size="14" font-family="sans-serif" fill="#ffffff"><text id="text_A_3__0" x="0" y="0" dominant-baseline="central" text-anchor="middle">7</text><text id="text_A_3__1" x="32" y="0" dominant-baseline="central" text-anchor="middle">2</text><text id="text_A_3__2" x="64" y="0" dominant-baseline="central" text-anchor="middle">15</text><text id="text_A_3__3" x="96" y="0" dominant-baseline="central" text-anchor="middle">9</text><text id="text_A_3__4" x="128" y="0" dominant-baseline="central" text-anchor="middle">6</text><text id="text_A_3__5" x="160" y="0" dominant-baseline="central" text-anchor="middle">8</text><text id="text_A_3__6" x="192" y="0" dominant-baseline="central" text-anchor="middle">12</text><text id="text_A_3__7" x="224" y="0" dominant-baseline="central" text-anchor="middle">5</text><text id="text_A_3__8" x="256" y="0" dominant-baseline="central" text-anchor="middle">3</text><text id="text_A_3__9" x="288" y="0" dominant-baseline="central" text-anchor="middle">4</text><text id="text_A_3__10" x="320" y="0" dominant-baseline="central" text-anchor="middle">13</text><text id="text_A_3__11" x="352" y="0" dominant-baseline="central" text-anchor="middle">1</text></g><g font-size="14" font-family="sans-serif" fill="#4080f0"><text id="" x="-28" y="0" dominant-baseline="central" text-anchor="end">A</text></g></g></svg>

