<?xml version="1.0" encoding="UTF-8" standalone="no"?>
<svg
xmlns:svg="http://www.w3.org/2000/svg"
xmlns="http://www.w3.org/2000/svg"
xmlns:xlink="http://www.w3.org/1999/xlink"
viewBox ="0 0 280 200"
>
<defs><polygon points="0,0 6,8, 0,16 20,8" id="m_tmpl2"/><marker id="token_arrow"  markerUnits="userSpaceOnUse" markerWidth="20" markerHeight="16" viewBox="0 0 20 16" refX="14" refY="8" orient="auto"><use xlink:href="#m_tmpl2" fill="#60a0ff"/></marker></defs><defs><polygon points="0,0 0,4 0,8 12,4" id="m_tmpl3"/><marker id="link_arrow" markerUnits="strokeWidth" markerWidth="12" markerHeight="8" viewBox="0 0 12 8" refX="12" refY="4" orient="auto"><use xlink:href="#m_tmpl3" fill="#888888"/></marker></defs><rect x ="0" y="0" width="280" height="200" fill="#ffffff" stroke="#a0a0a0" stroke-width="0"/><g transform="translate(84,140) scale(1)"><g fill="#98FB98" stroke-width="0"><rect x="76" y="-19" width="71" height="38" /></g></g><g transform="translate(260,20) scale(1)"><g fill="#ffffff" stroke="#a0a0a0" stroke-width="1"><path d="M -14 0 L 0-14 L 14 0 L 0 14 L -14 0 z" /></g></g><g transform="translate(84,140) scale(1)"><g fill="#ffffff" stroke="#a0a0a0" stroke-width="1"><rect x="-14" y="-14" width="28" height="28" rx="4" ry="4" /><rect x="18" y="-14" width="28" height="28" rx="4" ry="4" /><rect x="50" y="-14" width="28" height="28" rx="4" ry="4" /><rect x="82" y="-14" width="28" height="28" rx="4" ry="4" /><rect x="114" y="-14" width="28" height="28" rx="4" ry="4" /></g></g><g transform="translate(84,140) scale(1)"><g class="flash_g" fill="#ffffff" stroke="#ff1493" stroke-width="2"><rect x="82" y="-14" width="28" height="28" rx="4" ry="4" /><rect x="114" y="-14" width="28" height="28" rx="4" ry="4" /></g></g><g transform="translate(260,20) scale(1)"><g class="flash_g" fill="#ffffff" stroke="#ff1493" stroke-width="1"  ><path d="M 0 -14 L -14 0 L 0 14 z" fill="#ff1493" stroke-width="0" /></g><g fill="none" stroke="#a0a0a0" stroke-width="1"><path d="M 0 -14 L 14 0 L 0 14 L -14 0 z"  /></g></g><g transform="translate(84,140) scale(1)"><g stroke-width="0"><circle cx="0" cy="0" r="10" fill="#60A0FF" id="var_A_2__0" /><circle cx="32" cy="0" r="10" fill="#5393FF" id="var_A_2__1" /><circle cx="64" cy="0" r="10" fill="#4080F0" id="var_A_2__2" /><circle cx="96" cy="0" r="10" fill="#6EAEFF" id="var_A_2__3" /><circle cx="128" cy="0" r="10" fill="#74B4FF" id="var_A_2__4" /></g><g font-size="14" font-family="sans-serif" fill="#ffffff"><text id="text_A_2__0" x="0" y="0" dominant-baseline="central" text-anchor="middle">7</text><text id="text_A_2__1" x="32" y="0" dominant-baseline="central" text-anchor="middle">9</text><text id="text_A_2__2" x="64" y="0" dominant-baseline="central" text-anchor="middle">12</text><text id="text_A_2__3" x="96" y="0" dominant-baseline="central" text-anchor="middle">5</text><text id="text_A_2__4" x="128" y="0" dominant-baseline="central" text-anchor="middle">4</text></g><g font-size="14" font-family="sans-serif" fill="#4080f0"><text id="" x="-28" y="0" dominant-baseline="central" text-anchor="end">A</text></g></g><g transform="translate(84,140) scale(1)"><g fill="#4080f0" stroke-width="0"><rect x="-10" y="-76" width="20" height="40" opacity="0.583333" rx="2" ry="2" id="bar_A_0" /><rect x="22" y="-88" width="20" height="52" opacity="0.75" rx="2" ry="2" id="bar_A_1" /><rect x="54" y="-106" width="20" height="70" opacity="1" rx="2" ry="2" id="bar_A_2" /><rect x="86" y="-65" width="20" height="29" opacity="0.416667" rx="2" ry="2" id="bar_A_3" /><rect x="118" y="-59" width="20" height="23" opacity="0.333333" rx="2" ry="2" id="bar_A_4" /></g></g><text x="16" y="20" font-size="16" text-anchor="middle" fill="#888888" font-family="sans-serif" >2-1</text><text x="140" y="184" font-size="9" text-anchor="middle"  font-family="Hiragino Kaku Gothic ProN, メイリオ, sans-serif">隣り合う要素を比較します。if A[3] &gt; A[4]:</text></svg>

