<?xml version="1.0" encoding="UTF-8" standalone="no"?>
<svg
xmlns:svg="http://www.w3.org/2000/svg"
xmlns="http://www.w3.org/2000/svg"
xmlns:xlink="http://www.w3.org/1999/xlink"
viewBox ="0 0 280 200"
>
<animateMotion/><defs><polygon points="0,0 6,8, 0,16 20,8" id="m_tmpl2"/><marker id="token_arrow"  markerUnits="userSpaceOnUse" markerWidth="20" markerHeight="16" viewBox="0 0 20 16" refX="14" refY="8" orient="auto"><use xlink:href="#m_tmpl2" fill="#60a0ff"/></marker></defs><defs><polygon points="0,0 0,4 0,8 12,4" id="m_tmpl3"/><marker id="link_arrow" markerUnits="strokeWidth" markerWidth="12" markerHeight="8" viewBox="0 0 12 8" refX="12" refY="4" orient="auto"><use xlink:href="#m_tmpl3" fill="#888888"/></marker></defs><rect x ="0" y="0" width="280" height="200" fill="#ffffff" stroke="#a0a0a0" stroke-width="0"/><g transform="translate(28,16) scale(1)"><g fill="#ffffff" stroke="#a0a0a0" stroke-width="1"><line x1="0" y1="0" x2="224" y2="0"/><line x1="0" y1="56" x2="224" y2="56"/><line x1="0" y1="112" x2="224" y2="112"/><line x1="0" y1="168" x2="224" y2="168"/><line x1="0" y1="0" x2="0" y2="168"/><line x1="56" y1="0" x2="56" y2="168"/><line x1="112" y1="0" x2="112" y2="168"/><line x1="168" y1="0" x2="168" y2="168"/><line x1="224" y1="0" x2="224" y2="168"/><circle cx="0" cy="0" r="14" /><circle cx="56" cy="0" r="14" /><circle cx="112" cy="0" r="14" /><circle cx="168" cy="0" r="14" /><circle cx="224" cy="0" r="14" /><circle cx="0" cy="56" r="14" /><circle cx="56" cy="56" r="14" /><circle cx="112" cy="56" r="14" /><circle cx="168" cy="56" r="14" /><circle cx="224" cy="56" r="14" /><circle cx="0" cy="112" r="14" /><circle cx="56" cy="112" r="14" /><circle cx="112" cy="112" r="14" /><circle cx="168" cy="112" r="14" /><circle cx="224" cy="112" r="14" /><circle cx="0" cy="168" r="14" /><circle cx="56" cy="168" r="14" /><circle cx="112" cy="168" r="14" /><circle cx="168" cy="168" r="14" /><circle cx="224" cy="168" r="14" /></g></g><g transform="translate(28,16) scale(1)"><g class="flash_g" fill="#ff1493" stroke="#ff1493" stroke-width="1"><circle cx="0" cy="0" r="14" /></g><g fill="none" stroke="#a0a0a0" stroke-width="1"><circle cx="0" cy="0" r="14" /></g></g><g transform="translate(28,16) scale(1)"><g class="flash_g" fill="#ffffff" stroke="#ff1493" stroke-width="2"><circle cx="0" cy="0" r="14" /></g></g><g transform="translate(28,16) scale(1)"><g class="flash_g" fill="#ffffff" stroke="#ff1493" stroke-width="2"><circle cx="0" cy="0" r="14" /></g></g><g transform="translate(28,16) scale(1)"><g stroke-width="0"><circle cx="0" cy="0" r="10" fill="#88C8FF" id="var__3__0" /><circle cx="56" cy="0" r="10" fill="#88C8FF" id="var__3__1" /><circle cx="112" cy="0" r="10" fill="#88C8FF" id="var__3__2" /><circle cx="168" cy="0" r="10" fill="#88C8FF" id="var__3__3" /><circle cx="224" cy="0" r="10" fill="#88C8FF" id="var__3__4" /><circle cx="0" cy="56" r="10" fill="#81C1FF" id="var__3__5" /><circle cx="56" cy="56" r="10" fill="#8FCFFF" id="var__3__6" /><circle cx="112" cy="56" r="10" fill="#8FCFFF" id="var__3__7" /><circle cx="168" cy="56" r="10" fill="#88C8FF" id="var__3__8" /><circle cx="224" cy="56" r="10" fill="#7BBBFF" id="var__3__9" /><circle cx="0" cy="112" r="10" fill="#8FCFFF" id="var__3__10" /><circle cx="56" cy="112" r="10" fill="#8FCFFF" id="var__3__11" /><circle cx="112" cy="112" r="10" fill="#88C8FF" id="var__3__12" /><circle cx="168" cy="112" r="10" fill="#8FCFFF" id="var__3__13" /><circle cx="224" cy="112" r="10" fill="#8FCFFF" id="var__3__14" /><circle cx="0" cy="168" r="10" fill="#8FCFFF" id="var__3__15" /><circle cx="56" cy="168" r="10" fill="#88C8FF" id="var__3__16" /><circle cx="112" cy="168" r="10" fill="#8FCFFF" id="var__3__17" /><circle cx="168" cy="168" r="10" fill="#8FCFFF" id="var__3__18" /><circle cx="224" cy="168" r="10" fill="#8FCFFF" id="var__3__19" /></g><g font-size="14" font-family="sans-serif" fill="#ffffff"><text id="text__3__0" x="0" y="0" dominant-baseline="central" text-anchor="middle">1</text><text id="text__3__1" x="56" y="0" dominant-baseline="central" text-anchor="middle">1</text><text id="text__3__2" x="112" y="0" dominant-baseline="central" text-anchor="middle">1</text><text id="text__3__3" x="168" y="0" dominant-baseline="central" text-anchor="middle">1</text><text id="text__3__4" x="224" y="0" dominant-baseline="central" text-anchor="middle">1</text><text id="text__3__5" x="0" y="56" dominant-baseline="central" text-anchor="middle">2</text><text id="text__3__6" x="56" y="56" dominant-baseline="central" text-anchor="middle">0</text><text id="text__3__7" x="112" y="56" dominant-baseline="central" text-anchor="middle">0</text><text id="text__3__8" x="168" y="56" dominant-baseline="central" text-anchor="middle">1</text><text id="text__3__9" x="224" y="56" dominant-baseline="central" text-anchor="middle">3</text><text id="text__3__10" x="0" y="112" dominant-baseline="central" text-anchor="middle">0</text><text id="text__3__11" x="56" y="112" dominant-baseline="central" text-anchor="middle">0</text><text id="text__3__12" x="112" y="112" dominant-baseline="central" text-anchor="middle">1</text><text id="text__3__13" x="168" y="112" dominant-baseline="central" text-anchor="middle">0</text><text id="text__3__14" x="224" y="112" dominant-baseline="central" text-anchor="middle">0</text><text id="text__3__15" x="0" y="168" dominant-baseline="central" text-anchor="middle">0</text><text id="text__3__16" x="56" y="168" dominant-baseline="central" text-anchor="middle">1</text><text id="text__3__17" x="112" y="168" dominant-baseline="central" text-anchor="middle">0</text><text id="text__3__18" x="168" y="168" dominant-baseline="central" text-anchor="middle">0</text><text id="text__3__19" x="224" y="168" dominant-baseline="central" text-anchor="middle">0</text></g><g font-size="14" font-family="sans-serif" fill="#4080f0"><text id="" x="-28" y="0" dominant-baseline="central" text-anchor="end"></text></g></g><text x="16" y="20" font-size="16" text-anchor="middle" fill="#888888" font-family="sans-serif" >1-3</text></svg>

