<?xml version="1.0" encoding="UTF-8" standalone="no"?>
<svg
xmlns:svg="http://www.w3.org/2000/svg"
xmlns="http://www.w3.org/2000/svg"
xmlns:xlink="http://www.w3.org/1999/xlink"
viewBox ="0 0 280 200"
>
<defs><polygon points="0,0 6,8, 0,16 20,8" id="m_tmpl2"/><marker id="token_arrow"  markerUnits="userSpaceOnUse" markerWidth="20" markerHeight="16" viewBox="0 0 20 16" refX="14" refY="8" orient="auto"><use xlink:href="#m_tmpl2" fill="#60a0ff"/></marker></defs><defs><polygon points="0,0 0,4 0,8 12,4" id="m_tmpl3"/><marker id="link_arrow" markerUnits="strokeWidth" markerWidth="12" markerHeight="8" viewBox="0 0 12 8" refX="12" refY="4" orient="auto"><use xlink:href="#m_tmpl3" fill="#888888"/></marker></defs><rect x ="0" y="0" width="280" height="200" fill="#ffffff" stroke="#a0a0a0" stroke-width="0"/><g transform="translate(42,130) scale(0.9)"><g fill="#b0f0ff" stroke-width="0"><rect x="-19" y="-19" width="70" height="38" /></g></g><g transform="translate(42,130) scale(0.9)"><g fill="#a0d0f0" stroke-width="0"><rect x="44" y="-19" width="71" height="38" /></g></g><g transform="translate(42,130) scale(0.9)"><g fill="#ffffff" stroke="#a0a0a0" stroke-width="1"><rect x="-14" y="-14" width="28" height="28" rx="4" ry="4" /><rect x="18" y="-14" width="28" height="28" rx="4" ry="4" /><rect x="50" y="-14" width="28" height="28" rx="4" ry="4" /><rect x="82" y="-14" width="28" height="28" rx="4" ry="4" /><rect x="114" y="-14" width="28" height="28" rx="4" ry="4" /><rect x="146" y="-14" width="28" height="28" rx="4" ry="4" /><rect x="178" y="-14" width="28" height="28" rx="4" ry="4" /><rect x="210" y="-14" width="28" height="28" rx="4" ry="4" /></g><g font-size="9" font-family="Verdana" fill="#888888"><text id="" x="0" y="-22" dominant-baseline="central" text-anchor="middle">0</text><text id="" x="32" y="-22" dominant-baseline="central" text-anchor="middle">1</text><text id="" x="64" y="-22" dominant-baseline="central" text-anchor="middle">2</text><text id="" x="96" y="-22" dominant-baseline="central" text-anchor="middle">3</text><text id="" x="128" y="-22" dominant-baseline="central" text-anchor="middle">4</text><text id="" x="160" y="-22" dominant-baseline="central" text-anchor="middle">5</text><text id="" x="192" y="-22" dominant-baseline="central" text-anchor="middle">6</text><text id="" x="224" y="-22" dominant-baseline="central" text-anchor="middle">7</text></g></g><g transform="translate(252,28) scale(1)"><g fill="#ffffff" stroke="#a0a0a0" stroke-width="1"><path d="M -14 0 L 0-14 L 14 0 L 0 14 L -14 0 z" /></g></g><g transform="translate(42,130) scale(0.9)"><g class="flash_g" fill="#ff1493" stroke="#ff1493" stroke-width="1"><rect x="18" y="-14" width="28" height="28" rx="4" ry="4" /><rect x="82" y="-14" width="28" height="28" rx="4" ry="4" /></g><g fill="none" stroke="#a0a0a0" stroke-width="1"><rect x="18" y="-14" width="28" height="28" rx="4" ry="4" /><rect x="82" y="-14" width="28" height="28" rx="4" ry="4" /></g></g><g transform="translate(42,130) scale(0.9)"><g class="flash_g" transform="translate(32,14) rotate(180)" fill="#87CEFA"><path d="M 0 0 L 8 -10 L 4 -10 L 4 -26 L -4 -26 L -4 -10 L -8 -10 z"/></g></g><g transform="translate(42,130) scale(0.9)"><g transform="translate(96,14) rotate(180)" fill="#6495ED"><path d="M 0 0 L 8 -10 L 4 -10 L 4 -26 L -4 -26 L -4 -10 L -8 -10 z"/></g></g><g transform="translate(42,130) scale(0.9)"><g stroke-width="0"><circle cx="0" cy="0" r="10" fill="#88C8FF" id="var_A_9__0" /><circle cx="32" cy="0" r="10" fill="#6EAEFF" id="var_A_9__1" /><circle cx="64" cy="0" r="10" fill="#4080F0" id="var_A_9__2" /><circle cx="96" cy="0" r="10" fill="#5393FF" id="var_A_9__3" /><circle cx="128" cy="0" r="10" fill="#74B4FF" id="var_A_9__4" /><circle cx="160" cy="0" r="10" fill="#4D8DFD" id="var_A_9__5" /><circle cx="192" cy="0" r="10" fill="#67A7FF" id="var_A_9__6" /><circle cx="224" cy="0" r="10" fill="#5A9AFF" id="var_A_9__7" /></g><g font-size="14" font-family="sans-serif" fill="#ffffff"><text id="text_A_9__0" x="0" y="0" dominant-baseline="central" text-anchor="middle">1</text><text id="text_A_9__1" x="32" y="0" dominant-baseline="central" text-anchor="middle">5</text><text id="text_A_9__2" x="64" y="0" dominant-baseline="central" text-anchor="middle">12</text><text id="text_A_9__3" x="96" y="0" dominant-baseline="central" text-anchor="middle">9</text><text id="text_A_9__4" x="128" y="0" dominant-baseline="central" text-anchor="middle">4</text><text id="text_A_9__5" x="160" y="0" dominant-baseline="central" text-anchor="middle">10</text><text id="text_A_9__6" x="192" y="0" dominant-baseline="central" text-anchor="middle">6</text><text id="text_A_9__7" x="224" y="0" dominant-baseline="central" text-anchor="middle">8</text></g><g font-size="14" font-family="sans-serif" fill="#4080f0"><text id="" x="-28" y="0" dominant-baseline="central" text-anchor="end">A</text></g><animateMotion xlink:href="#var_A_9__3" path="M -64,0 Q -32,32 0,0" dur="0.9s" repeatCount="1"/><animateMotion xlink:href="#text_A_9__3" path="M -64,0 Q -32,32 0,0" dur="0.9s" repeatCount="1"/><g fill="none" stroke="#60a0ff" stroke-width="4" stroke-linecap="round" stroke-dasharray="0.1, 8"><path class="for_print" d="M 41.8995 9.89949 Q 64 32 86.1005 9.89949"  marker-end="url(#token_arrow)"/></g><animateMotion xlink:href="#var_A_9__1" path="M 64,0 Q 32,-32 0,0" dur="0.9s" repeatCount="1"/><animateMotion xlink:href="#text_A_9__1" path="M 64,0 Q 32,-32 0,0" dur="0.9s" repeatCount="1"/><g fill="none" stroke="#60a0ff" stroke-width="4" stroke-linecap="round" stroke-dasharray="0.1, 8"><path class="for_print" d="M 86.1005 -9.89949 Q 64 -32 41.8995 -9.89949"  marker-end="url(#token_arrow)"/></g></g><g transform="translate(42,130) scale(0.9)"><g fill="#4080f0" stroke-width="0"><rect x="-10" y="-41" width="20" height="5" opacity="0.0833333" rx="2" ry="2" id="bar_A_0" /><rect x="22" y="-65" width="20" height="29" opacity="0.416667" rx="2" ry="2" id="bar_A_1" /><rect x="54" y="-106" width="20" height="70" opacity="1" rx="2" ry="2" id="bar_A_2" /><rect x="86" y="-88" width="20" height="52" opacity="0.75" rx="2" ry="2" id="bar_A_3" /><rect x="118" y="-59" width="20" height="23" opacity="0.333333" rx="2" ry="2" id="bar_A_4" /><rect x="150" y="-94" width="20" height="58" opacity="0.833333" rx="2" ry="2" id="bar_A_5" /><rect x="182" y="-71" width="20" height="35" opacity="0.5" rx="2" ry="2" id="bar_A_6" /><rect x="214" y="-82" width="20" height="46" opacity="0.666667" rx="2" ry="2" id="bar_A_7" /><animateMotion xlink:href="#bar_A_3" path="M-64 0 L 0 0" dur="0.9s" repeatCount="1"/><animateMotion xlink:href="#bar_A_1" path="M64 0 L 0 0" dur="0.9s" repeatCount="1"/></g></g><text x="16" y="20" font-size="16" text-anchor="middle" fill="#888888" font-family="sans-serif" >2-8</text><text x="140" y="184" font-size="9" text-anchor="middle"  font-family="Hiragino Kaku Gothic ProN, メイリオ, sans-serif">スワップして小さいグループに含めます。swap(A[1], A[3])</text></svg>

