<?xml version="1.0" encoding="UTF-8" standalone="no"?>
<svg
xmlns:svg="http://www.w3.org/2000/svg"
xmlns="http://www.w3.org/2000/svg"
xmlns:xlink="http://www.w3.org/1999/xlink"
viewBox ="0 0 380 280"
>
<defs><polygon points="0,0 6,8, 0,16 20,8" id="m_tmpl2"/><marker id="token_arrow"  markerUnits="userSpaceOnUse" markerWidth="20" markerHeight="16" viewBox="0 0 20 16" refX="14" refY="8" orient="auto"><use xlink:href="#m_tmpl2" fill="#60a0ff"/></marker></defs><defs><polygon points="0,0 0,4 0,8 12,4" id="m_tmpl3"/><marker id="link_arrow" markerUnits="strokeWidth" markerWidth="12" markerHeight="8" viewBox="0 0 12 8" refX="12" refY="4" orient="auto"><use xlink:href="#m_tmpl3" fill="#888888"/></marker></defs><rect x ="0" y="0" width="380" height="280" fill="#ffffff" stroke="#a0a0a0" stroke-width="0"/><g transform="translate(78,56) scale(1)"><g stroke="#F0F8FF" stroke-width="0" fill="#F0F8FF"><circle cx="0" cy="0" r="22" /><circle cx="56" cy="0" r="22" /><circle cx="112" cy="0" r="22" /><circle cx="168" cy="0" r="22" /><circle cx="224" cy="0" r="22" /><circle cx="0" cy="56" r="22" /><circle cx="56" cy="56" r="22" /></g><g stroke="#F0F8FF" stroke-width="44.8" fill="#F0F8FF"><line x1="0" y1="0" x2="0" y2="56" stroke-linecap="round"/><line x1="0" y1="0" x2="56" y2="0" stroke-linecap="round"/><line x1="56" y1="0" x2="0" y2="0" stroke-linecap="round"/><line x1="56" y1="0" x2="56" y2="56" stroke-linecap="round"/><line x1="56" y1="0" x2="112" y2="0" stroke-linecap="round"/><line x1="112" y1="0" x2="56" y2="0" stroke-linecap="round"/><line x1="112" y1="0" x2="168" y2="0" stroke-linecap="round"/><line x1="168" y1="0" x2="112" y2="0" stroke-linecap="round"/><line x1="168" y1="0" x2="224" y2="0" stroke-linecap="round"/><line x1="224" y1="0" x2="168" y2="0" stroke-linecap="round"/><line x1="0" y1="56" x2="0" y2="0" stroke-linecap="round"/><line x1="0" y1="56" x2="56" y2="56" stroke-linecap="round"/><line x1="56" y1="56" x2="56" y2="0" stroke-linecap="round"/><line x1="56" y1="56" x2="0" y2="56" stroke-linecap="round"/></g></g><g transform="translate(78,56) scale(1)"><g fill="#ffffff" stroke="#a0a0a0" stroke-width="1"><line x1="0" y1="0" x2="224" y2="0"/><line x1="0" y1="56" x2="224" y2="56"/><line x1="0" y1="112" x2="224" y2="112"/><line x1="0" y1="168" x2="224" y2="168"/><line x1="0" y1="0" x2="0" y2="168"/><line x1="56" y1="0" x2="56" y2="168"/><line x1="112" y1="0" x2="112" y2="168"/><line x1="168" y1="0" x2="168" y2="168"/><line x1="224" y1="0" x2="224" y2="168"/><circle cx="0" cy="0" r="14" /><circle cx="56" cy="0" r="14" /><circle cx="112" cy="0" r="14" /><circle cx="168" cy="0" r="14" /><circle cx="224" cy="0" r="14" /><circle cx="0" cy="56" r="14" /><circle cx="56" cy="56" r="14" /><circle cx="112" cy="56" r="14" /><circle cx="168" cy="56" r="14" /><circle cx="224" cy="56" r="14" /><circle cx="0" cy="112" r="14" /><circle cx="56" cy="112" r="14" /><circle cx="112" cy="112" r="14" /><circle cx="168" cy="112" r="14" /><circle cx="224" cy="112" r="14" /><circle cx="0" cy="168" r="14" /><circle cx="56" cy="168" r="14" /><circle cx="112" cy="168" r="14" /><circle cx="168" cy="168" r="14" /><circle cx="224" cy="168" r="14" /></g></g><g transform="translate(78,56) scale(1)"><g class="flash_g" fill="#ff1493" stroke="#ff1493" stroke-width="1"><circle cx="56" cy="56" r="14" /></g><g fill="none" stroke="#a0a0a0" stroke-width="1"><circle cx="56" cy="56" r="14" /></g></g><g transform="translate(78,56) scale(1)"><g class="flash_g" fill="#ffffff" stroke="#ff1493" stroke-width="2"><circle cx="56" cy="0" r="14" /></g></g><g transform="translate(78,56) scale(1)"><g class="flash_g" fill="#ffffff" stroke="#ff1493" stroke-width="2"><circle cx="0" cy="56" r="14" /></g></g><g transform="translate(78,56) scale(1)"><g stroke-width="0"><circle cx="0" cy="0" r="10" fill="#88C8FF" id="var_P_7__0" /><circle cx="56" cy="0" r="10" fill="#88C8FF" id="var_P_7__1" /><circle cx="112" cy="0" r="10" fill="#88C8FF" id="var_P_7__2" /><circle cx="168" cy="0" r="10" fill="#88C8FF" id="var_P_7__3" /><circle cx="224" cy="0" r="10" fill="#88C8FF" id="var_P_7__4" /><circle cx="0" cy="56" r="10" fill="#88C8FF" id="var_P_7__5" /><circle cx="56" cy="56" r="10" fill="#81C1FF" id="var_P_7__6" /></g><g font-size="14" font-family="sans-serif" fill="#ffffff"><text id="text_P_7__0" x="0" y="0" dominant-baseline="central" text-anchor="middle">1</text><text id="text_P_7__1" x="56" y="0" dominant-baseline="central" text-anchor="middle">1</text><text id="text_P_7__2" x="112" y="0" dominant-baseline="central" text-anchor="middle">1</text><text id="text_P_7__3" x="168" y="0" dominant-baseline="central" text-anchor="middle">1</text><text id="text_P_7__4" x="224" y="0" dominant-baseline="central" text-anchor="middle">1</text><text id="text_P_7__5" x="0" y="56" dominant-baseline="central" text-anchor="middle">1</text><text id="text_P_7__6" x="56" y="56" dominant-baseline="central" text-anchor="middle">2</text></g><circle cx="0" cy="56" r="10" fill="#88C8FF" id="var_P_7__5_copy" /><g font-size="14" font-family="sans-serif" fill="#ffffff"><text id="text_P_7__5_copy" x="0" y="56" dominant-baseline="central" text-anchor="middle">1</text></g><animateMotion xlink:href="#var_P_7__5_copy" fill="freeze" begin="0s;accumulate.end" path="M0 0 L 56 0" dur="0.9s" repeatCount="1"/><animateMotion xlink:href="#text_P_7__5_copy"  fill="freeze" begin="0s;accumulate.end"  path="M0 0 L 56 0" dur="0.9s" repeatCount="1"/><g fill="none" stroke="#60a0ff" stroke-width="4" stroke-linecap="round" stroke-dasharray="0.1, 8"><path class="for_print" d="M 14 56 L 42 56"  marker-end="url(#token_arrow)"/></g><animate xlink:href="#var_P_7__5_copy" calcMode="spline" keyTimes="0;1" keySplines="1.0 0 1.0 1.0" fill="freeze" begin="0s;accumulate.end" from="1" to="0" attributeName="opacity" dur="0.9s" repeatCount="1"/><animate xlink:href="#text_P_7__5_copy" calcMode="spline" keyTimes="0;1" keySplines="1.0 0 1.0 1.0"  fill="freeze" begin="0s;accumulate.end" from="1" to="0" attributeName="opacity" dur="0.9s" repeatCount="1"/><circle cx="56" cy="0" r="10" fill="#88C8FF" id="var_P_7__1_copy" /><g font-size="14" font-family="sans-serif" fill="#ffffff"><text id="text_P_7__1_copy" x="56" y="0" dominant-baseline="central" text-anchor="middle">1</text></g><animateMotion xlink:href="#var_P_7__1_copy" fill="freeze" begin="0s;accumulate.end" path="M0 0 L 0 56" dur="0.9s" repeatCount="1"/><animateMotion xlink:href="#text_P_7__1_copy"  fill="freeze" begin="0s;accumulate.end"  path="M0 0 L 0 56" dur="0.9s" repeatCount="1"/><g fill="none" stroke="#60a0ff" stroke-width="4" stroke-linecap="round" stroke-dasharray="0.1, 8"><path class="for_print" d="M 56 14 L 56 42"  marker-end="url(#token_arrow)"/></g><animate xlink:href="#var_P_7__1_copy" calcMode="spline" keyTimes="0;1" keySplines="1.0 0 1.0 1.0" fill="freeze" begin="0s;accumulate.end" from="1" to="0" attributeName="opacity" dur="0.9s" repeatCount="1"/><animate xlink:href="#text_P_7__1_copy" calcMode="spline" keyTimes="0;1" keySplines="1.0 0 1.0 1.0"  fill="freeze" begin="0s;accumulate.end" from="1" to="0" attributeName="opacity" dur="0.9s" repeatCount="1"/></g><g fill="#aaaaaa" stroke="#aaaaaa"><rect x="221" y="87" width="50" height="50" /><rect x="109" y="143" width="50" height="50" /></g><text x="16" y="20" font-size="16" text-anchor="middle" fill="#888888" font-family="sans-serif" >2-6</text><text x="190" y="264" font-size="9" text-anchor="middle"  font-family="Hiragino Kaku Gothic ProN, メイリオ, sans-serif">現在の点までの経路の数 = 北側の点までの経路の数1 + 西側の点までの経路の数1</text></svg>

