<?xml version="1.0" encoding="UTF-8" standalone="no"?>
<svg
xmlns:svg="http://www.w3.org/2000/svg"
xmlns="http://www.w3.org/2000/svg"
xmlns:xlink="http://www.w3.org/1999/xlink"
width ="280"
height ="260"
viewBox ="0 0 280 260"
>
<defs><polygon points="0,0 6,8, 0,16 20,8" id="m_tmpl2"/><marker id="token_arrow"  markerUnits="userSpaceOnUse" markerWidth="20" markerHeight="16" viewBox="0 0 20 16" refX="14" refY="8" orient="auto"><use xlink:href="#m_tmpl2" fill="#60a0ff"/></marker></defs><defs><polygon points="0,0 0,4 0,8 12,4" id="m_tmpl3"/><marker id="link_arrow" markerUnits="strokeWidth" markerWidth="12" markerHeight="8" viewBox="0 0 12 8" refX="12" refY="4" orient="auto"><use xlink:href="#m_tmpl3" fill="#888888"/></marker></defs><defs><polygon points="0,0 6,6 0,12 18,6" id="m_tmpl2"/><marker id="m_o1" markerUnits="strokeWidth" markerWidth="10" markerHeight="10" viewBox="0 0 18 12" refX="18" refY="6" orient="auto"><use xlink:href="#m_tmpl2" fill="#a0a0a0"/></marker></defs><g transform="translate(0,70) scale(1)"><g fill="#ffffff" stroke="#a0a0a0" stroke-width="1"><path d="M 42 126 Q 42 105 42 84"  marker-end="url(#link_arrow)"/><path d="M 49.2029 57.9951 Q 63 35 76.7971 12.0049"  marker-end="url(#link_arrow)"/><path d="M 84 56 Q 84 35 84 14"  marker-end="url(#link_arrow)"/><path d="M 126 126 Q 126 105 126 84"  marker-end="url(#link_arrow)"/><path d="M 118.797 57.9951 Q 105 35 91.2029 12.0049"  marker-end="url(#link_arrow)"/><circle cx="42" cy="140" r="14" /><circle cx="42" cy="70" r="14" /><circle cx="84" cy="70" r="14" /><circle cx="84" cy="0" r="14" /><circle cx="126" cy="140" r="14" /><circle cx="126" cy="70" r="14" /></g><g font-size="9" font-family="Verdana" fill="#888888"><text x="42" y="117" dominant-baseline="central" text-anchor="middle">0</text><text x="42" y="47" dominant-baseline="central" text-anchor="middle">1</text><text x="84" y="47" dominant-baseline="central" text-anchor="middle">2</text><text x="84" y="-22" dominant-baseline="central" text-anchor="middle">3</text><text x="126" y="117" dominant-baseline="central" text-anchor="middle">4</text><text x="126" y="47" dominant-baseline="central" text-anchor="middle">5</text></g></g><g transform="translate(252,28) scale(1)"><g fill="#ffffff" stroke="#a0a0a0" stroke-width="1"><path d="M -14 0 L 0-14 L 14 0 L 0 14 L -14 0 z" /></g></g><g transform="translate(0,70) scale(1)"><g class="flash_g" fill="#ff1493" stroke="#ff1493" stroke-width="1"></g><g fill="none" stroke="#a0a0a0" stroke-width="1"></g></g><g transform="translate(0,70) scale(1)"><g class="flash_g" fill="#ff8c00" stroke="#ff8c00" stroke-width="1"><circle cx="126" cy="70" r="14" /></g><g fill="none" stroke="#a0a0a0" stroke-width="1"><circle cx="126" cy="70" r="14" /></g></g><g transform="translate(0,70) scale(1)"><g stroke-width="0"><circle cx="42" cy="140" r="10" fill="#8FCFFF" id="var_rank_11__0" /><circle cx="42" cy="70" r="10" fill="#67A7FF" id="var_rank_11__1" /><circle cx="84" cy="70" r="10" fill="#8FCFFF" id="var_rank_11__2" /><circle cx="84" cy="0" r="10" fill="#4080F0" id="var_rank_11__3" /><circle cx="126" cy="140" r="10" fill="#8FCFFF" id="var_rank_11__4" /><circle cx="126" cy="70" r="10" fill="#67A7FF" id="var_rank_11__5" /></g><g font-size="14" font-family="sans-serif" fill="#ffffff"><text id="text_rank_11__0" x="42" y="140" dominant-baseline="central" text-anchor="middle">0</text><text id="text_rank_11__1" x="42" y="70" dominant-baseline="central" text-anchor="middle">1</text><text id="text_rank_11__2" x="84" y="70" dominant-baseline="central" text-anchor="middle">0</text><text id="text_rank_11__3" x="84" y="0" dominant-baseline="central" text-anchor="middle">2</text><text id="text_rank_11__4" x="126" y="140" dominant-baseline="central" text-anchor="middle">0</text><text id="text_rank_11__5" x="126" y="70" dominant-baseline="central" text-anchor="middle">1</text></g></g></svg>

