<?xml version="1.0" encoding="UTF-8" standalone="no"?>
<svg
xmlns:svg="http://www.w3.org/2000/svg"
xmlns="http://www.w3.org/2000/svg"
xmlns:xlink="http://www.w3.org/1999/xlink"
viewBox ="0 0 360 200"
>
<animateMotion/><defs><polygon points="0,0 6,8, 0,16 20,8" id="m_tmpl2"/><marker id="token_arrow"  markerUnits="userSpaceOnUse" markerWidth="20" markerHeight="16" viewBox="0 0 20 16" refX="14" refY="8" orient="auto"><use xlink:href="#m_tmpl2" fill="#60a0ff"/></marker></defs><defs><polygon points="0,0 0,4 0,8 12,4" id="m_tmpl3"/><marker id="link_arrow" markerUnits="strokeWidth" markerWidth="12" markerHeight="8" viewBox="0 0 12 8" refX="12" refY="4" orient="auto"><use xlink:href="#m_tmpl3" fill="#888888"/></marker></defs><rect x ="0" y="0" width="360" height="200" fill="#ffffff" stroke="#a0a0a0" stroke-width="0"/><g transform="translate(10,25) scale(1)"><g stroke="#c8e8ff" stroke-width="0" fill="#c8e8ff"><circle cx="70" cy="140" r="19" /></g><g stroke="#c8e8ff" stroke-width="38.4" fill="#c8e8ff"></g></g><g transform="translate(230,50) scale(1)"><g fill="#c8e8ff" stroke-width="0"><rect x="44" y="-19" width="39" height="134" /></g></g><g transform="translate(230,50) scale(1)"><g fill="#c8e8ff" stroke-width="0"><rect x="-19" y="44" width="134" height="39" /></g></g><g transform="translate(10,25) scale(1)"><g fill="none" stroke="#a0a0a0" stroke-width="1"><path d="M 28.4853 51.5147 Q 45 35 61.5147 18.4853"  marker-end="url(#link_arrow)"/><path d="M 26.36 70.176 Q 45 100 63.64 129.824"  marker-end="url(#link_arrow)"/><path d="M 31.8275 62.0276 Q 90 72 148.173 62.0276"  marker-end="url(#link_arrow)"/><path d="M 78.893 18.057 Q 109.172 45.4899 148.461 56.7059"  marker-end="url(#link_arrow)"/><path d="M 70 128 Q 70 75 70 22"  marker-end="url(#link_arrow)"/><path d="M 80.3542 133.935 Q 122.972 108.969 152.762 69.5717"  marker-end="url(#link_arrow)"/><path d="M 148.173 57.9724 Q 90 48 31.8275 57.9724"  marker-end="url(#link_arrow)"/><path d="M 151.107 51.943 Q 120.828 24.5101 81.539 13.2941"  marker-end="url(#link_arrow)"/><path d="M 149.646 66.0655 Q 107.028 91.0311 77.2376 130.428"  marker-end="url(#link_arrow)"/></g><g fill="#ffffff" stroke="#a0a0a0" stroke-width="1"><circle cx="20" cy="60" r="12" /><circle cx="70" cy="10" r="12" /><circle cx="70" cy="140" r="12" /><circle cx="160" cy="60" r="12" /><rect x="39" y="29" width="12" height="12" rx="2" ry="2" /><rect x="39" y="94" width="12" height="12" rx="2" ry="2" /><rect x="84" y="60" width="12" height="12" rx="2" ry="2" /><rect x="106" y="34" width="12" height="12" rx="2" ry="2" /><rect x="64" y="69" width="12" height="12" rx="2" ry="2" /><rect x="112" y="98" width="12" height="12" rx="2" ry="2" /><rect x="84" y="48" width="12" height="12" rx="2" ry="2" /><rect x="111" y="23" width="12" height="12" rx="2" ry="2" /><rect x="105" y="89" width="12" height="12" rx="2" ry="2" /></g><g font-size="9" font-family="Verdana" fill="#888888"><text id="" x="20" y="38" dominant-baseline="central" text-anchor="middle">0</text><text id="" x="70" y="-11" dominant-baseline="central" text-anchor="middle">1</text><text id="" x="70" y="118" dominant-baseline="central" text-anchor="middle">2</text><text id="" x="160" y="38" dominant-baseline="central" text-anchor="middle">3</text></g></g><g transform="translate(230,50) scale(1)"><g fill="#ffffff" stroke="#a0a0a0" stroke-width="1"><rect x="-14" y="-14" width="28" height="28" rx="0" ry="0" /><rect x="18" y="-14" width="28" height="28" rx="0" ry="0" /><rect x="50" y="-14" width="28" height="28" rx="0" ry="0" /><rect x="82" y="-14" width="28" height="28" rx="0" ry="0" /><rect x="-14" y="18" width="28" height="28" rx="0" ry="0" /><rect x="18" y="18" width="28" height="28" rx="0" ry="0" /><rect x="50" y="18" width="28" height="28" rx="0" ry="0" /><rect x="82" y="18" width="28" height="28" rx="0" ry="0" /><rect x="-14" y="50" width="28" height="28" rx="0" ry="0" /><rect x="18" y="50" width="28" height="28" rx="0" ry="0" /><rect x="50" y="50" width="28" height="28" rx="0" ry="0" /><rect x="82" y="50" width="28" height="28" rx="0" ry="0" /><rect x="-14" y="82" width="28" height="28" rx="0" ry="0" /><rect x="18" y="82" width="28" height="28" rx="0" ry="0" /><rect x="50" y="82" width="28" height="28" rx="0" ry="0" /><rect x="82" y="82" width="28" height="28" rx="0" ry="0" /></g><g font-size="9" font-family="Verdana" fill="#888888"><text id="" x="0" y="-25" dominant-baseline="central" text-anchor="middle">0</text><text id="" x="32" y="-25" dominant-baseline="central" text-anchor="middle">1</text><text id="" x="64" y="-25" dominant-baseline="central" text-anchor="middle">2</text><text id="" x="96" y="-25" dominant-baseline="central" text-anchor="middle">3</text><text id="" x="-25" y="0" dominant-baseline="end" text-anchor="middle">0</text><text id="" x="-25" y="32" dominant-baseline="end" text-anchor="middle">1</text><text id="" x="-25" y="64" dominant-baseline="end" text-anchor="middle">2</text><text id="" x="-25" y="96" dominant-baseline="end" text-anchor="middle">3</text></g></g><g transform="translate(230,50) scale(1)"><g class="flash_g" fill="#ff1493" stroke="#ff1493" stroke-width="1"><rect x="18" y="-14" width="28" height="28" rx="0" ry="0" /></g><g fill="none" stroke="#a0a0a0" stroke-width="1"><rect x="18" y="-14" width="28" height="28" rx="0" ry="0" /></g></g><g transform="translate(230,50) scale(1)"><g class="flash_g" fill="#ffffff" stroke="#ff1493" stroke-width="2"><rect x="50" y="-14" width="28" height="28" rx="0" ry="0" /></g></g><g transform="translate(230,50) scale(1)"><g class="flash_g" fill="#ffffff" stroke="#ff1493" stroke-width="2"><rect x="18" y="50" width="28" height="28" rx="0" ry="0" /></g></g><g transform="translate(10,25) scale(1)"><g class="flash_g" fill="#ff1493" stroke="#a0a0a0" stroke-width="1"><rect x="39" y="29" width="12" height="12" rx="2" ry="2" /></g></g><g transform="translate(10,25) scale(1)"><g class="flash_g" fill="#ffffff" stroke="#ff1493" stroke-width="2"><rect x="39" y="94" width="12" height="12" rx="2" ry="2" /><rect x="64" y="69" width="12" height="12" rx="2" ry="2" /></g></g><g transform="translate(10,25) scale(1)"><g font-size="11" font-family="sans-serif" fill="#888888"><text id="" x="45" y="35" dominant-baseline="central" text-anchor="middle">3</text><text id="" x="45" y="100" dominant-baseline="central" text-anchor="middle">1</text><text id="" x="90" y="66" dominant-baseline="central" text-anchor="middle">12</text><text id="" x="112" y="40" dominant-baseline="central" text-anchor="middle">7</text><text id="" x="70" y="75" dominant-baseline="central" text-anchor="middle">2</text><text id="" x="118" y="104" dominant-baseline="central" text-anchor="middle">9</text><text id="" x="90" y="54" dominant-baseline="central" text-anchor="middle">3</text><text id="" x="117" y="29" dominant-baseline="central" text-anchor="middle">8</text><text id="" x="111" y="95" dominant-baseline="central" text-anchor="middle">4</text></g></g><g transform="translate(230,50) scale(1)"><g stroke-width="0"><circle cx="0" cy="0" r="10" fill="#8FCFFF" id="var_dist_6__0" /><circle cx="32" cy="0" r="10" fill="#80C0FF" id="var_dist_6__1" /><circle cx="64" cy="0" r="10" fill="#8ACAFF" id="var_dist_6__2" /><circle cx="96" cy="0" r="10" fill="#5393FF" id="var_dist_6__3" /><circle cx="0" cy="32" r="10" fill="#4080f0" id="var_dist_6__4" /><circle cx="32" cy="32" r="10" fill="#8FCFFF" id="var_dist_6__5" /><circle cx="64" cy="32" r="10" fill="#4080f0" id="var_dist_6__6" /><circle cx="96" cy="32" r="10" fill="#6CACFF" id="var_dist_6__7" /><circle cx="0" cy="64" r="10" fill="#4080f0" id="var_dist_6__8" /><circle cx="32" cy="64" r="10" fill="#85C5FF" id="var_dist_6__9" /><circle cx="64" cy="64" r="10" fill="#8FCFFF" id="var_dist_6__10" /><circle cx="96" cy="64" r="10" fill="#62A2FF" id="var_dist_6__11" /><circle cx="0" cy="96" r="10" fill="#80C0FF" id="var_dist_6__12" /><circle cx="32" cy="96" r="10" fill="#67A7FF" id="var_dist_6__13" /><circle cx="64" cy="96" r="10" fill="#7BBBFF" id="var_dist_6__14" /><circle cx="96" cy="96" r="10" fill="#8FCFFF" id="var_dist_6__15" /></g><g font-size="14" font-family="sans-serif" fill="#ffffff"><text id="text_dist_6__0" x="0" y="0" dominant-baseline="central" text-anchor="middle">0</text><text id="text_dist_6__1" x="32" y="0" dominant-baseline="central" text-anchor="middle">3</text><text id="text_dist_6__2" x="64" y="0" dominant-baseline="central" text-anchor="middle">1</text><text id="text_dist_6__3" x="96" y="0" dominant-baseline="central" text-anchor="middle">12</text><text id="text_dist_6__4" x="0" y="32" dominant-baseline="central" text-anchor="middle">∞</text><text id="text_dist_6__5" x="32" y="32" dominant-baseline="central" text-anchor="middle">0</text><text id="text_dist_6__6" x="64" y="32" dominant-baseline="central" text-anchor="middle">∞</text><text id="text_dist_6__7" x="96" y="32" dominant-baseline="central" text-anchor="middle">7</text><text id="text_dist_6__8" x="0" y="64" dominant-baseline="central" text-anchor="middle">∞</text><text id="text_dist_6__9" x="32" y="64" dominant-baseline="central" text-anchor="middle">2</text><text id="text_dist_6__10" x="64" y="64" dominant-baseline="central" text-anchor="middle">0</text><text id="text_dist_6__11" x="96" y="64" dominant-baseline="central" text-anchor="middle">9</text><text id="text_dist_6__12" x="0" y="96" dominant-baseline="central" text-anchor="middle">3</text><text id="text_dist_6__13" x="32" y="96" dominant-baseline="central" text-anchor="middle">8</text><text id="text_dist_6__14" x="64" y="96" dominant-baseline="central" text-anchor="middle">4</text><text id="text_dist_6__15" x="96" y="96" dominant-baseline="central" text-anchor="middle">0</text></g><circle cx="64" cy="0" r="10" fill="#8ACAFF" id="var_dist_6__2_copy" /><g font-size="14" font-family="sans-serif" fill="#ffffff"><text id="text_dist_6__2_copy" x="64" y="0" dominant-baseline="central" text-anchor="middle">1</text></g><animateMotion xlink:href="#var_dist_6__2_copy" fill="freeze" begin="0s;accumulate.end" path="M0 0 L -32 0" dur="0.9s" repeatCount="1"/><animateMotion xlink:href="#text_dist_6__2_copy"  fill="freeze" begin="0s;accumulate.end"  path="M0 0 L -32 0" dur="0.9s" repeatCount="1"/><g fill="none" stroke="#60a0ff" stroke-width="4" stroke-linecap="round" stroke-dasharray="0.1, 8"><path class="for_print" d="M 50 0 L 46 0"  marker-end="url(#token_arrow)"/></g><animate xlink:href="#var_dist_6__2_copy" calcMode="spline" keyTimes="0;1" keySplines="1.0 0 1.0 1.0" fill="freeze" begin="0s;accumulate.end" from="1" to="0" attributeName="opacity" dur="0.9s" repeatCount="1"/><animate xlink:href="#text_dist_6__2_copy" calcMode="spline" keyTimes="0;1" keySplines="1.0 0 1.0 1.0"  fill="freeze" begin="0s;accumulate.end" from="1" to="0" attributeName="opacity" dur="0.9s" repeatCount="1"/><circle cx="32" cy="64" r="10" fill="#85C5FF" id="var_dist_6__9_copy" /><g font-size="14" font-family="sans-serif" fill="#ffffff"><text id="text_dist_6__9_copy" x="32" y="64" dominant-baseline="central" text-anchor="middle">2</text></g><animateMotion xlink:href="#var_dist_6__9_copy" fill="freeze" begin="0s;accumulate.end" path="M0 0 L 0 -64" dur="0.9s" repeatCount="1"/><animateMotion xlink:href="#text_dist_6__9_copy"  fill="freeze" begin="0s;accumulate.end"  path="M0 0 L 0 -64" dur="0.9s" repeatCount="1"/><g fill="none" stroke="#60a0ff" stroke-width="4" stroke-linecap="round" stroke-dasharray="0.1, 8"><path class="for_print" d="M 32 50 L 32 14"  marker-end="url(#token_arrow)"/></g><animate xlink:href="#var_dist_6__9_copy" calcMode="spline" keyTimes="0;1" keySplines="1.0 0 1.0 1.0" fill="freeze" begin="0s;accumulate.end" from="1" to="0" attributeName="opacity" dur="0.9s" repeatCount="1"/><animate xlink:href="#text_dist_6__9_copy" calcMode="spline" keyTimes="0;1" keySplines="1.0 0 1.0 1.0"  fill="freeze" begin="0s;accumulate.end" from="1" to="0" attributeName="opacity" dur="0.9s" repeatCount="1"/></g><text x="16" y="20" font-size="16" text-anchor="middle" fill="#888888" font-family="sans-serif" >2-5</text><text x="180" y="184" font-size="9" text-anchor="middle"  font-family="Hiragino Kaku Gothic ProN, メイリオ, sans-serif">更新經過節點 2 的最短距離。</text></svg>

