<?xml version="1.0" encoding="UTF-8" standalone="no"?>
<svg
xmlns:svg="http://www.w3.org/2000/svg"
xmlns="http://www.w3.org/2000/svg"
xmlns:xlink="http://www.w3.org/1999/xlink"
viewBox ="0 0 280 200"
>
<defs><polygon points="0,0 6,6 0,12 18,6" id="m_tmpl2"/><marker id="token_arrow" markerUnits="strokeWidth" markerWidth="18" markerHeight="12" viewBox="0 0 18 12" refX="18" refY="6" orient="auto"><use xlink:href="#m_tmpl2" fill="#0000f0"/></marker></defs><rect x ="0" y="0" width="280" height="200" fill="#ffffff" stroke="#888888" stroke-width="1"/><g transform="translate(80,80) scale(1)"><g fill="#ffffff" stroke="#a0a0a0" stroke-width="1"><rect x="-14" y="-14" width="28" height="28" rx="4" ry="4" /></g></g><g transform="translate(200,80) scale(1)"><g fill="#ffffff" stroke="#a0a0a0" stroke-width="1"><rect x="-14" y="-14" width="28" height="28" rx="4" ry="4" /></g></g><g transform="translate(140,140) scale(1)"><g fill="#ffffff" stroke="#a0a0a0" stroke-width="1"><rect x="-14" y="-14" width="28" height="28" rx="4" ry="4" /></g></g><g transform="translate(80,80) scale(1)"><g stroke-width="0"><circle cx="0" cy="0" r="10" fill="#4F8FFF" opacity="1" /></g><g font-size="14" font-family="sans-serif" fill="#ffffff"><text x="0" y="0" dominant-baseline="central" text-anchor="middle">8</text></g><g font-size="14" font-family="sans-serif" fill="#4080f0"><text x="-28" y="0" dominant-baseline="central" text-anchor="middle">x</text></g></g><g transform="translate(200,80) scale(1)"><g stroke-width="0"><circle cx="0" cy="0" r="10" fill="#67A7FF" opacity="1" /></g><g font-size="14" font-family="sans-serif" fill="#ffffff"><text x="0" y="0" dominant-baseline="central" text-anchor="middle">5</text></g><g font-size="14" font-family="sans-serif" fill="#4080f0"><text x="-28" y="0" dominant-baseline="central" text-anchor="middle">y</text></g></g><g transform="translate(140,140) scale(1)"><g stroke-width="0"><circle cx="0" cy="0" r="10" fill="#8FCFFF" opacity="1" /></g><g font-size="14" font-family="sans-serif" fill="#ffffff"><text x="0" y="0" dominant-baseline="central" text-anchor="middle">0</text></g><g font-size="14" font-family="sans-serif" fill="#4080f0"><text x="-28" y="0" dominant-baseline="central" text-anchor="middle">max</text></g></g><text x="16" y="20" font-size="16" text-anchor="middle" fill="#888888" font-family="sans-serif" >1</text></svg>

