<?xml version="1.0" encoding="UTF-8" standalone="no"?>
<svg
xmlns:svg="http://www.w3.org/2000/svg"
xmlns="http://www.w3.org/2000/svg"
xmlns:xlink="http://www.w3.org/1999/xlink"
width ="1184"
height ="216"
viewBox ="0 0 1184 216"
>
<defs><polygon points="0,0 6,6 0,12 18,6" id="m_tmpl2"/><marker id="token_arrow" markerUnits="strokeWidth" markerWidth="18" markerHeight="12" viewBox="0 0 18 12" refX="18" refY="6" orient="auto"><use xlink:href="#m_tmpl2" fill="#0000f0"/></marker></defs><defs><polygon points="0,0 0,4 0,8 16,4" id="m_tmpl3"/><marker id="link_arrow" markerUnits="strokeWidth" markerWidth="16" markerHeight="8" viewBox="0 0 16 8" refX="16" refY="4" orient="auto"><use xlink:href="#m_tmpl3" fill="#000000"/></marker></defs><rect x ="0" y="0" width="280" height="200" fill="#ffffff" stroke="#888888" stroke-width="1"/><text transform="rotate(-35, 16,180)" x="16" y="180" font-size="24" text-anchor="left" fill="#e8e8e8"  font-family="Arial">UNDER CONSTRUCTION</text><g transform="translate(0,0)"><g transform="translate(80,80) scale(1)"><g fill="#ffffff" stroke="#a0a0a0" stroke-width="1"><rect x="-14" y="-14" width="28" height="28" rx="4" ry="4" /></g></g><g transform="translate(200,80) scale(1)"><g fill="#ffffff" stroke="#a0a0a0" stroke-width="1"><rect x="-14" y="-14" width="28" height="28" rx="4" ry="4" /></g></g><g transform="translate(140,140) scale(1)"><g fill="#ffffff" stroke="#a0a0a0" stroke-width="1"><rect x="-14" y="-14" width="28" height="28" rx="4" ry="4" /></g></g><g transform="translate(80,80) scale(1)"><g stroke-width="0"><circle cx="0" cy="0" r="10" fill="#4F8FFF" opacity="1" /></g><g font-size="14" font-family="sans-serif" fill="#ffffff"><text x="0" y="0" dominant-baseline="central" text-anchor="middle">8</text></g><g font-size="14" font-family="sans-serif" fill="#4080f0"><text x="-28" y="0" dominant-baseline="central" text-anchor="middle">x</text></g></g><g transform="translate(200,80) scale(1)"><g stroke-width="0"><circle cx="0" cy="0" r="10" fill="#67A7FF" opacity="1" /></g><g font-size="14" font-family="sans-serif" fill="#ffffff"><text x="0" y="0" dominant-baseline="central" text-anchor="middle">5</text></g><g font-size="14" font-family="sans-serif" fill="#4080f0"><text x="-28" y="0" dominant-baseline="central" text-anchor="middle">y</text></g></g><g transform="translate(140,140) scale(1)"><g stroke-width="0"><circle cx="0" cy="0" r="10" fill="#8FCFFF" opacity="1" /></g><g font-size="14" font-family="sans-serif" fill="#ffffff"><text x="0" y="0" dominant-baseline="central" text-anchor="middle">0</text></g><g font-size="14" font-family="sans-serif" fill="#4080f0"><text x="-28" y="0" dominant-baseline="central" text-anchor="middle">max</text></g></g></g><text x="16" y="20" font-size="16" text-anchor="middle" fill="#888888" font-family="sans-serif" >1</text><rect x ="296" y="0" width="280" height="200" fill="#ffffff" stroke="#888888" stroke-width="1"/><text transform="rotate(-35, 312,180)" x="312" y="180" font-size="24" text-anchor="left" fill="#e8e8e8"  font-family="Arial">UNDER CONSTRUCTION</text><g transform="translate(296,0)"><g transform="translate(80,80) scale(1)"><g fill="#ffffff" stroke="#a0a0a0" stroke-width="1"><rect x="-14" y="-14" width="28" height="28" rx="4" ry="4" /></g></g><g transform="translate(200,80) scale(1)"><g fill="#ffffff" stroke="#a0a0a0" stroke-width="1"><rect x="-14" y="-14" width="28" height="28" rx="4" ry="4" /></g></g><g transform="translate(140,140) scale(1)"><g fill="#ffffff" stroke="#a0a0a0" stroke-width="1"><rect x="-14" y="-14" width="28" height="28" rx="4" ry="4" /></g></g><g transform="translate(260,20) scale(1)"><g fill="#ffffff" stroke="#a0a0a0" stroke-width="1"><path d="M -14 0 L 0-14 L 14 0 L 0 14 L -14 0 z" /></g></g><g transform="translate(80,80) scale(1)"><g class="flash_g" fill="#ffffff" stroke="#ffa0a0" stroke-width="2"><rect x="-14" y="-14" width="28" height="28" rx="4" ry="4" /></g></g><g transform="translate(200,80) scale(1)"><g class="flash_g" fill="#ffffff" stroke="#ffa0a0" stroke-width="2"><rect x="-14" y="-14" width="28" height="28" rx="4" ry="4" /></g></g><g transform="translate(260,20) scale(1)"><g class="flash_g" fill="#ffffff" stroke="#ffa0a0" stroke-width="2"  ><path d="M 0 -14 L 14 0 L 0 14 L -14 0 z"  /><path d="M 0 -14 L -14 0 L 0 14 z" fill="#ffa0a0" stroke-width="0" /></g></g><g transform="translate(80,80) scale(1)"><g stroke-width="0"><circle cx="0" cy="0" r="10" fill="#4F8FFF" opacity="1" /></g><g font-size="14" font-family="sans-serif" fill="#ffffff"><text x="0" y="0" dominant-baseline="central" text-anchor="middle">8</text></g><g font-size="14" font-family="sans-serif" fill="#4080f0"><text x="-28" y="0" dominant-baseline="central" text-anchor="middle">x</text></g></g><g transform="translate(200,80) scale(1)"><g stroke-width="0"><circle cx="0" cy="0" r="10" fill="#67A7FF" opacity="1" /></g><g font-size="14" font-family="sans-serif" fill="#ffffff"><text x="0" y="0" dominant-baseline="central" text-anchor="middle">5</text></g><g font-size="14" font-family="sans-serif" fill="#4080f0"><text x="-28" y="0" dominant-baseline="central" text-anchor="middle">y</text></g></g><g transform="translate(140,140) scale(1)"><g stroke-width="0"><circle cx="0" cy="0" r="10" fill="#8FCFFF" opacity="1" /></g><g font-size="14" font-family="sans-serif" fill="#ffffff"><text x="0" y="0" dominant-baseline="central" text-anchor="middle">0</text></g><g font-size="14" font-family="sans-serif" fill="#4080f0"><text x="-28" y="0" dominant-baseline="central" text-anchor="middle">max</text></g></g></g><text x="312" y="20" font-size="16" text-anchor="middle" fill="#888888" font-family="sans-serif" >2</text><text x="436" y="184" font-size="9" text-anchor="middle">大小関係を比較する</text><rect x ="592" y="0" width="280" height="200" fill="#ffffff" stroke="#888888" stroke-width="1"/><text transform="rotate(-35, 608,180)" x="608" y="180" font-size="24" text-anchor="left" fill="#e8e8e8"  font-family="Arial">UNDER CONSTRUCTION</text><g transform="translate(592,0)"><g transform="translate(80,80) scale(1)"><g fill="#ffffff" stroke="#a0a0a0" stroke-width="1"><rect x="-14" y="-14" width="28" height="28" rx="4" ry="4" /></g></g><g transform="translate(200,80) scale(1)"><g fill="#ffffff" stroke="#a0a0a0" stroke-width="1"><rect x="-14" y="-14" width="28" height="28" rx="4" ry="4" /></g></g><g transform="translate(140,140) scale(1)"><g fill="#ffffff" stroke="#a0a0a0" stroke-width="1"><rect x="-14" y="-14" width="28" height="28" rx="4" ry="4" /></g></g><g transform="translate(80,80) scale(1)"><g class="flash_g" fill="#ffffff" stroke="#ffa0a0" stroke-width="2"><rect x="-14" y="-14" width="28" height="28" rx="4" ry="4" /></g></g><g transform="translate(140,140) scale(1)"><g class="flash_g" fill="#ffa0a0" stroke="#ffa0a0" stroke-width="1"><rect x="-14" y="-14" width="28" height="28" rx="4" ry="4" /></g></g><g stroke="#8888ff scale(1)"><g fill="none" stroke="#0000f0" stroke-width="1"><line x1="87.0711" y1="87.0711" x2="132.929" y2="132.929"  marker-end="url(#token_arrow)"/></g><circle cx="0" cy="0" r="0" fill="#8888ff" ><animateMotion path="M80,80 T140,140 " dur="1s" repeatCount="1"/><animate attributeName="r" from="10" to="10" dur="1s" repeatCount="1" /></circle></g><g transform="translate(80,80) scale(1)"><g transform="translate(0,-14) rotate(0)" fill="#ff4040"><path d="M 0 0 L 8 -10 L 4 -10 L 4 -26 L -4 -26 L -4 -10 L -8 -10 z"/></g></g><g transform="translate(80,80) scale(1)"><g stroke-width="0"><circle cx="0" cy="0" r="10" fill="#4F8FFF" opacity="1" /></g><g font-size="14" font-family="sans-serif" fill="#ffffff"><text x="0" y="0" dominant-baseline="central" text-anchor="middle">8</text></g><g font-size="14" font-family="sans-serif" fill="#4080f0"><text x="-28" y="0" dominant-baseline="central" text-anchor="middle">x</text></g></g><g transform="translate(200,80) scale(1)"><g stroke-width="0"><circle cx="0" cy="0" r="10" fill="#67A7FF" opacity="1" /></g><g font-size="14" font-family="sans-serif" fill="#ffffff"><text x="0" y="0" dominant-baseline="central" text-anchor="middle">5</text></g><g font-size="14" font-family="sans-serif" fill="#4080f0"><text x="-28" y="0" dominant-baseline="central" text-anchor="middle">y</text></g></g><g transform="translate(140,140) scale(1)"><g stroke-width="0"><circle cx="0" cy="0" r="10" fill="#4F8FFF" opacity="1" /></g><g font-size="14" font-family="sans-serif" fill="#ffffff"><text x="0" y="0" dominant-baseline="central" text-anchor="middle">8</text></g><g font-size="14" font-family="sans-serif" fill="#4080f0"><text x="-28" y="0" dominant-baseline="central" text-anchor="middle">max</text></g></g></g><text x="608" y="20" font-size="16" text-anchor="middle" fill="#888888" font-family="sans-serif" >3</text><text x="732" y="184" font-size="9" text-anchor="middle">8 を選択する</text><rect x ="888" y="0" width="280" height="200" fill="#ffffff" stroke="#888888" stroke-width="1"/><text transform="rotate(-35, 904,180)" x="904" y="180" font-size="24" text-anchor="left" fill="#e8e8e8"  font-family="Arial">UNDER CONSTRUCTION</text><g transform="translate(888,0)"><g transform="translate(80,80) scale(1)"><g fill="#ffffff" stroke="#a0a0a0" stroke-width="1"><rect x="-14" y="-14" width="28" height="28" rx="4" ry="4" /></g></g><g transform="translate(200,80) scale(1)"><g fill="#ffffff" stroke="#a0a0a0" stroke-width="1"><rect x="-14" y="-14" width="28" height="28" rx="4" ry="4" /></g></g><g transform="translate(140,140) scale(1)"><g fill="#ffffff" stroke="#a0a0a0" stroke-width="1"><rect x="-14" y="-14" width="28" height="28" rx="4" ry="4" /></g></g><g transform="translate(80,80) scale(1)"><g stroke-width="0"><circle cx="0" cy="0" r="10" fill="#4F8FFF" opacity="1" /></g><g font-size="14" font-family="sans-serif" fill="#ffffff"><text x="0" y="0" dominant-baseline="central" text-anchor="middle">8</text></g><g font-size="14" font-family="sans-serif" fill="#4080f0"><text x="-28" y="0" dominant-baseline="central" text-anchor="middle">x</text></g></g><g transform="translate(200,80) scale(1)"><g stroke-width="0"><circle cx="0" cy="0" r="10" fill="#67A7FF" opacity="1" /></g><g font-size="14" font-family="sans-serif" fill="#ffffff"><text x="0" y="0" dominant-baseline="central" text-anchor="middle">5</text></g><g font-size="14" font-family="sans-serif" fill="#4080f0"><text x="-28" y="0" dominant-baseline="central" text-anchor="middle">y</text></g></g><g transform="translate(140,140) scale(1)"><g stroke-width="0"><circle cx="0" cy="0" r="10" fill="#4F8FFF" opacity="1" /></g><g font-size="14" font-family="sans-serif" fill="#ffffff"><text x="0" y="0" dominant-baseline="central" text-anchor="middle">8</text></g><g font-size="14" font-family="sans-serif" fill="#4080f0"><text x="-28" y="0" dominant-baseline="central" text-anchor="middle">max</text></g></g></g><text x="904" y="20" font-size="16" text-anchor="middle" fill="#888888" font-family="sans-serif" >4</text></svg>

