<?xml version="1.0" encoding="UTF-8" standalone="no"?>
<svg
xmlns:svg="http://www.w3.org/2000/svg"
xmlns="http://www.w3.org/2000/svg"
xmlns:xlink="http://www.w3.org/1999/xlink"
viewBox ="0 0 280 220"
>
<defs><polygon points="0,0 6,8, 0,16 20,8" id="m_tmpl2"/><marker id="token_arrow"  markerUnits="userSpaceOnUse" markerWidth="20" markerHeight="16" viewBox="0 0 20 16" refX="14" refY="8" orient="auto"><use xlink:href="#m_tmpl2" fill="#60a0ff"/></marker></defs><defs><polygon points="0,0 0,4 0,8 12,4" id="m_tmpl3"/><marker id="link_arrow" markerUnits="strokeWidth" markerWidth="12" markerHeight="8" viewBox="0 0 12 8" refX="12" refY="4" orient="auto"><use xlink:href="#m_tmpl3" fill="#888888"/></marker></defs><rect x ="0" y="0" width="280" height="220" fill="#ffffff" stroke="#a0a0a0" stroke-width="0"/><g transform="translate(0,0) scale(1)"><g stroke="#e0e0ff" stroke-width="1"><line x1="20"  y1="100" x2="30" y2="180" stroke-linecap="round"/><line x1="30"  y1="180" x2="60" y2="50" stroke-linecap="round"/><line x1="60"  y1="50" x2="70" y2="120" stroke-linecap="round"/><line x1="70"  y1="120" x2="100" y2="30" stroke-linecap="round"/><line x1="100"  y1="30" x2="110" y2="80" stroke-linecap="round"/><line x1="110"  y1="80" x2="120" y2="120" stroke-linecap="round"/><line x1="120"  y1="120" x2="170" y2="145" stroke-linecap="round"/><line x1="170"  y1="145" x2="170" y2="100" stroke-linecap="round"/><line x1="170"  y1="100" x2="170" y2="40" stroke-linecap="round"/><line x1="170"  y1="40" x2="210" y2="100" stroke-linecap="round"/></g></g><g transform="translate(0,0) scale(1)"><g stroke="#0000ff" stroke-width="1"><line x1="20"  y1="100" x2="30" y2="180" stroke-linecap="round"/></g></g><g transform="translate(0,0) scale(1)"><g stroke="#e0e0ff" stroke-width="1"><line x1="20"  y1="100" x2="30" y2="180" stroke-linecap="round"/><line x1="30"  y1="180" x2="60" y2="50" stroke-linecap="round"/><line x1="60"  y1="50" x2="70" y2="120" stroke-linecap="round"/><line x1="70"  y1="120" x2="100" y2="30" stroke-linecap="round"/><line x1="100"  y1="30" x2="110" y2="80" stroke-linecap="round"/><line x1="110"  y1="80" x2="120" y2="120" stroke-linecap="round"/><line x1="120"  y1="120" x2="170" y2="145" stroke-linecap="round"/><line x1="170"  y1="145" x2="170" y2="100" stroke-linecap="round"/><line x1="170"  y1="100" x2="170" y2="40" stroke-linecap="round"/><line x1="170"  y1="40" x2="210" y2="100" stroke-linecap="round"/></g></g><g transform="translate(0,0) scale(1)"><g stroke="#ffe0e0" stroke-width="20"><line x1="20"  y1="100" x2="30" y2="180" stroke-linecap="round"/><line x1="30"  y1="180" x2="60" y2="50" stroke-linecap="round"/></g></g><g transform="translate(0,0) scale(1)"><g stroke="#0000ff" stroke-width="1"><line x1="20"  y1="100" x2="30" y2="180" stroke-linecap="round"/></g></g><g transform="translate(0,0) scale(1)"><g fill="#ffffff" stroke="#a0a0a0" stroke-width="1"><circle cx="210" cy="100" r="6" /><circle cx="70" cy="120" r="6" /><circle cx="20" cy="100" r="6" /><circle cx="30" cy="180" r="6" /><circle cx="170" cy="40" r="6" /><circle cx="170" cy="100" r="6" /><circle cx="110" cy="80" r="6" /><circle cx="100" cy="30" r="6" /><circle cx="60" cy="50" r="6" /><circle cx="170" cy="145" r="6" /><circle cx="120" cy="120" r="6" /></g><g font-size="8" font-family="sans-serif" fill="#888888"><text x="210" y="88" dominant-baseline="central" text-anchor="middle">0</text><text x="70" y="108" dominant-baseline="central" text-anchor="middle">1</text><text x="20" y="88" dominant-baseline="central" text-anchor="middle">2</text><text x="30" y="168" dominant-baseline="central" text-anchor="middle">3</text><text x="170" y="28" dominant-baseline="central" text-anchor="middle">4</text><text x="170" y="88" dominant-baseline="central" text-anchor="middle">5</text><text x="110" y="68" dominant-baseline="central" text-anchor="middle">6</text><text x="100" y="18" dominant-baseline="central" text-anchor="middle">7</text><text x="60" y="38" dominant-baseline="central" text-anchor="middle">8</text><text x="170" y="133" dominant-baseline="central" text-anchor="middle">9</text><text x="120" y="108" dominant-baseline="central" text-anchor="middle">10</text></g></g><g transform="translate(0,0) scale(1)"><g class="flash_g" fill="#ff1493" stroke="#ff1493" stroke-width="1"><circle cx="60" cy="50" r="6" /></g><g fill="none" stroke="#a0a0a0" stroke-width="1"><circle cx="60" cy="50" r="6" /></g></g><g transform="translate(0,0) scale(1)"><g class="flash_g" fill="#ffffff" stroke="#ff1493" stroke-width="2"><circle cx="20" cy="100" r="6" /></g></g><g transform="translate(0,0) scale(1)"><g class="flash_g" fill="#ffffff" stroke="#ff1493" stroke-width="2"><circle cx="30" cy="180" r="6" /></g></g><g transform="translate(0,0) scale(1)"><g class="flash_g" fill="#ffffff" stroke="#ff1493" stroke-width="2"><circle cx="60" cy="50" r="6" /></g></g><g transform="translate(252,28) scale(1)"><g class="flash_g" fill="#ffffff" stroke="#ff1493" stroke-width="1"  ><path d="M 0 -14 L -14 0 L 0 14 z" fill="#ff1493" stroke-width="0" /></g><g fill="none" stroke="#a0a0a0" stroke-width="1"><path d="M 0 -14 L 14 0 L 0 14 L -14 0 z"  /></g></g><g transform="translate(240,80) scale(0.6)"><g fill="#ffffff" stroke="#a0a0a0" stroke-width="1"><rect x="-14" y="146" width="28" height="28" rx="4" ry="4" /><rect x="-14" y="114" width="28" height="28" rx="4" ry="4" /><rect x="-14" y="82" width="28" height="28" rx="4" ry="4" /><rect x="-14" y="50" width="28" height="28" rx="4" ry="4" /><rect x="-14" y="18" width="28" height="28" rx="4" ry="4" /><rect x="-14" y="-14" width="28" height="28" rx="4" ry="4" /></g><g font-size="9" font-family="Verdana" fill="#888888"><text id="" x="-22" y="160" dominant-baseline="central" text-anchor="middle">0</text><text id="" x="-22" y="128" dominant-baseline="central" text-anchor="middle">1</text><text id="" x="-22" y="96" dominant-baseline="central" text-anchor="middle">2</text><text id="" x="-22" y="64" dominant-baseline="central" text-anchor="middle">3</text><text id="" x="-22" y="32" dominant-baseline="central" text-anchor="middle">4</text><text id="" x="-22" y="0" dominant-baseline="central" text-anchor="middle">5</text></g></g><g transform="translate(240,80) scale(0.6)"><g fill="#ffffff" stroke="#a0a0a0" stroke-width="1"><rect x="-14" y="146" width="28" height="28" rx="4" ry="4" /><rect x="-14" y="114" width="28" height="28" rx="4" ry="4" /><rect x="-14" y="82" width="28" height="28" rx="4" ry="4" /><rect x="-14" y="50" width="28" height="28" rx="4" ry="4" /><rect x="-14" y="18" width="28" height="28" rx="4" ry="4" /><rect x="-14" y="-14" width="28" height="28" rx="4" ry="4" /></g><g font-size="9" font-family="Verdana" fill="#888888"><text id="" x="-22" y="160" dominant-baseline="central" text-anchor="middle">0</text><text id="" x="-22" y="128" dominant-baseline="central" text-anchor="middle">1</text><text id="" x="-22" y="96" dominant-baseline="central" text-anchor="middle">2</text><text id="" x="-22" y="64" dominant-baseline="central" text-anchor="middle">3</text><text id="" x="-22" y="32" dominant-baseline="central" text-anchor="middle">4</text><text id="" x="-22" y="0" dominant-baseline="central" text-anchor="middle">5</text></g></g><g transform="translate(240,80) scale(0.6)"><g class="flash_g" fill="#ffffff" stroke="#ff8c00" stroke-width="2"><rect x="-14" y="114" width="28" height="28" rx="4" ry="4" /></g></g><g transform="translate(240,80) scale(0.6)"><g class="flash_g" fill="#ffffff" stroke="#ff8c00" stroke-width="2"><rect x="-14" y="114" width="28" height="28" rx="4" ry="4" /></g></g><g transform="translate(240,80) scale(0.6)"><g class="flash_g" transform="translate(14,128) rotate(90)" fill="#ff1493"><path d="M 0 0 L 8 -10 L 4 -10 L 4 -26 L -4 -26 L -4 -10 L -8 -10 z"/></g></g><g transform="translate(240,80) scale(0.6)"><g class="flash_g" transform="translate(14,128) rotate(90)" fill="#ff1493"><path d="M 0 0 L 8 -10 L 4 -10 L 4 -26 L -4 -26 L -4 -10 L -8 -10 z"/></g></g><g transform="translate(240,80) scale(0.6)"><g stroke-width="0"><circle cx="0" cy="160" r="10" fill="#d0d0d0" id="var_S_3__0" /><circle cx="0" cy="128" r="10" fill="#d0d0d0" id="var_S_3__1" /></g><g font-size="14" font-family="sans-serif" fill="#888888"><text id="text_S_3__0" x="0" y="160" dominant-baseline="central" text-anchor="middle">2</text><text id="text_S_3__1" x="0" y="128" dominant-baseline="central" text-anchor="middle">3</text></g></g><g transform="translate(240,80) scale(0.6)"><g stroke-width="0"><circle cx="0" cy="160" r="10" fill="#d0d0d0" id="var_S_4__0" /><circle cx="0" cy="128" r="10" fill="#d0d0d0" id="var_S_4__1" /></g><g font-size="14" font-family="sans-serif" fill="#888888"><text id="text_S_4__0" x="0" y="160" dominant-baseline="central" text-anchor="middle">2</text><text id="text_S_4__1" x="0" y="128" dominant-baseline="central" text-anchor="middle">3</text></g></g><text x="16" y="20" font-size="16" text-anchor="middle" fill="#888888" font-family="sans-serif" >2-1</text><text x="140" y="204" font-size="9" text-anchor="middle"  font-family="Hiragino Kaku Gothic ProN, メイリオ, sans-serif">点の列2 &#8594; 3 &#8594; 8が反時計回りになるかどうかを調べます。</text></svg>

