<?xml version="1.0" encoding="UTF-8" standalone="no"?>
<svg
xmlns:svg="http://www.w3.org/2000/svg"
xmlns="http://www.w3.org/2000/svg"
xmlns:xlink="http://www.w3.org/1999/xlink"
width ="246"
height ="176"
viewBox ="0 0 246 176"
>
<defs><polygon points="0,0 6,6 0,12 18,6" id="m_tmpl2"/><marker id="token_arrow" markerUnits="strokeWidth" markerWidth="18" markerHeight="12" viewBox="0 0 18 12" refX="18" refY="6" orient="auto"><use xlink:href="#m_tmpl2" fill="#0000f0"/></marker></defs><g fill="#ffffff" stroke="#a0a0a0" stroke-width="1"><line x1="50" y1="50" x2="120" y2="30" stroke-linecap="round"/><line x1="50" y1="50" x2="100" y2="90" stroke-linecap="round"/><line x1="50" y1="50" x2="80" y2="150" stroke-linecap="round"/><line x1="50" y1="50" x2="30" y2="120" stroke-linecap="round"/><line x1="120" y1="30" x2="50" y2="50" stroke-linecap="round"/><line x1="120" y1="30" x2="100" y2="90" stroke-linecap="round"/><line x1="120" y1="30" x2="170" y2="90" stroke-linecap="round"/><line x1="100" y1="90" x2="50" y2="50" stroke-linecap="round"/><line x1="100" y1="90" x2="120" y2="30" stroke-linecap="round"/><line x1="100" y1="90" x2="170" y2="90" stroke-linecap="round"/><line x1="100" y1="90" x2="220" y2="150" stroke-linecap="round"/><line x1="100" y1="90" x2="80" y2="150" stroke-linecap="round"/><line x1="30" y1="120" x2="50" y2="50" stroke-linecap="round"/><line x1="30" y1="120" x2="80" y2="150" stroke-linecap="round"/><line x1="80" y1="150" x2="50" y2="50" stroke-linecap="round"/><line x1="80" y1="150" x2="100" y2="90" stroke-linecap="round"/><line x1="80" y1="150" x2="30" y2="120" stroke-linecap="round"/><line x1="80" y1="150" x2="220" y2="150" stroke-linecap="round"/><line x1="170" y1="90" x2="120" y2="30" stroke-linecap="round"/><line x1="170" y1="90" x2="100" y2="90" stroke-linecap="round"/><line x1="170" y1="90" x2="220" y2="150" stroke-linecap="round"/><line x1="220" y1="150" x2="100" y2="90" stroke-linecap="round"/><line x1="220" y1="150" x2="80" y2="150" stroke-linecap="round"/><line x1="220" y1="150" x2="170" y2="90" stroke-linecap="round"/><circle cx="50" cy="50" r="14" /><circle cx="120" cy="30" r="14" /><circle cx="100" cy="90" r="14" /><circle cx="30" cy="120" r="14" /><circle cx="80" cy="150" r="14" /><circle cx="170" cy="90" r="14" /><circle cx="220" cy="150" r="14" /></g></svg>

