<?xml version="1.0" encoding="UTF-8" standalone="no"?>
<svg
xmlns:svg="http://www.w3.org/2000/svg"
xmlns="http://www.w3.org/2000/svg"
xmlns:xlink="http://www.w3.org/1999/xlink"
viewBox ="0 0 480 280"
>
<animateMotion/><defs><polygon points="0,0 6,8, 0,16 20,8" id="m_tmpl2"/><marker id="token_arrow"  markerUnits="userSpaceOnUse" markerWidth="20" markerHeight="16" viewBox="0 0 20 16" refX="14" refY="8" orient="auto"><use xlink:href="#m_tmpl2" fill="#60a0ff"/></marker></defs><defs><polygon points="0,0 0,4 0,8 12,4" id="m_tmpl3"/><marker id="link_arrow" markerUnits="strokeWidth" markerWidth="12" markerHeight="8" viewBox="0 0 12 8" refX="12" refY="4" orient="auto"><use xlink:href="#m_tmpl3" fill="#888888"/></marker></defs><rect x ="0" y="0" width="480" height="280" fill="#ffffff" stroke="#a0a0a0" stroke-width="0"/><g transform="translate(40,40) scale(1)"><g fill="#ffffff" stroke="#a0a0a0" stroke-width="1"><line x1="80" y1="0" x2="40" y2="36" /><line x1="80" y1="0" x2="320" y2="36" /><circle cx="80" cy="0" r="20" /><line x1="40" y1="36" x2="0" y2="72" /><circle cx="40" cy="36" r="20" /><circle cx="0" cy="72" r="20" /><line x1="320" y1="36" x2="160" y2="72" /><line x1="320" y1="36" x2="360" y2="72" /><circle cx="320" cy="36" r="20" /><line x1="160" y1="72" x2="120" y2="108" /><line x1="160" y1="72" x2="240" y2="108" /><circle cx="160" cy="72" r="20" /><circle cx="120" cy="108" r="20" /><line x1="240" y1="108" x2="200" y2="144" /><line x1="240" y1="108" x2="280" y2="144" /><circle cx="240" cy="108" r="20" /><circle cx="200" cy="144" r="20" /><circle cx="280" cy="144" r="20" /><circle cx="360" cy="72" r="20" /></g></g>
<g transform="translate(40,40) scale(1)"><g class="flash_g" fill="#ff8c00" stroke="#ff8c00" stroke-width="1"><circle cx="160" cy="72" r="20" /><circle cx="240" cy="108" r="20" /></g><g fill="none" stroke="#a0a0a0" stroke-width="1"><circle cx="160" cy="72" r="20" /><circle cx="240" cy="108" r="20" /></g></g><g transform="translate(40,40) scale(1)"><g class="flash_g" transform="translate(240,88) rotate(0)" fill="#da70d6"><path d="M 0 0 L 8 -10 L 4 -10 L 4 -26 L -4 -26 L -4 -10 L -8 -10 z"/></g></g><g transform="translate(40,40) scale(1)"><g fill="#2060f0" stroke-width="0"><path d="M 96,0 a 16 16 0 0 0 -32,0 z" fill="#4C8CFF" /><path d="M 56,36 a 16 16 0 0 0 -32,0 z" fill="#4D8DFF" /><path d="M 16,72 a 16 16 0 0 0 -32,0 z" fill="#4E8EFF" /><path d="M 336,36 a 16 16 0 0 0 -32,0 z" fill="#2969F9" /><path d="M 176,72 a 16 16 0 0 0 -32,0 z" fill="#4888FF" /><path d="M 136,108 a 16 16 0 0 0 -32,0 z" fill="#4B8BFF" /><path d="M 256,108 a 16 16 0 0 0 -32,0 z" fill="#3E7EFF" /><path d="M 216,144 a 16 16 0 0 0 -32,0 z" fill="#4585FF" /><path d="M 296,144 a 16 16 0 0 0 -32,0 z" fill="#3B7BFF" /><path d="M 376,72 a 16 16 0 0 0 -32,0 z" fill="#2666F6" /></g><g font-size="14" font-family="sans-serif" fill="#ffffff"><text id="" x="80" y="-7" dominant-baseline="central" text-anchor="middle">6</text><text id="" x="40" y="29" dominant-baseline="central" text-anchor="middle">3</text><text id="" x="0" y="65" dominant-baseline="central" text-anchor="middle">1</text><text id="" x="320" y="29" dominant-baseline="central" text-anchor="middle">80</text><text id="" x="160" y="65" dominant-baseline="central" text-anchor="middle">14</text><text id="" x="120" y="101" dominant-baseline="central" text-anchor="middle">7</text><text id="" x="240" y="101" dominant-baseline="central" text-anchor="middle">35</text><text id="" x="200" y="137" dominant-baseline="central" text-anchor="middle">21</text><text id="" x="280" y="137" dominant-baseline="central" text-anchor="middle">42</text><text id="" x="360" y="65" dominant-baseline="central" text-anchor="middle">86</text></g></g><g transform="translate(40,40) scale(1)"><g fill="#00c0d0" stroke-width="0"><path d="M 96,0 a 16 16 0 0 1 -32,0 z" fill="#04C4D4" /><path d="M 56,36 a 16 16 0 0 1 -32,0 z" fill="#09C9D9" /><path d="M 16,72 a 16 16 0 0 1 -32,0 z" fill="#16D6E6" /><path d="M 336,36 a 16 16 0 0 1 -32,0 z" fill="#0BCBDB" /><path d="M 176,72 a 16 16 0 0 1 -32,0 z" fill="#23E3F3" /><path d="M 136,108 a 16 16 0 0 1 -32,0 z" fill="#2AEAFA" /><path d="M 256,108 a 16 16 0 0 1 -32,0 z" fill="#00C0D0" /><path d="M 216,144 a 16 16 0 0 1 -32,0 z" fill="#29E9F9" /><path d="M 296,144 a 16 16 0 0 1 -32,0 z" fill="#2DEDFD" /><path d="M 376,72 a 16 16 0 0 1 -32,0 z" fill="#18D8E8" /></g><g font-size="14" font-family="sans-serif" fill="#ffffff"><text id="" x="80" y="7" dominant-baseline="central" text-anchor="middle">90</text><text id="" x="40" y="43" dominant-baseline="central" text-anchor="middle">80</text><text id="" x="0" y="79" dominant-baseline="central" text-anchor="middle">53</text><text id="" x="320" y="43" dominant-baseline="central" text-anchor="middle">76</text><text id="" x="160" y="79" dominant-baseline="central" text-anchor="middle">25</text><text id="" x="120" y="115" dominant-baseline="central" text-anchor="middle">10</text><text id="" x="240" y="115" dominant-baseline="central" text-anchor="middle">99</text><text id="" x="200" y="151" dominant-baseline="central" text-anchor="middle">12</text><text id="" x="280" y="151" dominant-baseline="central" text-anchor="middle">3</text><text id="" x="360" y="79" dominant-baseline="central" text-anchor="middle">47</text></g></g><text x="16" y="20" font-size="16" text-anchor="middle" fill="#888888" font-family="sans-serif" >1-10</text><text x="240" y="264" font-size="9" text-anchor="middle"  font-family="Hiragino Kaku Gothic ProN, メイリオ, sans-serif">進行右旋轉，將 (14, 25) 往上提。</text></svg>

